<svg width="44" height="44" viewBox="0 0 44 44" fill="none" xmlns="http://www.w3.org/2000/svg">
<g clip-path="url(#clip0_344_6886)">
<path d="M14.6663 5.5H29.333C30.3055 5.5 31.2381 5.88631 31.9257 6.57394C32.6134 7.26158 32.9997 8.19421 32.9997 9.16667V12.5033C32.9998 13.9264 33.3312 15.3299 33.9677 16.6027L35.6983 20.064C36.3348 21.3368 36.6662 22.7403 36.6663 24.1633V34.8333C36.6663 35.8058 36.28 36.7384 35.5924 37.4261C34.9048 38.1137 33.9721 38.5 32.9997 38.5H10.9997C10.0272 38.5 9.09458 38.1137 8.40695 37.4261C7.71932 36.7384 7.33301 35.8058 7.33301 34.8333V24.1633C7.3331 22.7403 7.66452 21.3368 8.30101 20.064L10.9997 14.6667V9.16667C10.9997 8.19421 11.386 7.26158 12.0736 6.57394C12.7612 5.88631 13.6939 5.5 14.6663 5.5Z" stroke="black" stroke-width="2.75" stroke-linecap="round" stroke-linejoin="round"/>
<path d="M22 27.4987C22 28.4712 22.3863 29.4038 23.0739 30.0914C23.7616 30.7791 24.6942 31.1654 25.6667 31.1654C26.6391 31.1654 27.5718 30.7791 28.2594 30.0914C28.947 29.4038 29.3333 28.4712 29.3333 27.4987C29.3333 26.5262 28.947 25.5936 28.2594 24.906C27.5718 24.2183 26.6391 23.832 25.6667 23.832C24.6942 23.832 23.7616 24.2183 23.0739 24.906C22.3863 25.5936 22 26.5262 22 27.4987Z" stroke="black" stroke-width="2.75" stroke-linecap="round" stroke-linejoin="round"/>
<path d="M11 38.5013C11.9725 38.5013 12.9051 38.115 13.5927 37.4274C14.2804 36.7397 14.6667 35.8071 14.6667 34.8346V24.1646C14.6666 22.7416 14.3352 21.3381 13.6987 20.0653L11 14.668" stroke="black" stroke-width="2.75" stroke-linecap="round" stroke-linejoin="round"/>
<path d="M20.167 12.832H23.8337" stroke="black" stroke-width="2.75" stroke-linecap="round" stroke-linejoin="round"/>
</g>
<defs>
<clipPath id="clip0_344_6886">
<rect width="44" height="44" fill="white"/>
</clipPath>
</defs>
</svg>
