<?xml version="1.0" standalone="no"?>
<!DOCTYPE svg PUBLIC "-//W3C//DTD SVG 1.1//EN" "http://www.w3.org/Graphics/SVG/1.1/DTD/svg11.dtd" >
<svg xmlns="http://www.w3.org/2000/svg" xmlns:xlink="http://www.w3.org/1999/xlink" version="1.1">
<metadata>
Created by FontForge 20170731 at Mon Sep 27 10:42:09 2021
 By Aleksey,,,
Copyright 2020 The Open Sans Project Authors (https://github.com/googlefonts/opensans)
</metadata>
<defs>
<font id="OpenSans-SemiBold" horiz-adv-x="0" >
  <font-face 
    font-family="Open Sans SemiBold"
    font-weight="600"
    font-stretch="normal"
    units-per-em="2048"
    panose-1="0 0 0 0 0 0 0 0 0 0"
    ascent="1638"
    descent="-410"
    x-height="1107"
    cap-height="1462"
    bbox="-1196 -578 2581 2153"
    underline-thickness="50"
    underline-position="-175"
    unicode-range="U+000D-FFFD"
  />
<missing-glyph horiz-adv-x="1229" 
 />
    <glyph glyph-name="f_f" unicode="ff" horiz-adv-x="1482" 
d="M721 928h-269v-928h-235v928h-181v113l181 69v77q0 141 44.5 224t128 119.5t199.5 36.5q76 0 139 -12.5t106 -28.5l-61 -178q-34 11 -76 20.5t-90 9.5q-80 0 -117.5 -50t-37.5 -146v-75h269v-179zM1462 928h-269v-928h-235v928h-181v113l181 69v77q0 141 44.5 224
t128 119.5t199.5 36.5q76 0 139 -12.5t106 -28.5l-61 -178q-34 11 -76 20.5t-90 9.5q-80 0 -117.5 -50t-37.5 -146v-75h269v-179z" />
    <glyph glyph-name="fi" unicode="fi" horiz-adv-x="1312" 
d="M721 928h-269v-928h-235v928h-181v113l181 69v77q0 141 44.5 224t128 119.5t199.5 36.5q76 0 139 -12.5t106 -28.5l-61 -178q-34 11 -76 20.5t-90 9.5q-80 0 -117.5 -50t-37.5 -146v-75h269v-179zM1144 1107v-1107h-235v1107h235zM1028 1531q54 0 93.5 -29t39.5 -100
q0 -70 -39.5 -99.5t-93.5 -29.5q-56 0 -94.5 29.5t-38.5 99.5q0 71 38.5 100t94.5 29z" />
    <glyph glyph-name="fl" unicode="fl" horiz-adv-x="1312" 
d="M721 928h-269v-928h-235v928h-181v113l181 69v77q0 141 44.5 224t128 119.5t199.5 36.5q76 0 139 -12.5t106 -28.5l-61 -178q-34 11 -76 20.5t-90 9.5q-80 0 -117.5 -50t-37.5 -146v-75h269v-179zM1145 0h-236v1556h236v-1556z" />
    <glyph glyph-name="f_f_i" unicode="ffi" horiz-adv-x="2052" 
d="M721 928h-269v-928h-235v928h-181v113l181 69v77q0 141 44.5 224t128 119.5t199.5 36.5q76 0 139 -12.5t106 -28.5l-61 -178q-34 11 -76 20.5t-90 9.5q-80 0 -117.5 -50t-37.5 -146v-75h269v-179zM1462 928h-269v-928h-235v928h-181v113l181 69v77q0 141 44.5 224
t128 119.5t199.5 36.5q76 0 139 -12.5t106 -28.5l-61 -178q-34 11 -76 20.5t-90 9.5q-80 0 -117.5 -50t-37.5 -146v-75h269v-179zM1885 1107v-1107h-235v1107h235zM1769 1531q54 0 93.5 -29t39.5 -100q0 -70 -39.5 -99.5t-93.5 -29.5q-56 0 -94.5 29.5t-38.5 99.5
q0 71 38.5 100t94.5 29z" />
    <glyph glyph-name="f_f_l" unicode="ffl" horiz-adv-x="2052" 
d="M721 928h-269v-928h-235v928h-181v113l181 69v77q0 141 44.5 224t128 119.5t199.5 36.5q76 0 139 -12.5t106 -28.5l-61 -178q-34 11 -76 20.5t-90 9.5q-80 0 -117.5 -50t-37.5 -146v-75h269v-179zM1462 928h-269v-928h-235v928h-181v113l181 69v77q0 141 44.5 224
t128 119.5t199.5 36.5q76 0 139 -12.5t106 -28.5l-61 -178q-34 11 -76 20.5t-90 9.5q-80 0 -117.5 -50t-37.5 -146v-75h269v-179zM1886 0h-236v1556h236v-1556z" />
    <glyph glyph-name=".notdef" horiz-adv-x="1229" 
 />
    <glyph glyph-name=".null" 
 />
    <glyph glyph-name="nonmarkingreturn" horiz-adv-x="682" 
 />
    <glyph glyph-name="NULL" 
 />
    <glyph glyph-name="NULL" 
 />
    <glyph glyph-name="CR" unicode="&#xd;" horiz-adv-x="532" 
 />
    <glyph glyph-name="space" unicode=" " horiz-adv-x="532" 
 />
    <glyph glyph-name="exclam" unicode="!" horiz-adv-x="564" 
d="M371 446h-177l-48 1016h273zM134 124q0 82 42.5 115.5t104.5 33.5q61 0 104 -33.5t43 -115.5q0 -80 -43 -115.5t-104 -35.5q-62 0 -104.5 35.5t-42.5 115.5z" />
    <glyph glyph-name="quotedbl" unicode="&#x22;" horiz-adv-x="892" 
d="M364 1462l-40 -528h-151l-39 528h230zM758 1462l-39 -528h-151l-39 528h229z" />
    <glyph glyph-name="numbersign" unicode="#" horiz-adv-x="1323" 
d="M990 872l-56 -286h270v-167h-302l-81 -419h-178l82 419h-250l-79 -419h-174l77 419h-250v167h282l57 286h-265v167h295l80 422h178l-80 -422h252l81 422h173l-80 -422h252v-167h-284zM507 586h250l57 286h-251z" />
    <glyph glyph-name="dollar" unicode="$" horiz-adv-x="1171" 
d="M518 -119v206q-124 2 -228.5 22.5t-180.5 53.5v213q77 -36 190 -65t219 -33v375q-145 49 -235.5 102t-132.5 123.5t-42 169.5q0 102 51.5 175.5t144 116.5t214.5 51v163h130v-160q111 -3 205.5 -24.5t180.5 -59.5l-73 -186q-75 30 -156 49t-157 26v-366
q122 -40 217.5 -86t150 -115.5t54.5 -181.5q0 -147 -108 -242.5t-314 -114.5v-212h-130zM648 286q96 12 143 50.5t47 100.5q0 42 -19.5 71t-61 52t-109.5 45v-319zM518 882v313q-58 -6 -98 -24t-60 -47t-20 -69q0 -44 18 -75t57.5 -54t102.5 -44z" />
    <glyph glyph-name="percent" unicode="%" horiz-adv-x="1769" 
d="M404 1483q161 0 244 -119.5t83 -337.5q0 -217 -79.5 -339t-247.5 -122q-157 0 -239 122t-82 339q0 218 77.5 337.5t243.5 119.5zM405 1319q-65 0 -95.5 -73t-30.5 -221q0 -147 30.5 -221.5t95.5 -74.5q66 0 98.5 74t32.5 222q0 147 -32 220.5t-99 73.5zM1386 1462
l-811 -1462h-193l811 1462h193zM1359 898q161 0 244.5 -119.5t83.5 -337.5q0 -216 -79.5 -338t-248.5 -122q-157 0 -239 122t-82 338q0 218 77.5 337.5t243.5 119.5zM1360 734q-65 0 -95.5 -73t-30.5 -221q0 -147 30.5 -221.5t95.5 -74.5q67 0 99 73.5t32 222.5
q0 147 -32 220.5t-99 73.5z" />
    <glyph glyph-name="ampersand" unicode="&#x26;" horiz-adv-x="1514" 
d="M629 1484q113 0 198.5 -37t133.5 -107.5t48 -171.5q0 -135 -84 -228t-212 -166l345 -336q49 67 81 147.5t55 169.5h243q-31 -124 -86 -244.5t-139 -220.5l297 -290h-301l-148 145q-62 -50 -132.5 -87t-153.5 -57.5t-183 -20.5q-153 0 -264 49t-170.5 140.5t-59.5 217.5
q0 105 35.5 180.5t101.5 133t158 109.5q-50 57 -87 111t-56.5 111.5t-19.5 123.5q0 102 50 175.5t140 113t210 39.5zM531 667q-58 -37 -100 -74.5t-64.5 -82.5t-22.5 -105q0 -103 72.5 -163t187.5 -60q101 0 177.5 30.5t133.5 76.5zM625 1298q-71 0 -122.5 -37t-51.5 -115
q0 -63 33.5 -118.5t93.5 -119.5q105 58 156.5 114t51.5 130q0 70 -47 108t-114 38z" />
    <glyph glyph-name="quotesingle" unicode="'" horiz-adv-x="497" 
d="M364 1462l-40 -528h-151l-39 528h230z" />
    <glyph glyph-name="parenleft" unicode="(" horiz-adv-x="649" 
d="M82 561q0 168 32.5 328t99.5 305t169 268h205q-143 -191 -215.5 -423t-72.5 -476q0 -159 32 -315t96 -300.5t158 -271.5h-203q-102 120 -169 262t-99.5 300t-32.5 323z" />
    <glyph glyph-name="parenright" unicode=")" horiz-adv-x="649" 
d="M567 562q0 -166 -32 -324t-98.5 -300t-170.5 -262h-202q94 127 158 272t96 301t32 315q0 162 -32.5 320t-96.5 304.5t-159 273.5h204q104 -123 170.5 -268t98.5 -304.5t32 -327.5z" />
    <glyph glyph-name="asterisk" unicode="*" horiz-adv-x="1122" 
d="M670 1556l-40 -382l384 109l30 -213l-359 -32l233 -311l-194 -105l-169 335l-151 -334l-202 104l231 311l-357 33l34 212l377 -109l-40 382h223z" />
    <glyph glyph-name="plus" unicode="+" horiz-adv-x="1171" 
d="M673 811h400v-178h-400v-404h-178v404h-399v178h399v408h178v-408z" />
    <glyph glyph-name="comma" unicode="," horiz-adv-x="557" 
d="M405 238l14 -23q-18 -72 -46 -155t-61 -166.5t-67 -157.5h-172q21 81 40.5 169.5t36 175t26.5 157.5h229z" />
    <glyph glyph-name="hyphen" unicode="-" horiz-adv-x="659" 
d="M72 450v199h516v-199h-516z" />
    <glyph glyph-name="period" unicode="." horiz-adv-x="561" 
d="M134 124q0 82 42.5 115.5t103.5 33.5t104.5 -33.5t43.5 -115.5q0 -80 -43.5 -115.5t-104.5 -35.5t-103.5 35.5t-42.5 115.5z" />
    <glyph glyph-name="slash" unicode="/" horiz-adv-x="799" 
d="M783 1462l-545 -1462h-220l545 1462h220z" />
    <glyph glyph-name="zero" unicode="0" horiz-adv-x="1171" 
d="M1082 732q0 -177 -27.5 -316.5t-86.5 -236.5t-154 -148t-230 -51q-169 0 -279 89.5t-163 258t-53 404.5t48.5 404.5t157.5 258.5t289 90q170 0 280.5 -89.5t164 -258t53.5 -405.5zM326 732q0 -185 24.5 -309t81.5 -185.5t152 -61.5t152 61t82.5 185t25.5 310
q0 184 -25 308t-82 186.5t-153 62.5t-152.5 -62.5t-81 -186.5t-24.5 -308z" />
    <glyph glyph-name="one" unicode="1" horiz-adv-x="1171" 
d="M783 0h-236v941q0 47 1 94t2.5 92t4.5 86q-21 -23 -51.5 -50t-64.5 -56l-168 -134l-118 149l434 340h196v-1462z" />
    <glyph glyph-name="two" unicode="2" horiz-adv-x="1171" 
d="M1082 0h-990v177l379 384q110 112 181 193.5t105.5 154.5t34.5 159q0 106 -61 160.5t-161 54.5q-95 0 -175.5 -37.5t-166.5 -106.5l-129 155q61 52 130.5 95t155.5 68.5t196 25.5q139 0 240 -49.5t155.5 -137.5t54.5 -205q0 -118 -47 -218t-134 -197.5t-207 -211.5
l-253 -247v-11h692v-206z" />
    <glyph glyph-name="three" unicode="3" horiz-adv-x="1171" 
d="M1026 1128q0 -99 -40 -172t-109.5 -119.5t-160.5 -66.5v-7q175 -22 264.5 -110t89.5 -233q0 -127 -61 -226.5t-187 -156.5t-324 -57q-119 0 -220.5 19t-192.5 61v209q93 -46 198 -71t199 -25q183 0 261 68.5t78 189.5q0 78 -40.5 128t-125 75t-217.5 25h-129v189h130
q127 0 204 30.5t111.5 84.5t34.5 126q0 94 -61 146.5t-181 52.5q-74 0 -134.5 -17t-111.5 -43t-97 -56l-113 163q83 62 198 105t268 43q225 0 347 -96.5t122 -258.5z" />
    <glyph glyph-name="four" unicode="4" horiz-adv-x="1171" 
d="M1135 321h-198v-321h-232v321h-665v178l668 967h229v-950h198v-195zM705 516v363q0 45 1.5 91.5t3.5 89.5t4 79.5t3 60.5h-8q-19 -40 -42 -81.5t-49 -80.5l-360 -522h447z" />
    <glyph glyph-name="five" unicode="5" horiz-adv-x="1171" 
d="M589 914q141 0 248.5 -50.5t167.5 -148t60 -238.5q0 -154 -65 -265.5t-191 -171.5t-307 -60q-115 0 -214.5 20t-171.5 60v212q75 -42 180 -68.5t201 -26.5q102 0 175 30t112.5 92t39.5 157q0 126 -80.5 194.5t-251.5 68.5q-60 0 -127.5 -10.5t-112.5 -22.5l-103 61
l55 715h760v-207h-553l-32 -364q36 8 86 15.5t124 7.5z" />
    <glyph glyph-name="six" unicode="6" horiz-adv-x="1171" 
d="M94 623q0 129 18.5 254t63.5 234t124.5 192t200.5 130.5t291 47.5q44 0 99 -4t91 -13v-195q-39 11 -85.5 17t-92.5 6q-184 0 -287 -69.5t-147 -190t-51 -275.5h12q30 50 75 89t110 62.5t151 23.5q128 0 223 -53.5t146.5 -154.5t51.5 -245q0 -155 -58.5 -267t-166 -172
t-255.5 -60q-109 0 -202.5 40t-163.5 120t-109 200.5t-39 282.5zM604 174q114 0 183.5 74.5t69.5 228.5q0 125 -61.5 198t-184.5 73q-84 0 -147 -36t-97.5 -91t-34.5 -112q0 -58 17 -117t51 -108.5t85 -79.5t119 -30z" />
    <glyph glyph-name="seven" unicode="7" horiz-adv-x="1171" 
d="M259 0l574 1256h-759v206h1012v-161l-574 -1301h-253z" />
    <glyph glyph-name="eight" unicode="8" horiz-adv-x="1171" 
d="M585 1482q127 0 229 -39.5t162 -117.5t60 -193q0 -89 -36.5 -155t-98.5 -115.5t-139 -87.5q86 -42 158.5 -96.5t117 -127.5t44.5 -171q0 -123 -62.5 -212.5t-173.5 -138t-259 -48.5q-159 0 -271 47t-170 134.5t-58 209.5q0 101 40 175t107.5 128t148.5 91
q-69 41 -126 92.5t-90.5 119t-33.5 156.5q0 114 61 191.5t163.5 117.5t226.5 40zM312 380q0 -96 68 -158t203 -62q134 0 204 61t70 161q0 64 -35.5 113t-95 87.5t-131.5 71.5l-32 13q-78 -33 -134 -74.5t-86.5 -93.5t-30.5 -119zM583 1301q-97 0 -159.5 -47.5t-62.5 -136.5
q0 -63 30.5 -108t82.5 -77.5t115 -60.5q61 27 110.5 59.5t79 78t29.5 109.5q0 88 -62.5 135.5t-162.5 47.5z" />
    <glyph glyph-name="nine" unicode="9" horiz-adv-x="1171" 
d="M1080 839q0 -130 -18.5 -255t-64 -234t-125 -192.5t-200.5 -130.5t-292 -47q-43 0 -99.5 4.5t-92.5 12.5v196q38 -11 85.5 -17.5t94.5 -6.5q185 0 288.5 69t147 190t49.5 275h-12q-29 -48 -73 -87.5t-109 -63t-158 -23.5q-126 0 -219.5 53t-145 154.5t-51.5 244.5
q0 155 59 267t167 172.5t254 60.5q110 0 203.5 -39.5t163.5 -120t109 -201t39 -281.5zM568 1287q-111 0 -181 -74.5t-70 -228.5q0 -125 60 -198t184 -73q86 0 148.5 35.5t97 90.5t34.5 112q0 59 -16.5 118t-50.5 108t-85.5 79.5t-120.5 30.5z" />
    <glyph glyph-name="colon" unicode=":" horiz-adv-x="561" 
d="M134 124q0 82 42.5 115.5t103.5 33.5t104.5 -33.5t43.5 -115.5q0 -80 -43.5 -115.5t-104.5 -35.5t-103.5 35.5t-42.5 115.5zM134 980q0 83 42.5 117t103.5 34t104.5 -34t43.5 -117q0 -79 -43.5 -114.5t-104.5 -35.5t-103.5 35.5t-42.5 114.5z" />
    <glyph glyph-name="semicolon" unicode=";" horiz-adv-x="561" 
d="M396 238l15 -23q-18 -72 -46.5 -155t-61.5 -166.5t-66 -157.5h-173q21 80 40.5 169t36.5 175.5t27 157.5h228zM132 980q0 83 42.5 117t103.5 34q62 0 105 -34t43 -117q0 -79 -43 -114.5t-105 -35.5q-61 0 -103.5 35.5t-42.5 114.5z" />
    <glyph glyph-name="less" unicode="&#x3c;" horiz-adv-x="1171" 
d="M1073 223l-977 432v119l977 486v-194l-733 -343l733 -307v-193z" />
    <glyph glyph-name="equal" unicode="=" horiz-adv-x="1171" 
d="M102 833v176h965v-176h-965zM102 434v177h965v-177h-965z" />
    <glyph glyph-name="greater" unicode="&#x3e;" horiz-adv-x="1171" 
d="M96 416l733 306l-733 344v194l977 -486v-119l-977 -432v193z" />
    <glyph glyph-name="question" unicode="?" horiz-adv-x="931" 
d="M282 446v63q0 74 17 129t57 103.5t108 101.5q70 55 111.5 95t60 80.5t18.5 94.5q0 85 -57.5 129.5t-161.5 44.5q-92 0 -173 -26t-160 -65l-83 176q91 50 197.5 80.5t234.5 30.5q204 0 315.5 -99t111.5 -261q0 -89 -28 -152.5t-82.5 -117t-131.5 -112.5
q-63 -50 -96.5 -86.5t-46 -73.5t-12.5 -89v-46h-199zM244 124q0 82 42.5 115.5t104.5 33.5q60 0 103 -33.5t43 -115.5q0 -80 -43 -115.5t-103 -35.5q-62 0 -104.5 35.5t-42.5 115.5z" />
    <glyph glyph-name="at" unicode="@" horiz-adv-x="1837" 
d="M1727 732q0 -95 -22 -186.5t-67 -165t-112.5 -117.5t-159.5 -44q-84 0 -140 45t-73 111h-13q-40 -65 -110.5 -110.5t-172.5 -45.5q-170 0 -261.5 106.5t-91.5 281.5q0 136 56 240.5t159.5 164.5t243.5 60q93 0 186.5 -16.5t147.5 -35.5l-20 -411q-2 -29 -2.5 -49.5
t-0.5 -28.5q0 -97 31 -129.5t73 -32.5q56 0 94.5 49.5t58.5 132t20 182.5q0 181 -73.5 309t-201.5 195t-292 67q-168 0 -297.5 -53t-218 -149t-133.5 -227.5t-45 -289.5q0 -194 69 -329.5t203.5 -205.5t328.5 -70q121 0 241.5 26.5t218.5 63.5v-161q-93 -39 -208 -63
t-248 -24q-247 0 -422.5 90t-269 260t-93.5 407q0 190 60.5 350.5t174.5 280t275.5 185.5t362.5 66q217 0 385 -88.5t263.5 -251.5t95.5 -389zM694 603q0 -122 50 -178t136 -56q110 0 158 81t56 213l12 241q-26 7 -61 11.5t-75 4.5q-100 0 -160.5 -45.5t-88 -118
t-27.5 -153.5z" />
    <glyph glyph-name="A" unicode="A" horiz-adv-x="1354" 
d="M1098 0l-143 406h-559l-143 -406h-253l544 1468h266l543 -1468h-255zM893 612l-139 400q-8 26 -23 73.5t-30 97t-25 83.5q-10 -41 -24.5 -91.5t-28 -94.5t-20.5 -68l-140 -400h430z" />
    <glyph glyph-name="B" unicode="B" horiz-adv-x="1350" 
d="M192 1462h435q283 0 427 -82t144 -283q0 -84 -29.5 -151.5t-85.5 -111t-138 -58.5v-10q85 -15 151.5 -53t105 -109t38.5 -184q0 -134 -63.5 -228t-181 -143t-278.5 -49h-525v1462zM432 859h230q163 0 226 53t63 155q0 104 -74.5 150t-236.5 46h-208v-404zM432 665v-464
h253q168 0 236 65t68 176q0 68 -30.5 118t-99.5 77.5t-186 27.5h-241z" />
    <glyph glyph-name="C" unicode="C" horiz-adv-x="1298" 
d="M815 1279q-105 0 -187.5 -38t-139.5 -109.5t-87 -173t-30 -228.5q0 -170 48 -292.5t146 -188t248 -65.5q93 0 181 18t182 49v-204q-89 -35 -180 -51t-210 -16q-224 0 -371.5 93t-220 262t-72.5 396q0 166 46 304t134 238.5t217.5 155t296.5 54.5q110 0 216.5 -24.5
t197.5 -69.5l-84 -198q-76 36 -159 62t-172 26z" />
    <glyph glyph-name="D" unicode="D" horiz-adv-x="1501" 
d="M1379 745q0 -247 -92 -412.5t-267 -249t-422 -83.5h-406v1462h450q227 0 392 -81.5t255 -241t90 -394.5zM1129 738q0 180 -56.5 296t-166 172.5t-269.5 56.5h-205v-1062h170q265 0 396 135t131 402z" />
    <glyph glyph-name="E" unicode="E" horiz-adv-x="1143" 
d="M1020 0h-828v1462h828v-202h-588v-397h551v-201h-551v-459h588v-203z" />
    <glyph glyph-name="F" unicode="F" horiz-adv-x="1091" 
d="M430 0h-238v1462h826v-202h-588v-456h550v-201h-550v-603z" />
    <glyph glyph-name="G" unicode="G" horiz-adv-x="1486" 
d="M782 794h546v-734q-115 -38 -238 -59t-276 -21q-223 0 -377.5 88.5t-234.5 257t-80 406.5q0 229 89 397.5t259 261t412 92.5q119 0 230.5 -23.5t204.5 -64.5l-84 -198q-74 35 -166 59t-191 24q-157 0 -270.5 -68t-174.5 -191.5t-61 -291.5q0 -163 49 -286t153.5 -191.5
t270.5 -68.5q83 0 141 9t107 20v377h-309v205z" />
    <glyph glyph-name="H" unicode="H" horiz-adv-x="1539" 
d="M1345 0h-239v660h-674v-660h-240v1462h240v-598h674v598h239v-1462z" />
    <glyph glyph-name="I" unicode="I" horiz-adv-x="625" 
d="M192 0v1462h240v-1462h-240z" />
    <glyph glyph-name="J" unicode="J" horiz-adv-x="614" 
d="M10 -407q-55 0 -96.5 6.5t-71.5 17.5v201q32 -8 69 -14t79 -6q55 0 100 21t71.5 76t26.5 155v1412h240v-1404q0 -163 -52 -265.5t-146 -151t-220 -48.5z" />
    <glyph glyph-name="K" unicode="K" horiz-adv-x="1307" 
d="M1307 0h-276l-455 664l-144 -117v-547h-240v1462h240v-699q44 54 89 108l90 108l412 483h271l-546 -640z" />
    <glyph glyph-name="L" unicode="L" horiz-adv-x="1113" 
d="M192 0v1462h240v-1258h621v-204h-861z" />
    <glyph glyph-name="M" unicode="M" horiz-adv-x="1887" 
d="M823 0l-421 1221h-9q3 -41 7 -112t7 -152t3 -155v-802h-218v1462h337l405 -1167h6l419 1167h336v-1462h-229v814q0 67 2.5 145t6 148t5.5 112h-8l-437 -1219h-212z" />
    <glyph glyph-name="N" unicode="N" horiz-adv-x="1604" 
d="M1412 0h-295l-716 1167h-9q4 -59 7.5 -125t6 -136t4.5 -142v-764h-218v1462h293l715 -1159h7q-2 51 -5 117t-5.5 136.5t-3.5 136.5v769h219v-1462z" />
    <glyph glyph-name="O" unicode="O" horiz-adv-x="1612" 
d="M1490 733q0 -169 -42.5 -307.5t-127.5 -238t-213 -153.5t-300 -54q-175 0 -303.5 54t-213 154t-126.5 239t-42 308q0 226 74.5 394.5t227 262t385.5 93.5q228 0 379 -93t226.5 -261.5t75.5 -397.5zM374 733q0 -169 46 -292.5t141.5 -190t245.5 -66.5q151 0 246 66.5
t140 190t45 292.5q0 257 -102.5 402.5t-326.5 145.5q-150 0 -246.5 -66t-142.5 -188.5t-46 -293.5z" />
    <glyph glyph-name="P" unicode="P" horiz-adv-x="1259" 
d="M617 1462q283 0 413 -116t130 -325q0 -95 -29.5 -180.5t-96.5 -151t-176.5 -103.5t-269.5 -38h-156v-548h-240v1462h425zM601 1263h-169v-515h131q113 0 192 26.5t120 84.5t41 153q0 127 -76.5 189t-238.5 62z" />
    <glyph glyph-name="Q" unicode="Q" horiz-adv-x="1612" 
d="M1490 733q0 -171 -44 -312t-132 -241t-222 -151l348 -377h-320l-275 329q-10 0 -19.5 -0.5t-18.5 -0.5q-175 0 -303.5 54t-213 154t-126.5 239t-42 308q0 226 74.5 394.5t227 262t385.5 93.5q228 0 379 -93t226.5 -261.5t75.5 -397.5zM374 733q0 -169 46 -292.5
t141.5 -190t245.5 -66.5q151 0 246 66.5t140 190t45 292.5q0 257 -102.5 402.5t-326.5 145.5q-150 0 -246.5 -66t-142.5 -188.5t-46 -293.5z" />
    <glyph glyph-name="R" unicode="R" horiz-adv-x="1308" 
d="M603 1462q189 0 312.5 -46t184 -140t60.5 -239q0 -108 -40 -184t-105 -126t-139 -80l415 -647h-271l-353 586h-235v-586h-240v1462h411zM587 1262h-155v-478h166q167 0 242.5 62t75.5 183q0 127 -80.5 180t-248.5 53z" />
    <glyph glyph-name="S" unicode="S" horiz-adv-x="1126" 
d="M1036 398q0 -130 -63.5 -224t-182 -144t-282.5 -50q-80 0 -153 9t-137.5 26.5t-117.5 42.5v226q89 -39 199 -70.5t224 -31.5q93 0 154.5 24.5t91.5 70t30 106.5q0 65 -35 110t-105.5 82.5t-176.5 80.5q-72 29 -137.5 66t-116.5 87t-80.5 118.5t-29.5 161.5
q0 124 59.5 212t168 135t253.5 47q115 0 216.5 -24t199.5 -68l-76 -193q-90 37 -174.5 59t-172.5 22q-76 0 -129 -23t-80.5 -64.5t-27.5 -98.5q0 -64 31.5 -107.5t98 -79.5t171.5 -80q121 -50 205.5 -105t129.5 -131.5t45 -191.5z" />
    <glyph glyph-name="T" unicode="T" horiz-adv-x="1157" 
d="M699 0h-241v1258h-428v204h1096v-204h-427v-1258z" />
    <glyph glyph-name="U" unicode="U" horiz-adv-x="1521" 
d="M1340 1462v-946q0 -153 -64.5 -274t-194.5 -191.5t-327 -70.5q-281 0 -427.5 147.5t-146.5 392.5v942h240v-921q0 -183 86 -270t257 -87q118 0 192.5 41.5t110 122t35.5 194.5v920h239z" />
    <glyph glyph-name="V" unicode="V" horiz-adv-x="1276" 
d="M1276 1462l-511 -1462h-254l-511 1462h246l308 -916q14 -40 30.5 -97t31 -115t22.5 -103q8 45 22.5 103t30.5 115t30 98l309 915h246z" />
    <glyph glyph-name="W" unicode="W" horiz-adv-x="1936" 
d="M1921 1462l-382 -1462h-262l-244 876q-9 32 -20 76t-21.5 90t-18 84.5t-10.5 59.5q-2 -21 -9 -59t-16.5 -83.5t-20.5 -90t-20 -78.5l-240 -875h-261l-381 1462h241l211 -857q10 -41 20.5 -88.5t20 -95.5t17.5 -93.5t13 -82.5q5 38 13 84.5t17.5 95t20 93.5t21.5 81
l238 863h234l243 -866q11 -37 21.5 -83t20.5 -94t18 -93t13 -81q7 49 18 112t25 128t28 120l210 857h242z" />
    <glyph glyph-name="X" unicode="X" horiz-adv-x="1275" 
d="M1271 0h-273l-368 599l-370 -599h-257l486 758l-453 704h265l340 -554l338 554h257l-455 -711z" />
    <glyph glyph-name="Y" unicode="Y" horiz-adv-x="1212" 
d="M606 795l347 667h259l-486 -894v-568h-239v559l-487 903h261z" />
    <glyph glyph-name="Z" unicode="Z" horiz-adv-x="1179" 
d="M1115 0h-1051v165l744 1093h-721v204h1008v-164l-744 -1094h764v-204z" />
    <glyph glyph-name="bracketleft" unicode="[" horiz-adv-x="674" 
d="M623 -324h-468v1786h468v-173h-257v-1438h257v-175z" />
    <glyph glyph-name="backslash" unicode="\" horiz-adv-x="799" 
d="M237 1462l546 -1462h-221l-545 1462h220z" />
    <glyph glyph-name="bracketright" unicode="]" horiz-adv-x="674" 
d="M51 -149h257v1438h-257v173h469v-1786h-469v175z" />
    <glyph glyph-name="asciicircum" unicode="^" horiz-adv-x="1171" 
d="M64 535l438 937h120l486 -937h-194l-348 694l-310 -694h-192z" />
    <glyph glyph-name="underscore" unicode="_" horiz-adv-x="870" 
d="M874 -315h-878v131h878v-131z" />
    <glyph glyph-name="grave" unicode="`" horiz-adv-x="655" 
d="M352 1569q27 -46 66 -102t81 -109t74 -91v-26h-157q-38 28 -85 68.5t-95.5 85t-89 85t-64.5 69.5v20h270z" />
    <glyph glyph-name="a" unicode="a" horiz-adv-x="1188" 
d="M602 1128q210 0 317.5 -93t107.5 -290v-745h-167l-45 157h-8q-47 -60 -97 -99t-115.5 -58.5t-159.5 -19.5q-99 0 -177 36.5t-123 111.5t-45 190q0 171 127.5 257t385.5 95l192 7v58q0 115 -53.5 164t-150.5 49q-83 0 -161 -24t-152 -59l-76 166q81 43 184.5 70t215.5 27z
M794 529l-143 -5q-176 -6 -247 -60t-71 -148q0 -82 49 -119.5t129 -37.5q122 0 202.5 69.5t80.5 204.5v96z" />
    <glyph glyph-name="b" unicode="b" horiz-adv-x="1275" 
d="M403 1556v-375q0 -65 -3.5 -127.5t-6.5 -97.5h10q45 72 125.5 121.5t206.5 49.5q197 0 317 -144.5t120 -427.5q0 -188 -55 -316t-154.5 -193.5t-233.5 -65.5q-126 0 -203.5 46.5t-121.5 108.5h-17l-43 -135h-176v1556h235zM673 936q-100 0 -158.5 -40t-84.5 -119.5
t-27 -201.5v-21q0 -185 58.5 -283t213.5 -98q123 0 189 99.5t66 285.5q0 188 -65.5 283t-191.5 95z" />
    <glyph glyph-name="c" unicode="c" horiz-adv-x="1017" 
d="M614 -20q-157 0 -272 61t-177 187t-62 320q0 202 68 330t188.5 189t276.5 61q99 0 179.5 -19.5t136.5 -47.5l-70 -188q-61 25 -125 42t-123 17q-97 0 -161.5 -43t-96 -128t-31.5 -211q0 -122 32 -205.5t95 -126t155 -42.5q91 0 163 22t136 57v-204q-63 -36 -135 -53.5
t-177 -17.5z" />
    <glyph glyph-name="d" unicode="d" horiz-adv-x="1275" 
d="M540 -20q-198 0 -317.5 144.5t-119.5 426.5q0 285 121.5 431t320.5 146q84 0 147 -22.5t108.5 -60.5t77.5 -85h11q-5 31 -11.5 89.5t-6.5 108.5v398h236v-1556h-184l-42 151h-10q-30 -48 -75.5 -86.5t-108 -61.5t-147.5 -23zM606 171q151 0 213 87t64 261v31
q0 186 -60 285.5t-219 99.5q-127 0 -193.5 -102.5t-66.5 -285.5t66.5 -279.5t195.5 -96.5z" />
    <glyph glyph-name="e" unicode="e" horiz-adv-x="1180" 
d="M609 1128q148 0 254 -61t163 -173t57 -268v-126h-739q4 -161 86.5 -248t231.5 -87q106 0 190.5 20.5t174.5 60.5v-191q-83 -39 -169 -57t-206 -18q-163 0 -286.5 63.5t-193 189.5t-69.5 313q0 186 63 316t177 198t266 68zM609 951q-111 0 -179.5 -72t-80.5 -211h504
q-1 83 -27.5 147t-80 100t-136.5 36z" />
    <glyph glyph-name="f" unicode="f" horiz-adv-x="741" 
d="M721 928h-269v-928h-235v928h-181v113l181 69v77q0 141 44.5 224t128 119.5t199.5 36.5q76 0 139 -12.5t106 -28.5l-61 -178q-34 11 -76 20.5t-90 9.5q-80 0 -117.5 -50t-37.5 -146v-75h269v-179z" />
    <glyph glyph-name="g" unicode="g" horiz-adv-x="1135" 
d="M484 -492q-225 0 -345 81t-120 227q0 102 64 172.5t183 97.5q-45 20 -77.5 62.5t-32.5 94.5q0 62 35 106t105 85q-87 37 -139.5 120.5t-52.5 196.5q0 120 51 204.5t149 129t237 44.5q30 0 65.5 -3.5t66 -8t46.5 -9.5h383v-131l-188 -35q27 -38 43 -86.5t16 -105.5
q0 -172 -118.5 -270.5t-326.5 -98.5q-50 2 -97 8q-36 -22 -55 -48.5t-19 -59.5q0 -27 19 -43.5t56.5 -24.5t91.5 -8h191q182 0 278 -77t96 -226q0 -189 -156 -291.5t-449 -102.5zM493 -327q123 0 207 24t127 68.5t43 105.5q0 54 -27 83t-81 40t-134 11h-174
q-65 0 -115 -20.5t-77.5 -59.5t-27.5 -94q0 -76 67.5 -117t191.5 -41zM539 535q103 0 153 56.5t50 159.5q0 112 -51.5 168t-152.5 56q-99 0 -150.5 -57t-51.5 -169q0 -101 51.5 -157.5t151.5 -56.5z" />
    <glyph glyph-name="h" unicode="h" horiz-adv-x="1301" 
d="M403 1556v-391q0 -61 -3.5 -119t-7.5 -90h13q35 58 86 95.5t114.5 56.5t135.5 19q127 0 216 -42.5t136.5 -131.5t47.5 -231v-722h-235v678q0 129 -53 193.5t-164 64.5q-107 0 -169.5 -44.5t-89.5 -131t-27 -210.5v-550h-235v1556h235z" />
    <glyph glyph-name="i" unicode="i" horiz-adv-x="571" 
d="M403 1107v-1107h-235v1107h235zM287 1531q54 0 93.5 -29t39.5 -100q0 -70 -39.5 -99.5t-93.5 -29.5q-56 0 -94.5 29.5t-38.5 99.5q0 71 38.5 100t94.5 29z" />
    <glyph glyph-name="j" unicode="j" horiz-adv-x="571" 
d="M57 -492q-52 0 -99 7.5t-79 17.5v188q34 -10 66 -15t73 -5q65 0 107.5 36t42.5 137v1233h235v-1254q0 -101 -35.5 -179t-112 -122t-198.5 -44zM154 1402q0 71 38.5 100t94.5 29q54 0 93.5 -29t39.5 -100q0 -70 -39.5 -99.5t-93.5 -29.5q-56 0 -94.5 29.5t-38.5 99.5z" />
    <glyph glyph-name="k" unicode="k" horiz-adv-x="1173" 
d="M403 1556v-752q0 -51 -4 -111.5t-8 -113.5h5q26 35 62.5 82t69.5 82l338 364h270l-443 -476l472 -631h-276l-354 486l-132 -113v-373h-235v1556h235z" />
    <glyph glyph-name="l" unicode="l" horiz-adv-x="571" 
d="M404 0h-236v1556h236v-1556z" />
    <glyph glyph-name="m" unicode="m" horiz-adv-x="1954" 
d="M1419 1128q186 0 280.5 -96t94.5 -308v-724h-235v682q0 126 -49 190t-149 64q-140 0 -201.5 -89.5t-61.5 -259.5v-587h-235v682q0 84 -21.5 140.5t-65.5 85t-111 28.5q-97 0 -154.5 -44t-82.5 -129.5t-25 -209.5v-553h-235v1107h183l33 -149h13q34 58 84.5 95.5t112.5 56
t129 18.5q124 0 209 -43.5t127 -132.5h18q52 90 145 133t197 43z" />
    <glyph glyph-name="n" unicode="n" horiz-adv-x="1301" 
d="M745 1128q187 0 291.5 -96.5t104.5 -309.5v-722h-235v678q0 129 -53 193.5t-164 64.5q-161 0 -223.5 -99t-62.5 -287v-550h-235v1107h183l33 -150h13q36 58 89.5 95.5t120 56.5t138.5 19z" />
    <glyph glyph-name="o" unicode="o" horiz-adv-x="1250" 
d="M1148 556q0 -138 -36 -245t-105 -180.5t-166 -112t-219 -38.5q-114 0 -209 38.5t-164.5 112t-107.5 180.5t-38 245q0 183 63.5 310.5t181.5 194.5t281 67q153 0 270 -67t183 -195t66 -310zM345 556q0 -121 29.5 -207t91.5 -131.5t160 -45.5t160 45.5t91 131.5t29 207
t-29 205.5t-91 129t-161 44.5q-146 0 -213 -98t-67 -281z" />
    <glyph glyph-name="p" unicode="p" horiz-adv-x="1275" 
d="M736 1128q197 0 316.5 -144t119.5 -428q0 -188 -55.5 -316.5t-155 -194t-231.5 -65.5q-84 0 -146 22t-106 57.5t-74 77.5h-14q5 -40 9.5 -88.5t4.5 -88.5v-451h-236v1598h192l33 -153h11q31 47 75.5 87t108 63.5t148.5 23.5zM673 936q-97 0 -155.5 -38.5t-85 -115.5
t-28.5 -193v-33q0 -123 25.5 -208.5t85 -130t161.5 -44.5q86 0 142.5 47t84.5 134t28 205q0 179 -63.5 278t-194.5 99z" />
    <glyph glyph-name="q" unicode="q" horiz-adv-x="1275" 
d="M871 -491v470q0 40 2.5 87t8.5 86h-12q-45 -73 -125 -122.5t-209 -49.5q-195 0 -314 144.5t-119 427.5q0 188 55 316t154.5 194t231.5 66q127 0 206.5 -49.5t127.5 -121.5h8l26 150h195v-1598h-236zM606 169q100 0 160 38t87 115.5t29 192.5v36q0 188 -61 286t-217 98
q-132 0 -196 -102.5t-64 -284.5q0 -184 64.5 -281.5t197.5 -97.5z" />
    <glyph glyph-name="r" unicode="r" horiz-adv-x="884" 
d="M729 1128q28 0 61 -3t57 -8l-22 -220q-21 6 -51.5 9t-54.5 3q-63 0 -120 -20.5t-101 -62t-69 -103.5t-25 -144v-579h-236v1107h184l32 -195h11q33 59 82 108t112.5 78.5t139.5 29.5z" />
    <glyph glyph-name="s" unicode="s" horiz-adv-x="997" 
d="M912 316q0 -109 -53 -184t-154.5 -113.5t-248.5 -38.5q-116 0 -199.5 16.5t-157.5 50.5v203q79 -37 177.5 -64t186.5 -27q116 0 167 36.5t51 97.5q0 36 -20.5 64.5t-76 59t-162.5 73.5q-105 42 -177 84t-109 101.5t-37 152.5q0 147 116.5 223.5t308.5 76.5
q102 0 192.5 -20.5t177.5 -59.5l-74 -177q-75 33 -150.5 54.5t-153.5 21.5q-91 0 -138.5 -28t-47.5 -80q0 -39 23 -66t79.5 -54t157.5 -67q99 -38 171.5 -79.5t111.5 -101.5t39 -155z" />
    <glyph glyph-name="t" unicode="t" horiz-adv-x="810" 
d="M580 170q46 0 91 8.5t82 20.5v-178q-39 -17 -101 -29t-129 -12q-94 0 -169 31.5t-119 108.5t-44 213v595h-151v105l162 83l77 237h148v-246h317v-179h-317v-592q0 -84 42 -125t111 -41z" />
    <glyph glyph-name="u" unicode="u" horiz-adv-x="1301" 
d="M1133 1107v-1107h-185l-32 149h-13q-35 -57 -89 -94.5t-120 -56t-139 -18.5q-125 0 -213.5 42.5t-135.5 131.5t-47 230v723h236v-679q0 -129 52.5 -193t163.5 -64q107 0 170 44t89.5 130t26.5 211v551h236z" />
    <glyph glyph-name="v" unicode="v" horiz-adv-x="1094" 
d="M421 0l-421 1107h249l228 -650q22 -62 40 -134t25 -121h8q7 51 27 122.5t41 132.5l228 650h248l-421 -1107h-252z" />
    <glyph glyph-name="w" unicode="w" horiz-adv-x="1670" 
d="M1073 1l-140 515q-10 38 -24 92t-28 111.5t-25.5 106.5t-17.5 76h-8q-5 -27 -16 -76t-25 -107t-27.5 -113t-24.5 -94l-147 -511h-258l-310 1107h238l144 -550q14 -56 27.5 -121t23.5 -124t15 -97h8q4 27 11 68.5t16 87t18 86t17 65.5l170 585h257l163 -585
q11 -38 24 -95.5t23.5 -115t13.5 -95.5h8q4 34 14.5 92.5t24.5 125t29 123.5l147 550h234l-312 -1107h-263z" />
    <glyph glyph-name="x" unicode="x" horiz-adv-x="1128" 
d="M413 566l-370 541h268l253 -389l254 389h267l-372 -541l391 -566h-269l-271 415l-272 -415h-267z" />
    <glyph glyph-name="y" unicode="y" horiz-adv-x="1096" 
d="M1 1107h256l227 -632q15 -43 27.5 -84.5t22 -81.5t15.5 -80h6q10 52 28.5 116.5t41.5 129.5l218 632h253l-475 -1259q-41 -108 -100.5 -184.5t-140.5 -116t-185 -39.5q-50 0 -87 5.5t-63 11.5v188q21 -5 53 -9t66 -4q63 0 109 25t78 70.5t53 103.5l39 104z" />
    <glyph glyph-name="z" unicode="z" horiz-adv-x="980" 
d="M909 0h-841v145l559 781h-525v181h791v-160l-548 -766h564v-181z" />
    <glyph glyph-name="braceleft" unicode="{" horiz-adv-x="788" 
d="M714 -324q-150 1 -242 33t-134 98.5t-42 168.5v311q0 68 -29 109t-85 60t-138 19v189q82 0 138 18.5t85 60t29 108.5v313q0 103 43 169t135.5 97.5t239.5 31.5v-180q-64 -2 -110 -18t-70 -52.5t-24 -99.5v-300q0 -99 -56.5 -158t-168.5 -78v-12q113 -17 169 -76.5
t56 -158.5v-303q0 -63 24 -99.5t70 -52t110 -16.5v-182z" />
    <glyph glyph-name="bar" unicode="|" horiz-adv-x="1127" 
d="M474 1554h179v-2034h-179v2034z" />
    <glyph glyph-name="braceright" unicode="}" horiz-adv-x="788" 
d="M75 -324v182q63 2 108.5 17.5t70 52t24.5 99.5v301q0 99 57 158.5t168 76.5v12q-112 19 -168.5 78t-56.5 158v302q0 63 -24 99.5t-69.5 52.5t-109.5 17v180q149 0 241 -32t134 -98t42 -169v-311q0 -68 29 -109.5t85 -60t138 -18.5v-189q-82 0 -138 -19t-85 -60t-29 -108
v-313q0 -102 -43 -168.5t-135 -98.5t-239 -32z" />
    <glyph glyph-name="asciitilde" unicode="~" horiz-adv-x="1171" 
d="M552 637q-73 32 -124 44.5t-98 12.5q-57 0 -120 -35t-114 -86v190q50 54 112.5 81t138.5 27q61 0 120 -12.5t152 -51.5q74 -32 124.5 -44t95.5 -12q59 0 121.5 34.5t112.5 85.5v-189q-49 -53 -111 -81t-139 -28q-60 0 -119 12.5t-152 51.5z" />
    <glyph glyph-name="uni00A0" unicode="&#xa0;" horiz-adv-x="532" 
 />
    <glyph glyph-name="exclamdown" unicode="&#xa1;" horiz-adv-x="564" 
d="M190 644h178l48 -1015h-274zM428 967q0 -82 -43 -116t-105 -34q-60 0 -103 34t-43 116q0 79 43 114.5t103 35.5q62 0 105 -35.5t43 -114.5z" />
    <glyph glyph-name="cent" unicode="&#xa2;" horiz-adv-x="1171" 
d="M731 1483v-161q87 -4 158.5 -22.5t125.5 -43.5l-69 -187q-64 25 -128 41.5t-123 16.5q-98 0 -162 -42.5t-96 -128t-32 -213.5q0 -126 32.5 -208.5t96 -123t155.5 -40.5t160.5 18.5t139.5 49.5v-200q-59 -29 -121 -45.5t-138 -19.5v-194h-153v200q-129 19 -221.5 83
t-142 182t-49.5 296q0 188 51.5 307.5t144 183.5t217.5 82v169h154z" />
    <glyph glyph-name="sterling" unicode="&#xa3;" horiz-adv-x="1171" 
d="M693 1482q111 0 205 -23.5t169 -57.5l-77 -182q-65 29 -137 49.5t-145 20.5q-94 0 -149.5 -51.5t-55.5 -169.5v-240h396v-173h-396v-183q0 -78 -21.5 -130t-55 -83.5t-70.5 -52.5h755v-206h-1036v195q59 19 102.5 51t67.5 86t24 138v185h-188v173h188v250q0 137 55 226.5
t151 133.5t218 44z" />
    <glyph glyph-name="currency" unicode="&#xa4;" horiz-adv-x="1171" 
d="M186 723q0 59 17.5 113.5t46.5 100.5l-133 134l120 119l132 -131q46 30 102 47t114 17q59 0 112 -16.5t101 -48.5l133 132l121 -117l-132 -134q29 -45 47 -100.5t18 -115.5q0 -59 -16.5 -114t-48.5 -102l129 -132l-118 -117l-133 130q-45 -29 -99.5 -45.5t-113.5 -16.5
q-60 0 -116 16t-101 47l-131 -129l-118 117l131 132q-30 47 -47 101t-17 113zM353 723q0 -64 31 -117t84 -83.5t117 -30.5q65 0 118.5 31t85 83.5t31.5 116.5q0 66 -31.5 119t-85 84.5t-118.5 31.5q-64 0 -117 -31.5t-84 -84.5t-31 -119z" />
    <glyph glyph-name="yen" unicode="&#xa5;" horiz-adv-x="1171" 
d="M584 801l321 661h244l-402 -759h230v-150h-281v-156h281v-151h-281v-246h-224v246h-282v151h282v156h-282v150h225l-396 759h246z" />
    <glyph glyph-name="brokenbar" unicode="&#xa6;" horiz-adv-x="1127" 
d="M474 1554h179v-796h-179v796zM474 316h179v-796h-179v796z" />
    <glyph glyph-name="section" unicode="&#xa7;" horiz-adv-x="1024" 
d="M131 805q0 95 45 157t106 96q-70 40 -109 96.5t-39 136.5q0 126 107.5 201t294.5 75q108 0 191.5 -21.5t163.5 -55.5l-67 -159q-68 30 -139 52.5t-157 22.5q-103 0 -148.5 -28t-45.5 -83q0 -37 24 -65.5t77.5 -55.5t141.5 -61q100 -37 173 -82.5t113 -105.5t40 -143
q0 -102 -41 -165.5t-100 -99.5q68 -39 104 -92.5t36 -130.5q0 -143 -117 -225.5t-323 -82.5q-111 0 -196 19t-152 54v175q49 -23 108.5 -44t122.5 -34t120 -13q134 0 184 40t50 96q0 38 -18.5 65.5t-70 56t-149.5 66.5q-104 41 -177.5 84t-113 103.5t-39.5 150.5zM314 825
q0 -47 27 -84t84.5 -70.5t150.5 -69.5l34 -13q41 26 74.5 67t33.5 102q0 48 -24.5 86t-85.5 72.5t-170 70.5q-49 -15 -86.5 -57.5t-37.5 -103.5z" />
    <glyph glyph-name="dieresis" unicode="&#xa8;" horiz-adv-x="1215" 
d="M295 1400q0 60 33 87.5t81 27.5t82.5 -27.5t34.5 -87.5q0 -58 -34.5 -87t-82.5 -29t-81 29t-33 87zM688 1400q0 60 33.5 87.5t81.5 27.5t82.5 -27.5t34.5 -87.5q0 -58 -34.5 -87t-82.5 -29t-81.5 29t-33.5 87z" />
    <glyph glyph-name="copyright" unicode="&#xa9;" horiz-adv-x="1704" 
d="M852 -20q-163 0 -300.5 56t-239 157t-157 238.5t-55.5 299.5q0 160 56.5 297t158.5 239t239 159t298 57q157 0 293.5 -56t239.5 -157.5t161 -238.5t58 -300q0 -162 -55.5 -299.5t-157 -238.5t-239 -157t-300.5 -56zM884 268q-206 0 -308.5 127t-102.5 336q0 135 48.5 239
t142 163.5t228.5 59.5q64 0 129.5 -16t122.5 -45l-58 -127q-50 26 -98.5 40t-93.5 14q-124 0 -192.5 -87.5t-68.5 -240.5q0 -158 61 -243t197 -85q49 0 107 13t109 34v-132q-49 -22 -100.5 -36t-122.5 -14zM852 97q130 0 243 46.5t199 132t134.5 201.5t48.5 254
q0 131 -46.5 246t-131 203t-198.5 137.5t-249 49.5t-249.5 -47t-199.5 -132.5t-131.5 -201.5t-46.5 -255q0 -135 46 -250.5t130 -201.5t199 -134t252 -48z" />
    <glyph glyph-name="ordfeminine" unicode="&#xaa;" horiz-adv-x="754" 
d="M385 1479q138 0 206 -64.5t68 -186.5v-446h-113l-27 99q-41 -51 -100.5 -81t-134.5 -30q-69 0 -120 23t-78.5 70t-27.5 119q0 74 38 121t113.5 71t184.5 28l106 4v32q0 58 -37.5 85.5t-99.5 27.5q-51 0 -104.5 -16t-106.5 -41l-54 115q59 29 131.5 49.5t155.5 20.5z
M500 1103l-99 -5q-107 -5 -143 -37t-36 -78t27 -67t69 -21q91 0 136.5 45.5t45.5 119.5v43z" />
    <glyph glyph-name="guillemotleft" unicode="&#xab;" horiz-adv-x="1138" 
d="M81 565l355 432l169 -94l-283 -350l283 -351l-169 -94l-355 430v27zM533 565l357 432l169 -94l-283 -350l283 -351l-169 -94l-357 430v27z" />
    <glyph glyph-name="logicalnot" unicode="&#xac;" horiz-adv-x="1171" 
d="M1071 811v-555h-177v377h-798v178h975z" />
    <glyph glyph-name="uni00AD" unicode="&#xad;" horiz-adv-x="659" 
d="M72 450v199h516v-199h-516z" />
    <glyph glyph-name="registered" unicode="&#xae;" horiz-adv-x="1704" 
d="M568 284v899h267q165 0 243 -68.5t78 -200.5q0 -97 -49 -153t-112 -81l237 -396h-175l-201 350h-132v-350h-156zM724 761h106q82 0 125.5 41t43.5 108q0 75 -40 108t-131 33h-104v-290zM852 -20q-163 0 -300.5 56t-239 157t-157 238.5t-55.5 299.5q0 160 56.5 297
t158.5 239t239 159t298 57q157 0 293.5 -56t239.5 -157.5t161 -238.5t58 -300q0 -162 -55.5 -299.5t-157 -238.5t-239 -157t-300.5 -56zM852 97q130 0 243 46.5t199 132t134.5 201.5t48.5 254q0 131 -46.5 246t-131 203t-198.5 137.5t-249 49.5t-249.5 -47t-199.5 -132.5
t-131.5 -201.5t-46.5 -255q0 -135 46 -250.5t130 -201.5t199 -134t252 -48z" />
    <glyph glyph-name="overscore" unicode="&#xaf;" horiz-adv-x="1024" 
d="M1030 1556h-1036v164h1036v-164z" />
    <glyph glyph-name="degree" unicode="&#xb0;" horiz-adv-x="877" 
d="M438 826q-100 0 -176.5 41.5t-119.5 115.5t-43 171q0 96 42.5 170.5t119 116.5t177.5 42t177 -42t119.5 -116t43.5 -171t-43.5 -171t-119.5 -115.5t-177 -41.5zM439 978q82 0 129 48t47 128q0 83 -48 131t-128 48q-82 0 -129.5 -48t-47.5 -131q0 -80 47 -128t130 -48z
" />
    <glyph glyph-name="plusminus" unicode="&#xb1;" horiz-adv-x="1171" 
d="M96 0v177h978v-177h-978zM673 844h400v-178h-400v-404h-178v404h-399v178h399v408h178v-408z" />
    <glyph glyph-name="uni00B2" unicode="&#xb2;" horiz-adv-x="744" 
d="M665 852h-612v136l230 226q72 70 111 115.5t54.5 82t15.5 77.5q0 52 -31.5 79.5t-84.5 27.5q-50 0 -97.5 -22t-100.5 -66l-95 121q62 53 137.5 86t173.5 33q131 0 208.5 -64t77.5 -181q0 -65 -25 -120t-76 -112t-130 -130l-137 -129h381v-160z" />
    <glyph glyph-name="uni00B3" unicode="&#xb3;" horiz-adv-x="744" 
d="M358 1747q134 0 211.5 -62.5t77.5 -164.5q0 -77 -42.5 -128.5t-117.5 -75.5v-9q91 -19 139 -74.5t48 -132.5q0 -120 -87 -191.5t-269 -71.5q-75 0 -141 15t-129 47v156q67 -36 134.5 -57.5t135.5 -21.5q91 0 134 35.5t43 98.5q0 59 -47 92.5t-150 33.5h-115v133h105
q104 0 143.5 37.5t39.5 91.5q0 51 -34 79.5t-91 28.5q-56 0 -104.5 -20t-104.5 -58l-85 115q62 46 135 75t171 29z" />
    <glyph glyph-name="acute" unicode="&#xb4;" horiz-adv-x="655" 
d="M573 1569v-20q-24 -29 -65 -69.5t-89 -85t-95 -85t-85 -68.5h-157v26q33 38 73.5 91t80 109t66.5 102h271z" />
    <glyph glyph-name="uni00B5" unicode="&#xb5;" horiz-adv-x="1309" 
d="M1142 1107v-1107h-183l-35 151h-12q-30 -55 -71.5 -93t-96 -58t-124.5 -20q-73 0 -128 25.5t-91 69.5h-7q3 -22 5 -61.5t3 -86t1 -91.5v-328h-235v1599h235v-680q0 -127 54 -191.5t166 -64.5q107 0 169 44.5t88 130.5t26 210v551h236z" />
    <glyph glyph-name="paragraph" unicode="&#xb6;" horiz-adv-x="1341" 
d="M1142 -260h-136v1663h-191v-1663h-137v828q-31 -9 -68 -13.5t-78 -4.5q-125 0 -218.5 48t-144.5 157t-51 293q0 192 55.5 303t156 158t233.5 47h579v-1816z" />
    <glyph glyph-name="periodcentered" unicode="&#xb7;" horiz-adv-x="561" 
d="M134 718q0 82 42.5 115.5t103.5 33.5t104.5 -33.5t43.5 -115.5q0 -80 -43.5 -115.5t-104.5 -35.5t-103.5 35.5t-42.5 115.5z" />
    <glyph glyph-name="cedilla" unicode="&#xb8;" horiz-adv-x="437" 
d="M423 -268q0 -106 -71 -165t-231 -59q-38 0 -70 5t-55 11v137q24 -6 60 -11t66 -5q52 0 82.5 18t30.5 61q0 46 -45 73t-133 38l84 165h152l-41 -86q46 -12 84.5 -35t62.5 -59.5t24 -87.5z" />
    <glyph glyph-name="uni00B9" unicode="&#xb9;" horiz-adv-x="744" 
d="M533 1729v-877h-187v506q0 32 1 69.5t3 72t4 56.5q-17 -17 -41.5 -39.5t-47.5 -39.5l-93 -69l-88 111l284 210h165z" />
    <glyph glyph-name="ordmasculine" unicode="&#xba;" horiz-adv-x="780" 
d="M719 1126q0 -169 -89.5 -262.5t-241.5 -93.5q-143 0 -234.5 92.5t-91.5 263.5q0 170 88.5 262t241.5 92q97 0 170.5 -41.5t115 -120.5t41.5 -192zM224 1126q0 -111 39.5 -167.5t126.5 -56.5q86 0 125.5 56.5t39.5 167.5q0 110 -39 165t-126 55q-86 0 -126 -54.5
t-40 -165.5z" />
    <glyph glyph-name="guillemotright" unicode="&#xbb;" horiz-adv-x="1138" 
d="M1058 539l-358 -431l-168 94l282 351l-282 350l168 94l358 -432v-26zM604 539l-356 -431l-168 94l282 351l-282 350l168 94l356 -432v-26z" />
    <glyph glyph-name="onequarter" unicode="&#xbc;" horiz-adv-x="1608" 
d="M291 0l845 1462h192l-845 -1462h-192zM318 586v506q0 32 1 69t2.5 72t3.5 57q-16 -17 -41 -39.5t-48 -39.5l-93 -69l-87 111l284 209h164v-876h-186zM1273 0v179h-392v125l395 579h187v-564h126v-140h-126v-179h-190zM1040 319h233v186q0 43 1.5 94t4.5 100
q-11 -27 -38.5 -76t-48.5 -80z" />
    <glyph glyph-name="onehalf" unicode="&#xbd;" horiz-adv-x="1682" 
d="M264 0l845 1462h191l-845 -1462h-191zM306 586v506q0 24 0.5 51t2 54.5t3 51.5t2.5 41q-17 -17 -41.5 -39.5t-47.5 -39.5l-93 -69l-87 111l284 209h164v-876h-187zM990 0v136l230 226q72 70 111.5 115.5t55 82t15.5 77.5q0 52 -32 80t-84 28q-51 0 -98.5 -22.5
t-100.5 -66.5l-94 121q62 53 137.5 86t172.5 33q131 0 209 -64t78 -181q0 -65 -25.5 -120t-76.5 -112t-130 -130l-137 -129h381v-160h-612z" />
    <glyph glyph-name="threequarters" unicode="&#xbe;" horiz-adv-x="1663" 
d="M374 0l845 1462h191l-844 -1462h-192zM331 570q-74 0 -140 15.5t-129 47.5v156q67 -37 134.5 -58t134.5 -21q91 0 134.5 35t43.5 99q0 59 -47.5 92.5t-149.5 33.5h-116v133h105q105 0 144 37t39 92q0 51 -33.5 79.5t-91.5 28.5q-56 0 -104.5 -20t-104.5 -58l-84 115
q62 46 135 75t171 29q133 0 210.5 -63t77.5 -165q0 -76 -42 -127.5t-118 -75.5v-10q91 -19 139.5 -74t48.5 -132q0 -120 -87.5 -192t-269.5 -72zM1328 0v179h-392v125l395 579h187v-564h126v-140h-126v-179h-190zM1096 319h232v186q0 43 1.5 94t4.5 100q-12 -27 -39 -76
t-48 -80z" />
    <glyph glyph-name="questiondown" unicode="&#xbf;" horiz-adv-x="931" 
d="M650 645v-63q0 -73 -17 -128.5t-56.5 -104t-107.5 -102.5q-70 -54 -112 -94t-60.5 -80.5t-18.5 -95.5q0 -84 58 -129t161 -45q93 0 173.5 26.5t159.5 65.5l84 -177q-91 -49 -197 -80t-236 -31q-203 0 -315 99t-112 262q0 88 28.5 151.5t83 117t131.5 113.5q64 50 97 86
t45 73t12 89v47h199zM688 967q0 -82 -41.5 -116t-105.5 -34q-59 0 -102.5 34t-43.5 116q0 79 43.5 115t102.5 36q64 0 105.5 -36t41.5 -115z" />
    <glyph glyph-name="Agrave" unicode="&#xc0;" horiz-adv-x="1354" 
d="M1098 0l-143 406h-559l-143 -406h-253l544 1468h266l543 -1468h-255zM893 612l-139 400q-8 26 -23 73.5t-30 97t-25 83.5q-10 -41 -24.5 -91.5t-28 -94.5t-20.5 -68l-140 -400h430zM617 1925q27 -46 66 -102t81 -109t74 -91v-26h-157q-38 28 -85 68.5t-95.5 85t-89 85
t-64.5 69.5v20h270z" />
    <glyph glyph-name="Aacute" unicode="&#xc1;" horiz-adv-x="1354" 
d="M1098 0l-143 406h-559l-143 -406h-253l544 1468h266l543 -1468h-255zM893 612l-139 400q-8 26 -23 73.5t-30 97t-25 83.5q-10 -41 -24.5 -91.5t-28 -94.5t-20.5 -68l-140 -400h430zM1017 1925v-20q-24 -29 -65 -69.5t-89 -85t-95 -85t-85 -68.5h-157v26q33 38 73.5 91
t80 109t66.5 102h271z" />
    <glyph glyph-name="Acircumflex" unicode="&#xc2;" horiz-adv-x="1354" 
d="M1098 0l-143 406h-559l-143 -406h-253l544 1468h266l543 -1468h-255zM893 612l-139 400q-8 26 -23 73.5t-30 97t-25 83.5q-10 -41 -24.5 -91.5t-28 -94.5t-20.5 -68l-140 -400h430zM810 1925q27 -46 72.5 -102t95 -109.5t87.5 -91.5v-25h-160q-54 34 -114.5 81.5
t-113.5 102.5q-54 -55 -112.5 -102t-111.5 -82h-159v25q38 39 87 92t94 109t72 102h263z" />
    <glyph glyph-name="Atilde" unicode="&#xc3;" horiz-adv-x="1354" 
d="M1098 0l-143 406h-559l-143 -406h-253l544 1468h266l543 -1468h-255zM893 612l-139 400q-8 26 -23 73.5t-30 97t-25 83.5q-10 -41 -24.5 -91.5t-28 -94.5t-20.5 -68l-140 -400h430zM280 1598q6 70 26 122.5t52.5 88t75 53.5t92.5 18q44 0 84.5 -17t79 -39.5t75 -39.5
t70.5 -17q39 0 66.5 28t41.5 87h123q-12 -138 -79 -210.5t-167 -72.5q-42 0 -82.5 17.5t-78.5 39.5t-75 39t-72 17q-40 0 -67.5 -28t-40.5 -86h-124z" />
    <glyph glyph-name="Adieresis" unicode="&#xc4;" horiz-adv-x="1354" 
d="M1098 0l-143 406h-559l-143 -406h-253l544 1468h266l543 -1468h-255zM893 612l-139 400q-8 26 -23 73.5t-30 97t-25 83.5q-10 -41 -24.5 -91.5t-28 -94.5t-20.5 -68l-140 -400h430zM363 1756q0 60 33 87.5t81 27.5t82.5 -27.5t34.5 -87.5q0 -58 -34.5 -87t-82.5 -29
t-81 29t-33 87zM756 1756q0 60 33.5 87.5t81.5 27.5t82.5 -27.5t34.5 -87.5q0 -58 -34.5 -87t-82.5 -29t-81.5 29t-33.5 87z" />
    <glyph glyph-name="Aring" unicode="&#xc5;" horiz-adv-x="1354" 
d="M1098 0l-143 406h-559l-143 -406h-253l544 1468h266l543 -1468h-255zM893 612l-139 400q-8 26 -23 73.5t-30 97t-25 83.5q-10 -41 -24.5 -91.5t-28 -94.5t-20.5 -68l-140 -400h430zM675 1350q-104 0 -169.5 60t-65.5 167q0 105 65 165t170 60q100 0 169.5 -60t69.5 -163
q0 -108 -68.5 -168.5t-170.5 -60.5zM675 1468q47 0 77.5 29.5t30.5 79.5q0 49 -31 78t-77 29t-77 -29t-31 -78q0 -50 27.5 -79.5t80.5 -29.5z" />
    <glyph glyph-name="AE" unicode="&#xc6;" horiz-adv-x="1864" 
d="M1747 0h-818v406h-498l-186 -406h-246l671 1462h1077v-202h-578v-397h540v-201h-540v-459h578v-203zM520 612h409v642h-121z" />
    <glyph glyph-name="Ccedilla" unicode="&#xc7;" horiz-adv-x="1298" 
d="M815 1279q-105 0 -187.5 -38t-139.5 -109.5t-87 -173t-30 -228.5q0 -170 48 -292.5t146 -188t248 -65.5q93 0 181 18t182 49v-204q-89 -35 -180 -51t-210 -16q-224 0 -371.5 93t-220 262t-72.5 396q0 166 46 304t134 238.5t217.5 155t296.5 54.5q110 0 216.5 -24.5
t197.5 -69.5l-84 -198q-76 36 -159 62t-172 26zM979 -268q0 -106 -71 -165t-231 -59q-38 0 -70 5t-55 11v137q24 -6 60 -11t66 -5q52 0 82.5 18t30.5 61q0 46 -45 73t-133 38l84 165h152l-41 -86q46 -12 84.5 -35t62.5 -59.5t24 -87.5z" />
    <glyph glyph-name="Egrave" unicode="&#xc8;" horiz-adv-x="1143" 
d="M1020 0h-828v1462h828v-202h-588v-397h551v-201h-551v-459h588v-203zM562 1925q27 -46 66 -102t81 -109t74 -91v-26h-157q-38 28 -85 68.5t-95.5 85t-89 85t-64.5 69.5v20h270z" />
    <glyph glyph-name="Eacute" unicode="&#xc9;" horiz-adv-x="1143" 
d="M1020 0h-828v1462h828v-202h-588v-397h551v-201h-551v-459h588v-203zM963 1925v-20q-24 -29 -65 -69.5t-89 -85t-95 -85t-85 -68.5h-157v26q33 38 73.5 91t80 109t66.5 102h271z" />
    <glyph glyph-name="Ecircumflex" unicode="&#xca;" horiz-adv-x="1143" 
d="M1020 0h-828v1462h828v-202h-588v-397h551v-201h-551v-459h588v-203zM755 1925q27 -46 72.5 -102t95 -109.5t87.5 -91.5v-25h-160q-54 34 -114.5 81.5t-113.5 102.5q-54 -55 -112.5 -102t-111.5 -82h-159v25q38 39 87 92t94 109t72 102h263z" />
    <glyph glyph-name="Edieresis" unicode="&#xcb;" horiz-adv-x="1143" 
d="M1020 0h-828v1462h828v-202h-588v-397h551v-201h-551v-459h588v-203zM309 1756q0 60 33 87.5t81 27.5t82.5 -27.5t34.5 -87.5q0 -58 -34.5 -87t-82.5 -29t-81 29t-33 87zM702 1756q0 60 33.5 87.5t81.5 27.5t82.5 -27.5t34.5 -87.5q0 -58 -34.5 -87t-82.5 -29t-81.5 29
t-33.5 87z" />
    <glyph glyph-name="Igrave" unicode="&#xcc;" horiz-adv-x="625" 
d="M192 0v1462h240v-1462h-240zM218 1925q27 -46 66 -102t81 -109t74 -91v-26h-157q-38 28 -85 68.5t-95.5 85t-89 85t-64.5 69.5v20h270z" />
    <glyph glyph-name="Iacute" unicode="&#xcd;" horiz-adv-x="625" 
d="M192 0v1462h240v-1462h-240zM678 1925v-20q-24 -29 -65 -69.5t-89 -85t-95 -85t-85 -68.5h-157v26q33 38 73.5 91t80 109t66.5 102h271z" />
    <glyph glyph-name="Icircumflex" unicode="&#xce;" horiz-adv-x="625" 
d="M192 0v1462h240v-1462h-240zM444 1925q27 -46 72.5 -102t95 -109.5t87.5 -91.5v-25h-160q-54 34 -114.5 81.5t-113.5 102.5q-54 -55 -112.5 -102t-111.5 -82h-159v25q38 39 87 92t94 109t72 102h263z" />
    <glyph glyph-name="Idieresis" unicode="&#xcf;" horiz-adv-x="625" 
d="M192 0v1462h240v-1462h-240zM2 1756q0 60 33 87.5t81 27.5t82.5 -27.5t34.5 -87.5q0 -58 -34.5 -87t-82.5 -29t-81 29t-33 87zM395 1756q0 60 33.5 87.5t81.5 27.5t82.5 -27.5t34.5 -87.5q0 -58 -34.5 -87t-82.5 -29t-81.5 29t-33.5 87z" />
    <glyph glyph-name="Eth" unicode="&#xd0;" horiz-adv-x="1501" 
d="M642 1462q226 0 391.5 -81.5t255.5 -241t90 -394.5q0 -247 -92 -412.5t-267 -249t-423 -83.5h-398v623h-146v201h146v638h443zM636 1263h-198v-439h305v-201h-305v-422h163q264 0 396 135t132 402q0 180 -57.5 296t-167.5 172.5t-268 56.5z" />
    <glyph glyph-name="Ntilde" unicode="&#xd1;" horiz-adv-x="1604" 
d="M1412 0h-295l-716 1167h-9q4 -59 7.5 -125t6 -136t4.5 -142v-764h-218v1462h293l715 -1159h7q-2 51 -5 117t-5.5 136.5t-3.5 136.5v769h219v-1462zM408 1598q6 70 26 122.5t52.5 88t75 53.5t92.5 18q44 0 84.5 -17t79 -39.5t75 -39.5t70.5 -17q39 0 66.5 28t41.5 87h123
q-12 -138 -79 -210.5t-167 -72.5q-42 0 -82.5 17.5t-78.5 39.5t-75 39t-72 17q-40 0 -67.5 -28t-40.5 -86h-124z" />
    <glyph glyph-name="Ograve" unicode="&#xd2;" horiz-adv-x="1612" 
d="M1490 733q0 -169 -42.5 -307.5t-127.5 -238t-213 -153.5t-300 -54q-175 0 -303.5 54t-213 154t-126.5 239t-42 308q0 226 74.5 394.5t227 262t385.5 93.5q228 0 379 -93t226.5 -261.5t75.5 -397.5zM374 733q0 -169 46 -292.5t141.5 -190t245.5 -66.5q151 0 246 66.5
t140 190t45 292.5q0 257 -102.5 402.5t-326.5 145.5q-150 0 -246.5 -66t-142.5 -188.5t-46 -293.5zM748 1925q27 -46 66 -102t81 -109t74 -91v-26h-157q-38 28 -85 68.5t-95.5 85t-89 85t-64.5 69.5v20h270z" />
    <glyph glyph-name="Oacute" unicode="&#xd3;" horiz-adv-x="1612" 
d="M1490 733q0 -169 -42.5 -307.5t-127.5 -238t-213 -153.5t-300 -54q-175 0 -303.5 54t-213 154t-126.5 239t-42 308q0 226 74.5 394.5t227 262t385.5 93.5q228 0 379 -93t226.5 -261.5t75.5 -397.5zM374 733q0 -169 46 -292.5t141.5 -190t245.5 -66.5q151 0 246 66.5
t140 190t45 292.5q0 257 -102.5 402.5t-326.5 145.5q-150 0 -246.5 -66t-142.5 -188.5t-46 -293.5zM1148 1925v-20q-24 -29 -65 -69.5t-89 -85t-95 -85t-85 -68.5h-157v26q33 38 73.5 91t80 109t66.5 102h271z" />
    <glyph glyph-name="Ocircumflex" unicode="&#xd4;" horiz-adv-x="1612" 
d="M1490 733q0 -169 -42.5 -307.5t-127.5 -238t-213 -153.5t-300 -54q-175 0 -303.5 54t-213 154t-126.5 239t-42 308q0 226 74.5 394.5t227 262t385.5 93.5q228 0 379 -93t226.5 -261.5t75.5 -397.5zM374 733q0 -169 46 -292.5t141.5 -190t245.5 -66.5q151 0 246 66.5
t140 190t45 292.5q0 257 -102.5 402.5t-326.5 145.5q-150 0 -246.5 -66t-142.5 -188.5t-46 -293.5zM940 1925q27 -46 72.5 -102t95 -109.5t87.5 -91.5v-25h-160q-54 34 -114.5 81.5t-113.5 102.5q-54 -55 -112.5 -102t-111.5 -82h-159v25q38 39 87 92t94 109t72 102h263z
" />
    <glyph glyph-name="Otilde" unicode="&#xd5;" horiz-adv-x="1612" 
d="M1490 733q0 -169 -42.5 -307.5t-127.5 -238t-213 -153.5t-300 -54q-175 0 -303.5 54t-213 154t-126.5 239t-42 308q0 226 74.5 394.5t227 262t385.5 93.5q228 0 379 -93t226.5 -261.5t75.5 -397.5zM374 733q0 -169 46 -292.5t141.5 -190t245.5 -66.5q151 0 246 66.5
t140 190t45 292.5q0 257 -102.5 402.5t-326.5 145.5q-150 0 -246.5 -66t-142.5 -188.5t-46 -293.5zM410 1598q6 70 26 122.5t52.5 88t75 53.5t92.5 18q44 0 84.5 -17t79 -39.5t75 -39.5t70.5 -17q39 0 66.5 28t41.5 87h123q-12 -138 -79 -210.5t-167 -72.5q-42 0 -82.5 17.5
t-78.5 39.5t-75 39t-72 17q-40 0 -67.5 -28t-40.5 -86h-124z" />
    <glyph glyph-name="Odieresis" unicode="&#xd6;" horiz-adv-x="1612" 
d="M1490 733q0 -169 -42.5 -307.5t-127.5 -238t-213 -153.5t-300 -54q-175 0 -303.5 54t-213 154t-126.5 239t-42 308q0 226 74.5 394.5t227 262t385.5 93.5q228 0 379 -93t226.5 -261.5t75.5 -397.5zM374 733q0 -169 46 -292.5t141.5 -190t245.5 -66.5q151 0 246 66.5
t140 190t45 292.5q0 257 -102.5 402.5t-326.5 145.5q-150 0 -246.5 -66t-142.5 -188.5t-46 -293.5zM494 1756q0 60 33 87.5t81 27.5t82.5 -27.5t34.5 -87.5q0 -58 -34.5 -87t-82.5 -29t-81 29t-33 87zM887 1756q0 60 33.5 87.5t81.5 27.5t82.5 -27.5t34.5 -87.5
q0 -58 -34.5 -87t-82.5 -29t-81.5 29t-33.5 87z" />
    <glyph glyph-name="multiply" unicode="&#xd7;" horiz-adv-x="1171" 
d="M914 1176l123 -123l-329 -330l327 -328l-122 -125l-331 327l-325 -326l-124 125l325 327l-327 327l126 126l326 -327z" />
    <glyph glyph-name="Oslash" unicode="&#xd8;" horiz-adv-x="1612" 
d="M1490 733q0 -169 -42.5 -307.5t-127.5 -238t-213 -153.5t-300 -54q-108 0 -198.5 21t-161.5 63l-96 -140l-139 92l100 146q-96 100 -143 245.5t-47 327.5q0 226 74.5 394.5t227 262t385.5 93.5q104 0 194 -21.5t162 -61.5l91 132l138 -92l-97 -139q95 -98 144 -243
t49 -327zM1238 733q0 112 -20.5 203.5t-60.5 158.5l-587 -849q47 -30 105.5 -46t131.5 -16q151 0 246 66.5t140 190t45 292.5zM374 733q0 -111 20 -202.5t60 -159.5l588 849q-46 29 -104 45t-129 16q-150 0 -246.5 -66t-142.5 -188.5t-46 -293.5z" />
    <glyph glyph-name="Ugrave" unicode="&#xd9;" horiz-adv-x="1521" 
d="M1340 1462v-946q0 -153 -64.5 -274t-194.5 -191.5t-327 -70.5q-281 0 -427.5 147.5t-146.5 392.5v942h240v-921q0 -183 86 -270t257 -87q118 0 192.5 41.5t110 122t35.5 194.5v920h239zM702 1925q27 -46 66 -102t81 -109t74 -91v-26h-157q-38 28 -85 68.5t-95.5 85
t-89 85t-64.5 69.5v20h270z" />
    <glyph glyph-name="Uacute" unicode="&#xda;" horiz-adv-x="1521" 
d="M1340 1462v-946q0 -153 -64.5 -274t-194.5 -191.5t-327 -70.5q-281 0 -427.5 147.5t-146.5 392.5v942h240v-921q0 -183 86 -270t257 -87q118 0 192.5 41.5t110 122t35.5 194.5v920h239zM1102 1925v-20q-24 -29 -65 -69.5t-89 -85t-95 -85t-85 -68.5h-157v26
q33 38 73.5 91t80 109t66.5 102h271z" />
    <glyph glyph-name="Ucircumflex" unicode="&#xdb;" horiz-adv-x="1521" 
d="M1340 1462v-946q0 -153 -64.5 -274t-194.5 -191.5t-327 -70.5q-281 0 -427.5 147.5t-146.5 392.5v942h240v-921q0 -183 86 -270t257 -87q118 0 192.5 41.5t110 122t35.5 194.5v920h239zM895 1925q27 -46 72.5 -102t95 -109.5t87.5 -91.5v-25h-160q-54 34 -114.5 81.5
t-113.5 102.5q-54 -55 -112.5 -102t-111.5 -82h-159v25q38 39 87 92t94 109t72 102h263z" />
    <glyph glyph-name="Udieresis" unicode="&#xdc;" horiz-adv-x="1521" 
d="M1340 1462v-946q0 -153 -64.5 -274t-194.5 -191.5t-327 -70.5q-281 0 -427.5 147.5t-146.5 392.5v942h240v-921q0 -183 86 -270t257 -87q118 0 192.5 41.5t110 122t35.5 194.5v920h239zM449 1756q0 60 33 87.5t81 27.5t82.5 -27.5t34.5 -87.5q0 -58 -34.5 -87t-82.5 -29
t-81 29t-33 87zM842 1756q0 60 33.5 87.5t81.5 27.5t82.5 -27.5t34.5 -87.5q0 -58 -34.5 -87t-82.5 -29t-81.5 29t-33.5 87z" />
    <glyph glyph-name="Yacute" unicode="&#xdd;" horiz-adv-x="1212" 
d="M606 795l347 667h259l-486 -894v-568h-239v559l-487 903h261zM948 1925v-20q-24 -29 -65 -69.5t-89 -85t-95 -85t-85 -68.5h-157v26q33 38 73.5 91t80 109t66.5 102h271z" />
    <glyph glyph-name="Thorn" unicode="&#xde;" horiz-adv-x="1259" 
d="M1161 776q0 -94 -29 -178.5t-94.5 -149.5t-174 -103t-266.5 -38h-165v-307h-240v1462h240v-242h194q280 0 407.5 -118.5t127.5 -325.5zM432 505h129q120 0 198.5 26.5t117.5 85.5t39 155q0 127 -77.5 188t-246.5 61h-160v-516z" />
    <glyph glyph-name="germandbls" unicode="&#xdf;" horiz-adv-x="1366" 
d="M1150 1255q0 -74 -29 -127t-71.5 -93t-85 -71.5t-71.5 -61t-29 -62.5q0 -28 17 -51t60 -52.5t118 -79.5q69 -45 119.5 -92t77.5 -106t27 -141q0 -113 -50 -188t-143 -112.5t-225 -37.5q-98 0 -170.5 16t-128.5 49v197q34 -21 81.5 -40.5t101 -32t103.5 -12.5
q98 0 145.5 40.5t47.5 112.5q0 45 -16 77.5t-57.5 66t-116.5 79.5q-84 51 -133 94t-70 87t-21 99q0 64 28 108.5t70 78.5t83.5 65t69.5 68.5t28 89.5q0 76 -68.5 116t-174.5 40q-75 0 -134.5 -21.5t-94.5 -69.5t-35 -128v-1160h-235v1165q0 142 65 230.5t178 130t256 41.5
q141 0 250 -35.5t171 -105t62 -171.5z" />
    <glyph glyph-name="agrave" unicode="&#xe0;" horiz-adv-x="1188" 
d="M602 1128q210 0 317.5 -93t107.5 -290v-745h-167l-45 157h-8q-47 -60 -97 -99t-115.5 -58.5t-159.5 -19.5q-99 0 -177 36.5t-123 111.5t-45 190q0 171 127.5 257t385.5 95l192 7v58q0 115 -53.5 164t-150.5 49q-83 0 -161 -24t-152 -59l-76 166q81 43 184.5 70t215.5 27z
M794 529l-143 -5q-176 -6 -247 -60t-71 -148q0 -82 49 -119.5t129 -37.5q122 0 202.5 69.5t80.5 204.5v96zM535 1569q27 -46 66 -102t81 -109t74 -91v-26h-157q-38 28 -85 68.5t-95.5 85t-89 85t-64.5 69.5v20h270z" />
    <glyph glyph-name="aacute" unicode="&#xe1;" horiz-adv-x="1188" 
d="M602 1128q210 0 317.5 -93t107.5 -290v-745h-167l-45 157h-8q-47 -60 -97 -99t-115.5 -58.5t-159.5 -19.5q-99 0 -177 36.5t-123 111.5t-45 190q0 171 127.5 257t385.5 95l192 7v58q0 115 -53.5 164t-150.5 49q-83 0 -161 -24t-152 -59l-76 166q81 43 184.5 70t215.5 27z
M794 529l-143 -5q-176 -6 -247 -60t-71 -148q0 -82 49 -119.5t129 -37.5q122 0 202.5 69.5t80.5 204.5v96zM935 1569v-20q-24 -29 -65 -69.5t-89 -85t-95 -85t-85 -68.5h-157v26q33 38 73.5 91t80 109t66.5 102h271z" />
    <glyph glyph-name="acircumflex" unicode="&#xe2;" horiz-adv-x="1188" 
d="M602 1128q210 0 317.5 -93t107.5 -290v-745h-167l-45 157h-8q-47 -60 -97 -99t-115.5 -58.5t-159.5 -19.5q-99 0 -177 36.5t-123 111.5t-45 190q0 171 127.5 257t385.5 95l192 7v58q0 115 -53.5 164t-150.5 49q-83 0 -161 -24t-152 -59l-76 166q81 43 184.5 70t215.5 27z
M794 529l-143 -5q-176 -6 -247 -60t-71 -148q0 -82 49 -119.5t129 -37.5q122 0 202.5 69.5t80.5 204.5v96zM727 1569q27 -46 72.5 -102t95 -109.5t87.5 -91.5v-25h-160q-54 34 -114.5 81.5t-113.5 102.5q-54 -55 -112.5 -102t-111.5 -82h-159v25q38 39 87 92t94 109t72 102
h263z" />
    <glyph glyph-name="atilde" unicode="&#xe3;" horiz-adv-x="1188" 
d="M602 1128q210 0 317.5 -93t107.5 -290v-745h-167l-45 157h-8q-47 -60 -97 -99t-115.5 -58.5t-159.5 -19.5q-99 0 -177 36.5t-123 111.5t-45 190q0 171 127.5 257t385.5 95l192 7v58q0 115 -53.5 164t-150.5 49q-83 0 -161 -24t-152 -59l-76 166q81 43 184.5 70t215.5 27z
M794 529l-143 -5q-176 -6 -247 -60t-71 -148q0 -82 49 -119.5t129 -37.5q122 0 202.5 69.5t80.5 204.5v96zM197 1242q6 70 26 122.5t52.5 88t75 53.5t92.5 18q44 0 84.5 -17t79 -39.5t75 -39.5t70.5 -17q39 0 66.5 28t41.5 87h123q-12 -138 -79 -210.5t-167 -72.5
q-42 0 -82.5 17.5t-78.5 39.5t-75 39t-72 17q-40 0 -67.5 -28t-40.5 -86h-124z" />
    <glyph glyph-name="adieresis" unicode="&#xe4;" horiz-adv-x="1188" 
d="M602 1128q210 0 317.5 -93t107.5 -290v-745h-167l-45 157h-8q-47 -60 -97 -99t-115.5 -58.5t-159.5 -19.5q-99 0 -177 36.5t-123 111.5t-45 190q0 171 127.5 257t385.5 95l192 7v58q0 115 -53.5 164t-150.5 49q-83 0 -161 -24t-152 -59l-76 166q81 43 184.5 70t215.5 27z
M794 529l-143 -5q-176 -6 -247 -60t-71 -148q0 -82 49 -119.5t129 -37.5q122 0 202.5 69.5t80.5 204.5v96zM281 1400q0 60 33 87.5t81 27.5t82.5 -27.5t34.5 -87.5q0 -58 -34.5 -87t-82.5 -29t-81 29t-33 87zM674 1400q0 60 33.5 87.5t81.5 27.5t82.5 -27.5t34.5 -87.5
q0 -58 -34.5 -87t-82.5 -29t-81.5 29t-33.5 87z" />
    <glyph glyph-name="aring" unicode="&#xe5;" horiz-adv-x="1188" 
d="M602 1128q210 0 317.5 -93t107.5 -290v-745h-167l-45 157h-8q-47 -60 -97 -99t-115.5 -58.5t-159.5 -19.5q-99 0 -177 36.5t-123 111.5t-45 190q0 171 127.5 257t385.5 95l192 7v58q0 115 -53.5 164t-150.5 49q-83 0 -161 -24t-152 -59l-76 166q81 43 184.5 70t215.5 27z
M794 529l-143 -5q-176 -6 -247 -60t-71 -148q0 -82 49 -119.5t129 -37.5q122 0 202.5 69.5t80.5 204.5v96zM596 1241q-104 0 -169.5 60t-65.5 167q0 105 65 165t170 60q100 0 169.5 -60t69.5 -163q0 -108 -68.5 -168.5t-170.5 -60.5zM596 1359q47 0 77.5 29.5t30.5 79.5
q0 49 -31 78t-77 29t-77 -29t-31 -78q0 -50 27.5 -79.5t80.5 -29.5z" />
    <glyph glyph-name="ae" unicode="&#xe6;" horiz-adv-x="1822" 
d="M1274 1128q137 0 238.5 -61t157.5 -173t55 -266v-127h-716q5 -165 82.5 -250.5t220.5 -85.5q100 0 185 20.5t172 60.5v-191q-83 -39 -167.5 -57t-200.5 -18q-94 0 -174 25t-143.5 74.5t-107.5 123.5q-53 -72 -110.5 -122t-135 -75.5t-188.5 -25.5q-98 0 -178 36.5
t-127 111.5t-47 190q0 114 55 190t164.5 116t272.5 46l189 7v77q0 104 -54 149t-146 45q-81 0 -157.5 -23t-149.5 -58l-75 164q81 43 185 70t212 27q121 0 205 -39t133 -122q59 78 146 119.5t204 41.5zM769 529l-135 -5q-166 -6 -233.5 -60t-67.5 -148q0 -82 46.5 -119.5
t123.5 -37.5t137 31t94.5 92t34.5 151v96zM1270 951q-111 0 -178.5 -70.5t-77.5 -212.5h480q0 84 -25 147.5t-74.5 99.5t-124.5 36z" />
    <glyph glyph-name="ccedilla" unicode="&#xe7;" horiz-adv-x="1017" 
d="M614 -20q-157 0 -272 61t-177 187t-62 320q0 202 68 330t188.5 189t276.5 61q99 0 179.5 -19.5t136.5 -47.5l-70 -188q-61 25 -125 42t-123 17q-97 0 -161.5 -43t-96 -128t-31.5 -211q0 -122 32 -205.5t95 -126t155 -42.5q91 0 163 22t136 57v-204q-63 -36 -135 -53.5
t-177 -17.5zM806 -268q0 -106 -71 -165t-231 -59q-38 0 -70 5t-55 11v137q24 -6 60 -11t66 -5q52 0 82.5 18t30.5 61q0 46 -45 73t-133 38l84 165h152l-41 -86q46 -12 84.5 -35t62.5 -59.5t24 -87.5z" />
    <glyph glyph-name="egrave" unicode="&#xe8;" horiz-adv-x="1180" 
d="M609 1128q148 0 254 -61t163 -173t57 -268v-126h-739q4 -161 86.5 -248t231.5 -87q106 0 190.5 20.5t174.5 60.5v-191q-83 -39 -169 -57t-206 -18q-163 0 -286.5 63.5t-193 189.5t-69.5 313q0 186 63 316t177 198t266 68zM609 951q-111 0 -179.5 -72t-80.5 -211h504
q-1 83 -27.5 147t-80 100t-136.5 36zM536 1569q27 -46 66 -102t81 -109t74 -91v-26h-157q-38 28 -85 68.5t-95.5 85t-89 85t-64.5 69.5v20h270z" />
    <glyph glyph-name="eacute" unicode="&#xe9;" horiz-adv-x="1180" 
d="M609 1128q148 0 254 -61t163 -173t57 -268v-126h-739q4 -161 86.5 -248t231.5 -87q106 0 190.5 20.5t174.5 60.5v-191q-83 -39 -169 -57t-206 -18q-163 0 -286.5 63.5t-193 189.5t-69.5 313q0 186 63 316t177 198t266 68zM609 951q-111 0 -179.5 -72t-80.5 -211h504
q-1 83 -27.5 147t-80 100t-136.5 36zM936 1569v-20q-24 -29 -65 -69.5t-89 -85t-95 -85t-85 -68.5h-157v26q33 38 73.5 91t80 109t66.5 102h271z" />
    <glyph glyph-name="ecircumflex" unicode="&#xea;" horiz-adv-x="1180" 
d="M609 1128q148 0 254 -61t163 -173t57 -268v-126h-739q4 -161 86.5 -248t231.5 -87q106 0 190.5 20.5t174.5 60.5v-191q-83 -39 -169 -57t-206 -18q-163 0 -286.5 63.5t-193 189.5t-69.5 313q0 186 63 316t177 198t266 68zM609 951q-111 0 -179.5 -72t-80.5 -211h504
q-1 83 -27.5 147t-80 100t-136.5 36zM728 1569q27 -46 72.5 -102t95 -109.5t87.5 -91.5v-25h-160q-54 34 -114.5 81.5t-113.5 102.5q-54 -55 -112.5 -102t-111.5 -82h-159v25q38 39 87 92t94 109t72 102h263z" />
    <glyph glyph-name="edieresis" unicode="&#xeb;" horiz-adv-x="1180" 
d="M609 1128q148 0 254 -61t163 -173t57 -268v-126h-739q4 -161 86.5 -248t231.5 -87q106 0 190.5 20.5t174.5 60.5v-191q-83 -39 -169 -57t-206 -18q-163 0 -286.5 63.5t-193 189.5t-69.5 313q0 186 63 316t177 198t266 68zM609 951q-111 0 -179.5 -72t-80.5 -211h504
q-1 83 -27.5 147t-80 100t-136.5 36zM282 1400q0 60 33 87.5t81 27.5t82.5 -27.5t34.5 -87.5q0 -58 -34.5 -87t-82.5 -29t-81 29t-33 87zM675 1400q0 60 33.5 87.5t81.5 27.5t82.5 -27.5t34.5 -87.5q0 -58 -34.5 -87t-82.5 -29t-81.5 29t-33.5 87z" />
    <glyph glyph-name="igrave" unicode="&#xec;" horiz-adv-x="571" 
d="M403 0h-235v1107h235v-1107zM227 1569q27 -46 66 -102t81 -109t74 -91v-26h-157q-38 28 -85 68.5t-95.5 85t-89 85t-64.5 69.5v20h270z" />
    <glyph glyph-name="iacute" unicode="&#xed;" horiz-adv-x="571" 
d="M403 0h-235v1107h235v-1107zM627 1569v-20q-24 -29 -65 -69.5t-89 -85t-95 -85t-85 -68.5h-157v26q33 38 73.5 91t80 109t66.5 102h271z" />
    <glyph glyph-name="icircumflex" unicode="&#xee;" horiz-adv-x="571" 
d="M403 0h-235v1107h235v-1107zM419 1569q27 -46 72.5 -102t95 -109.5t87.5 -91.5v-25h-160q-54 34 -114.5 81.5t-113.5 102.5q-54 -55 -112.5 -102t-111.5 -82h-159v25q38 39 87 92t94 109t72 102h263z" />
    <glyph glyph-name="idieresis" unicode="&#xef;" horiz-adv-x="571" 
d="M403 0h-235v1107h235v-1107zM-27 1400q0 60 33 87.5t81 27.5t82.5 -27.5t34.5 -87.5q0 -58 -34.5 -87t-82.5 -29t-81 29t-33 87zM366 1400q0 60 33.5 87.5t81.5 27.5t82.5 -27.5t34.5 -87.5q0 -58 -34.5 -87t-82.5 -29t-81.5 29t-33.5 87z" />
    <glyph glyph-name="eth" unicode="&#xf0;" horiz-adv-x="1248" 
d="M449 1566q70 -31 135 -67.5t122 -77.5l230 139l86 -128l-187 -112q98 -90 167.5 -202.5t106.5 -249.5t37 -300q0 -190 -63.5 -321t-181 -199t-280.5 -68q-152 0 -269 60t-183 172.5t-66 269.5q0 158 60 269.5t168 170.5t251 59q72 0 129 -12t100 -36.5t71 -61.5l8 4
q-33 101 -90.5 186t-134.5 156l-248 -148l-86 130l204 120q-39 26 -82 52t-88 50zM626 801q-99 0 -161.5 -36.5t-92 -108.5t-29.5 -178q0 -94 29.5 -165.5t92 -111.5t160.5 -40q147 0 214 93t67 273q0 55 -16.5 104t-50.5 87.5t-87 60.5t-126 22z" />
    <glyph glyph-name="ntilde" unicode="&#xf1;" horiz-adv-x="1301" 
d="M745 1128q187 0 291.5 -96.5t104.5 -309.5v-722h-235v678q0 129 -53 193.5t-164 64.5q-161 0 -223.5 -99t-62.5 -287v-550h-235v1107h183l33 -150h13q36 58 89.5 95.5t120 56.5t138.5 19zM256 1242q6 70 26 122.5t52.5 88t75 53.5t92.5 18q44 0 84.5 -17t79 -39.5
t75 -39.5t70.5 -17q39 0 66.5 28t41.5 87h123q-12 -138 -79 -210.5t-167 -72.5q-42 0 -82.5 17.5t-78.5 39.5t-75 39t-72 17q-40 0 -67.5 -28t-40.5 -86h-124z" />
    <glyph glyph-name="ograve" unicode="&#xf2;" horiz-adv-x="1250" 
d="M1148 556q0 -138 -36 -245t-105 -180.5t-166 -112t-219 -38.5q-114 0 -209 38.5t-164.5 112t-107.5 180.5t-38 245q0 183 63.5 310.5t181.5 194.5t281 67q153 0 270 -67t183 -195t66 -310zM345 556q0 -121 29.5 -207t91.5 -131.5t160 -45.5t160 45.5t91 131.5t29 207
t-29 205.5t-91 129t-161 44.5q-146 0 -213 -98t-67 -281zM567 1569q27 -46 66 -102t81 -109t74 -91v-26h-157q-38 28 -85 68.5t-95.5 85t-89 85t-64.5 69.5v20h270z" />
    <glyph glyph-name="oacute" unicode="&#xf3;" horiz-adv-x="1250" 
d="M1148 556q0 -138 -36 -245t-105 -180.5t-166 -112t-219 -38.5q-114 0 -209 38.5t-164.5 112t-107.5 180.5t-38 245q0 183 63.5 310.5t181.5 194.5t281 67q153 0 270 -67t183 -195t66 -310zM345 556q0 -121 29.5 -207t91.5 -131.5t160 -45.5t160 45.5t91 131.5t29 207
t-29 205.5t-91 129t-161 44.5q-146 0 -213 -98t-67 -281zM968 1569v-20q-24 -29 -65 -69.5t-89 -85t-95 -85t-85 -68.5h-157v26q33 38 73.5 91t80 109t66.5 102h271z" />
    <glyph glyph-name="ocircumflex" unicode="&#xf4;" horiz-adv-x="1250" 
d="M1148 556q0 -138 -36 -245t-105 -180.5t-166 -112t-219 -38.5q-114 0 -209 38.5t-164.5 112t-107.5 180.5t-38 245q0 183 63.5 310.5t181.5 194.5t281 67q153 0 270 -67t183 -195t66 -310zM345 556q0 -121 29.5 -207t91.5 -131.5t160 -45.5t160 45.5t91 131.5t29 207
t-29 205.5t-91 129t-161 44.5q-146 0 -213 -98t-67 -281zM760 1569q27 -46 72.5 -102t95 -109.5t87.5 -91.5v-25h-160q-54 34 -114.5 81.5t-113.5 102.5q-54 -55 -112.5 -102t-111.5 -82h-159v25q38 39 87 92t94 109t72 102h263z" />
    <glyph glyph-name="otilde" unicode="&#xf5;" horiz-adv-x="1250" 
d="M1148 556q0 -138 -36 -245t-105 -180.5t-166 -112t-219 -38.5q-114 0 -209 38.5t-164.5 112t-107.5 180.5t-38 245q0 183 63.5 310.5t181.5 194.5t281 67q153 0 270 -67t183 -195t66 -310zM345 556q0 -121 29.5 -207t91.5 -131.5t160 -45.5t160 45.5t91 131.5t29 207
t-29 205.5t-91 129t-161 44.5q-146 0 -213 -98t-67 -281zM230 1242q6 70 26 122.5t52.5 88t75 53.5t92.5 18q44 0 84.5 -17t79 -39.5t75 -39.5t70.5 -17q39 0 66.5 28t41.5 87h123q-12 -138 -79 -210.5t-167 -72.5q-42 0 -82.5 17.5t-78.5 39.5t-75 39t-72 17
q-40 0 -67.5 -28t-40.5 -86h-124z" />
    <glyph glyph-name="odieresis" unicode="&#xf6;" horiz-adv-x="1250" 
d="M1148 556q0 -138 -36 -245t-105 -180.5t-166 -112t-219 -38.5q-114 0 -209 38.5t-164.5 112t-107.5 180.5t-38 245q0 183 63.5 310.5t181.5 194.5t281 67q153 0 270 -67t183 -195t66 -310zM345 556q0 -121 29.5 -207t91.5 -131.5t160 -45.5t160 45.5t91 131.5t29 207
t-29 205.5t-91 129t-161 44.5q-146 0 -213 -98t-67 -281zM313 1400q0 60 33 87.5t81 27.5t82.5 -27.5t34.5 -87.5q0 -58 -34.5 -87t-82.5 -29t-81 29t-33 87zM706 1400q0 60 33.5 87.5t81.5 27.5t82.5 -27.5t34.5 -87.5q0 -58 -34.5 -87t-82.5 -29t-81.5 29t-33.5 87z" />
    <glyph glyph-name="divide" unicode="&#xf7;" horiz-adv-x="1171" 
d="M96 633v178h978v-178h-978zM584 237q-51 0 -87.5 32.5t-36.5 102.5q0 75 36.5 104.5t87.5 29.5q50 0 86.5 -29.5t36.5 -104.5q0 -70 -36.5 -102.5t-86.5 -32.5zM584 938q-51 0 -87.5 32t-36.5 102q0 75 36.5 104.5t87.5 29.5q50 0 86.5 -29.5t36.5 -104.5
q0 -70 -36.5 -102t-86.5 -32z" />
    <glyph glyph-name="oslash" unicode="&#xf8;" horiz-adv-x="1250" 
d="M1148 556q0 -183 -63.5 -312t-181.5 -196.5t-281 -67.5q-71 0 -134 15t-118 45l-78 -111l-131 90l82 116q-67 75 -103.5 180t-36.5 241q0 274 141 423t385 149q73 0 138.5 -17t121.5 -48l70 100l132 -90l-78 -108q64 -73 99.5 -176t35.5 -233zM345 556q0 -66 8.5 -121
t27.5 -98l392 558q-29 19 -66.5 29.5t-81.5 10.5q-146 0 -213 -98t-67 -281zM906 556q0 59 -8 110.5t-24 91.5l-388 -551q27 -18 63 -26.5t77 -8.5q98 0 160 45.5t91 131.5t29 207z" />
    <glyph glyph-name="ugrave" unicode="&#xf9;" horiz-adv-x="1301" 
d="M1133 1107v-1107h-185l-32 149h-13q-35 -57 -89 -94.5t-120 -56t-139 -18.5q-125 0 -213.5 42.5t-135.5 131.5t-47 230v723h236v-679q0 -129 52.5 -193t163.5 -64q107 0 170 44t89.5 130t26.5 211v551h236zM593 1569q27 -46 66 -102t81 -109t74 -91v-26h-157
q-38 28 -85 68.5t-95.5 85t-89 85t-64.5 69.5v20h270z" />
    <glyph glyph-name="uacute" unicode="&#xfa;" horiz-adv-x="1301" 
d="M1133 1107v-1107h-185l-32 149h-13q-35 -57 -89 -94.5t-120 -56t-139 -18.5q-125 0 -213.5 42.5t-135.5 131.5t-47 230v723h236v-679q0 -129 52.5 -193t163.5 -64q107 0 170 44t89.5 130t26.5 211v551h236zM993 1569v-20q-24 -29 -65 -69.5t-89 -85t-95 -85t-85 -68.5
h-157v26q33 38 73.5 91t80 109t66.5 102h271z" />
    <glyph glyph-name="ucircumflex" unicode="&#xfb;" horiz-adv-x="1301" 
d="M1133 1107v-1107h-185l-32 149h-13q-35 -57 -89 -94.5t-120 -56t-139 -18.5q-125 0 -213.5 42.5t-135.5 131.5t-47 230v723h236v-679q0 -129 52.5 -193t163.5 -64q107 0 170 44t89.5 130t26.5 211v551h236zM785 1569q27 -46 72.5 -102t95 -109.5t87.5 -91.5v-25h-160
q-54 34 -114.5 81.5t-113.5 102.5q-54 -55 -112.5 -102t-111.5 -82h-159v25q38 39 87 92t94 109t72 102h263z" />
    <glyph glyph-name="udieresis" unicode="&#xfc;" horiz-adv-x="1301" 
d="M1133 1107v-1107h-185l-32 149h-13q-35 -57 -89 -94.5t-120 -56t-139 -18.5q-125 0 -213.5 42.5t-135.5 131.5t-47 230v723h236v-679q0 -129 52.5 -193t163.5 -64q107 0 170 44t89.5 130t26.5 211v551h236zM338 1400q0 60 33 87.5t81 27.5t82.5 -27.5t34.5 -87.5
q0 -58 -34.5 -87t-82.5 -29t-81 29t-33 87zM731 1400q0 60 33.5 87.5t81.5 27.5t82.5 -27.5t34.5 -87.5q0 -58 -34.5 -87t-82.5 -29t-81.5 29t-33.5 87z" />
    <glyph glyph-name="yacute" unicode="&#xfd;" horiz-adv-x="1096" 
d="M1 1107h256l227 -632q15 -43 27.5 -84.5t22 -81.5t15.5 -80h6q10 52 28.5 116.5t41.5 129.5l218 632h253l-475 -1259q-41 -108 -100.5 -184.5t-140.5 -116t-185 -39.5q-50 0 -87 5.5t-63 11.5v188q21 -5 53 -9t66 -4q63 0 109 25t78 70.5t53 103.5l39 104zM889 1569v-20
q-24 -29 -65 -69.5t-89 -85t-95 -85t-85 -68.5h-157v26q33 38 73.5 91t80 109t66.5 102h271z" />
    <glyph glyph-name="thorn" unicode="&#xfe;" horiz-adv-x="1275" 
d="M1172 556q0 -188 -54.5 -316.5t-152.5 -194t-230 -65.5q-84 0 -147 21t-108 55.5t-76 77.5h-13q3 -19 6 -50.5t5 -64t2 -55.5v-455h-236v2047h236v-426q0 -40 -3.5 -92.5t-6.5 -82.5h10q31 48 76 87t108.5 62.5t147.5 23.5q197 0 316.5 -145t119.5 -427zM931 559
q0 188 -63 282.5t-194 94.5q-146 0 -207 -86.5t-63 -258.5v-35q0 -185 59.5 -284t212.5 -99q86 0 142.5 44.5t84.5 131t28 210.5z" />
    <glyph glyph-name="ydieresis" unicode="&#xff;" horiz-adv-x="1096" 
d="M1 1107h256l227 -632q15 -43 27.5 -84.5t22 -81.5t15.5 -80h6q10 52 28.5 116.5t41.5 129.5l218 632h253l-475 -1259q-41 -108 -100.5 -184.5t-140.5 -116t-185 -39.5q-50 0 -87 5.5t-63 11.5v188q21 -5 53 -9t66 -4q63 0 109 25t78 70.5t53 103.5l39 104zM235 1400
q0 60 33 87.5t81 27.5t82.5 -27.5t34.5 -87.5q0 -58 -34.5 -87t-82.5 -29t-81 29t-33 87zM628 1400q0 60 33.5 87.5t81.5 27.5t82.5 -27.5t34.5 -87.5q0 -58 -34.5 -87t-82.5 -29t-81.5 29t-33.5 87z" />
    <glyph glyph-name="Amacron" unicode="&#x100;" horiz-adv-x="1354" 
d="M1098 0l-143 406h-559l-143 -406h-253l544 1468h266l543 -1468h-255zM893 612l-139 400q-8 26 -23 73.5t-30 97t-25 83.5q-10 -41 -24.5 -91.5t-28 -94.5t-20.5 -68l-140 -400h430zM996 1771v-173h-639v173h639z" />
    <glyph glyph-name="amacron" unicode="&#x101;" horiz-adv-x="1188" 
d="M602 1128q210 0 317.5 -93t107.5 -290v-745h-167l-45 157h-8q-47 -60 -97 -99t-115.5 -58.5t-159.5 -19.5q-99 0 -177 36.5t-123 111.5t-45 190q0 171 127.5 257t385.5 95l192 7v58q0 115 -53.5 164t-150.5 49q-83 0 -161 -24t-152 -59l-76 166q81 43 184.5 70t215.5 27z
M794 529l-143 -5q-176 -6 -247 -60t-71 -148q0 -82 49 -119.5t129 -37.5q122 0 202.5 69.5t80.5 204.5v96zM914 1415v-173h-639v173h639z" />
    <glyph glyph-name="Abreve" unicode="&#x102;" horiz-adv-x="1354" 
d="M1098 0l-143 406h-559l-143 -406h-253l544 1468h266l543 -1468h-255zM893 612l-139 400q-8 26 -23 73.5t-30 97t-25 83.5q-10 -41 -24.5 -91.5t-28 -94.5t-20.5 -68l-140 -400h430zM1035 1901q-7 -90 -52 -158.5t-122 -107t-182 -38.5q-162 0 -251 82.5t-97 221.5h137
q6 -56 33.5 -84t74 -37t106.5 -9q51 0 97.5 10.5t78 38.5t37.5 81h140z" />
    <glyph glyph-name="abreve" unicode="&#x103;" horiz-adv-x="1188" 
d="M602 1128q210 0 317.5 -93t107.5 -290v-745h-167l-45 157h-8q-47 -60 -97 -99t-115.5 -58.5t-159.5 -19.5q-99 0 -177 36.5t-123 111.5t-45 190q0 171 127.5 257t385.5 95l192 7v58q0 115 -53.5 164t-150.5 49q-83 0 -161 -24t-152 -59l-76 166q81 43 184.5 70t215.5 27z
M794 529l-143 -5q-176 -6 -247 -60t-71 -148q0 -82 49 -119.5t129 -37.5q122 0 202.5 69.5t80.5 204.5v96zM953 1545q-7 -90 -52 -158.5t-122 -107t-182 -38.5q-162 0 -251 82.5t-97 221.5h137q6 -56 33.5 -84t74 -37t106.5 -9q51 0 97.5 10.5t78 38.5t37.5 81h140z" />
    <glyph glyph-name="Aogonek" unicode="&#x104;" horiz-adv-x="1354" 
d="M1098 0l-143 406h-559l-143 -406h-253l544 1468h266l543 -1468h-255zM893 612l-139 400q-8 26 -23 73.5t-30 97t-25 83.5q-10 -41 -24.5 -91.5t-28 -94.5t-20.5 -68l-140 -400h430zM1139 -234q0 -44 24 -66.5t64 -22.5q33 0 60.5 5.5t45.5 10.5v-143q-30 -8 -63 -14.5
t-77 -6.5q-110 0 -169 57.5t-59 152.5q0 59 29.5 113.5t77 101t101.5 79.5l112 -33q-69 -65 -107.5 -120t-38.5 -114z" />
    <glyph glyph-name="aogonek" unicode="&#x105;" horiz-adv-x="1188" 
d="M602 1128q210 0 317.5 -93t107.5 -290v-745h-167l-45 157h-8q-47 -60 -97 -99t-115.5 -58.5t-159.5 -19.5q-99 0 -177 36.5t-123 111.5t-45 190q0 171 127.5 257t385.5 95l192 7v58q0 115 -53.5 164t-150.5 49q-83 0 -161 -24t-152 -59l-76 166q81 43 184.5 70t215.5 27z
M794 529l-143 -5q-176 -6 -247 -60t-71 -148q0 -82 49 -119.5t129 -37.5q122 0 202.5 69.5t80.5 204.5v96zM870 -234q0 -44 24 -66.5t64 -22.5q33 0 60.5 5.5t45.5 10.5v-143q-30 -8 -63 -14.5t-77 -6.5q-110 0 -169 57.5t-59 152.5q0 59 29.5 113.5t77 101t101.5 79.5
l112 -33q-69 -65 -107.5 -120t-38.5 -114z" />
    <glyph glyph-name="Cacute" unicode="&#x106;" horiz-adv-x="1298" 
d="M815 1279q-105 0 -187.5 -38t-139.5 -109.5t-87 -173t-30 -228.5q0 -170 48 -292.5t146 -188t248 -65.5q93 0 181 18t182 49v-204q-89 -35 -180 -51t-210 -16q-224 0 -371.5 93t-220 262t-72.5 396q0 166 46 304t134 238.5t217.5 155t296.5 54.5q110 0 216.5 -24.5
t197.5 -69.5l-84 -198q-76 36 -159 62t-172 26zM1116 1925v-20q-24 -29 -65 -69.5t-89 -85t-95 -85t-85 -68.5h-157v26q33 38 73.5 91t80 109t66.5 102h271z" />
    <glyph glyph-name="cacute" unicode="&#x107;" horiz-adv-x="1017" 
d="M614 -20q-157 0 -272 61t-177 187t-62 320q0 202 68 330t188.5 189t276.5 61q99 0 179.5 -19.5t136.5 -47.5l-70 -188q-61 25 -125 42t-123 17q-97 0 -161.5 -43t-96 -128t-31.5 -211q0 -122 32 -205.5t95 -126t155 -42.5q91 0 163 22t136 57v-204q-63 -36 -135 -53.5
t-177 -17.5zM927 1569v-20q-24 -29 -65 -69.5t-89 -85t-95 -85t-85 -68.5h-157v26q33 38 73.5 91t80 109t66.5 102h271z" />
    <glyph glyph-name="Ccircumflex" unicode="&#x108;" horiz-adv-x="1298" 
d="M815 1279q-105 0 -187.5 -38t-139.5 -109.5t-87 -173t-30 -228.5q0 -170 48 -292.5t146 -188t248 -65.5q93 0 181 18t182 49v-204q-89 -35 -180 -51t-210 -16q-224 0 -371.5 93t-220 262t-72.5 396q0 166 46 304t134 238.5t217.5 155t296.5 54.5q110 0 216.5 -24.5
t197.5 -69.5l-84 -198q-76 36 -159 62t-172 26zM908 1925q27 -46 72.5 -102t95 -109.5t87.5 -91.5v-25h-160q-54 34 -114.5 81.5t-113.5 102.5q-54 -55 -112.5 -102t-111.5 -82h-159v25q38 39 87 92t94 109t72 102h263z" />
    <glyph glyph-name="ccircumflex" unicode="&#x109;" horiz-adv-x="1017" 
d="M614 -20q-157 0 -272 61t-177 187t-62 320q0 202 68 330t188.5 189t276.5 61q99 0 179.5 -19.5t136.5 -47.5l-70 -188q-61 25 -125 42t-123 17q-97 0 -161.5 -43t-96 -128t-31.5 -211q0 -122 32 -205.5t95 -126t155 -42.5q91 0 163 22t136 57v-204q-63 -36 -135 -53.5
t-177 -17.5zM719 1569q27 -46 72.5 -102t95 -109.5t87.5 -91.5v-25h-160q-54 34 -114.5 81.5t-113.5 102.5q-54 -55 -112.5 -102t-111.5 -82h-159v25q38 39 87 92t94 109t72 102h263z" />
    <glyph glyph-name="Cdot" unicode="&#x10a;" horiz-adv-x="1298" 
d="M815 1279q-105 0 -187.5 -38t-139.5 -109.5t-87 -173t-30 -228.5q0 -170 48 -292.5t146 -188t248 -65.5q93 0 181 18t182 49v-204q-89 -35 -180 -51t-210 -16q-224 0 -371.5 93t-220 262t-72.5 396q0 166 46 304t134 238.5t217.5 155t296.5 54.5q110 0 216.5 -24.5
t197.5 -69.5l-84 -198q-76 36 -159 62t-172 26zM778 1887q55 0 94 -29t39 -100q0 -70 -39 -99.5t-94 -29.5q-56 0 -94.5 29.5t-38.5 99.5q0 71 38.5 100t94.5 29z" />
    <glyph glyph-name="cdot" unicode="&#x10b;" horiz-adv-x="1017" 
d="M614 -20q-157 0 -272 61t-177 187t-62 320q0 202 68 330t188.5 189t276.5 61q99 0 179.5 -19.5t136.5 -47.5l-70 -188q-61 25 -125 42t-123 17q-97 0 -161.5 -43t-96 -128t-31.5 -211q0 -122 32 -205.5t95 -126t155 -42.5q91 0 163 22t136 57v-204q-63 -36 -135 -53.5
t-177 -17.5zM588 1531q55 0 94 -29t39 -100q0 -70 -39 -99.5t-94 -29.5q-56 0 -94.5 29.5t-38.5 99.5q0 71 38.5 100t94.5 29z" />
    <glyph glyph-name="Ccaron" unicode="&#x10c;" horiz-adv-x="1298" 
d="M815 1279q-105 0 -187.5 -38t-139.5 -109.5t-87 -173t-30 -228.5q0 -170 48 -292.5t146 -188t248 -65.5q93 0 181 18t182 49v-204q-89 -35 -180 -51t-210 -16q-224 0 -371.5 93t-220 262t-72.5 396q0 166 46 304t134 238.5t217.5 155t296.5 54.5q110 0 216.5 -24.5
t197.5 -69.5l-84 -198q-76 36 -159 62t-172 26zM644 1597q-27 46 -72.5 101.5t-94 108.5t-86.5 92v26h159q53 -36 112.5 -83.5t111.5 -102.5q53 55 113.5 103t114.5 83h160v-26q-38 -38 -87.5 -91.5t-95 -109t-72.5 -101.5h-263z" />
    <glyph glyph-name="ccaron" unicode="&#x10d;" horiz-adv-x="1017" 
d="M614 -20q-157 0 -272 61t-177 187t-62 320q0 202 68 330t188.5 189t276.5 61q99 0 179.5 -19.5t136.5 -47.5l-70 -188q-61 25 -125 42t-123 17q-97 0 -161.5 -43t-96 -128t-31.5 -211q0 -122 32 -205.5t95 -126t155 -42.5q91 0 163 22t136 57v-204q-63 -36 -135 -53.5
t-177 -17.5zM455 1241q-27 46 -72.5 101.5t-94 108.5t-86.5 92v26h159q53 -36 112.5 -83.5t111.5 -102.5q53 55 113.5 103t114.5 83h160v-26q-38 -38 -87.5 -91.5t-95 -109t-72.5 -101.5h-263z" />
    <glyph glyph-name="Dcaron" unicode="&#x10e;" horiz-adv-x="1501" 
d="M1379 745q0 -247 -92 -412.5t-267 -249t-422 -83.5h-406v1462h450q227 0 392 -81.5t255 -241t90 -394.5zM1129 738q0 180 -56.5 296t-166 172.5t-269.5 56.5h-205v-1062h170q265 0 396 135t131 402zM617 1597q-27 46 -72.5 101.5t-94 108.5t-86.5 92v26h159
q53 -36 112.5 -83.5t111.5 -102.5q53 55 113.5 103t114.5 83h160v-26q-38 -38 -87.5 -91.5t-95 -109t-72.5 -101.5h-263z" />
    <glyph glyph-name="dcaron" unicode="&#x10f;" horiz-adv-x="1275" 
d="M540 -20q-198 0 -317.5 144.5t-119.5 426.5q0 285 121.5 431t320.5 146q84 0 147 -22.5t108.5 -60.5t77.5 -85h11q-5 31 -11.5 89.5t-6.5 108.5v398h236v-1556h-184l-42 151h-10q-30 -48 -75.5 -86.5t-108 -61.5t-147.5 -23zM606 171q151 0 213 87t64 261v31
q0 186 -60 285.5t-219 99.5q-127 0 -193.5 -102.5t-66.5 -285.5t66.5 -279.5t195.5 -96.5zM1472 1556v-18q-15 -42 -39 -95t-54 -108.5t-63 -105.5h-134v25q10 29 19.5 67t19 80t16.5 82t11 73h224z" />
    <glyph glyph-name="Dcroat" unicode="&#x110;" horiz-adv-x="1501" 
d="M642 1462q226 0 391.5 -81.5t255.5 -241t90 -394.5q0 -247 -92 -412.5t-267 -249t-423 -83.5h-398v623h-146v201h146v638h443zM636 1263h-198v-439h305v-201h-305v-422h163q264 0 396 135t132 402q0 180 -57.5 296t-167.5 172.5t-268 56.5z" />
    <glyph glyph-name="dcroat" unicode="&#x111;" horiz-adv-x="1293" 
d="M540 -20q-198 0 -317.5 140.5t-119.5 412.5q0 280 121.5 420.5t320.5 140.5q83 0 146 -22t109 -60t78 -86h11q-6 38 -12 99t-6 105v91h-379v162h379v173h236v-173h155v-162h-155v-1221h-185l-41 151h-11q-30 -48 -75 -86.5t-108 -61.5t-147 -23zM607 171q150 0 212 83
t63 250v30q0 179 -59.5 273t-218.5 94q-127 0 -193.5 -97t-66.5 -273q0 -175 66.5 -267.5t196.5 -92.5z" />
    <glyph glyph-name="Emacron" unicode="&#x112;" horiz-adv-x="1143" 
d="M1020 0h-828v1462h828v-202h-588v-397h551v-201h-551v-459h588v-203zM942 1771v-173h-639v173h639z" />
    <glyph glyph-name="emacron" unicode="&#x113;" horiz-adv-x="1180" 
d="M609 1128q148 0 254 -61t163 -173t57 -268v-126h-739q4 -161 86.5 -248t231.5 -87q106 0 190.5 20.5t174.5 60.5v-191q-83 -39 -169 -57t-206 -18q-163 0 -286.5 63.5t-193 189.5t-69.5 313q0 186 63 316t177 198t266 68zM609 951q-111 0 -179.5 -72t-80.5 -211h504
q-1 83 -27.5 147t-80 100t-136.5 36zM915 1415v-173h-639v173h639z" />
    <glyph glyph-name="Ebreve" unicode="&#x114;" horiz-adv-x="1143" 
d="M1020 0h-828v1462h828v-202h-588v-397h551v-201h-551v-459h588v-203zM980 1901q-7 -90 -52 -158.5t-122 -107t-182 -38.5q-162 0 -251 82.5t-97 221.5h137q6 -56 33.5 -84t74 -37t106.5 -9q51 0 97.5 10.5t78 38.5t37.5 81h140z" />
    <glyph glyph-name="ebreve" unicode="&#x115;" horiz-adv-x="1180" 
d="M609 1128q148 0 254 -61t163 -173t57 -268v-126h-739q4 -161 86.5 -248t231.5 -87q106 0 190.5 20.5t174.5 60.5v-191q-83 -39 -169 -57t-206 -18q-163 0 -286.5 63.5t-193 189.5t-69.5 313q0 186 63 316t177 198t266 68zM609 951q-111 0 -179.5 -72t-80.5 -211h504
q-1 83 -27.5 147t-80 100t-136.5 36zM954 1545q-7 -90 -52 -158.5t-122 -107t-182 -38.5q-162 0 -251 82.5t-97 221.5h137q6 -56 33.5 -84t74 -37t106.5 -9q51 0 97.5 10.5t78 38.5t37.5 81h140z" />
    <glyph glyph-name="Edotaccent" unicode="&#x116;" horiz-adv-x="1143" 
d="M1020 0h-828v1462h828v-202h-588v-397h551v-201h-551v-459h588v-203zM625 1887q55 0 94 -29t39 -100q0 -70 -39 -99.5t-94 -29.5q-56 0 -94.5 29.5t-38.5 99.5q0 71 38.5 100t94.5 29z" />
    <glyph glyph-name="edotaccent" unicode="&#x117;" horiz-adv-x="1180" 
d="M609 1128q148 0 254 -61t163 -173t57 -268v-126h-739q4 -161 86.5 -248t231.5 -87q106 0 190.5 20.5t174.5 60.5v-191q-83 -39 -169 -57t-206 -18q-163 0 -286.5 63.5t-193 189.5t-69.5 313q0 186 63 316t177 198t266 68zM609 951q-111 0 -179.5 -72t-80.5 -211h504
q-1 83 -27.5 147t-80 100t-136.5 36zM598 1531q55 0 94 -29t39 -100q0 -70 -39 -99.5t-94 -29.5q-56 0 -94.5 29.5t-38.5 99.5q0 71 38.5 100t94.5 29z" />
    <glyph glyph-name="Eogonek" unicode="&#x118;" horiz-adv-x="1143" 
d="M1020 0h-828v1462h828v-202h-588v-397h551v-201h-551v-459h588v-203zM821 -234q0 -44 24 -66.5t64 -22.5q33 0 60.5 5.5t45.5 10.5v-143q-30 -8 -63 -14.5t-77 -6.5q-110 0 -169 57.5t-59 152.5q0 59 29.5 113.5t77 101t101.5 79.5l112 -33q-69 -65 -107.5 -120
t-38.5 -114z" />
    <glyph glyph-name="eogonek" unicode="&#x119;" horiz-adv-x="1180" 
d="M817 -234q0 -44 24 -66.5t64 -22.5q32 0 60 5.5t46 10.5v-143q-30 -8 -63 -14.5t-77 -6.5q-110 0 -169 57.5t-59 152.5q0 59 29.5 113.5t77.5 101t101 80.5l175 21q-81 -68 -126.5 -118.5t-64 -91t-18.5 -79.5zM609 1128q148 0 254 -61t163 -173t57 -268v-126h-739
q4 -161 86.5 -248t231.5 -87q106 0 190.5 20.5t174.5 60.5v-191q-83 -39 -169 -57t-206 -18q-163 0 -286.5 63.5t-193 189.5t-69.5 313q0 186 63 316t177 198t266 68zM609 951q-111 0 -179.5 -72t-80.5 -211h504q-1 83 -27.5 147t-80 100t-136.5 36z" />
    <glyph glyph-name="Ecaron" unicode="&#x11a;" horiz-adv-x="1143" 
d="M1020 0h-828v1462h828v-202h-588v-397h551v-201h-551v-459h588v-203zM491 1597q-27 46 -72.5 101.5t-94 108.5t-86.5 92v26h159q53 -36 112.5 -83.5t111.5 -102.5q53 55 113.5 103t114.5 83h160v-26q-38 -38 -87.5 -91.5t-95 -109t-72.5 -101.5h-263z" />
    <glyph glyph-name="ecaron" unicode="&#x11b;" horiz-adv-x="1180" 
d="M609 1128q148 0 254 -61t163 -173t57 -268v-126h-739q4 -161 86.5 -248t231.5 -87q106 0 190.5 20.5t174.5 60.5v-191q-83 -39 -169 -57t-206 -18q-163 0 -286.5 63.5t-193 189.5t-69.5 313q0 186 63 316t177 198t266 68zM609 951q-111 0 -179.5 -72t-80.5 -211h504
q-1 83 -27.5 147t-80 100t-136.5 36zM464 1241q-27 46 -72.5 101.5t-94 108.5t-86.5 92v26h159q53 -36 112.5 -83.5t111.5 -102.5q53 55 113.5 103t114.5 83h160v-26q-38 -38 -87.5 -91.5t-95 -109t-72.5 -101.5h-263z" />
    <glyph glyph-name="Gcircumflex" unicode="&#x11c;" horiz-adv-x="1486" 
d="M782 794h546v-734q-115 -38 -238 -59t-276 -21q-223 0 -377.5 88.5t-234.5 257t-80 406.5q0 229 89 397.5t259 261t412 92.5q119 0 230.5 -23.5t204.5 -64.5l-84 -198q-74 35 -166 59t-191 24q-157 0 -270.5 -68t-174.5 -191.5t-61 -291.5q0 -163 49 -286t153.5 -191.5
t270.5 -68.5q83 0 141 9t107 20v377h-309v205zM957 1925q27 -46 72.5 -102t95 -109.5t87.5 -91.5v-25h-160q-54 34 -114.5 81.5t-113.5 102.5q-54 -55 -112.5 -102t-111.5 -82h-159v25q38 39 87 92t94 109t72 102h263z" />
    <glyph glyph-name="gcircumflex" unicode="&#x11d;" horiz-adv-x="1135" 
d="M484 -492q-225 0 -345 81t-120 227q0 102 64 172.5t183 97.5q-45 20 -77.5 62.5t-32.5 94.5q0 62 35 106t105 85q-87 37 -139.5 120.5t-52.5 196.5q0 120 51 204.5t149 129t237 44.5q30 0 65.5 -3.5t66 -8t46.5 -9.5h383v-131l-188 -35q27 -38 43 -86.5t16 -105.5
q0 -172 -118.5 -270.5t-326.5 -98.5q-50 2 -97 8q-36 -22 -55 -48.5t-19 -59.5q0 -27 19 -43.5t56.5 -24.5t91.5 -8h191q182 0 278 -77t96 -226q0 -189 -156 -291.5t-449 -102.5zM493 -327q123 0 207 24t127 68.5t43 105.5q0 54 -27 83t-81 40t-134 11h-174
q-65 0 -115 -20.5t-77.5 -59.5t-27.5 -94q0 -76 67.5 -117t191.5 -41zM539 535q103 0 153 56.5t50 159.5q0 112 -51.5 168t-152.5 56q-99 0 -150.5 -57t-51.5 -169q0 -101 51.5 -157.5t151.5 -56.5zM669 1569q27 -46 72.5 -102t95 -109.5t87.5 -91.5v-25h-160
q-54 34 -114.5 81.5t-113.5 102.5q-54 -55 -112.5 -102t-111.5 -82h-159v25q38 39 87 92t94 109t72 102h263z" />
    <glyph glyph-name="Gbreve" unicode="&#x11e;" horiz-adv-x="1486" 
d="M782 794h546v-734q-115 -38 -238 -59t-276 -21q-223 0 -377.5 88.5t-234.5 257t-80 406.5q0 229 89 397.5t259 261t412 92.5q119 0 230.5 -23.5t204.5 -64.5l-84 -198q-74 35 -166 59t-191 24q-157 0 -270.5 -68t-174.5 -191.5t-61 -291.5q0 -163 49 -286t153.5 -191.5
t270.5 -68.5q83 0 141 9t107 20v377h-309v205zM1182 1901q-7 -90 -52 -158.5t-122 -107t-182 -38.5q-162 0 -251 82.5t-97 221.5h137q6 -56 33.5 -84t74 -37t106.5 -9q51 0 97.5 10.5t78 38.5t37.5 81h140z" />
    <glyph glyph-name="gbreve" unicode="&#x11f;" horiz-adv-x="1135" 
d="M484 -492q-225 0 -345 81t-120 227q0 102 64 172.5t183 97.5q-45 20 -77.5 62.5t-32.5 94.5q0 62 35 106t105 85q-87 37 -139.5 120.5t-52.5 196.5q0 120 51 204.5t149 129t237 44.5q30 0 65.5 -3.5t66 -8t46.5 -9.5h383v-131l-188 -35q27 -38 43 -86.5t16 -105.5
q0 -172 -118.5 -270.5t-326.5 -98.5q-50 2 -97 8q-36 -22 -55 -48.5t-19 -59.5q0 -27 19 -43.5t56.5 -24.5t91.5 -8h191q182 0 278 -77t96 -226q0 -189 -156 -291.5t-449 -102.5zM493 -327q123 0 207 24t127 68.5t43 105.5q0 54 -27 83t-81 40t-134 11h-174
q-65 0 -115 -20.5t-77.5 -59.5t-27.5 -94q0 -76 67.5 -117t191.5 -41zM539 535q103 0 153 56.5t50 159.5q0 112 -51.5 168t-152.5 56q-99 0 -150.5 -57t-51.5 -169q0 -101 51.5 -157.5t151.5 -56.5zM890 1545q-7 -90 -52 -158.5t-122 -107t-182 -38.5q-162 0 -251 82.5
t-97 221.5h137q6 -56 33.5 -84t74 -37t106.5 -9q51 0 97.5 10.5t78 38.5t37.5 81h140z" />
    <glyph glyph-name="Gdot" unicode="&#x120;" horiz-adv-x="1486" 
d="M782 794h546v-734q-115 -38 -238 -59t-276 -21q-223 0 -377.5 88.5t-234.5 257t-80 406.5q0 229 89 397.5t259 261t412 92.5q119 0 230.5 -23.5t204.5 -64.5l-84 -198q-74 35 -166 59t-191 24q-157 0 -270.5 -68t-174.5 -191.5t-61 -291.5q0 -163 49 -286t153.5 -191.5
t270.5 -68.5q83 0 141 9t107 20v377h-309v205zM827 1887q55 0 94 -29t39 -100q0 -70 -39 -99.5t-94 -29.5q-56 0 -94.5 29.5t-38.5 99.5q0 71 38.5 100t94.5 29z" />
    <glyph glyph-name="gdot" unicode="&#x121;" horiz-adv-x="1135" 
d="M484 -492q-225 0 -345 81t-120 227q0 102 64 172.5t183 97.5q-45 20 -77.5 62.5t-32.5 94.5q0 62 35 106t105 85q-87 37 -139.5 120.5t-52.5 196.5q0 120 51 204.5t149 129t237 44.5q30 0 65.5 -3.5t66 -8t46.5 -9.5h383v-131l-188 -35q27 -38 43 -86.5t16 -105.5
q0 -172 -118.5 -270.5t-326.5 -98.5q-50 2 -97 8q-36 -22 -55 -48.5t-19 -59.5q0 -27 19 -43.5t56.5 -24.5t91.5 -8h191q182 0 278 -77t96 -226q0 -189 -156 -291.5t-449 -102.5zM493 -327q123 0 207 24t127 68.5t43 105.5q0 54 -27 83t-81 40t-134 11h-174
q-65 0 -115 -20.5t-77.5 -59.5t-27.5 -94q0 -76 67.5 -117t191.5 -41zM539 535q103 0 153 56.5t50 159.5q0 112 -51.5 168t-152.5 56q-99 0 -150.5 -57t-51.5 -169q0 -101 51.5 -157.5t151.5 -56.5zM539 1531q55 0 94 -29t39 -100q0 -70 -39 -99.5t-94 -29.5
q-56 0 -94.5 29.5t-38.5 99.5q0 71 38.5 100t94.5 29z" />
    <glyph glyph-name="uni0122" unicode="&#x122;" horiz-adv-x="1486" 
d="M782 794h546v-734q-115 -38 -238 -59t-276 -21q-223 0 -377.5 88.5t-234.5 257t-80 406.5q0 229 89 397.5t259 261t412 92.5q119 0 230.5 -23.5t204.5 -64.5l-84 -198q-74 35 -166 59t-191 24q-157 0 -270.5 -68t-174.5 -191.5t-61 -291.5q0 -163 49 -286t153.5 -191.5
t270.5 -68.5q83 0 141 9t107 20v377h-309v205zM957 -125v-18q-15 -42 -39.5 -95.5t-56 -109t-66.5 -105.5h-135v26q14 37 28.5 91t27.5 110.5t18 100.5h223z" />
    <glyph glyph-name="uni0123" unicode="&#x123;" horiz-adv-x="1135" 
d="M696 1569v-25q-14 -37 -29 -91.5t-27.5 -111t-18.5 -100.5h-223v20q16 41 40 94t55.5 108.5t67.5 105.5h135zM484 -492q-225 0 -345 81t-120 227q0 102 64 172.5t183 97.5q-45 20 -77.5 62.5t-32.5 94.5q0 62 35 106t105 85q-87 37 -139.5 120.5t-52.5 196.5
q0 120 51 204.5t149 129t237 44.5q30 0 65.5 -3.5t66 -8t46.5 -9.5h383v-131l-188 -35q27 -38 43 -86.5t16 -105.5q0 -172 -118.5 -270.5t-326.5 -98.5q-50 2 -97 8q-36 -22 -55 -48.5t-19 -59.5q0 -27 19 -43.5t56.5 -24.5t91.5 -8h191q182 0 278 -77t96 -226
q0 -189 -156 -291.5t-449 -102.5zM493 -327q123 0 207 24t127 68.5t43 105.5q0 54 -27 83t-81 40t-134 11h-174q-65 0 -115 -20.5t-77.5 -59.5t-27.5 -94q0 -76 67.5 -117t191.5 -41zM539 535q103 0 153 56.5t50 159.5q0 112 -51.5 168t-152.5 56q-99 0 -150.5 -57
t-51.5 -169q0 -101 51.5 -157.5t151.5 -56.5z" />
    <glyph glyph-name="Hcircumflex" unicode="&#x124;" horiz-adv-x="1539" 
d="M1345 0h-239v660h-674v-660h-240v1462h240v-598h674v598h239v-1462zM904 1925q27 -46 72.5 -102t95 -109.5t87.5 -91.5v-25h-160q-54 34 -114.5 81.5t-113.5 102.5q-54 -55 -112.5 -102t-111.5 -82h-159v25q38 39 87 92t94 109t72 102h263z" />
    <glyph glyph-name="hcircumflex" unicode="&#x125;" horiz-adv-x="1301" 
d="M403 1556v-391q0 -61 -3.5 -119t-7.5 -90h13q35 58 86 95.5t114.5 56.5t135.5 19q127 0 216 -42.5t136.5 -131.5t47.5 -231v-722h-235v678q0 129 -53 193.5t-164 64.5q-107 0 -169.5 -44.5t-89.5 -131t-27 -210.5v-550h-235v1556h235zM422 2019q27 -46 72.5 -102
t95 -109.5t87.5 -91.5v-25h-160q-54 34 -114.5 81.5t-113.5 102.5q-54 -55 -112.5 -102t-111.5 -82h-159v25q38 39 87 92t94 109t72 102h263z" />
    <glyph glyph-name="Hbar" unicode="&#x126;" horiz-adv-x="1539" 
d="M192 0v1073h-192v168h192v221h240v-221h674v221h239v-221h193v-168h-193v-1073h-239v660h-674v-660h-240zM432 864h674v209h-674v-209z" />
    <glyph glyph-name="hbar" unicode="&#x127;" horiz-adv-x="1301" 
d="M403 1556v-174h378v-162h-378v-104q0 -61 -3.5 -118.5t-7.5 -90.5h14q35 58 86 96t114.5 57t136.5 19q126 0 215 -42.5t136 -132t47 -231.5v-673h-235v630q0 128 -53 192.5t-164 64.5q-107 0 -169.5 -44.5t-89.5 -130.5t-27 -210v-502h-235v1220h-156v162h156v174h235z
" />
    <glyph glyph-name="Itilde" unicode="&#x128;" horiz-adv-x="625" 
d="M192 0v1462h240v-1462h-240zM-78 1598q6 70 26 122.5t52.5 88t75 53.5t92.5 18q44 0 84.5 -17t79 -39.5t75 -39.5t70.5 -17q39 0 66.5 28t41.5 87h123q-12 -138 -79 -210.5t-167 -72.5q-42 0 -82.5 17.5t-78.5 39.5t-75 39t-72 17q-40 0 -67.5 -28t-40.5 -86h-124z" />
    <glyph glyph-name="itilde" unicode="&#x129;" horiz-adv-x="571" 
d="M403 0h-235v1107h235v-1107zM-110 1242q6 70 26 122.5t52.5 88t75 53.5t92.5 18q44 0 84.5 -17t79 -39.5t75 -39.5t70.5 -17q39 0 66.5 28t41.5 87h123q-12 -138 -79 -210.5t-167 -72.5q-42 0 -82.5 17.5t-78.5 39.5t-75 39t-72 17q-40 0 -67.5 -28t-40.5 -86h-124z" />
    <glyph glyph-name="Imacron" unicode="&#x12a;" horiz-adv-x="625" 
d="M192 0v1462h240v-1462h-240zM633 1771v-173h-639v173h639z" />
    <glyph glyph-name="imacron" unicode="&#x12b;" horiz-adv-x="571" 
d="M403 0h-235v1107h235v-1107zM606 1415v-173h-639v173h639z" />
    <glyph glyph-name="Ibreve" unicode="&#x12c;" horiz-adv-x="625" 
d="M192 0v1462h240v-1462h-240zM665 1901q-7 -90 -52 -158.5t-122 -107t-182 -38.5q-162 0 -251 82.5t-97 221.5h137q6 -56 33.5 -84t74 -37t106.5 -9q51 0 97.5 10.5t78 38.5t37.5 81h140z" />
    <glyph glyph-name="ibreve" unicode="&#x12d;" horiz-adv-x="571" 
d="M403 0h-235v1107h235v-1107zM645 1545q-7 -90 -52 -158.5t-122 -107t-182 -38.5q-162 0 -251 82.5t-97 221.5h137q6 -56 33.5 -84t74 -37t106.5 -9q51 0 97.5 10.5t78 38.5t37.5 81h140z" />
    <glyph glyph-name="Iogonek" unicode="&#x12e;" horiz-adv-x="625" 
d="M192 0v1462h240v-1462h-240zM286 -234q0 -44 24 -66.5t64 -22.5q33 0 60.5 5.5t45.5 10.5v-143q-30 -8 -63 -14.5t-77 -6.5q-110 0 -169 57.5t-59 152.5q0 59 29.5 113.5t77 101t101.5 79.5l112 -33q-69 -65 -107.5 -120t-38.5 -114z" />
    <glyph glyph-name="iogonek" unicode="&#x12f;" horiz-adv-x="571" 
d="M403 1107v-1107h-235v1107h235zM287 1531q54 0 93.5 -29t39.5 -100q0 -70 -39.5 -99.5t-93.5 -29.5q-56 0 -94.5 29.5t-38.5 99.5q0 71 38.5 100t94.5 29zM245 -234q0 -44 24 -66.5t64 -22.5q33 0 60.5 5.5t45.5 10.5v-143q-30 -8 -63 -14.5t-77 -6.5q-110 0 -169 57.5
t-59 152.5q0 59 29.5 113.5t77 101t101.5 79.5l112 -33q-69 -65 -107.5 -120t-38.5 -114z" />
    <glyph glyph-name="Idotaccent" unicode="&#x130;" horiz-adv-x="625" 
d="M192 0v1462h240v-1462h-240zM315 1887q55 0 94 -29t39 -100q0 -70 -39 -99.5t-94 -29.5q-56 0 -94.5 29.5t-38.5 99.5q0 71 38.5 100t94.5 29z" />
    <glyph glyph-name="dotlessi" unicode="&#x131;" horiz-adv-x="571" 
d="M403 0h-235v1107h235v-1107z" />
    <glyph glyph-name="IJ" unicode="&#x132;" horiz-adv-x="1239" 
d="M192 0v1462h240v-1462h-240zM635 -407q-55 0 -96.5 6.5t-71.5 17.5v201q32 -8 69 -14t79 -6q55 0 100 21t71.5 76t26.5 155v1412h240v-1404q0 -163 -52 -265.5t-146 -151t-220 -48.5z" />
    <glyph glyph-name="ij" unicode="&#x133;" horiz-adv-x="1142" 
d="M403 1107v-1107h-235v1107h235zM287 1531q54 0 93.5 -29t39.5 -100q0 -70 -39.5 -99.5t-93.5 -29.5q-56 0 -94.5 29.5t-38.5 99.5q0 71 38.5 100t94.5 29zM628 -492q-52 0 -99 7.5t-79 17.5v188q34 -10 66 -15t73 -5q65 0 107.5 36t42.5 137v1233h235v-1254
q0 -101 -35.5 -179t-112 -122t-198.5 -44zM725 1402q0 71 38.5 100t94.5 29q54 0 93.5 -29t39.5 -100q0 -70 -39.5 -99.5t-93.5 -29.5q-56 0 -94.5 29.5t-38.5 99.5z" />
    <glyph glyph-name="Jcircumflex" unicode="&#x134;" horiz-adv-x="614" 
d="M10 -407q-55 0 -96.5 6.5t-71.5 17.5v201q32 -8 69 -14t79 -6q55 0 100 21t71.5 76t26.5 155v1412h240v-1404q0 -163 -52 -265.5t-146 -151t-220 -48.5zM442 1925q27 -46 72.5 -102t95 -109.5t87.5 -91.5v-25h-160q-54 34 -114.5 81.5t-113.5 102.5q-54 -55 -112.5 -102
t-111.5 -82h-159v25q38 39 87 92t94 109t72 102h263z" />
    <glyph glyph-name="jcircumflex" unicode="&#x135;" horiz-adv-x="571" 
d="M57 -492q-52 0 -99 7.5t-79 17.5v188q34 -10 66 -15t73 -5q65 0 107.5 36t42.5 137v1233h235v-1254q0 -101 -35.5 -179t-112 -122t-198.5 -44zM419 1569q27 -46 72.5 -102t95 -109.5t87.5 -91.5v-25h-160q-54 34 -114.5 81.5t-113.5 102.5q-54 -55 -112.5 -102
t-111.5 -82h-159v25q38 39 87 92t94 109t72 102h263z" />
    <glyph glyph-name="uni0136" unicode="&#x136;" horiz-adv-x="1307" 
d="M1307 0h-276l-455 664l-144 -117v-547h-240v1462h240v-699q44 54 89 108l90 108l412 483h271l-546 -640zM839 -125v-18q-15 -42 -39.5 -95.5t-56 -109t-66.5 -105.5h-135v26q14 37 28.5 91t27.5 110.5t18 100.5h223z" />
    <glyph glyph-name="uni0137" unicode="&#x137;" horiz-adv-x="1173" 
d="M403 1556v-752q0 -51 -4 -111.5t-8 -113.5h5q26 35 62.5 82t69.5 82l338 364h270l-443 -476l472 -631h-276l-354 486l-132 -113v-373h-235v1556h235zM736 -125v-18q-15 -42 -39.5 -95.5t-56 -109t-66.5 -105.5h-135v26q14 37 28.5 91t27.5 110.5t18 100.5h223z" />
    <glyph glyph-name="kgreenlandic" unicode="&#x138;" horiz-adv-x="1173" 
d="M1135 1107l-428 -498l458 -609h-273l-341 466l-143 -107v-359h-240v1107h240v-289q0 -72 -2.5 -142t-6.5 -124h4q28 35 56.5 70t56.5 69l356 416h263z" />
    <glyph glyph-name="Lacute" unicode="&#x139;" horiz-adv-x="1113" 
d="M192 0v1462h240v-1258h621v-204h-861zM651 1925v-20q-24 -29 -65 -69.5t-89 -85t-95 -85t-85 -68.5h-157v26q33 38 73.5 91t80 109t66.5 102h271z" />
    <glyph glyph-name="lacute" unicode="&#x13a;" horiz-adv-x="571" 
d="M404 0h-236v1556h236v-1556zM627 2019v-20q-24 -29 -65 -69.5t-89 -85t-95 -85t-85 -68.5h-157v26q33 38 73.5 91t80 109t66.5 102h271z" />
    <glyph glyph-name="uni013B" unicode="&#x13b;" horiz-adv-x="1113" 
d="M192 0v1462h240v-1258h621v-204h-861zM769 -125v-18q-15 -42 -39.5 -95.5t-56 -109t-66.5 -105.5h-135v26q14 37 28.5 91t27.5 110.5t18 100.5h223z" />
    <glyph glyph-name="uni013C" unicode="&#x13c;" horiz-adv-x="571" 
d="M404 0h-236v1556h236v-1556zM433 -125v-18q-15 -42 -39.5 -95.5t-56 -109t-66.5 -105.5h-135v26q14 37 28.5 91t27.5 110.5t18 100.5h223z" />
    <glyph glyph-name="Lcaron" unicode="&#x13d;" horiz-adv-x="1113" 
d="M192 0v1462h240v-1258h621v-204h-861zM1081 1462v-18q-15 -42 -39 -95t-54 -108.5t-63 -105.5h-134v25q10 29 19.5 67t19 80t16.5 82t11 73h224z" />
    <glyph glyph-name="lcaron" unicode="&#x13e;" horiz-adv-x="571" 
d="M404 0h-236v1556h236v-1556zM765 1556v-18q-15 -42 -39 -95t-54 -108.5t-63 -105.5h-134v25q10 29 19.5 67t19 80t16.5 82t11 73h224z" />
    <glyph glyph-name="Ldot" unicode="&#x13f;" horiz-adv-x="1113" 
d="M192 0v1462h240v-1258h621v-204h-861zM839 900q55 0 94 -29t39 -100q0 -70 -39 -99.5t-94 -29.5q-56 0 -94.5 29.5t-38.5 99.5q0 71 38.5 100t94.5 29z" />
    <glyph glyph-name="ldot" unicode="&#x140;" horiz-adv-x="638" 
d="M404 0h-236v1556h236v-1556zM604 906q55 0 94 -29t39 -100q0 -70 -39 -99.5t-94 -29.5q-56 0 -94.5 29.5t-38.5 99.5q0 71 38.5 100t94.5 29z" />
    <glyph glyph-name="Lslash" unicode="&#x141;" horiz-adv-x="1113" 
d="M192 0v503l-88 -51l-90 154l178 109v747h240v-603l216 130l93 -158l-309 -184v-443h621v-204h-861z" />
    <glyph glyph-name="lslash" unicode="&#x142;" horiz-adv-x="571" 
d="M162 0v537l-91 -56l-90 154l181 114v807h236v-660l102 68l93 -155l-195 -125v-684h-236z" />
    <glyph glyph-name="Nacute" unicode="&#x143;" horiz-adv-x="1604" 
d="M1412 0h-295l-716 1167h-9q4 -59 7.5 -125t6 -136t4.5 -142v-764h-218v1462h293l715 -1159h7q-2 51 -5 117t-5.5 136.5t-3.5 136.5v769h219v-1462zM1144 1925v-20q-24 -29 -65 -69.5t-89 -85t-95 -85t-85 -68.5h-157v26q33 38 73.5 91t80 109t66.5 102h271z" />
    <glyph glyph-name="nacute" unicode="&#x144;" horiz-adv-x="1301" 
d="M745 1128q187 0 291.5 -96.5t104.5 -309.5v-722h-235v678q0 129 -53 193.5t-164 64.5q-161 0 -223.5 -99t-62.5 -287v-550h-235v1107h183l33 -150h13q36 58 89.5 95.5t120 56.5t138.5 19zM994 1569v-20q-24 -29 -65 -69.5t-89 -85t-95 -85t-85 -68.5h-157v26
q33 38 73.5 91t80 109t66.5 102h271z" />
    <glyph glyph-name="uni0145" unicode="&#x145;" horiz-adv-x="1604" 
d="M1412 0h-295l-716 1167h-9q4 -59 7.5 -125t6 -136t4.5 -142v-764h-218v1462h293l715 -1159h7q-2 51 -5 117t-5.5 136.5t-3.5 136.5v769h219v-1462zM950 -125v-18q-15 -42 -39.5 -95.5t-56 -109t-66.5 -105.5h-135v26q14 37 28.5 91t27.5 110.5t18 100.5h223z" />
    <glyph glyph-name="uni0146" unicode="&#x146;" horiz-adv-x="1301" 
d="M745 1128q187 0 291.5 -96.5t104.5 -309.5v-722h-235v678q0 129 -53 193.5t-164 64.5q-161 0 -223.5 -99t-62.5 -287v-550h-235v1107h183l33 -150h13q36 58 89.5 95.5t120 56.5t138.5 19zM799 -125v-18q-15 -42 -39.5 -95.5t-56 -109t-66.5 -105.5h-135v26q14 37 28.5 91
t27.5 110.5t18 100.5h223z" />
    <glyph glyph-name="Ncaron" unicode="&#x147;" horiz-adv-x="1604" 
d="M1412 0h-295l-716 1167h-9q4 -59 7.5 -125t6 -136t4.5 -142v-764h-218v1462h293l715 -1159h7q-2 51 -5 117t-5.5 136.5t-3.5 136.5v769h219v-1462zM673 1597q-27 46 -72.5 101.5t-94 108.5t-86.5 92v26h159q53 -36 112.5 -83.5t111.5 -102.5q53 55 113.5 103t114.5 83
h160v-26q-38 -38 -87.5 -91.5t-95 -109t-72.5 -101.5h-263z" />
    <glyph glyph-name="ncaron" unicode="&#x148;" horiz-adv-x="1301" 
d="M745 1128q187 0 291.5 -96.5t104.5 -309.5v-722h-235v678q0 129 -53 193.5t-164 64.5q-161 0 -223.5 -99t-62.5 -287v-550h-235v1107h183l33 -150h13q36 58 89.5 95.5t120 56.5t138.5 19zM523 1241q-27 46 -72.5 101.5t-94 108.5t-86.5 92v26h159q53 -36 112.5 -83.5
t111.5 -102.5q53 55 113.5 103t114.5 83h160v-26q-38 -38 -87.5 -91.5t-95 -109t-72.5 -101.5h-263z" />
    <glyph glyph-name="napostrophe" unicode="&#x149;" horiz-adv-x="1481" 
d="M925 1128q187 0 291.5 -96.5t104.5 -309.5v-722h-235v678q0 129 -53 193.5t-164 64.5q-161 0 -223.5 -99t-62.5 -287v-550h-235v1107h183l33 -150h13q36 58 89.5 95.5t120 56.5t138.5 19zM334 1462l15 -22q-18 -73 -46.5 -156t-61.5 -166t-67 -157h-170q14 59 29 124.5
t29 132t25 129t19 115.5h228z" />
    <glyph glyph-name="Eng" unicode="&#x14a;" horiz-adv-x="1604" 
d="M991 -407q-57 0 -101.5 6.5t-75.5 17.5v193q35 -8 75.5 -14t86.5 -6q66 0 114.5 20t76.5 67t30 126l-796 1164h-9q4 -49 8 -122t7 -150.5t3 -140.5v-754h-218v1462h293l715 -1045h7q-3 52 -6.5 122t-5.5 144t-2 135v644h219v-1456q0 -141 -52 -233t-147 -136t-222 -44z
" />
    <glyph glyph-name="eng" unicode="&#x14b;" horiz-adv-x="1301" 
d="M817 -492q-48 0 -90.5 7.5t-72.5 17.5v188q29 -10 57 -15t63 -5q56 0 94 36t38 137v817q0 123 -53.5 184t-162.5 61q-107 0 -170 -44.5t-90 -130t-27 -210.5v-551h-235v1107h183l34 -150h14q36 58 89 95.5t118.5 56.5t137.5 19q127 0 215.5 -42.5t135.5 -131.5t47 -231
v-870q0 -101 -34 -179t-105 -122t-186 -44z" />
    <glyph glyph-name="Omacron" unicode="&#x14c;" horiz-adv-x="1612" 
d="M1490 733q0 -169 -42.5 -307.5t-127.5 -238t-213 -153.5t-300 -54q-175 0 -303.5 54t-213 154t-126.5 239t-42 308q0 226 74.5 394.5t227 262t385.5 93.5q228 0 379 -93t226.5 -261.5t75.5 -397.5zM374 733q0 -169 46 -292.5t141.5 -190t245.5 -66.5q151 0 246 66.5
t140 190t45 292.5q0 257 -102.5 402.5t-326.5 145.5q-150 0 -246.5 -66t-142.5 -188.5t-46 -293.5zM1126 1771v-173h-639v173h639z" />
    <glyph glyph-name="omacron" unicode="&#x14d;" horiz-adv-x="1250" 
d="M1148 556q0 -138 -36 -245t-105 -180.5t-166 -112t-219 -38.5q-114 0 -209 38.5t-164.5 112t-107.5 180.5t-38 245q0 183 63.5 310.5t181.5 194.5t281 67q153 0 270 -67t183 -195t66 -310zM345 556q0 -121 29.5 -207t91.5 -131.5t160 -45.5t160 45.5t91 131.5t29 207
t-29 205.5t-91 129t-161 44.5q-146 0 -213 -98t-67 -281zM946 1415v-173h-639v173h639z" />
    <glyph glyph-name="Obreve" unicode="&#x14e;" horiz-adv-x="1612" 
d="M1490 733q0 -169 -42.5 -307.5t-127.5 -238t-213 -153.5t-300 -54q-175 0 -303.5 54t-213 154t-126.5 239t-42 308q0 226 74.5 394.5t227 262t385.5 93.5q228 0 379 -93t226.5 -261.5t75.5 -397.5zM374 733q0 -169 46 -292.5t141.5 -190t245.5 -66.5q151 0 246 66.5
t140 190t45 292.5q0 257 -102.5 402.5t-326.5 145.5q-150 0 -246.5 -66t-142.5 -188.5t-46 -293.5zM1165 1901q-7 -90 -52 -158.5t-122 -107t-182 -38.5q-162 0 -251 82.5t-97 221.5h137q6 -56 33.5 -84t74 -37t106.5 -9q51 0 97.5 10.5t78 38.5t37.5 81h140z" />
    <glyph glyph-name="obreve" unicode="&#x14f;" horiz-adv-x="1250" 
d="M1148 556q0 -138 -36 -245t-105 -180.5t-166 -112t-219 -38.5q-114 0 -209 38.5t-164.5 112t-107.5 180.5t-38 245q0 183 63.5 310.5t181.5 194.5t281 67q153 0 270 -67t183 -195t66 -310zM345 556q0 -121 29.5 -207t91.5 -131.5t160 -45.5t160 45.5t91 131.5t29 207
t-29 205.5t-91 129t-161 44.5q-146 0 -213 -98t-67 -281zM985 1545q-7 -90 -52 -158.5t-122 -107t-182 -38.5q-162 0 -251 82.5t-97 221.5h137q6 -56 33.5 -84t74 -37t106.5 -9q51 0 97.5 10.5t78 38.5t37.5 81h140z" />
    <glyph glyph-name="Ohungarumlaut" unicode="&#x150;" horiz-adv-x="1612" 
d="M1490 733q0 -169 -42.5 -307.5t-127.5 -238t-213 -153.5t-300 -54q-175 0 -303.5 54t-213 154t-126.5 239t-42 308q0 226 74.5 394.5t227 262t385.5 93.5q228 0 379 -93t226.5 -261.5t75.5 -397.5zM374 733q0 -169 46 -292.5t141.5 -190t245.5 -66.5q151 0 246 66.5
t140 190t45 292.5q0 257 -102.5 402.5t-326.5 145.5q-150 0 -246.5 -66t-142.5 -188.5t-46 -293.5zM1343 1925v-20q-17 -28 -52 -68t-79.5 -85t-89.5 -85.5t-81 -69.5h-129v26q30 39 65 92t68.5 108.5t55.5 101.5h242zM966 1925v-20q-17 -28 -52 -68t-79.5 -85t-89.5 -85.5
t-81 -69.5h-129v26q30 39 64.5 92t68 108.5t56.5 101.5h242z" />
    <glyph glyph-name="ohungarumlaut" unicode="&#x151;" horiz-adv-x="1250" 
d="M1148 556q0 -138 -36 -245t-105 -180.5t-166 -112t-219 -38.5q-114 0 -209 38.5t-164.5 112t-107.5 180.5t-38 245q0 183 63.5 310.5t181.5 194.5t281 67q153 0 270 -67t183 -195t66 -310zM345 556q0 -121 29.5 -207t91.5 -131.5t160 -45.5t160 45.5t91 131.5t29 207
t-29 205.5t-91 129t-161 44.5q-146 0 -213 -98t-67 -281zM1163 1569v-20q-17 -28 -52 -68t-79.5 -85t-89.5 -85.5t-81 -69.5h-129v26q30 39 65 92t68.5 108.5t55.5 101.5h242zM786 1569v-20q-17 -28 -52 -68t-79.5 -85t-89.5 -85.5t-81 -69.5h-129v26q30 39 64.5 92
t68 108.5t56.5 101.5h242z" />
    <glyph glyph-name="OE" unicode="&#x152;" horiz-adv-x="1944" 
d="M783 1484q53 0 109.5 -5.5t101.5 -16.5h828v-202h-584v-397h546v-201h-546v-459h584v-203h-826q-44 -8 -100.5 -13.5t-109.5 -5.5q-225 0 -372.5 94t-219.5 264t-72 396q0 227 72 395t218.5 261t370.5 93zM790 1280q-108 0 -187 -37.5t-130.5 -108.5t-77 -172t-25.5 -229
q0 -169 45 -292t137.5 -189.5t235.5 -66.5q58 0 115 9t96 26v1025q-39 18 -95 26.5t-114 8.5z" />
    <glyph glyph-name="oe" unicode="&#x153;" horiz-adv-x="1973" 
d="M1397 1127q149 0 255.5 -60.5t164.5 -172.5t58 -268v-126h-742q5 -167 86.5 -251t229.5 -84q110 0 195 20.5t175 60.5v-191q-84 -39 -170 -57t-207 -18q-137 0 -244.5 49.5t-176.5 148.5q-65 -98 -168 -148t-233 -50q-152 0 -269 67.5t-183 196t-66 312.5q0 182 62 309.5
t178.5 194.5t279.5 67q124 0 225.5 -51t165.5 -147q43 64 101 108t129 67t154 23zM618 935q-143 0 -208 -96t-65 -283q0 -125 28.5 -211t89.5 -129.5t158 -43.5q96 0 156 43.5t88.5 128t28.5 208.5q0 127 -28.5 212t-89.5 128t-158 43zM1399 950q-111 0 -180 -70t-80 -212
h504q0 84 -26.5 147.5t-80 99t-137.5 35.5z" />
    <glyph glyph-name="Racute" unicode="&#x154;" horiz-adv-x="1308" 
d="M603 1462q189 0 312.5 -46t184 -140t60.5 -239q0 -108 -40 -184t-105 -126t-139 -80l415 -647h-271l-353 586h-235v-586h-240v1462h411zM587 1262h-155v-478h166q167 0 242.5 62t75.5 183q0 127 -80.5 180t-248.5 53zM1006 1925v-20q-24 -29 -65 -69.5t-89 -85t-95 -85
t-85 -68.5h-157v26q33 38 73.5 91t80 109t66.5 102h271z" />
    <glyph glyph-name="racute" unicode="&#x155;" horiz-adv-x="884" 
d="M729 1128q28 0 61 -3t57 -8l-22 -220q-21 6 -51.5 9t-54.5 3q-63 0 -120 -20.5t-101 -62t-69 -103.5t-25 -144v-579h-236v1107h184l32 -195h11q33 59 82 108t112.5 78.5t139.5 29.5zM845 1569v-20q-24 -29 -65 -69.5t-89 -85t-95 -85t-85 -68.5h-157v26q33 38 73.5 91
t80 109t66.5 102h271z" />
    <glyph glyph-name="uni0156" unicode="&#x156;" horiz-adv-x="1308" 
d="M603 1462q189 0 312.5 -46t184 -140t60.5 -239q0 -108 -40 -184t-105 -126t-139 -80l415 -647h-271l-353 586h-235v-586h-240v1462h411zM587 1262h-155v-478h166q167 0 242.5 62t75.5 183q0 127 -80.5 180t-248.5 53zM847 -125v-18q-15 -42 -39.5 -95.5t-56 -109
t-66.5 -105.5h-135v26q14 37 28.5 91t27.5 110.5t18 100.5h223z" />
    <glyph glyph-name="uni0157" unicode="&#x157;" horiz-adv-x="884" 
d="M729 1128q28 0 61 -3t57 -8l-22 -220q-21 6 -51.5 9t-54.5 3q-63 0 -120 -20.5t-101 -62t-69 -103.5t-25 -144v-579h-236v1107h184l32 -195h11q33 59 82 108t112.5 78.5t139.5 29.5zM433 -125v-18q-15 -42 -39.5 -95.5t-56 -109t-66.5 -105.5h-135v26q14 37 28.5 91
t27.5 110.5t18 100.5h223z" />
    <glyph glyph-name="Rcaron" unicode="&#x158;" horiz-adv-x="1308" 
d="M603 1462q189 0 312.5 -46t184 -140t60.5 -239q0 -108 -40 -184t-105 -126t-139 -80l415 -647h-271l-353 586h-235v-586h-240v1462h411zM587 1262h-155v-478h166q167 0 242.5 62t75.5 183q0 127 -80.5 180t-248.5 53zM534 1597q-27 46 -72.5 101.5t-94 108.5t-86.5 92v26
h159q53 -36 112.5 -83.5t111.5 -102.5q53 55 113.5 103t114.5 83h160v-26q-38 -38 -87.5 -91.5t-95 -109t-72.5 -101.5h-263z" />
    <glyph glyph-name="rcaron" unicode="&#x159;" horiz-adv-x="884" 
d="M729 1128q28 0 61 -3t57 -8l-22 -220q-21 6 -51.5 9t-54.5 3q-63 0 -120 -20.5t-101 -62t-69 -103.5t-25 -144v-579h-236v1107h184l32 -195h11q33 59 82 108t112.5 78.5t139.5 29.5zM373 1241q-27 46 -72.5 101.5t-94 108.5t-86.5 92v26h159q53 -36 112.5 -83.5
t111.5 -102.5q53 55 113.5 103t114.5 83h160v-26q-38 -38 -87.5 -91.5t-95 -109t-72.5 -101.5h-263z" />
    <glyph glyph-name="Sacute" unicode="&#x15a;" horiz-adv-x="1126" 
d="M1036 398q0 -130 -63.5 -224t-182 -144t-282.5 -50q-80 0 -153 9t-137.5 26.5t-117.5 42.5v226q89 -39 199 -70.5t224 -31.5q93 0 154.5 24.5t91.5 70t30 106.5q0 65 -35 110t-105.5 82.5t-176.5 80.5q-72 29 -137.5 66t-116.5 87t-80.5 118.5t-29.5 161.5
q0 124 59.5 212t168 135t253.5 47q115 0 216.5 -24t199.5 -68l-76 -193q-90 37 -174.5 59t-172.5 22q-76 0 -129 -23t-80.5 -64.5t-27.5 -98.5q0 -64 31.5 -107.5t98 -79.5t171.5 -80q121 -50 205.5 -105t129.5 -131.5t45 -191.5zM924 1925v-20q-24 -29 -65 -69.5t-89 -85
t-95 -85t-85 -68.5h-157v26q33 38 73.5 91t80 109t66.5 102h271z" />
    <glyph glyph-name="sacute" unicode="&#x15b;" horiz-adv-x="997" 
d="M912 316q0 -109 -53 -184t-154.5 -113.5t-248.5 -38.5q-116 0 -199.5 16.5t-157.5 50.5v203q79 -37 177.5 -64t186.5 -27q116 0 167 36.5t51 97.5q0 36 -20.5 64.5t-76 59t-162.5 73.5q-105 42 -177 84t-109 101.5t-37 152.5q0 147 116.5 223.5t308.5 76.5
q102 0 192.5 -20.5t177.5 -59.5l-74 -177q-75 33 -150.5 54.5t-153.5 21.5q-91 0 -138.5 -28t-47.5 -80q0 -39 23 -66t79.5 -54t157.5 -67q99 -38 171.5 -79.5t111.5 -101.5t39 -155zM841 1569v-20q-24 -29 -65 -69.5t-89 -85t-95 -85t-85 -68.5h-157v26q33 38 73.5 91
t80 109t66.5 102h271z" />
    <glyph glyph-name="Scircumflex" unicode="&#x15c;" horiz-adv-x="1126" 
d="M1036 398q0 -130 -63.5 -224t-182 -144t-282.5 -50q-80 0 -153 9t-137.5 26.5t-117.5 42.5v226q89 -39 199 -70.5t224 -31.5q93 0 154.5 24.5t91.5 70t30 106.5q0 65 -35 110t-105.5 82.5t-176.5 80.5q-72 29 -137.5 66t-116.5 87t-80.5 118.5t-29.5 161.5
q0 124 59.5 212t168 135t253.5 47q115 0 216.5 -24t199.5 -68l-76 -193q-90 37 -174.5 59t-172.5 22q-76 0 -129 -23t-80.5 -64.5t-27.5 -98.5q0 -64 31.5 -107.5t98 -79.5t171.5 -80q121 -50 205.5 -105t129.5 -131.5t45 -191.5zM717 1925q27 -46 72.5 -102t95 -109.5
t87.5 -91.5v-25h-160q-54 34 -114.5 81.5t-113.5 102.5q-54 -55 -112.5 -102t-111.5 -82h-159v25q38 39 87 92t94 109t72 102h263z" />
    <glyph glyph-name="scircumflex" unicode="&#x15d;" horiz-adv-x="997" 
d="M912 316q0 -109 -53 -184t-154.5 -113.5t-248.5 -38.5q-116 0 -199.5 16.5t-157.5 50.5v203q79 -37 177.5 -64t186.5 -27q116 0 167 36.5t51 97.5q0 36 -20.5 64.5t-76 59t-162.5 73.5q-105 42 -177 84t-109 101.5t-37 152.5q0 147 116.5 223.5t308.5 76.5
q102 0 192.5 -20.5t177.5 -59.5l-74 -177q-75 33 -150.5 54.5t-153.5 21.5q-91 0 -138.5 -28t-47.5 -80q0 -39 23 -66t79.5 -54t157.5 -67q99 -38 171.5 -79.5t111.5 -101.5t39 -155zM633 1569q27 -46 72.5 -102t95 -109.5t87.5 -91.5v-25h-160q-54 34 -114.5 81.5
t-113.5 102.5q-54 -55 -112.5 -102t-111.5 -82h-159v25q38 39 87 92t94 109t72 102h263z" />
    <glyph glyph-name="Scedilla" unicode="&#x15e;" horiz-adv-x="1126" 
d="M1036 398q0 -130 -63.5 -224t-182 -144t-282.5 -50q-80 0 -153 9t-137.5 26.5t-117.5 42.5v226q89 -39 199 -70.5t224 -31.5q93 0 154.5 24.5t91.5 70t30 106.5q0 65 -35 110t-105.5 82.5t-176.5 80.5q-72 29 -137.5 66t-116.5 87t-80.5 118.5t-29.5 161.5
q0 124 59.5 212t168 135t253.5 47q115 0 216.5 -24t199.5 -68l-76 -193q-90 37 -174.5 59t-172.5 22q-76 0 -129 -23t-80.5 -64.5t-27.5 -98.5q0 -64 31.5 -107.5t98 -79.5t171.5 -80q121 -50 205.5 -105t129.5 -131.5t45 -191.5zM759 -268q0 -106 -71 -165t-231 -59
q-38 0 -70 5t-55 11v137q24 -6 60 -11t66 -5q52 0 82.5 18t30.5 61q0 46 -45 73t-133 38l84 165h152l-41 -86q46 -12 84.5 -35t62.5 -59.5t24 -87.5z" />
    <glyph glyph-name="scedilla" unicode="&#x15f;" horiz-adv-x="997" 
d="M912 316q0 -109 -53 -184t-154.5 -113.5t-248.5 -38.5q-116 0 -199.5 16.5t-157.5 50.5v203q79 -37 177.5 -64t186.5 -27q116 0 167 36.5t51 97.5q0 36 -20.5 64.5t-76 59t-162.5 73.5q-105 42 -177 84t-109 101.5t-37 152.5q0 147 116.5 223.5t308.5 76.5
q102 0 192.5 -20.5t177.5 -59.5l-74 -177q-75 33 -150.5 54.5t-153.5 21.5q-91 0 -138.5 -28t-47.5 -80q0 -39 23 -66t79.5 -54t157.5 -67q99 -38 171.5 -79.5t111.5 -101.5t39 -155zM720 -268q0 -106 -71 -165t-231 -59q-38 0 -70 5t-55 11v137q24 -6 60 -11t66 -5
q52 0 82.5 18t30.5 61q0 46 -45 73t-133 38l84 165h152l-41 -86q46 -12 84.5 -35t62.5 -59.5t24 -87.5z" />
    <glyph glyph-name="Scaron" unicode="&#x160;" horiz-adv-x="1126" 
d="M1036 398q0 -130 -63.5 -224t-182 -144t-282.5 -50q-80 0 -153 9t-137.5 26.5t-117.5 42.5v226q89 -39 199 -70.5t224 -31.5q93 0 154.5 24.5t91.5 70t30 106.5q0 65 -35 110t-105.5 82.5t-176.5 80.5q-72 29 -137.5 66t-116.5 87t-80.5 118.5t-29.5 161.5
q0 124 59.5 212t168 135t253.5 47q115 0 216.5 -24t199.5 -68l-76 -193q-90 37 -174.5 59t-172.5 22q-76 0 -129 -23t-80.5 -64.5t-27.5 -98.5q0 -64 31.5 -107.5t98 -79.5t171.5 -80q121 -50 205.5 -105t129.5 -131.5t45 -191.5zM453 1597q-27 46 -72.5 101.5t-94 108.5
t-86.5 92v26h159q53 -36 112.5 -83.5t111.5 -102.5q53 55 113.5 103t114.5 83h160v-26q-38 -38 -87.5 -91.5t-95 -109t-72.5 -101.5h-263z" />
    <glyph glyph-name="scaron" unicode="&#x161;" horiz-adv-x="997" 
d="M912 316q0 -109 -53 -184t-154.5 -113.5t-248.5 -38.5q-116 0 -199.5 16.5t-157.5 50.5v203q79 -37 177.5 -64t186.5 -27q116 0 167 36.5t51 97.5q0 36 -20.5 64.5t-76 59t-162.5 73.5q-105 42 -177 84t-109 101.5t-37 152.5q0 147 116.5 223.5t308.5 76.5
q102 0 192.5 -20.5t177.5 -59.5l-74 -177q-75 33 -150.5 54.5t-153.5 21.5q-91 0 -138.5 -28t-47.5 -80q0 -39 23 -66t79.5 -54t157.5 -67q99 -38 171.5 -79.5t111.5 -101.5t39 -155zM369 1241q-27 46 -72.5 101.5t-94 108.5t-86.5 92v26h159q53 -36 112.5 -83.5
t111.5 -102.5q53 55 113.5 103t114.5 83h160v-26q-38 -38 -87.5 -91.5t-95 -109t-72.5 -101.5h-263z" />
    <glyph glyph-name="uni0162" unicode="&#x162;" horiz-adv-x="1157" 
d="M699 0h-241v1258h-428v204h1096v-204h-427v-1258zM799 -268q0 -106 -71 -165t-231 -59q-38 0 -70 5t-55 11v137q24 -6 60 -11t66 -5q52 0 82.5 18t30.5 61q0 46 -45 73t-133 38l84 165h152l-41 -86q46 -12 84.5 -35t62.5 -59.5t24 -87.5z" />
    <glyph glyph-name="uni0163" unicode="&#x163;" horiz-adv-x="810" 
d="M580 170q46 0 91 8.5t82 20.5v-178q-39 -17 -101 -29t-129 -12q-94 0 -169 31.5t-119 108.5t-44 213v595h-151v105l162 83l77 237h148v-246h317v-179h-317v-592q0 -84 42 -125t111 -41zM683 -268q0 -106 -71 -165t-231 -59q-38 0 -70 5t-55 11v137q24 -6 60 -11t66 -5
q52 0 82.5 18t30.5 61q0 46 -45 73t-133 38l84 165h152l-41 -86q46 -12 84.5 -35t62.5 -59.5t24 -87.5z" />
    <glyph glyph-name="Tcaron" unicode="&#x164;" horiz-adv-x="1157" 
d="M699 0h-241v1258h-428v204h1096v-204h-427v-1258zM449 1597q-27 46 -72.5 101.5t-94 108.5t-86.5 92v26h159q53 -36 112.5 -83.5t111.5 -102.5q53 55 113.5 103t114.5 83h160v-26q-38 -38 -87.5 -91.5t-95 -109t-72.5 -101.5h-263z" />
    <glyph glyph-name="tcaron" unicode="&#x165;" horiz-adv-x="810" 
d="M580 170q46 0 91 8.5t82 20.5v-178q-39 -17 -101 -29t-129 -12q-94 0 -169 31.5t-119 108.5t-44 213v595h-151v105l162 83l77 237h148v-246h317v-179h-317v-592q0 -84 42 -125t111 -41zM1054 1556v-18q-15 -42 -39 -95t-54 -108.5t-63 -105.5h-134v25q10 29 19.5 67
t19 80t16.5 82t11 73h224z" />
    <glyph glyph-name="Tbar" unicode="&#x166;" horiz-adv-x="1157" 
d="M458 0v635h-282v197h282v425h-428v205h1096v-205h-429v-425h280v-197h-280v-635h-239z" />
    <glyph glyph-name="tbar" unicode="&#x167;" horiz-adv-x="810" 
d="M57 536v163h659v-163h-659zM580 170q46 0 91 8.5t82 20.5v-178q-39 -17 -101 -29t-129 -12q-94 0 -169 31.5t-119 108.5t-44 213v595h-151v105l162 83l77 237h148v-246h317v-179h-317v-592q0 -84 42 -125t111 -41z" />
    <glyph glyph-name="Utilde" unicode="&#x168;" horiz-adv-x="1521" 
d="M1340 1462v-946q0 -153 -64.5 -274t-194.5 -191.5t-327 -70.5q-281 0 -427.5 147.5t-146.5 392.5v942h240v-921q0 -183 86 -270t257 -87q118 0 192.5 41.5t110 122t35.5 194.5v920h239zM367 1598q6 70 26 122.5t52.5 88t75 53.5t92.5 18q44 0 84.5 -17t79 -39.5t75 -39.5
t70.5 -17q39 0 66.5 28t41.5 87h123q-12 -138 -79 -210.5t-167 -72.5q-42 0 -82.5 17.5t-78.5 39.5t-75 39t-72 17q-40 0 -67.5 -28t-40.5 -86h-124z" />
    <glyph glyph-name="utilde" unicode="&#x169;" horiz-adv-x="1301" 
d="M1133 1107v-1107h-185l-32 149h-13q-35 -57 -89 -94.5t-120 -56t-139 -18.5q-125 0 -213.5 42.5t-135.5 131.5t-47 230v723h236v-679q0 -129 52.5 -193t163.5 -64q107 0 170 44t89.5 130t26.5 211v551h236zM257 1242q6 70 26 122.5t52.5 88t75 53.5t92.5 18
q44 0 84.5 -17t79 -39.5t75 -39.5t70.5 -17q39 0 66.5 28t41.5 87h123q-12 -138 -79 -210.5t-167 -72.5q-42 0 -82.5 17.5t-78.5 39.5t-75 39t-72 17q-40 0 -67.5 -28t-40.5 -86h-124z" />
    <glyph glyph-name="Umacron" unicode="&#x16a;" horiz-adv-x="1521" 
d="M1340 1462v-946q0 -153 -64.5 -274t-194.5 -191.5t-327 -70.5q-281 0 -427.5 147.5t-146.5 392.5v942h240v-921q0 -183 86 -270t257 -87q118 0 192.5 41.5t110 122t35.5 194.5v920h239zM1081 1771v-173h-639v173h639z" />
    <glyph glyph-name="umacron" unicode="&#x16b;" horiz-adv-x="1301" 
d="M1133 1107v-1107h-185l-32 149h-13q-35 -57 -89 -94.5t-120 -56t-139 -18.5q-125 0 -213.5 42.5t-135.5 131.5t-47 230v723h236v-679q0 -129 52.5 -193t163.5 -64q107 0 170 44t89.5 130t26.5 211v551h236zM971 1415v-173h-639v173h639z" />
    <glyph glyph-name="Ubreve" unicode="&#x16c;" horiz-adv-x="1521" 
d="M1340 1462v-946q0 -153 -64.5 -274t-194.5 -191.5t-327 -70.5q-281 0 -427.5 147.5t-146.5 392.5v942h240v-921q0 -183 86 -270t257 -87q118 0 192.5 41.5t110 122t35.5 194.5v920h239zM1120 1901q-7 -90 -52 -158.5t-122 -107t-182 -38.5q-162 0 -251 82.5t-97 221.5
h137q6 -56 33.5 -84t74 -37t106.5 -9q51 0 97.5 10.5t78 38.5t37.5 81h140z" />
    <glyph glyph-name="ubreve" unicode="&#x16d;" horiz-adv-x="1301" 
d="M1133 1107v-1107h-185l-32 149h-13q-35 -57 -89 -94.5t-120 -56t-139 -18.5q-125 0 -213.5 42.5t-135.5 131.5t-47 230v723h236v-679q0 -129 52.5 -193t163.5 -64q107 0 170 44t89.5 130t26.5 211v551h236zM1010 1545q-7 -90 -52 -158.5t-122 -107t-182 -38.5
q-162 0 -251 82.5t-97 221.5h137q6 -56 33.5 -84t74 -37t106.5 -9q51 0 97.5 10.5t78 38.5t37.5 81h140z" />
    <glyph glyph-name="Uring" unicode="&#x16e;" horiz-adv-x="1521" 
d="M1340 1462v-946q0 -153 -64.5 -274t-194.5 -191.5t-327 -70.5q-281 0 -427.5 147.5t-146.5 392.5v942h240v-921q0 -183 86 -270t257 -87q118 0 192.5 41.5t110 122t35.5 194.5v920h239zM763 1597q-104 0 -169.5 60t-65.5 167q0 105 65 165t170 60q100 0 169.5 -60
t69.5 -163q0 -108 -68.5 -168.5t-170.5 -60.5zM763 1715q47 0 77.5 29.5t30.5 79.5q0 49 -31 78t-77 29t-77 -29t-31 -78q0 -50 27.5 -79.5t80.5 -29.5z" />
    <glyph glyph-name="uring" unicode="&#x16f;" horiz-adv-x="1301" 
d="M1133 1107v-1107h-185l-32 149h-13q-35 -57 -89 -94.5t-120 -56t-139 -18.5q-125 0 -213.5 42.5t-135.5 131.5t-47 230v723h236v-679q0 -129 52.5 -193t163.5 -64q107 0 170 44t89.5 130t26.5 211v551h236zM653 1241q-104 0 -169.5 60t-65.5 167q0 105 65 165t170 60
q100 0 169.5 -60t69.5 -163q0 -108 -68.5 -168.5t-170.5 -60.5zM653 1359q47 0 77.5 29.5t30.5 79.5q0 49 -31 78t-77 29t-77 -29t-31 -78q0 -50 27.5 -79.5t80.5 -29.5z" />
    <glyph glyph-name="Uhungarumlaut" unicode="&#x170;" horiz-adv-x="1521" 
d="M1340 1462v-946q0 -153 -64.5 -274t-194.5 -191.5t-327 -70.5q-281 0 -427.5 147.5t-146.5 392.5v942h240v-921q0 -183 86 -270t257 -87q118 0 192.5 41.5t110 122t35.5 194.5v920h239zM1298 1925v-20q-17 -28 -52 -68t-79.5 -85t-89.5 -85.5t-81 -69.5h-129v26
q30 39 65 92t68.5 108.5t55.5 101.5h242zM921 1925v-20q-17 -28 -52 -68t-79.5 -85t-89.5 -85.5t-81 -69.5h-129v26q30 39 64.5 92t68 108.5t56.5 101.5h242z" />
    <glyph glyph-name="uhungarumlaut" unicode="&#x171;" horiz-adv-x="1301" 
d="M1133 1107v-1107h-185l-32 149h-13q-35 -57 -89 -94.5t-120 -56t-139 -18.5q-125 0 -213.5 42.5t-135.5 131.5t-47 230v723h236v-679q0 -129 52.5 -193t163.5 -64q107 0 170 44t89.5 130t26.5 211v551h236zM1188 1569v-20q-17 -28 -52 -68t-79.5 -85t-89.5 -85.5
t-81 -69.5h-129v26q30 39 65 92t68.5 108.5t55.5 101.5h242zM811 1569v-20q-17 -28 -52 -68t-79.5 -85t-89.5 -85.5t-81 -69.5h-129v26q30 39 64.5 92t68 108.5t56.5 101.5h242z" />
    <glyph glyph-name="Uogonek" unicode="&#x172;" horiz-adv-x="1521" 
d="M970 -213q0 -57 25 -83.5t65 -26.5q32 0 59 5.5t45 10.5v-143q-30 -8 -62.5 -14.5t-77.5 -6.5q-110 0 -169 59.5t-59 166.5q0 67 31.5 130.5t81 115.5t101.5 85l155 24q-66 -67 -109.5 -122.5t-64.5 -104.5t-21 -96zM1340 1462v-946q0 -153 -64.5 -274t-194.5 -191.5
t-327 -70.5q-281 0 -427.5 147.5t-146.5 392.5v942h240v-921q0 -183 86 -270t257 -87q118 0 192.5 41.5t110 122t35.5 194.5v920h239z" />
    <glyph glyph-name="uogonek" unicode="&#x173;" horiz-adv-x="1301" 
d="M1133 1107v-1107h-185l-32 149h-13q-35 -57 -89 -94.5t-120 -56t-139 -18.5q-125 0 -213.5 42.5t-135.5 131.5t-47 230v723h236v-679q0 -129 52.5 -193t163.5 -64q107 0 170 44t89.5 130t26.5 211v551h236zM939 -234q0 -44 24 -66.5t64 -22.5q33 0 60.5 5.5t45.5 10.5
v-143q-30 -8 -63 -14.5t-77 -6.5q-110 0 -169 57.5t-59 152.5q0 59 29.5 113.5t77 101t101.5 79.5l112 -33q-69 -65 -107.5 -120t-38.5 -114z" />
    <glyph glyph-name="Wcircumflex" unicode="&#x174;" horiz-adv-x="1936" 
d="M1921 1462l-382 -1462h-262l-244 876q-9 32 -20 76t-21.5 90t-18 84.5t-10.5 59.5q-2 -21 -9 -59t-16.5 -83.5t-20.5 -90t-20 -78.5l-240 -875h-261l-381 1462h241l211 -857q10 -41 20.5 -88.5t20 -95.5t17.5 -93.5t13 -82.5q5 38 13 84.5t17.5 95t20 93.5t21.5 81
l238 863h234l243 -866q11 -37 21.5 -83t20.5 -94t18 -93t13 -81q7 49 18 112t25 128t28 120l210 857h242zM1102 1925q27 -46 72.5 -102t95 -109.5t87.5 -91.5v-25h-160q-54 34 -114.5 81.5t-113.5 102.5q-54 -55 -112.5 -102t-111.5 -82h-159v25q38 39 87 92t94 109t72 102
h263z" />
    <glyph glyph-name="wcircumflex" unicode="&#x175;" horiz-adv-x="1670" 
d="M1073 1l-140 515q-10 38 -24 92t-28 111.5t-25.5 106.5t-17.5 76h-8q-5 -27 -16 -76t-25 -107t-27.5 -113t-24.5 -94l-147 -511h-258l-310 1107h238l144 -550q14 -56 27.5 -121t23.5 -124t15 -97h8q4 27 11 68.5t16 87t18 86t17 65.5l170 585h257l163 -585
q11 -38 24 -95.5t23.5 -115t13.5 -95.5h8q4 34 14.5 92.5t24.5 125t29 123.5l147 550h234l-312 -1107h-263zM970 1569q27 -46 72.5 -102t95 -109.5t87.5 -91.5v-25h-160q-54 34 -114.5 81.5t-113.5 102.5q-54 -55 -112.5 -102t-111.5 -82h-159v25q38 39 87 92t94 109t72 102
h263z" />
    <glyph glyph-name="Ycircumflex" unicode="&#x176;" horiz-adv-x="1212" 
d="M606 795l347 667h259l-486 -894v-568h-239v559l-487 903h261zM740 1925q27 -46 72.5 -102t95 -109.5t87.5 -91.5v-25h-160q-54 34 -114.5 81.5t-113.5 102.5q-54 -55 -112.5 -102t-111.5 -82h-159v25q38 39 87 92t94 109t72 102h263z" />
    <glyph glyph-name="ycircumflex" unicode="&#x177;" horiz-adv-x="1096" 
d="M1 1107h256l227 -632q15 -43 27.5 -84.5t22 -81.5t15.5 -80h6q10 52 28.5 116.5t41.5 129.5l218 632h253l-475 -1259q-41 -108 -100.5 -184.5t-140.5 -116t-185 -39.5q-50 0 -87 5.5t-63 11.5v188q21 -5 53 -9t66 -4q63 0 109 25t78 70.5t53 103.5l39 104zM682 1569
q27 -46 72.5 -102t95 -109.5t87.5 -91.5v-25h-160q-54 34 -114.5 81.5t-113.5 102.5q-54 -55 -112.5 -102t-111.5 -82h-159v25q38 39 87 92t94 109t72 102h263z" />
    <glyph glyph-name="Ydieresis" unicode="&#x178;" horiz-adv-x="1212" 
d="M606 795l347 667h259l-486 -894v-568h-239v559l-487 903h261zM293 1756q0 60 33 87.5t81 27.5t82.5 -27.5t34.5 -87.5q0 -58 -34.5 -87t-82.5 -29t-81 29t-33 87zM686 1756q0 60 33.5 87.5t81.5 27.5t82.5 -27.5t34.5 -87.5q0 -58 -34.5 -87t-82.5 -29t-81.5 29t-33.5 87
z" />
    <glyph glyph-name="Zacute" unicode="&#x179;" horiz-adv-x="1179" 
d="M1115 0h-1051v165l744 1093h-721v204h1008v-164l-744 -1094h764v-204zM941 1925v-20q-24 -29 -65 -69.5t-89 -85t-95 -85t-85 -68.5h-157v26q33 38 73.5 91t80 109t66.5 102h271z" />
    <glyph glyph-name="zacute" unicode="&#x17a;" horiz-adv-x="980" 
d="M909 0h-841v145l559 781h-525v181h791v-160l-548 -766h564v-181zM831 1569v-20q-24 -29 -65 -69.5t-89 -85t-95 -85t-85 -68.5h-157v26q33 38 73.5 91t80 109t66.5 102h271z" />
    <glyph glyph-name="Zdotaccent" unicode="&#x17b;" horiz-adv-x="1179" 
d="M1115 0h-1051v165l744 1093h-721v204h1008v-164l-744 -1094h764v-204zM603 1887q55 0 94 -29t39 -100q0 -70 -39 -99.5t-94 -29.5q-56 0 -94.5 29.5t-38.5 99.5q0 71 38.5 100t94.5 29z" />
    <glyph glyph-name="zdotaccent" unicode="&#x17c;" horiz-adv-x="980" 
d="M909 0h-841v145l559 781h-525v181h791v-160l-548 -766h564v-181zM494 1531q55 0 94 -29t39 -100q0 -70 -39 -99.5t-94 -29.5q-56 0 -94.5 29.5t-38.5 99.5q0 71 38.5 100t94.5 29z" />
    <glyph glyph-name="Zcaron" unicode="&#x17d;" horiz-adv-x="1179" 
d="M1115 0h-1051v165l744 1093h-721v204h1008v-164l-744 -1094h764v-204zM469 1597q-27 46 -72.5 101.5t-94 108.5t-86.5 92v26h159q53 -36 112.5 -83.5t111.5 -102.5q53 55 113.5 103t114.5 83h160v-26q-38 -38 -87.5 -91.5t-95 -109t-72.5 -101.5h-263z" />
    <glyph glyph-name="zcaron" unicode="&#x17e;" horiz-adv-x="980" 
d="M909 0h-841v145l559 781h-525v181h791v-160l-548 -766h564v-181zM360 1241q-27 46 -72.5 101.5t-94 108.5t-86.5 92v26h159q53 -36 112.5 -83.5t111.5 -102.5q53 55 113.5 103t114.5 83h160v-26q-38 -38 -87.5 -91.5t-95 -109t-72.5 -101.5h-263z" />
    <glyph glyph-name="longs" unicode="&#x17f;" horiz-adv-x="723" 
d="M561 1377q-79 0 -118 -47.5t-39 -143.5v-1186h-236v1192q0 140 46 222t130 117.5t199 35.5q79 0 137 -13t100 -29l-56 -178q-34 11 -74.5 20.5t-88.5 9.5z" />
    <glyph glyph-name="florin" unicode="&#x192;" horiz-adv-x="1171" 
d="M821 1483q77 0 135 -14t99 -30l-57 -177q-32 11 -69.5 21t-82.5 10q-77 0 -111 -45t-34 -140v-108h253v-180h-251v-950q0 -114 -37.5 -195.5t-114.5 -124t-195 -42.5q-44 0 -88 7t-74 15v190q31 -9 60.5 -14t63.5 -5q69 0 108 41t39 152v926h-190v114l190 69v110
q0 141 42.5 221.5t122.5 114.5t191 34z" />
    <glyph glyph-name="Ohorn" unicode="&#x1a0;" horiz-adv-x="1645" 
d="M1489 733q0 -169 -42.5 -307.5t-127.5 -238t-212.5 -153.5t-299.5 -54q-175 0 -304 54t-213.5 154t-126 239t-41.5 308q0 226 74.5 394.5t227.5 262t386 93.5q172 0 301 -55t214 -154q43 18 68 57.5t35.5 96.5t10.5 126h240l14 -21q-28 -146 -91.5 -247.5t-190.5 -151.5
q39 -84 58.5 -185t19.5 -218zM374 733q0 -169 45.5 -292.5t141.5 -190t246 -66.5q151 0 246 66.5t139.5 190t44.5 292.5q0 256 -101.5 402t-326.5 146q-151 0 -247 -66t-142 -189t-46 -293z" />
    <glyph glyph-name="ohorn" unicode="&#x1a1;" horiz-adv-x="1321" 
d="M1148 556q0 -183 -63.5 -312t-181.5 -196.5t-281 -67.5q-151 0 -268.5 67.5t-184 196.5t-66.5 312q0 274 141 423t385 149q110 0 205.5 -36t163.5 -104q56 18 87.5 58t44 99t12.5 130h238l15 -21q-18 -97 -52 -175.5t-95 -135t-161 -87.5q29 -62 45 -137.5t16 -162.5z
M345 556q0 -125 29 -211t91.5 -129.5t160.5 -43.5q99 0 160.5 44t90.5 129.5t29 210.5q0 124 -29 208.5t-91 127.5t-161 43q-147 0 -213.5 -96t-66.5 -283z" />
    <glyph glyph-name="Uhorn" unicode="&#x1af;" horiz-adv-x="1697" 
d="M1340 1462v-194q58 15 91 53.5t47.5 98.5t14.5 136h238l14 -21q-15 -78 -40 -147t-69.5 -124t-116.5 -92.5t-179 -54.5v-601q0 -153 -62.5 -274t-190.5 -191.5t-326 -70.5q-284 0 -432.5 147.5t-148.5 392.5v942h240v-934q0 -173 87 -258.5t260 -85.5q118 0 191.5 41
t108 118.5t34.5 185.5v933h239z" />
    <glyph glyph-name="uhorn" unicode="&#x1b0;" horiz-adv-x="1457" 
d="M1523 1276l14 -22q-14 -78 -39 -147.5t-70 -125.5t-116.5 -93.5t-178.5 -51.5v-836h-185l-32 149h-14q-35 -57 -88.5 -94.5t-119 -56t-137.5 -18.5q-126 0 -215 42.5t-136 131.5t-47 230v722h236v-678q0 -129 52.5 -193t163.5 -64q161 0 223.5 99t62.5 286v550h236v-119
q58 14 91 53.5t47 100t14 135.5h238z" />
    <glyph glyph-name="uni01EA" unicode="&#x1ea;" horiz-adv-x="1612" 
d="M1490 733q0 -169 -42.5 -307.5t-127.5 -238t-213 -153.5t-300 -54q-175 0 -303.5 54t-213 154t-126.5 239t-42 308q0 226 74.5 394.5t227 262t385.5 93.5q228 0 379 -93t226.5 -261.5t75.5 -397.5zM374 733q0 -169 46 -292.5t141.5 -190t245.5 -66.5q151 0 246 66.5
t140 190t45 292.5q0 257 -102.5 402.5t-326.5 145.5q-150 0 -246.5 -66t-142.5 -188.5t-46 -293.5zM806 -234q0 -44 24 -66.5t64 -22.5q33 0 60.5 5.5t45.5 10.5v-143q-30 -8 -63 -14.5t-77 -6.5q-110 0 -169 57.5t-59 152.5q0 59 29.5 113.5t77 101t101.5 79.5l112 -33
q-69 -65 -107.5 -120t-38.5 -114z" />
    <glyph glyph-name="uni01EB" unicode="&#x1eb;" horiz-adv-x="1250" 
d="M1148 556q0 -138 -36 -245t-105 -180.5t-166 -112t-219 -38.5q-114 0 -209 38.5t-164.5 112t-107.5 180.5t-38 245q0 183 63.5 310.5t181.5 194.5t281 67q153 0 270 -67t183 -195t66 -310zM345 556q0 -121 29.5 -207t91.5 -131.5t160 -45.5t160 45.5t91 131.5t29 207
t-29 205.5t-91 129t-161 44.5q-146 0 -213 -98t-67 -281zM618 -234q0 -44 24 -66.5t64 -22.5q33 0 60.5 5.5t45.5 10.5v-143q-30 -8 -63 -14.5t-77 -6.5q-110 0 -169 57.5t-59 152.5q0 59 29.5 113.5t77 101t101.5 79.5l112 -33q-69 -65 -107.5 -120t-38.5 -114z" />
    <glyph glyph-name="uni01EC" unicode="&#x1ec;" horiz-adv-x="1612" 
d="M1490 733q0 -169 -42.5 -307.5t-127.5 -238t-213 -153.5t-300 -54q-175 0 -303.5 54t-213 154t-126.5 239t-42 308q0 226 74.5 394.5t227 262t385.5 93.5q228 0 379 -93t226.5 -261.5t75.5 -397.5zM374 733q0 -169 46 -292.5t141.5 -190t245.5 -66.5q151 0 246 66.5
t140 190t45 292.5q0 257 -102.5 402.5t-326.5 145.5q-150 0 -246.5 -66t-142.5 -188.5t-46 -293.5zM1126 1771v-173h-639v173h639zM820 -234q0 -44 24 -66.5t64 -22.5q33 0 60.5 5.5t45.5 10.5v-143q-30 -8 -63 -14.5t-77 -6.5q-110 0 -169 57.5t-59 152.5q0 59 29.5 113.5
t77 101t101.5 79.5l112 -33q-69 -65 -107.5 -120t-38.5 -114z" />
    <glyph glyph-name="uni01ED" unicode="&#x1ed;" horiz-adv-x="1250" 
d="M1148 556q0 -138 -36 -245t-105 -180.5t-166 -112t-219 -38.5q-114 0 -209 38.5t-164.5 112t-107.5 180.5t-38 245q0 183 63.5 310.5t181.5 194.5t281 67q153 0 270 -67t183 -195t66 -310zM345 556q0 -121 29.5 -207t91.5 -131.5t160 -45.5t160 45.5t91 131.5t29 207
t-29 205.5t-91 129t-161 44.5q-146 0 -213 -98t-67 -281zM946 1415v-173h-639v173h639zM618 -234q0 -44 24 -66.5t64 -22.5q33 0 60.5 5.5t45.5 10.5v-143q-30 -8 -63 -14.5t-77 -6.5q-110 0 -169 57.5t-59 152.5q0 59 29.5 113.5t77 101t101.5 79.5l112 -33
q-69 -65 -107.5 -120t-38.5 -114z" />
    <glyph glyph-name="uni01F0" unicode="&#x1f0;" horiz-adv-x="571" 
d="M57 -492q-52 0 -99 7.5t-79 17.5v188q34 -10 66 -15t73 -5q65 0 107.5 36t42.5 137v1233h235v-1254q0 -101 -35.5 -179t-112 -122t-198.5 -44zM156 1241q-27 46 -72.5 101.5t-94 108.5t-86.5 92v26h159q53 -36 112.5 -83.5t111.5 -102.5q53 55 113.5 103t114.5 83h160
v-26q-38 -38 -87.5 -91.5t-95 -109t-72.5 -101.5h-263z" />
    <glyph glyph-name="Aringacute" unicode="&#x1fa;" horiz-adv-x="1355" 
d="M-1 0l517 1277q-36 27 -55.5 69t-19.5 98q0 106 65 166.5t169 60.5q102 0 171.5 -60t69.5 -166q0 -55 -21 -97.5t-57 -69.5l518 -1278h-255l-140 366h-571l-138 -366h-253zM454 572h449l-140 360q-10 29 -27 74t-33.5 93t-25.5 82q-7 -25 -18.5 -61t-24 -73.5
t-23.5 -68.5t-18 -47zM675 1336q51 0 80 28t29 80q0 51 -30.5 79t-78.5 28t-78 -28t-30 -79q0 -50 28.5 -79t79.5 -29zM571 1725v17q29 30 62 68.5t63.5 78.5t51.5 74h271v-14q-16 -21 -50.5 -50.5t-77 -61.5t-85.5 -61.5t-78 -50.5h-157z" />
    <glyph glyph-name="aringacute" unicode="&#x1fb;" horiz-adv-x="1188" 
d="M602 1128q210 0 317.5 -93t107.5 -290v-745h-167l-45 157h-8q-47 -60 -97 -99t-115.5 -58.5t-159.5 -19.5q-99 0 -177 36.5t-123 111.5t-45 190q0 171 127.5 257t385.5 95l192 7v58q0 115 -53.5 164t-150.5 49q-83 0 -161 -24t-152 -59l-76 166q81 43 184.5 70t215.5 27z
M794 529l-143 -5q-176 -6 -247 -60t-71 -148q0 -82 49 -119.5t129 -37.5q122 0 202.5 69.5t80.5 204.5v96zM604 1551q-47 0 -78 -29t-31 -79t28 -79t81 -29q46 0 76.5 29t30.5 79t-31 79t-76 29zM604 1669q67 0 121 -27.5t86 -77.5t32 -119q0 -107 -68.5 -168t-170.5 -61
q-105 0 -170 60.5t-65 166.5q0 105 65 165.5t170 60.5zM942 1961v-12q-22 -24 -78.5 -62t-121 -76t-110.5 -63h-162v15q30 27 63 62t63.5 70.5t51.5 65.5h294z" />
    <glyph glyph-name="AEacute" unicode="&#x1fc;" horiz-adv-x="1864" 
d="M1747 0h-818v406h-498l-186 -406h-246l671 1462h1077v-202h-578v-397h540v-201h-540v-459h578v-203zM520 612h409v642h-121zM1354 1925v-20q-24 -29 -65 -69.5t-89 -85t-95 -85t-85 -68.5h-157v26q33 38 73.5 91t80 109t66.5 102h271z" />
    <glyph glyph-name="aeacute" unicode="&#x1fd;" horiz-adv-x="1822" 
d="M1274 1128q137 0 238.5 -61t157.5 -173t55 -266v-127h-716q5 -165 82.5 -250.5t220.5 -85.5q100 0 185 20.5t172 60.5v-191q-83 -39 -167.5 -57t-200.5 -18q-94 0 -174 25t-143.5 74.5t-107.5 123.5q-53 -72 -110.5 -122t-135 -75.5t-188.5 -25.5q-98 0 -178 36.5
t-127 111.5t-47 190q0 114 55 190t164.5 116t272.5 46l189 7v77q0 104 -54 149t-146 45q-81 0 -157.5 -23t-149.5 -58l-75 164q81 43 185 70t212 27q121 0 205 -39t133 -122q59 78 146 119.5t204 41.5zM769 529l-135 -5q-166 -6 -233.5 -60t-67.5 -148q0 -82 46.5 -119.5
t123.5 -37.5t137 31t94.5 92t34.5 151v96zM1270 951q-111 0 -178.5 -70.5t-77.5 -212.5h480q0 84 -25 147.5t-74.5 99.5t-124.5 36zM1266 1569v-20q-24 -29 -65 -69.5t-89 -85t-95 -85t-85 -68.5h-157v26q33 38 73.5 91t80 109t66.5 102h271z" />
    <glyph glyph-name="Oslashacute" unicode="&#x1fe;" horiz-adv-x="1612" 
d="M1490 733q0 -169 -42.5 -307.5t-127.5 -238t-213 -153.5t-300 -54q-108 0 -198.5 21t-161.5 63l-96 -140l-139 92l100 146q-96 100 -143 245.5t-47 327.5q0 226 74.5 394.5t227 262t385.5 93.5q104 0 194 -21.5t162 -61.5l91 132l138 -92l-97 -139q95 -98 144 -243
t49 -327zM1238 733q0 112 -20.5 203.5t-60.5 158.5l-587 -849q47 -30 105.5 -46t131.5 -16q151 0 246 66.5t140 190t45 292.5zM374 733q0 -111 20 -202.5t60 -159.5l588 849q-46 29 -104 45t-129 16q-150 0 -246.5 -66t-142.5 -188.5t-46 -293.5zM1153 1925v-20
q-24 -29 -65 -69.5t-89 -85t-95 -85t-85 -68.5h-157v26q33 38 73.5 91t80 109t66.5 102h271z" />
    <glyph glyph-name="oslashacute" unicode="&#x1ff;" horiz-adv-x="1250" 
d="M1148 556q0 -183 -63.5 -312t-181.5 -196.5t-281 -67.5q-71 0 -134 15t-118 45l-78 -111l-131 90l82 116q-67 75 -103.5 180t-36.5 241q0 274 141 423t385 149q73 0 138.5 -17t121.5 -48l70 100l132 -90l-78 -108q64 -73 99.5 -176t35.5 -233zM345 556q0 -66 8.5 -121
t27.5 -98l392 558q-29 19 -66.5 29.5t-81.5 10.5q-146 0 -213 -98t-67 -281zM906 556q0 59 -8 110.5t-24 91.5l-388 -551q27 -18 63 -26.5t77 -8.5q98 0 160 45.5t91 131.5t29 207zM969 1569v-20q-24 -29 -65 -69.5t-89 -85t-95 -85t-85 -68.5h-157v26q33 38 73.5 91t80 109
t66.5 102h271z" />
    <glyph glyph-name="uni0218" unicode="&#x218;" horiz-adv-x="1126" 
d="M1036 398q0 -130 -63.5 -224t-182 -144t-282.5 -50q-80 0 -153 9t-137.5 26.5t-117.5 42.5v226q89 -39 199 -70.5t224 -31.5q93 0 154.5 24.5t91.5 70t30 106.5q0 65 -35 110t-105.5 82.5t-176.5 80.5q-72 29 -137.5 66t-116.5 87t-80.5 118.5t-29.5 161.5
q0 124 59.5 212t168 135t253.5 47q115 0 216.5 -24t199.5 -68l-76 -193q-90 37 -174.5 59t-172.5 22q-76 0 -129 -23t-80.5 -64.5t-27.5 -98.5q0 -64 31.5 -107.5t98 -79.5t171.5 -80q121 -50 205.5 -105t129.5 -131.5t45 -191.5zM686 -125v-18q-15 -42 -39.5 -95.5
t-56 -109t-66.5 -105.5h-135v26q14 37 28.5 91t27.5 110.5t18 100.5h223z" />
    <glyph glyph-name="uni0219" unicode="&#x219;" horiz-adv-x="997" 
d="M912 316q0 -109 -53 -184t-154.5 -113.5t-248.5 -38.5q-116 0 -199.5 16.5t-157.5 50.5v203q79 -37 177.5 -64t186.5 -27q116 0 167 36.5t51 97.5q0 36 -20.5 64.5t-76 59t-162.5 73.5q-105 42 -177 84t-109 101.5t-37 152.5q0 147 116.5 223.5t308.5 76.5
q102 0 192.5 -20.5t177.5 -59.5l-74 -177q-75 33 -150.5 54.5t-153.5 21.5q-91 0 -138.5 -28t-47.5 -80q0 -39 23 -66t79.5 -54t157.5 -67q99 -38 171.5 -79.5t111.5 -101.5t39 -155zM647 -125v-18q-15 -42 -39.5 -95.5t-56 -109t-66.5 -105.5h-135v26q14 37 28.5 91
t27.5 110.5t18 100.5h223z" />
    <glyph glyph-name="uni021A" unicode="&#x21a;" horiz-adv-x="1157" 
d="M699 0h-241v1258h-428v204h1096v-204h-427v-1258zM726 -125v-18q-15 -42 -39.5 -95.5t-56 -109t-66.5 -105.5h-135v26q14 37 28.5 91t27.5 110.5t18 100.5h223z" />
    <glyph glyph-name="uni021B" unicode="&#x21b;" horiz-adv-x="810" 
d="M580 170q46 0 91 8.5t82 20.5v-178q-39 -17 -101 -29t-129 -12q-94 0 -169 31.5t-119 108.5t-44 213v595h-151v105l162 83l77 237h148v-246h317v-179h-317v-592q0 -84 42 -125t111 -41zM610 -125v-18q-15 -42 -39.5 -95.5t-56 -109t-66.5 -105.5h-135v26q14 37 28.5 91
t27.5 110.5t18 100.5h223z" />
    <glyph glyph-name="uni0237" unicode="&#x237;" horiz-adv-x="571" 
d="M57 -492q-52 0 -99 7.5t-79 17.5v188q34 -10 66 -15t73 -5q65 0 107.5 36t42.5 137v1233h235v-1254q0 -101 -35.5 -179t-112 -122t-198.5 -44z" />
    <glyph glyph-name="uni0259" unicode="&#x259;" horiz-adv-x="1180" 
d="M529 1128q163 0 286.5 -63.5t192.5 -189.5t69 -313q0 -186 -63 -316t-176.5 -198t-265.5 -68q-147 0 -254 60.5t-164 173.5t-57 268v125h740q-4 161 -87 248.5t-232 87.5q-105 0 -189.5 -20t-174.5 -62v192q83 38 169 56.5t206 18.5zM832 439h-504q1 -82 27 -146t80 -100
t137 -36q111 0 180 72t80 210z" />
    <glyph glyph-name="uni02BC" unicode="&#x2bc;" horiz-adv-x="396" 
d="M356 1462l15 -22q-18 -73 -46.5 -156t-61.5 -166t-67 -157h-170q14 59 29 124.5t29 132t25 129t19 115.5h228z" />
    <glyph glyph-name="circumflex" unicode="&#x2c6;" horiz-adv-x="935" 
d="M598 1569q27 -46 72.5 -102t95 -109.5t87.5 -91.5v-25h-160q-54 34 -114.5 81.5t-113.5 102.5q-54 -55 -112.5 -102t-111.5 -82h-159v25q38 39 87 92t94 109t72 102h263z" />
    <glyph glyph-name="caron" unicode="&#x2c7;" horiz-adv-x="935" 
d="M335 1241q-27 46 -72.5 101.5t-94 108.5t-86.5 92v26h159q53 -36 112.5 -83.5t111.5 -102.5q53 55 113.5 103t114.5 83h160v-26q-38 -38 -87.5 -91.5t-95 -109t-72.5 -101.5h-263z" />
    <glyph glyph-name="macron" unicode="&#x2c9;" horiz-adv-x="803" 
d="M721 1415v-173h-639v173h639z" />
    <glyph glyph-name="breve" unicode="&#x2d8;" horiz-adv-x="868" 
d="M786 1545q-7 -90 -52 -158.5t-122 -107t-182 -38.5q-162 0 -251 82.5t-97 221.5h137q6 -56 33.5 -84t74 -37t106.5 -9q51 0 97.5 10.5t78 38.5t37.5 81h140z" />
    <glyph glyph-name="dotaccent" unicode="&#x2d9;" horiz-adv-x="430" 
d="M215 1531q55 0 94 -29t39 -100q0 -70 -39 -99.5t-94 -29.5q-56 0 -94.5 29.5t-38.5 99.5q0 71 38.5 100t94.5 29z" />
    <glyph glyph-name="ring" unicode="&#x2da;" horiz-adv-x="638" 
d="M317 1241q-104 0 -169.5 60t-65.5 167q0 105 65 165t170 60q100 0 169.5 -60t69.5 -163q0 -108 -68.5 -168.5t-170.5 -60.5zM317 1359q47 0 77.5 29.5t30.5 79.5q0 49 -31 78t-77 29t-77 -29t-31 -78q0 -50 27.5 -79.5t80.5 -29.5z" />
    <glyph glyph-name="ogonek" unicode="&#x2db;" horiz-adv-x="532" 
d="M256 -234q0 -44 24 -66.5t64 -22.5q33 0 60.5 5.5t45.5 10.5v-143q-30 -8 -63 -14.5t-77 -6.5q-110 0 -169 57.5t-59 152.5q0 59 29.5 113.5t77 101t101.5 79.5l112 -33q-69 -65 -107.5 -120t-38.5 -114z" />
    <glyph glyph-name="tilde" unicode="&#x2dc;" horiz-adv-x="950" 
d="M82 1242q6 70 26 122.5t52.5 88t75 53.5t92.5 18q44 0 84.5 -17t79 -39.5t75 -39.5t70.5 -17q39 0 66.5 28t41.5 87h123q-12 -138 -79 -210.5t-167 -72.5q-42 0 -82.5 17.5t-78.5 39.5t-75 39t-72 17q-40 0 -67.5 -28t-40.5 -86h-124z" />
    <glyph glyph-name="hungarumlaut" unicode="&#x2dd;" horiz-adv-x="972" 
d="M890 1569v-20q-17 -28 -52 -68t-79.5 -85t-89.5 -85.5t-81 -69.5h-129v26q30 39 65 92t68.5 108.5t55.5 101.5h242zM513 1569v-20q-17 -28 -52 -68t-79.5 -85t-89.5 -85.5t-81 -69.5h-129v26q30 39 64.5 92t68 108.5t56.5 101.5h242z" />
    <glyph glyph-name="uni02F3" unicode="&#x2f3;" horiz-adv-x="682" 
d="M337 -578q-104 0 -169 60t-65 166q0 105 65 166t169 61q101 0 171 -60.5t70 -164.5q0 -107 -69.5 -167.5t-171.5 -60.5zM337 -460q47 0 77.5 29t30.5 79q0 51 -31 79.5t-77 28.5t-76.5 -28.5t-30.5 -79.5q0 -50 27 -79t80 -29z" />
    <glyph glyph-name="gravecomb" unicode="&#x300;" 
d="M-772 1569q27 -46 66 -102t81 -109t74 -91v-26h-157q-38 28 -85 68.5t-95.5 85t-89 85t-64.5 69.5v20h270z" />
    <glyph glyph-name="acutecomb" unicode="&#x301;" 
d="M-166 1569v-20q-24 -29 -65 -69.5t-89 -85t-95 -85t-85 -68.5h-157v26q33 38 73.5 91t80 109t66.5 102h271z" />
    <glyph glyph-name="uni0302" unicode="&#x302;" 
d="M132 1569q27 -46 72.5 -102t95 -109.5t87.5 -91.5v-25h-160q-54 34 -114.5 81.5t-113.5 102.5q-54 -55 -112.5 -102t-111.5 -82h-159v25q38 39 87 92t94 109t72 102h263z" />
    <glyph glyph-name="tildecomb" unicode="&#x303;" 
d="M-1028 1242q6 70 26 122.5t52.5 88t75 53.5t92.5 18q44 0 84.5 -17t79 -39.5t75 -39.5t70.5 -17q39 0 66.5 28t41.5 87h123q-12 -138 -79 -210.5t-167 -72.5q-42 0 -82.5 17.5t-78.5 39.5t-75 39t-72 17q-40 0 -67.5 -28t-40.5 -86h-124z" />
    <glyph glyph-name="uni0304" unicode="&#x304;" 
d="M321 1415v-173h-639v173h639z" />
    <glyph glyph-name="uni0306" unicode="&#x306;" 
d="M356 1545q-7 -90 -52 -158.5t-122 -107t-182 -38.5q-162 0 -251 82.5t-97 221.5h137q6 -56 33.5 -84t74 -37t106.5 -9q51 0 97.5 10.5t78 38.5t37.5 81h140z" />
    <glyph glyph-name="uni0307" unicode="&#x307;" 
d="M1 1531q55 0 94 -29t39 -100q0 -70 -39 -99.5t-94 -29.5q-56 0 -94.5 29.5t-38.5 99.5q0 71 38.5 100t94.5 29z" />
    <glyph glyph-name="uni0308" unicode="&#x308;" 
d="M-312 1400q0 60 33 87.5t81 27.5t82.5 -27.5t34.5 -87.5q0 -58 -34.5 -87t-82.5 -29t-81 29t-33 87zM81 1400q0 60 33.5 87.5t81.5 27.5t82.5 -27.5t34.5 -87.5q0 -58 -34.5 -87t-82.5 -29t-81.5 29t-33.5 87z" />
    <glyph glyph-name="hookabovecomb" unicode="&#x309;" 
d="M-374 1493q0 -77 -44 -123.5t-121 -64.5l-9 -91h-139l-18 160q76 12 111 37t35 68q0 41 -29.5 58.5t-76.5 17.5q-34 0 -64.5 -4.5t-55.5 -11.5v134q25 8 63.5 13t82.5 5q130 0 197.5 -51t67.5 -147z" />
    <glyph glyph-name="uni030A" unicode="&#x30a;" 
d="M4 1241q-104 0 -169.5 60t-65.5 167q0 105 65 165t170 60q100 0 169.5 -60t69.5 -163q0 -108 -68.5 -168.5t-170.5 -60.5zM4 1359q47 0 77.5 29.5t30.5 79.5q0 49 -31 78t-77 29t-77 -29t-31 -78q0 -50 27.5 -79.5t80.5 -29.5z" />
    <glyph glyph-name="uni030B" unicode="&#x30b;" 
d="M529 1569v-20q-17 -28 -52 -68t-79.5 -85t-89.5 -85.5t-81 -69.5h-129v26q30 39 65 92t68.5 108.5t55.5 101.5h242zM152 1569v-20q-17 -28 -52 -68t-79.5 -85t-89.5 -85.5t-81 -69.5h-129v26q30 39 64.5 92t68 108.5t56.5 101.5h242z" />
    <glyph glyph-name="uni030C" unicode="&#x30c;" 
d="M-130 1241q-27 46 -72.5 101.5t-94 108.5t-86.5 92v26h159q53 -36 112.5 -83.5t111.5 -102.5q53 55 113.5 103t114.5 83h160v-26q-38 -38 -87.5 -91.5t-95 -109t-72.5 -101.5h-263z" />
    <glyph glyph-name="uni030F" unicode="&#x30f;" 
d="M-493 1569q22 -46 52.5 -101.5t64 -108.5t61.5 -92v-26h-129q-34 29 -77 69.5t-86 85.5t-77 85t-51 68v20h242zM-869 1569q22 -46 52 -101.5t63 -108.5t62 -92v-26h-128q-35 29 -78.5 69.5t-86 85.5t-76.5 85t-51 68v20h243z" />
    <glyph glyph-name="uni0312" unicode="&#x312;" 
d="M-164 961l-13 22q18 73 46.5 156t61.5 166.5t67 156.5h170q-19 -79 -39 -168t-36.5 -175.5t-27.5 -157.5h-229z" />
    <glyph glyph-name="dotbelowcomb" unicode="&#x323;" 
d="M-625 -390q-56 0 -94.5 29.5t-38.5 99.5q0 71 38.5 100t94.5 29q55 0 94 -29t39 -100q0 -70 -39 -99.5t-94 -29.5z" />
    <glyph glyph-name="uni0326" unicode="&#x326;" 
d="M149 -125v-18q-15 -42 -39.5 -95.5t-56 -109t-66.5 -105.5h-135v26q14 37 28.5 91t27.5 110.5t18 100.5h223z" />
    <glyph glyph-name="uni0327" unicode="&#x327;" 
d="M214 -268q0 -106 -71 -165t-231 -59q-38 0 -70 5t-55 11v137q24 -6 60 -11t66 -5q52 0 82.5 18t30.5 61q0 46 -45 73t-133 38l84 165h152l-41 -86q46 -12 84.5 -35t62.5 -59.5t24 -87.5z" />
    <glyph glyph-name="uni0328" unicode="&#x328;" 
d="M-10 -234q0 -44 24 -66.5t64 -22.5q33 0 60.5 5.5t45.5 10.5v-143q-30 -8 -63 -14.5t-77 -6.5q-110 0 -169 57.5t-59 152.5q0 59 29.5 113.5t77 101t101.5 79.5l112 -33q-69 -65 -107.5 -120t-38.5 -114z" />
    <glyph glyph-name="tonos" unicode="&#x384;" horiz-adv-x="1182" 
d="M501 1241v29q13 37 26 84t25 97.5t21.5 99t15.5 89.5h231v-23q-17 -50 -45.5 -114.5t-63 -132.5t-70.5 -129h-140z" />
    <glyph glyph-name="dieresistonos" unicode="&#x385;" horiz-adv-x="1182" 
d="M813 1716v-20q-20 -44 -50.5 -96t-66.5 -106.5t-73 -105.5h-109v25q13 41 28 94t28 108.5t20 100.5h223zM355 1515q47 0 78.5 -27.5t31.5 -87.5q0 -58 -31.5 -87t-78.5 -29q-48 0 -78.5 29t-30.5 87q0 60 30.5 87.5t78.5 27.5zM852 1515q46 0 78 -27.5t32 -87.5
q0 -58 -32 -87t-78 -29q-50 0 -80 29t-30 87q0 60 30 87.5t80 27.5z" />
    <glyph glyph-name="Alphatonos" unicode="&#x386;" horiz-adv-x="1375" 
d="M1119 0l-143 406h-559l-143 -406h-253l544 1468h266l543 -1468h-255zM914 612l-139 400q-8 26 -23 73.5t-30 97t-25 83.5q-10 -41 -24.5 -91.5t-28 -94.5t-20.5 -68l-140 -400h430zM24 1139v29q13 37 26 84t25 97.5t21.5 99t15.5 89.5h231v-23q-17 -50 -45.5 -114.5
t-63 -132.5t-70.5 -129h-140z" />
    <glyph glyph-name="anoteleia" unicode="&#x387;" horiz-adv-x="561" 
d="M134 981q0 82 42.5 115.5t103.5 33.5t104.5 -33.5t43.5 -115.5q0 -80 -43.5 -115.5t-104.5 -35.5t-103.5 35.5t-42.5 115.5z" />
    <glyph glyph-name="Epsilontonos" unicode="&#x388;" horiz-adv-x="1342" 
d="M1220 0h-828v1462h828v-202h-588v-397h551v-201h-551v-459h588v-203zM0 1139v29q13 37 26 84t25 97.5t21.5 99t15.5 89.5h231v-23q-17 -50 -45.5 -114.5t-63 -132.5t-70.5 -129h-140z" />
    <glyph glyph-name="Etatonos" unicode="&#x389;" horiz-adv-x="1738" 
d="M1545 0h-239v660h-674v-660h-240v1462h240v-598h674v598h239v-1462zM0 1139v29q13 37 26 84t25 97.5t21.5 99t15.5 89.5h231v-23q-17 -50 -45.5 -114.5t-63 -132.5t-70.5 -129h-140z" />
    <glyph glyph-name="Iotatonos" unicode="&#x38a;" horiz-adv-x="831" 
d="M398 0v1462h240v-1462h-240zM0 1139v29q13 37 26 84t25 97.5t21.5 99t15.5 89.5h231v-23q-17 -50 -45.5 -114.5t-63 -132.5t-70.5 -129h-140z" />
    <glyph glyph-name="Omicrontonos" unicode="&#x38c;" horiz-adv-x="1717" 
d="M1595 733q0 -169 -42.5 -307.5t-127.5 -238t-213 -153.5t-300 -54q-175 0 -303.5 54t-213 154t-126.5 239t-42 308q0 226 74.5 394.5t227 262t385.5 93.5q228 0 379 -93t226.5 -261.5t75.5 -397.5zM479 733q0 -169 46 -292.5t141.5 -190t245.5 -66.5q151 0 246 66.5
t140 190t45 292.5q0 257 -102.5 402.5t-326.5 145.5q-150 0 -246.5 -66t-142.5 -188.5t-46 -293.5zM0 1139v29q13 37 26 84t25 97.5t21.5 99t15.5 89.5h231v-23q-17 -50 -45.5 -114.5t-63 -132.5t-70.5 -129h-140z" />
    <glyph glyph-name="Upsilontonos" unicode="&#x38e;" horiz-adv-x="1559" 
d="M953 795l347 667h259l-486 -894v-568h-239v559l-487 903h261zM0 1139v29q13 37 26 84t25 97.5t21.5 99t15.5 89.5h231v-23q-17 -50 -45.5 -114.5t-63 -132.5t-70.5 -129h-140z" />
    <glyph glyph-name="Omegatonos" unicode="&#x38f;" horiz-adv-x="1720" 
d="M918 1281q-141 0 -237.5 -55t-145.5 -160t-49 -254q0 -130 30 -239.5t98 -200.5t182 -164v-208h-613v205h373q-93 64 -165.5 158t-113.5 216t-41 269q0 194 82 337t235 221.5t365 78.5q215 0 368 -78t234.5 -221t81.5 -338q0 -147 -41 -269.5t-113.5 -216t-167.5 -157.5
h374v-205h-614v208q116 71 184.5 163t98.5 203t30 239q0 149 -49.5 253.5t-146.5 159.5t-239 55zM-6 1140v29q13 37 26 84t25 97.5t21.5 99t15.5 89.5h231v-23q-17 -50 -45.5 -114.5t-63 -132.5t-70.5 -129h-140z" />
    <glyph glyph-name="iotadieresistonos" unicode="&#x390;" horiz-adv-x="765" 
d="M399 1107v-771q0 -84 38 -125t110 -41q47 0 94 8.5t84 20.5v-178q-37 -18 -97.5 -29.5t-126.5 -11.5q-97 0 -173 31t-120 108t-44 215v773h235zM517 1716v-20q-20 -44 -50.5 -96t-66.5 -106.5t-73 -105.5h-109v25q13 41 28 94t28 108.5t20 100.5h223zM59 1515
q47 0 78.5 -27.5t31.5 -87.5q0 -58 -31.5 -87t-78.5 -29q-48 0 -78.5 29t-30.5 87q0 60 30.5 87.5t78.5 27.5zM556 1515q46 0 78 -27.5t32 -87.5q0 -58 -32 -87t-78 -29q-50 0 -80 29t-30 87q0 60 30 87.5t80 27.5z" />
    <glyph glyph-name="Alpha" unicode="&#x391;" horiz-adv-x="1354" 
d="M1098 0l-143 406h-559l-143 -406h-253l544 1468h266l543 -1468h-255zM893 612l-139 400q-8 26 -23 73.5t-30 97t-25 83.5q-10 -41 -24.5 -91.5t-28 -94.5t-20.5 -68l-140 -400h430z" />
    <glyph glyph-name="Beta" unicode="&#x392;" horiz-adv-x="1350" 
d="M192 1462h435q283 0 427 -82t144 -283q0 -84 -29.5 -151.5t-85.5 -111t-138 -58.5v-10q85 -15 151.5 -53t105 -109t38.5 -184q0 -134 -63.5 -228t-181 -143t-278.5 -49h-525v1462zM432 859h230q163 0 226 53t63 155q0 104 -74.5 150t-236.5 46h-208v-404zM432 665v-464
h253q168 0 236 65t68 176q0 68 -30.5 118t-99.5 77.5t-186 27.5h-241z" />
    <glyph glyph-name="Gamma" unicode="&#x393;" horiz-adv-x="1107" 
d="M1065 1462v-204h-633v-1258h-240v1462h873z" />
    <glyph glyph-name="uni0394" unicode="&#x394;" horiz-adv-x="1267" 
d="M764 1465l456 -1326v-139h-1173v141l457 1324h260zM968 204l-263 784q-12 38 -27 86.5t-27.5 95t-18.5 76.5q-6 -30 -18 -76t-26 -94t-26 -85l-265 -787h671z" />
    <glyph glyph-name="Epsilon" unicode="&#x395;" horiz-adv-x="1143" 
d="M1020 0h-828v1462h828v-202h-588v-397h551v-201h-551v-459h588v-203z" />
    <glyph glyph-name="Zeta" unicode="&#x396;" horiz-adv-x="1179" 
d="M1115 0h-1051v165l744 1093h-721v204h1008v-164l-744 -1094h764v-204z" />
    <glyph glyph-name="Eta" unicode="&#x397;" horiz-adv-x="1539" 
d="M1345 0h-239v660h-674v-660h-240v1462h240v-598h674v598h239v-1462z" />
    <glyph glyph-name="Theta" unicode="&#x398;" horiz-adv-x="1612" 
d="M1092 844v-201h-573v201h573zM1490 733q0 -169 -42.5 -307.5t-127.5 -238t-213 -153.5t-300 -54q-175 0 -303.5 54t-213 154t-126.5 239t-42 308q0 226 74.5 394.5t227 262t385.5 93.5q228 0 379 -93t226.5 -261.5t75.5 -397.5zM374 733q0 -169 46 -292.5t141.5 -190
t245.5 -66.5q151 0 246 66.5t140 190t45 292.5q0 257 -102.5 402.5t-326.5 145.5q-150 0 -246.5 -66t-142.5 -188.5t-46 -293.5z" />
    <glyph glyph-name="Iota" unicode="&#x399;" horiz-adv-x="625" 
d="M192 0v1462h240v-1462h-240z" />
    <glyph glyph-name="Kappa" unicode="&#x39a;" horiz-adv-x="1307" 
d="M1307 0h-276l-455 664l-144 -117v-547h-240v1462h240v-699q44 54 89 108l90 108l412 483h271l-546 -640z" />
    <glyph glyph-name="Lambda" unicode="&#x39b;" horiz-adv-x="1283" 
d="M769 1462l513 -1462h-246l-305 914q-15 45 -32.5 104.5t-33 118.5t-25.5 102q-9 -44 -24 -103t-32 -118t-32 -104l-305 -914h-247l512 1462h257z" />
    <glyph glyph-name="Mu" unicode="&#x39c;" horiz-adv-x="1887" 
d="M823 0l-421 1221h-9q3 -41 7 -112t7 -152t3 -155v-802h-218v1462h337l405 -1167h6l419 1167h336v-1462h-229v814q0 67 2.5 145t6 148t5.5 112h-8l-437 -1219h-212z" />
    <glyph glyph-name="Nu" unicode="&#x39d;" horiz-adv-x="1604" 
d="M1412 0h-295l-716 1167h-9q4 -59 7.5 -125t6 -136t4.5 -142v-764h-218v1462h293l715 -1159h7q-2 51 -5 117t-5.5 136.5t-3.5 136.5v769h219v-1462z" />
    <glyph glyph-name="Xi" unicode="&#x39e;" horiz-adv-x="1149" 
d="M75 0v203h999v-203h-999zM198 662v201h753v-201h-753zM116 1260v202h917v-202h-917z" />
    <glyph glyph-name="Omicron" unicode="&#x39f;" horiz-adv-x="1612" 
d="M1490 733q0 -169 -42.5 -307.5t-127.5 -238t-213 -153.5t-300 -54q-175 0 -303.5 54t-213 154t-126.5 239t-42 308q0 226 74.5 394.5t227 262t385.5 93.5q228 0 379 -93t226.5 -261.5t75.5 -397.5zM374 733q0 -169 46 -292.5t141.5 -190t245.5 -66.5q151 0 246 66.5
t140 190t45 292.5q0 257 -102.5 402.5t-326.5 145.5q-150 0 -246.5 -66t-142.5 -188.5t-46 -293.5z" />
    <glyph glyph-name="Pi" unicode="&#x3a0;" horiz-adv-x="1509" 
d="M192 0v1462h1123v-1462h-238v1258h-645v-1258h-240z" />
    <glyph glyph-name="Rho" unicode="&#x3a1;" horiz-adv-x="1259" 
d="M617 1462q283 0 413 -116t130 -325q0 -95 -29.5 -180.5t-96.5 -151t-176.5 -103.5t-269.5 -38h-156v-548h-240v1462h425zM601 1263h-169v-515h131q113 0 192 26.5t120 84.5t41 153q0 127 -76.5 189t-238.5 62z" />
    <glyph glyph-name="Sigma" unicode="&#x3a3;" horiz-adv-x="1187" 
d="M75 0v192l481 573l-469 508v189h983v-203h-489q-34 0 -76 0.5t-82.5 2t-71.5 4.5l462 -499l-484 -571q73 3 146 5t147 2h508v-203h-1055z" />
    <glyph glyph-name="Tau" unicode="&#x3a4;" horiz-adv-x="1157" 
d="M699 0h-241v1258h-428v204h1096v-204h-427v-1258z" />
    <glyph glyph-name="Upsilon" unicode="&#x3a5;" horiz-adv-x="1212" 
d="M606 795l347 667h259l-486 -894v-568h-239v559l-487 903h261z" />
    <glyph glyph-name="Phi" unicode="&#x3a6;" horiz-adv-x="1697" 
d="M960 1483v-180q235 -5 374.5 -79.5t201 -195.5t61.5 -269q0 -98 -32 -195t-105 -177t-196 -129t-304 -53v-225h-224v225q-185 4 -308 54t-195.5 130.5t-103 177t-30.5 191.5q0 109 33.5 206t108.5 172t197 119t298 48v180h224zM736 1110q-149 -5 -238 -49.5t-128 -121.5
t-39 -179q0 -109 43 -189t133 -125.5t229 -50.5v715zM960 1110v-715q142 5 231.5 51t132 126.5t42.5 188.5q0 103 -39 179.5t-128 120.5t-239 49z" />
    <glyph glyph-name="Chi" unicode="&#x3a7;" horiz-adv-x="1275" 
d="M1271 0h-273l-368 599l-370 -599h-257l486 758l-453 704h265l340 -554l338 554h257l-455 -711z" />
    <glyph glyph-name="Psi" unicode="&#x3a8;" horiz-adv-x="1714" 
d="M1602 1462v-480q0 -123 -32 -222.5t-105 -170.5t-195.5 -109.5t-303.5 -38.5v-441h-222v441q-183 0 -305.5 39t-194.5 110.5t-103 170.5t-31 218v483h230v-479q0 -126 43 -201t132.5 -108.5t228.5 -34.5v823h222v-823q135 1 224.5 34t134.5 107.5t45 199.5v482h232z" />
    <glyph glyph-name="uni03A9" unicode="&#x3a9;" horiz-adv-x="1605" 
d="M802 1281q-141 0 -237.5 -55t-145.5 -160t-49 -254q0 -130 30 -239.5t98 -200.5t182 -164v-208h-613v205h373q-93 64 -165.5 158t-113.5 216t-41 269q0 194 82 337t235 221.5t365 78.5q215 0 368 -78t234.5 -221t81.5 -338q0 -147 -41 -269.5t-113.5 -216t-167.5 -157.5
h374v-205h-614v208q116 71 184.5 163t98.5 203t30 239q0 149 -49.5 253.5t-146.5 159.5t-239 55z" />
    <glyph glyph-name="Iotadieresis" unicode="&#x3aa;" horiz-adv-x="625" 
d="M192 0v1462h240v-1462h-240zM2 1756q0 60 33 87.5t81 27.5t82.5 -27.5t34.5 -87.5q0 -58 -34.5 -87t-82.5 -29t-81 29t-33 87zM395 1756q0 60 33.5 87.5t81.5 27.5t82.5 -27.5t34.5 -87.5q0 -58 -34.5 -87t-82.5 -29t-81.5 29t-33.5 87z" />
    <glyph glyph-name="Upsilondieresis" unicode="&#x3ab;" horiz-adv-x="1212" 
d="M606 795l347 667h259l-486 -894v-568h-239v559l-487 903h261zM293 1756q0 60 33 87.5t81 27.5t82.5 -27.5t34.5 -87.5q0 -58 -34.5 -87t-82.5 -29t-81 29t-33 87zM686 1756q0 60 33.5 87.5t81.5 27.5t82.5 -27.5t34.5 -87.5q0 -58 -34.5 -87t-82.5 -29t-81.5 29t-33.5 87
z" />
    <glyph glyph-name="alphatonos" unicode="&#x3ac;" horiz-adv-x="1288" 
d="M607 171q100 0 159.5 39.5t86.5 121.5t28 208v14q0 186 -60 283.5t-216 97.5q-132 0 -196 -99t-64 -288q0 -187 63.5 -282t198.5 -95zM547 -20q-200 0 -322 144t-122 426q0 281 124 429t340 148q121 0 199.5 -43t129.5 -128h14q8 36 24.5 78t39.5 73h192
q-15 -45 -29 -116t-23 -154.5t-9 -166.5v-372q0 -69 25 -95.5t61 -26.5q15 0 33.5 3.5t27.5 7.5v-181q-10 -6 -31 -12t-46 -10t-47 -4q-90 0 -145 37t-82 135h-17q-31 -47 -75.5 -86t-108.5 -62.5t-153 -23.5zM549 1241v29q13 37 26 84t25 97.5t21.5 99t15.5 89.5h231v-23
q-17 -50 -45.5 -114.5t-63 -132.5t-70.5 -129h-140z" />
    <glyph glyph-name="epsilontonos" unicode="&#x3ad;" horiz-adv-x="1058" 
d="M779 664v-173h-157q-105 0 -172.5 -19t-100 -56t-32.5 -93q0 -52 32.5 -87t95.5 -52.5t154 -17.5q119 0 216.5 26.5t166.5 58.5v-196q-70 -33 -169 -54t-229 -21q-260 0 -380 90t-120 233q0 123 73 184t184 86v10q-100 27 -154 91t-54 162q0 101 59.5 165t162 95.5
t229.5 31.5q116 0 216.5 -21.5t184.5 -58.5l-78 -177q-71 30 -146 52.5t-173 22.5q-120 0 -179.5 -33.5t-59.5 -100.5q0 -80 76 -114t220 -34h134zM499 1241v29q13 37 26 84t25 97.5t21.5 99t15.5 89.5h231v-23q-17 -50 -45.5 -114.5t-63 -132.5t-70.5 -129h-140z" />
    <glyph glyph-name="etatonos" unicode="&#x3ae;" horiz-adv-x="1301" 
d="M745 1128q125 0 213.5 -42.5t135.5 -132t47 -231.5v-1214h-235v1170q0 129 -52.5 193.5t-164.5 64.5q-106 0 -169 -44.5t-90 -130.5t-27 -211v-550h-235v1107h183l33 -150h13q36 58 89.5 95.5t120 56.5t138.5 19zM585 1241v29q13 37 26 84t25 97.5t21.5 99t15.5 89.5h231
v-23q-17 -50 -45.5 -114.5t-63 -132.5t-70.5 -129h-140z" />
    <glyph glyph-name="iotatonos" unicode="&#x3af;" horiz-adv-x="765" 
d="M399 1107v-771q0 -84 38 -125t110 -41q47 0 94 8.5t84 20.5v-178q-37 -18 -97.5 -29.5t-126.5 -11.5q-97 0 -173 31t-120 108t-44 215v773h235zM201 1241v29q13 37 26 84t25 97.5t21.5 99t15.5 89.5h231v-23q-17 -50 -45.5 -114.5t-63 -132.5t-70.5 -129h-140z" />
    <glyph glyph-name="upsilondieresistonos" unicode="&#x3b0;" horiz-adv-x="1285" 
d="M641 -19q-189 0 -295 68.5t-149.5 187t-43.5 266.5v604h236v-606q0 -164 63.5 -247t200.5 -83q143 0 213.5 103.5t70.5 335.5q0 137 -18 253t-49 244h237q22 -85 36.5 -163.5t22.5 -161t8 -180.5q0 -319 -135 -470t-398 -151zM858 1716v-20q-20 -44 -50.5 -96
t-66.5 -106.5t-73 -105.5h-109v25q13 41 28 94t28 108.5t20 100.5h223zM400 1515q47 0 78.5 -27.5t31.5 -87.5q0 -58 -31.5 -87t-78.5 -29q-48 0 -78.5 29t-30.5 87q0 60 30.5 87.5t78.5 27.5zM897 1515q46 0 78 -27.5t32 -87.5q0 -58 -32 -87t-78 -29q-50 0 -80 29t-30 87
q0 60 30 87.5t80 27.5z" />
    <glyph glyph-name="alpha" unicode="&#x3b1;" horiz-adv-x="1288" 
d="M607 171q100 0 159.5 39.5t86.5 121.5t28 208v14q0 186 -60 283.5t-216 97.5q-132 0 -196 -99t-64 -288q0 -187 63.5 -282t198.5 -95zM547 -20q-200 0 -322 144t-122 426q0 281 124 429t340 148q121 0 199.5 -43t129.5 -128h14q8 36 24.5 78t39.5 73h192
q-15 -45 -29 -116t-23 -154.5t-9 -166.5v-372q0 -69 25 -95.5t61 -26.5q15 0 33.5 3.5t27.5 7.5v-181q-10 -6 -31 -12t-46 -10t-47 -4q-90 0 -145 37t-82 135h-17q-31 -47 -75.5 -86t-108.5 -62.5t-153 -23.5z" />
    <glyph glyph-name="beta" unicode="&#x3b2;" horiz-adv-x="1318" 
d="M678 1567q142 0 251 -43.5t171.5 -130.5t62.5 -217q0 -147 -77.5 -234.5t-222.5 -111.5v-7q178 -21 275 -117t97 -281q0 -141 -60 -240.5t-170.5 -151.5t-262.5 -52q-108 0 -190.5 18t-147.5 51v-542h-236v1589q0 163 66.5 267t182 153.5t261.5 49.5zM672 1379
q-73 0 -134.5 -27t-97.5 -92.5t-36 -181.5v-828q61 -36 136 -57.5t156 -21.5q153 0 226 71.5t73 201.5q0 96 -40 156t-110 87.5t-162 27.5h-91v191h72q134 0 197.5 68t63.5 180t-68.5 168.5t-184.5 56.5z" />
    <glyph glyph-name="gamma" unicode="&#x3b3;" horiz-adv-x="1105" 
d="M1099 1107l-408 -1081q-32 -83 -54.5 -176.5t-34 -182.5t-11.5 -159h-252q0 59 13.5 145.5t36.5 181.5t52 178l-435 1094h245l203 -546q20 -52 41.5 -120.5t38.5 -131t24 -98.5h7q5 32 20 91t35 126t39 122l195 557h245z" />
    <glyph glyph-name="delta" unicode="&#x3b4;" horiz-adv-x="1249" 
d="M677 1563q138 0 240.5 -32t197.5 -78l-96 -173q-85 44 -170.5 72.5t-181.5 28.5q-89 0 -128.5 -37t-39.5 -88q0 -44 28.5 -81.5t90 -77.5t157.5 -91q122 -65 205 -139.5t125 -165.5t42 -205q0 -172 -65.5 -286.5t-183.5 -172t-278 -57.5q-151 0 -267.5 53.5t-183.5 156
t-67 248.5q0 136 53.5 232.5t147 159.5t211.5 98q-70 42 -126 91.5t-88.5 110.5t-32.5 137q0 144 114.5 220t295.5 76zM670 828q-72 -18 -147.5 -61.5t-126 -121.5t-50.5 -201q0 -79 32.5 -141t94 -96.5t148.5 -34.5q91 0 154 36t96.5 106.5t33.5 170.5q0 124 -63.5 205
t-171.5 138z" />
    <glyph glyph-name="epsilon" unicode="&#x3b5;" horiz-adv-x="1058" 
d="M779 664v-173h-157q-105 0 -172.5 -19t-100 -56t-32.5 -93q0 -52 32.5 -87t95.5 -52.5t154 -17.5q119 0 216.5 26.5t166.5 58.5v-196q-70 -33 -169 -54t-229 -21q-260 0 -380 90t-120 233q0 123 73 184t184 86v10q-100 27 -154 91t-54 162q0 101 59.5 165t162 95.5
t229.5 31.5q116 0 216.5 -21.5t184.5 -58.5l-78 -177q-71 30 -146 52.5t-173 22.5q-120 0 -179.5 -33.5t-59.5 -100.5q0 -80 76 -114t220 -34h134z" />
    <glyph glyph-name="zeta" unicode="&#x3b6;" horiz-adv-x="1003" 
d="M969 -63q0 -89 -41 -173.5t-91 -152.5h-236q36 48 67.5 99.5t50.5 99t19 82.5q0 25 -15.5 45.5t-61.5 38.5t-139 34q-134 24 -227.5 79t-142.5 147.5t-49 226.5q0 141 47 264t129 234.5t189.5 216.5t228.5 210q-18 -4 -62 -6.5t-97 -4t-99 -1.5h-276v180h804v-153
q-206 -173 -330 -311t-186.5 -248.5t-83.5 -201t-21 -166.5q0 -108 37.5 -164t108.5 -82t170 -47q113 -22 180.5 -56.5t97 -81.5t29.5 -108z" />
    <glyph glyph-name="eta" unicode="&#x3b7;" horiz-adv-x="1301" 
d="M745 1128q125 0 213.5 -42.5t135.5 -132t47 -231.5v-1214h-235v1170q0 129 -52.5 193.5t-164.5 64.5q-106 0 -169 -44.5t-90 -130.5t-27 -211v-550h-235v1107h183l33 -150h13q36 58 89.5 95.5t120 56.5t138.5 19z" />
    <glyph glyph-name="theta" unicode="&#x3b8;" horiz-adv-x="1238" 
d="M1136 775q0 -250 -52.5 -428t-166.5 -272.5t-300 -94.5q-262 0 -388 210t-126 585q0 250 51.5 427.5t165 271.5t297.5 94q262 0 390.5 -207t128.5 -586zM617 159q140 0 206 134t72 403h-553q5 -266 69 -401.5t206 -135.5zM618 1389q-138 0 -201.5 -128t-72.5 -382h550
q-9 254 -74 382t-202 128z" />
    <glyph glyph-name="iota" unicode="&#x3b9;" horiz-adv-x="765" 
d="M399 1107v-771q0 -84 38 -125t110 -41q47 0 94 8.5t84 20.5v-178q-37 -18 -97.5 -29.5t-126.5 -11.5q-97 0 -173 31t-120 108t-44 215v773h235z" />
    <glyph glyph-name="kappa" unicode="&#x3ba;" horiz-adv-x="1173" 
d="M1135 1107l-428 -498l458 -609h-273l-341 466l-143 -107v-359h-240v1107h240v-289q0 -72 -2.5 -142t-6.5 -124h4q28 35 56.5 70t56.5 69l356 416h263z" />
    <glyph glyph-name="lambda" unicode="&#x3bb;" horiz-adv-x="1178" 
d="M-2 0l473 1069l-46 126q-38 99 -82.5 138t-128.5 39q-32 0 -59 -4t-48 -9v193q19 5 44 8.5t53 6t52 2.5q115 0 187.5 -38.5t120.5 -115t89 -190.5l321 -893q23 -61 43.5 -95t43 -47t48.5 -13q15 0 33 3t32 7v-180q-15 -7 -40 -13.5t-52 -10t-52 -3.5q-65 0 -110.5 22
t-76 66t-53.5 107l-129 364q-12 35 -24.5 72t-24.5 73t-21.5 69t-15.5 58h-6q-17 -61 -41.5 -131t-50.5 -133l-235 -547h-244z" />
    <glyph glyph-name="uni03BC" unicode="&#x3bc;" horiz-adv-x="1309" 
d="M1142 1107v-1107h-183l-35 151h-12q-30 -55 -71.5 -93t-96 -58t-124.5 -20q-73 0 -128 25.5t-91 69.5h-7q3 -22 5 -61.5t3 -86t1 -91.5v-328h-235v1599h235v-680q0 -127 54 -191.5t166 -64.5q107 0 169 44.5t88 130.5t26 210v551h236z" />
    <glyph glyph-name="nu" unicode="&#x3bd;" horiz-adv-x="1164" 
d="M3 1107h243l226 -625q13 -38 30.5 -90t33.5 -102.5t24 -83.5h8q103 115 164 248t87.5 294t26.5 359h236q0 -219 -38.5 -407t-134 -359t-265.5 -341h-226z" />
    <glyph glyph-name="xi" unicode="&#x3be;" horiz-adv-x="996" 
d="M102 431q0 97 38.5 171.5t103.5 127t146 80.5v10q-69 18 -118.5 53t-76 88t-26.5 127q0 86 36 143.5t103 95t158 61.5q-37 -3 -85 -6t-94.5 -4.5t-79.5 -1.5h-44v180h753v-169h-65q-86 0 -166.5 -18t-144.5 -53.5t-101.5 -89.5t-37.5 -127q0 -97 68 -148.5t240 -51.5h166
v-169h-169q-121 0 -201 -34.5t-119.5 -97.5t-39.5 -151q0 -96 39 -146t110.5 -73.5t169.5 -44.5q113 -23 179.5 -58t95.5 -81.5t29 -106.5q0 -88 -41 -173t-89 -153h-232q36 49 66.5 100.5t49 99t18.5 82.5q0 25 -15.5 45t-62 38t-140.5 35q-134 24 -228 76.5t-143.5 137.5
t-49.5 206z" />
    <glyph glyph-name="omicron" unicode="&#x3bf;" horiz-adv-x="1250" 
d="M1148 556q0 -138 -36 -245t-105 -180.5t-166 -112t-219 -38.5q-114 0 -209 38.5t-164.5 112t-107.5 180.5t-38 245q0 183 63.5 310.5t181.5 194.5t281 67q153 0 270 -67t183 -195t66 -310zM345 556q0 -121 29.5 -207t91.5 -131.5t160 -45.5t160 45.5t91 131.5t29 207
t-29 205.5t-91 129t-161 44.5q-146 0 -213 -98t-67 -281z" />
    <glyph glyph-name="pi" unicode="&#x3c0;" horiz-adv-x="1423" 
d="M1226 168q32 0 59.5 8t49.5 19v-175q-26 -15 -73.5 -27.5t-102.5 -12.5q-125 0 -194.5 71t-69.5 221v649h-407v-921h-235v921h-228v103l164 83h1167v-186h-227v-637q0 -61 27 -88.5t70 -27.5z" />
    <glyph glyph-name="rho" unicode="&#x3c1;" horiz-adv-x="1249" 
d="M1146 554q0 -185 -57 -313t-163 -194.5t-252 -66.5q-83 0 -159 23t-134 63h-13q5 -42 8.5 -116.5t3.5 -151.5v-290h-237v1055q0 185 60.5 310.5t174 190t272.5 64.5q146 0 258 -66.5t175 -194.5t63 -313zM644 935q-134 0 -199 -89.5t-65 -277.5v-302q52 -47 120 -70.5
t141 -23.5q139 0 201 93.5t62 288.5q0 197 -61 289t-199 92z" />
    <glyph glyph-name="uni03C2" unicode="&#x3c2;" horiz-adv-x="1004" 
d="M645 1128q87 0 171.5 -19t153.5 -50l-70 -185q-65 24 -131 41t-131 17q-155 0 -224 -106.5t-69 -312.5q0 -107 32.5 -167.5t103 -92.5t183.5 -57q114 -23 180.5 -59t95.5 -84t29 -109q0 -90 -41 -177.5t-89 -155.5h-232q36 50 66.5 103t49.5 102t19 85q0 26 -15.5 46.5
t-62 39.5t-139.5 36q-95 19 -172.5 55t-133.5 94.5t-86 141t-30 194.5q0 225 68 361t190 197.5t284 61.5z" />
    <glyph glyph-name="sigma" unicode="&#x3c3;" horiz-adv-x="1295" 
d="M1155 490q0 -145 -60.5 -260.5t-178.5 -182.5t-291 -67q-157 0 -274.5 63.5t-182.5 187t-65 303.5q0 204 74 330.5t211.5 185t327.5 58.5h534v-181h-274q77 -78 128 -185t51 -252zM346 534q0 -107 29.5 -188.5t92 -127.5t162.5 -46q149 0 216 94.5t67 245.5
q0 86 -17 159.5t-50.5 137t-81.5 118.5h-59q-184 0 -271.5 -88.5t-87.5 -304.5z" />
    <glyph glyph-name="tau" unicode="&#x3c4;" horiz-adv-x="1036" 
d="M968 1107v-185h-412v-580q0 -92 45 -133t121 -41q47 0 94.5 8.5t87.5 20.5v-176q-38 -17 -99 -29.5t-130 -12.5q-100 0 -180.5 31t-128 108t-47.5 215v589h-288v102l163 83h774z" />
    <glyph glyph-name="upsilon" unicode="&#x3c5;" horiz-adv-x="1285" 
d="M641 -19q-189 0 -295 68.5t-149.5 187t-43.5 266.5v604h236v-606q0 -164 63.5 -247t200.5 -83q143 0 213.5 103.5t70.5 335.5q0 137 -18 253t-49 244h237q22 -85 36.5 -163.5t22.5 -161t8 -180.5q0 -319 -135 -470t-398 -151z" />
    <glyph glyph-name="phi" unicode="&#x3c6;" horiz-adv-x="1545" 
d="M323 1124l174 -116q-78 -103 -122.5 -211t-44.5 -248q0 -128 42 -207.5t114 -120t160 -52.5v569q0 191 98.5 289.5t259.5 98.5q136 0 234 -66.5t151 -188.5t53 -287q0 -193 -79.5 -322t-210 -197t-284.5 -80v-477h-222v477q-157 13 -279.5 74.5t-193 183t-70.5 311.5
q0 171 61.5 311.5t158.5 258.5zM1007 946q-62 0 -100.5 -46.5t-38.5 -159.5v-571q102 9 179 59.5t121 140t44 213.5q0 109 -23.5 191t-69 127.5t-112.5 45.5z" />
    <glyph glyph-name="chi" unicode="&#x3c7;" horiz-adv-x="1164" 
d="M208 1119q81 0 131 -29t84 -86.5t65 -146.5l112 -300l299 550h242l-440 -765l195 -484q23 -55 46 -88.5t53.5 -49t72.5 -15.5q24 0 47.5 3t48.5 8v-184q-33 -10 -69 -17t-89 -7q-89 0 -148.5 32.5t-100 95.5t-72.5 154l-129 364l-337 -646h-251l482 862l-156 403
q-28 79 -64 114.5t-85 35.5q-19 0 -43 -3.5t-48 -12.5v188q32 9 69.5 16.5t84.5 7.5z" />
    <glyph glyph-name="psi" unicode="&#x3c8;" horiz-adv-x="1630" 
d="M933 1554v-1384q116 11 195.5 54.5t120.5 130t41 223.5q0 138 -19.5 263.5t-53.5 265.5h224q36 -139 53.5 -265t17.5 -262q0 -208 -76.5 -336.5t-207.5 -190t-295 -70.5v-475h-223v475q-164 6 -289.5 64t-196.5 181.5t-71 325.5v553h228v-559q0 -135 38.5 -215.5
t112 -118.5t178.5 -46v1386h223z" />
    <glyph glyph-name="omega" unicode="&#x3c9;" horiz-adv-x="1676" 
d="M1447 1107q40 -96 66 -185.5t38.5 -183t12.5 -201.5q0 -163 -46.5 -289t-139.5 -197t-232 -71q-122 0 -195 52.5t-108 146.5h-10q-35 -94 -108 -146.5t-195 -52.5q-136 0 -229.5 70.5t-141 195.5t-47.5 291q0 108 13 201.5t38.5 183t66.5 185.5h231q-64 -139 -94.5 -274
t-30.5 -292q0 -176 54 -274.5t158 -98.5q66 0 105.5 32t57 90.5t17.5 138.5v304h220v-304q0 -84 19 -142t58.5 -88.5t101.5 -30.5q71 0 118.5 44.5t71.5 127.5t24 199q0 157 -30.5 293t-95.5 275h232z" />
    <glyph glyph-name="iotadieresis" unicode="&#x3ca;" horiz-adv-x="765" 
d="M399 1107v-771q0 -84 38 -125t110 -41q47 0 94 8.5t84 20.5v-178q-37 -18 -97.5 -29.5t-126.5 -11.5q-97 0 -173 31t-120 108t-44 215v773h235zM-18 1400q0 60 33 87.5t81 27.5t82.5 -27.5t34.5 -87.5q0 -58 -34.5 -87t-82.5 -29t-81 29t-33 87zM375 1400q0 60 33.5 87.5
t81.5 27.5t82.5 -27.5t34.5 -87.5q0 -58 -34.5 -87t-82.5 -29t-81.5 29t-33.5 87z" />
    <glyph glyph-name="upsilondieresis" unicode="&#x3cb;" horiz-adv-x="1285" 
d="M641 -19q-189 0 -295 68.5t-149.5 187t-43.5 266.5v604h236v-606q0 -164 63.5 -247t200.5 -83q143 0 213.5 103.5t70.5 335.5q0 137 -18 253t-49 244h237q22 -85 36.5 -163.5t22.5 -161t8 -180.5q0 -319 -135 -470t-398 -151zM324 1400q0 60 33 87.5t81 27.5t82.5 -27.5
t34.5 -87.5q0 -58 -34.5 -87t-82.5 -29t-81 29t-33 87zM717 1400q0 60 33.5 87.5t81.5 27.5t82.5 -27.5t34.5 -87.5q0 -58 -34.5 -87t-82.5 -29t-81.5 29t-33.5 87z" />
    <glyph glyph-name="omicrontonos" unicode="&#x3cc;" horiz-adv-x="1250" 
d="M1148 556q0 -138 -36 -245t-105 -180.5t-166 -112t-219 -38.5q-114 0 -209 38.5t-164.5 112t-107.5 180.5t-38 245q0 183 63.5 310.5t181.5 194.5t281 67q153 0 270 -67t183 -195t66 -310zM345 556q0 -121 29.5 -207t91.5 -131.5t160 -45.5t160 45.5t91 131.5t29 207
t-29 205.5t-91 129t-161 44.5q-146 0 -213 -98t-67 -281zM532 1241v29q13 37 26 84t25 97.5t21.5 99t15.5 89.5h231v-23q-17 -50 -45.5 -114.5t-63 -132.5t-70.5 -129h-140z" />
    <glyph glyph-name="upsilontonos" unicode="&#x3cd;" horiz-adv-x="1285" 
d="M641 -19q-189 0 -295 68.5t-149.5 187t-43.5 266.5v604h236v-606q0 -164 63.5 -247t200.5 -83q143 0 213.5 103.5t70.5 335.5q0 137 -18 253t-49 244h237q22 -85 36.5 -163.5t22.5 -161t8 -180.5q0 -319 -135 -470t-398 -151zM542 1241v29q13 37 26 84t25 97.5t21.5 99
t15.5 89.5h231v-23q-17 -50 -45.5 -114.5t-63 -132.5t-70.5 -129h-140z" />
    <glyph glyph-name="omegatonos" unicode="&#x3ce;" horiz-adv-x="1676" 
d="M1447 1107q40 -96 66 -185.5t38.5 -183t12.5 -201.5q0 -163 -46.5 -289t-139.5 -197t-232 -71q-122 0 -195 52.5t-108 146.5h-10q-35 -94 -108 -146.5t-195 -52.5q-136 0 -229.5 70.5t-141 195.5t-47.5 291q0 108 13 201.5t38.5 183t66.5 185.5h231q-64 -139 -94.5 -274
t-30.5 -292q0 -176 54 -274.5t158 -98.5q66 0 105.5 32t57 90.5t17.5 138.5v304h220v-304q0 -84 19 -142t58.5 -88.5t101.5 -30.5q71 0 118.5 44.5t71.5 127.5t24 199q0 157 -30.5 293t-95.5 275h232zM747 1241v29q13 37 26 84t25 97.5t21.5 99t15.5 89.5h231v-23
q-17 -50 -45.5 -114.5t-63 -132.5t-70.5 -129h-140z" />
    <glyph glyph-name="uni03D1" unicode="&#x3d1;" horiz-adv-x="1380" 
d="M652 1568q123 0 215.5 -41t157.5 -118t105.5 -184.5t59.5 -240.5h144v-184h-130q2 -18 2.5 -47t0.5 -51q0 -150 -32.5 -281t-102 -230t-181.5 -155t-271 -56q-119 0 -197 28.5t-123.5 77.5t-64.5 110.5t-19 128.5q0 46 5.5 91.5t10.5 87t5 72.5q0 45 -16.5 61.5
t-46.5 16.5q-24 0 -50 -9t-41 -18l-56 150q47 25 108.5 44t132.5 19q93 0 139.5 -49.5t46.5 -133.5q0 -44 -5.5 -93t-11 -101t-5.5 -106q0 -78 47 -134.5t155 -56.5q110 0 184.5 59.5t112 181.5t37.5 307q0 16 -0.5 41.5t-2.5 42.5q-254 3 -407.5 64.5t-222.5 162t-69 218.5
q0 90 41 164t126.5 117.5t218.5 43.5zM652 1385q-75 0 -115.5 -36.5t-40.5 -105.5t44.5 -127.5t145.5 -94t269 -37.5q-11 96 -38.5 170.5t-67 126t-89.5 78t-108 26.5z" />
    <glyph glyph-name="uni03D2" unicode="&#x3d2;" horiz-adv-x="1226" 
d="M603 785q34 75 68 152t68 150t65 135t57 107q30 50 62.5 82.5t75 48t100.5 15.5q35 0 65 -5t55 -16v-181q-11 3 -28.5 6t-34.5 3q-30 0 -57 -16t-64 -76q-23 -37 -61.5 -105.5t-82.5 -157t-88 -185.5t-79 -192v-550h-241v559l-483 903h261z" />
    <glyph glyph-name="uni03D6" unicode="&#x3d6;" horiz-adv-x="1885" 
d="M1828 1107v-184h-254q27 -70 47 -144t31 -149t11 -150q0 -160 -47 -271.5t-139.5 -170t-231.5 -58.5q-122 0 -195.5 52.5t-109.5 146.5h-8q-36 -94 -109.5 -146.5t-194.5 -52.5q-205 0 -311.5 128t-106.5 372q0 75 12.5 150.5t34 149.5t49.5 143h-269v101l160 83h1631z
M1352 923h-825q-26 -66 -47.5 -138.5t-34 -147t-12.5 -147.5q0 -172 54 -247t159 -75q96 0 138 70.5t42 190.5v168h221v-168q0 -84 19.5 -142t59.5 -88.5t102 -30.5q105 0 158 75.5t53 244.5q0 73 -11 147t-30 147t-46 141z" />
    <glyph glyph-name="uni0400" unicode="&#x400;" horiz-adv-x="1143" 
d="M1020 0h-828v1462h828v-202h-588v-397h551v-201h-551v-459h588v-203zM562 1925q27 -46 66 -102t81 -109t74 -91v-26h-157q-38 28 -85 68.5t-95.5 85t-89 85t-64.5 69.5v20h270z" />
    <glyph glyph-name="uni0401" unicode="&#x401;" horiz-adv-x="1143" 
d="M1020 0h-828v1462h828v-202h-588v-397h551v-201h-551v-459h588v-203zM309 1756q0 60 33 87.5t81 27.5t82.5 -27.5t34.5 -87.5q0 -58 -34.5 -87t-82.5 -29t-81 29t-33 87zM702 1756q0 60 33.5 87.5t81.5 27.5t82.5 -27.5t34.5 -87.5q0 -58 -34.5 -87t-82.5 -29t-81.5 29
t-33.5 87z" />
    <glyph glyph-name="uni0402" unicode="&#x402;" horiz-adv-x="1576" 
d="M1056 -19q-50 0 -96.5 8t-81.5 23v202q38 -15 77.5 -23.5t81.5 -8.5t80 14.5t62.5 57t24.5 124.5v131q0 105 -51 152.5t-171 47.5h-360v-709h-239v1258h-353v204h1039v-204h-447v-345h373q216 0 332 -99t116 -283v-137q0 -205 -103 -309t-284 -104z" />
    <glyph glyph-name="uni0403" unicode="&#x403;" horiz-adv-x="1107" 
d="M1065 1462v-204h-633v-1258h-240v1462h873zM986 1925v-20q-24 -29 -65 -69.5t-89 -85t-95 -85t-85 -68.5h-157v26q33 38 73.5 91t80 109t66.5 102h271z" />
    <glyph glyph-name="uni0404" unicode="&#x404;" horiz-adv-x="1348" 
d="M838 1279q-98 0 -178.5 -27.5t-140.5 -82.5t-96 -135t-45 -184h678v-201h-682q6 -111 37.5 -197.5t89.5 -146t142 -90.5t195 -31q100 0 194.5 18t195.5 49v-204q-92 -35 -191 -51t-220 -16q-239 0 -393 94t-228 263t-74 394q0 167 47.5 305.5t139.5 238.5t227.5 154.5
t310.5 54.5q129 0 234.5 -25.5t201.5 -70.5l-90 -199q-83 38 -167 64t-188 26z" />
    <glyph glyph-name="uni0405" unicode="&#x405;" horiz-adv-x="1126" 
d="M1036 398q0 -130 -63.5 -224t-182 -144t-282.5 -50q-80 0 -153 9t-137.5 26.5t-117.5 42.5v226q89 -39 199 -70.5t224 -31.5q93 0 154.5 24.5t91.5 70t30 106.5q0 65 -35 110t-105.5 82.5t-176.5 80.5q-72 29 -137.5 66t-116.5 87t-80.5 118.5t-29.5 161.5
q0 124 59.5 212t168 135t253.5 47q115 0 216.5 -24t199.5 -68l-76 -193q-90 37 -174.5 59t-172.5 22q-76 0 -129 -23t-80.5 -64.5t-27.5 -98.5q0 -64 31.5 -107.5t98 -79.5t171.5 -80q121 -50 205.5 -105t129.5 -131.5t45 -191.5z" />
    <glyph glyph-name="uni0406" unicode="&#x406;" horiz-adv-x="625" 
d="M192 0v1462h240v-1462h-240z" />
    <glyph glyph-name="uni0407" unicode="&#x407;" horiz-adv-x="625" 
d="M192 0v1462h240v-1462h-240zM2 1756q0 60 33 87.5t81 27.5t82.5 -27.5t34.5 -87.5q0 -58 -34.5 -87t-82.5 -29t-81 29t-33 87zM395 1756q0 60 33.5 87.5t81.5 27.5t82.5 -27.5t34.5 -87.5q0 -58 -34.5 -87t-82.5 -29t-81.5 29t-33.5 87z" />
    <glyph glyph-name="uni0408" unicode="&#x408;" horiz-adv-x="614" 
d="M10 -407q-55 0 -96.5 6.5t-71.5 17.5v201q32 -8 69 -14t79 -6q55 0 100 21t71.5 76t26.5 155v1412h240v-1404q0 -163 -52 -265.5t-146 -151t-220 -48.5z" />
    <glyph glyph-name="uni0409" unicode="&#x409;" horiz-adv-x="1981" 
d="M148 -21q-38 0 -74 6.5t-65 16.5v198q24 -9 51.5 -15.5t58.5 -6.5q51 0 82.5 38t53 109.5t40.5 171.5q11 60 27 158t35 225t39.5 275t40.5 307h768v-591h127q201 0 325 -55t180.5 -152t56.5 -222q0 -206 -134 -324t-422 -118h-372v1258h-329q-11 -82 -22.5 -174
t-24.5 -186t-26.5 -184.5t-26.5 -171t-27 -144.5q-26 -134 -67.5 -227.5t-111.5 -142.5t-183 -49zM1205 200h120q160 0 242 57.5t82 184.5q0 89 -40 138.5t-118 69.5t-191 20h-95v-470z" />
    <glyph glyph-name="uni040A" unicode="&#x40a;" horiz-adv-x="2007" 
d="M192 0v1462h240v-597h560v597h240v-591h126q202 0 325.5 -55t180 -152t56.5 -222q0 -206 -133.5 -324t-420.5 -118h-374v661h-560v-661h-240zM1232 200h121q158 0 240.5 57.5t82.5 184.5q0 89 -40 138.5t-118 69.5t-191 20h-95v-470z" />
    <glyph glyph-name="uni040B" unicode="&#x40b;" horiz-adv-x="1576" 
d="M1095 1462v-205h-473v-345h396q203 0 314 -98.5t111 -283.5v-530h-239v509q0 106 -46.5 152.5t-156.5 46.5h-379v-708h-240v1257h-352v205h1065z" />
    <glyph glyph-name="uni040C" unicode="&#x40c;" horiz-adv-x="1313" 
d="M1312 0h-279l-601 742v-742h-240v1462h240v-708l590 708h262l-590 -706zM1054 1925v-20q-24 -29 -65 -69.5t-89 -85t-95 -85t-85 -68.5h-157v26q33 38 73.5 91t80 109t66.5 102h271z" />
    <glyph glyph-name="uni040D" unicode="&#x40d;" horiz-adv-x="1621" 
d="M193 1462h219v-775q0 -50 -1 -110t-3.5 -117t-4.5 -101.5t-4 -64.5h7l744 1168h279v-1462h-217v769q0 54 2 117t5 122t6 104t4 64h-9l-746 -1176h-281v1462zM775 1925q27 -46 66 -102t81 -109t74 -91v-26h-157q-38 28 -85 68.5t-95.5 85t-89 85t-64.5 69.5v20h270z" />
    <glyph glyph-name="uni040E" unicode="&#x40e;" horiz-adv-x="1312" 
d="M1312 1462l-465 -1047q-61 -140 -127.5 -237t-163.5 -147.5t-251 -50.5q-56 0 -112 8t-103 22v218q45 -19 97.5 -28.5t104.5 -9.5q73 0 121.5 23t82 68.5t60.5 111.5l-535 1069h257l345 -725q8 -17 20 -43.5t23.5 -54t19.5 -50.5h9q7 20 17.5 47.5t22 56.5t20.5 51
l306 718h251zM1103 1929q-10 -103 -55.5 -177.5t-137.5 -114.5t-242 -40q-155 0 -245 38.5t-130 113t-48 180.5h214q10 -111 58 -149.5t155 -38.5q92 0 147.5 41t66.5 147h217z" />
    <glyph glyph-name="uni040F" unicode="&#x40f;" horiz-adv-x="1509" 
d="M1315 0h-445v-404h-237v404h-441v1462h240v-1257h645v1257h238v-1462z" />
    <glyph glyph-name="uni0410" unicode="&#x410;" horiz-adv-x="1354" 
d="M1098 0l-143 406h-559l-143 -406h-253l544 1468h266l543 -1468h-255zM893 612l-139 400q-8 26 -23 73.5t-30 97t-25 83.5q-10 -41 -24.5 -91.5t-28 -94.5t-20.5 -68l-140 -400h430z" />
    <glyph glyph-name="uni0411" unicode="&#x411;" horiz-adv-x="1280" 
d="M192 0v1462h892v-203h-652v-388h175q208 0 334 -54.5t182 -151.5t56 -223q0 -209 -132.5 -325.5t-429.5 -116.5h-425zM432 200h170q169 0 251 57.5t82 184.5q0 89 -40 138.5t-119.5 69.5t-200.5 20h-143v-470z" />
    <glyph glyph-name="uni0412" unicode="&#x412;" horiz-adv-x="1350" 
d="M192 1462h435q283 0 427 -82t144 -283q0 -84 -29.5 -151.5t-85.5 -111t-138 -58.5v-10q85 -15 151.5 -53t105 -109t38.5 -184q0 -134 -63.5 -228t-181 -143t-278.5 -49h-525v1462zM432 859h230q163 0 226 53t63 155q0 104 -74.5 150t-236.5 46h-208v-404zM432 665v-464
h253q168 0 236 65t68 176q0 68 -30.5 118t-99.5 77.5t-186 27.5h-241z" />
    <glyph glyph-name="uni0413" unicode="&#x413;" horiz-adv-x="1107" 
d="M1065 1462v-204h-633v-1258h-240v1462h873z" />
    <glyph glyph-name="uni0414" unicode="&#x414;" horiz-adv-x="1483" 
d="M1252 1462v-1257h187v-609h-231v404h-966v-404h-231v609h113q66 121 125 264.5t108 303.5t83.5 333.5t51.5 355.5h760zM1013 1257h-323q-12 -115 -40.5 -251.5t-70.5 -278.5t-93.5 -276t-108.5 -246h636v1052z" />
    <glyph glyph-name="uni0415" unicode="&#x415;" horiz-adv-x="1143" 
d="M1020 0h-828v1462h828v-202h-588v-397h551v-201h-551v-459h588v-203z" />
    <glyph glyph-name="uni0416" unicode="&#x416;" horiz-adv-x="1827" 
d="M559 756l-531 706h254l518 -708v708h227v-708l518 708h255l-532 -705l556 -757h-264l-533 741v-741h-227v741l-534 -741h-264z" />
    <glyph glyph-name="uni0417" unicode="&#x417;" horiz-adv-x="1261" 
d="M1124 1120q0 -148 -98.5 -236.5t-256.5 -112.5v-7q190 -23 291 -113.5t101 -236.5q0 -128 -67 -226t-200 -153t-330 -55q-143 0 -261 19.5t-210 60.5v208q63 -30 138.5 -51.5t154 -33t147.5 -11.5q196 0 291 66t95 187q0 124 -123 181t-337 57h-174v192h163q159 0 255 28
t139 80t43 124q0 95 -75.5 148.5t-208.5 53.5q-126 0 -221 -34t-181 -89l-109 161q67 46 146.5 81t175.5 55t211 20q160 0 271.5 -46.5t170.5 -128.5t59 -188z" />
    <glyph glyph-name="uni0418" unicode="&#x418;" horiz-adv-x="1621" 
d="M193 1462h219v-775q0 -50 -1 -110t-3.5 -117t-4.5 -101.5t-4 -64.5h7l744 1168h279v-1462h-217v769q0 54 2 117t5 122t6 104t4 64h-9l-746 -1176h-281v1462z" />
    <glyph glyph-name="uni0419" unicode="&#x419;" horiz-adv-x="1621" 
d="M193 1462h219v-775q0 -50 -1 -110t-3.5 -117t-4.5 -101.5t-4 -64.5h7l744 1168h279v-1462h-217v769q0 54 2 117t5 122t6 104t4 64h-9l-746 -1176h-281v1462zM1270 1929q-10 -103 -55.5 -177.5t-137.5 -114.5t-242 -40q-155 0 -245 38.5t-130 113t-48 180.5h214
q10 -111 58 -149.5t155 -38.5q92 0 147.5 41t66.5 147h217z" />
    <glyph glyph-name="uni041A" unicode="&#x41a;" horiz-adv-x="1313" 
d="M1312 0h-279l-601 742v-742h-240v1462h240v-708l590 708h262l-590 -706z" />
    <glyph glyph-name="uni041B" unicode="&#x41b;" horiz-adv-x="1483" 
d="M1291 0h-240v1258h-416q-13 -103 -28 -219.5t-31 -233.5t-32.5 -222t-33.5 -185q-26 -134 -67.5 -227.5t-111.5 -142.5t-183 -49q-38 0 -74 6.5t-65 16.5v198q24 -9 51.5 -15.5t58.5 -6.5q52 0 83.5 38.5t52.5 110t40 169.5q11 59 27 156.5t35 225.5t39.5 276.5
t39.5 307.5h855v-1462z" />
    <glyph glyph-name="uni041C" unicode="&#x41c;" horiz-adv-x="1887" 
d="M823 0l-421 1221h-9q3 -41 7 -112t7 -152t3 -155v-802h-218v1462h337l405 -1167h6l419 1167h336v-1462h-229v814q0 67 2.5 145t6 148t5.5 112h-8l-437 -1219h-212z" />
    <glyph glyph-name="uni041D" unicode="&#x41d;" horiz-adv-x="1539" 
d="M1345 0h-239v660h-674v-660h-240v1462h240v-598h674v598h239v-1462z" />
    <glyph glyph-name="uni041E" unicode="&#x41e;" horiz-adv-x="1612" 
d="M1490 733q0 -169 -42.5 -307.5t-127.5 -238t-213 -153.5t-300 -54q-175 0 -303.5 54t-213 154t-126.5 239t-42 308q0 226 74.5 394.5t227 262t385.5 93.5q228 0 379 -93t226.5 -261.5t75.5 -397.5zM374 733q0 -169 46 -292.5t141.5 -190t245.5 -66.5q151 0 246 66.5
t140 190t45 292.5q0 257 -102.5 402.5t-326.5 145.5q-150 0 -246.5 -66t-142.5 -188.5t-46 -293.5z" />
    <glyph glyph-name="uni041F" unicode="&#x41f;" horiz-adv-x="1509" 
d="M192 0v1462h1123v-1462h-238v1258h-645v-1258h-240z" />
    <glyph glyph-name="uni0420" unicode="&#x420;" horiz-adv-x="1259" 
d="M617 1462q283 0 413 -116t130 -325q0 -95 -29.5 -180.5t-96.5 -151t-176.5 -103.5t-269.5 -38h-156v-548h-240v1462h425zM601 1263h-169v-515h131q113 0 192 26.5t120 84.5t41 153q0 127 -76.5 189t-238.5 62z" />
    <glyph glyph-name="uni0421" unicode="&#x421;" horiz-adv-x="1298" 
d="M815 1279q-105 0 -187.5 -38t-139.5 -109.5t-87 -173t-30 -228.5q0 -170 48 -292.5t146 -188t248 -65.5q93 0 181 18t182 49v-204q-89 -35 -180 -51t-210 -16q-224 0 -371.5 93t-220 262t-72.5 396q0 166 46 304t134 238.5t217.5 155t296.5 54.5q110 0 216.5 -24.5
t197.5 -69.5l-84 -198q-76 36 -159 62t-172 26z" />
    <glyph glyph-name="uni0422" unicode="&#x422;" horiz-adv-x="1157" 
d="M699 0h-241v1258h-428v204h1096v-204h-427v-1258z" />
    <glyph glyph-name="uni0423" unicode="&#x423;" horiz-adv-x="1312" 
d="M1312 1462l-465 -1047q-61 -140 -127.5 -237t-163.5 -147.5t-251 -50.5q-56 0 -112 8t-103 22v218q45 -19 97.5 -28.5t104.5 -9.5q73 0 121.5 23t82 68.5t60.5 111.5l-535 1069h257l345 -725q8 -17 20 -43.5t23.5 -54t19.5 -50.5h9q7 20 17.5 47.5t22 56.5t20.5 51
l306 718h251z" />
    <glyph glyph-name="uni0424" unicode="&#x424;" horiz-adv-x="1697" 
d="M960 1483v-180q235 -5 374.5 -79.5t201 -195.5t61.5 -269q0 -98 -32 -195t-105 -177t-196 -129t-304 -53v-225h-224v225q-185 4 -308 54t-195.5 130.5t-103 177t-30.5 191.5q0 109 33.5 206t108.5 172t197 119t298 48v180h224zM736 1110q-149 -5 -238 -49.5t-128 -121.5
t-39 -179q0 -109 43 -189t133 -125.5t229 -50.5v715zM960 1110v-715q142 5 231.5 51t132 126.5t42.5 188.5q0 103 -39 179.5t-128 120.5t-239 49z" />
    <glyph glyph-name="uni0425" unicode="&#x425;" horiz-adv-x="1275" 
d="M1271 0h-273l-368 599l-370 -599h-257l486 758l-453 704h265l340 -554l338 554h257l-455 -711z" />
    <glyph glyph-name="uni0426" unicode="&#x426;" horiz-adv-x="1555" 
d="M1512 198v-602h-231v404h-1089v1462h240v-1257h645v1257h238v-1264h197z" />
    <glyph glyph-name="uni0427" unicode="&#x427;" horiz-adv-x="1456" 
d="M1263 0h-239v586q-123 -43 -229 -67.5t-225 -24.5q-206 0 -319 97.5t-113 278.5v592h240v-536q0 -113 56.5 -170.5t188.5 -57.5q104 0 196 20.5t205 59.5v684h239v-1462z" />
    <glyph glyph-name="uni0428" unicode="&#x428;" horiz-adv-x="2161" 
d="M1967 0h-1775v1462h240v-1257h527v1257h241v-1257h527v1257h240v-1462z" />
    <glyph glyph-name="uni0429" unicode="&#x429;" horiz-adv-x="2202" 
d="M2151 198v-602h-231v404h-1728v1462h240v-1257h520v1257h242v-1257h521v1257h239v-1264h197z" />
    <glyph glyph-name="uni042A" unicode="&#x42a;" horiz-adv-x="1447" 
d="M362 0v1258h-354v204h593v-591h181q202 0 326.5 -55.5t182.5 -152.5t58 -221q0 -206 -134.5 -324t-423.5 -118h-429zM601 200h174q162 0 245.5 57.5t83.5 184.5q0 89 -41 138.5t-120 69.5t-193 20h-149v-470z" />
    <glyph glyph-name="uni042B" unicode="&#x42b;" horiz-adv-x="1796" 
d="M192 0v1462h240v-591h167q201 0 324.5 -55.5t180.5 -152.5t57 -221q0 -206 -133.5 -324t-421.5 -118h-414zM432 200h161q159 0 241 57.5t82 184.5q0 89 -38.5 138t-115 69t-189.5 20h-141v-469zM1361 0v1462h240v-1462h-240z" />
    <glyph glyph-name="uni042C" unicode="&#x42c;" horiz-adv-x="1303" 
d="M192 0v1462h240v-591h200q202 0 328 -55.5t184.5 -152.5t58.5 -221q0 -206 -136.5 -324t-425.5 -118h-449zM432 200h194q161 0 247 57.5t86 184.5q0 89 -42 138.5t-122 69.5t-195 20h-168v-470z" />
    <glyph glyph-name="uni042D" unicode="&#x42d;" horiz-adv-x="1325" 
d="M514 1279q-100 0 -191 -25.5t-171 -60.5l-84 196q96 45 210 69.5t240 24.5q168 0 296 -52t214 -149.5t130 -234t44 -305.5q0 -231 -77 -402t-233.5 -265.5t-396.5 -94.5q-126 0 -220.5 16t-189.5 51v204q101 -30 195 -48.5t193 -18.5q114 0 201 30t147 89.5t92.5 146
t35.5 200.5h-678v202h676q-6 101 -38.5 180t-89 134.5t-133.5 84t-172 28.5z" />
    <glyph glyph-name="uni042E" unicode="&#x42e;" horiz-adv-x="2169" 
d="M2046 733q0 -169 -40 -307.5t-120.5 -238.5t-202 -153.5t-284.5 -53.5q-206 0 -346 84t-215 237t-87 359h-319v-660h-240v1462h240v-598h324q18 189 94 328.5t213 216t335 76.5q217 0 360.5 -93t215.5 -262t72 -397zM999 735q0 -170 42.5 -293.5t130.5 -190.5t224 -67
q141 0 229.5 66.5t130 190t41.5 292.5q0 170 -41 293t-129 189t-227 66q-138 0 -227 -66t-131.5 -188.5t-42.5 -291.5z" />
    <glyph glyph-name="uni042F" unicode="&#x42f;" horiz-adv-x="1329" 
d="M651 586l-361 -586h-272l413 643q-70 25 -134.5 72t-105 128.5t-40.5 204.5q0 202 140.5 308t406.5 106h439v-1462h-240v586h-246zM897 1263h-189q-101 0 -171 -23.5t-106 -74t-36 -132.5q0 -118 78 -183t238 -65h186v478z" />
    <glyph glyph-name="uni0430" unicode="&#x430;" horiz-adv-x="1188" 
d="M602 1128q210 0 317.5 -93t107.5 -290v-745h-167l-45 157h-8q-47 -60 -97 -99t-115.5 -58.5t-159.5 -19.5q-99 0 -177 36.5t-123 111.5t-45 190q0 171 127.5 257t385.5 95l192 7v58q0 115 -53.5 164t-150.5 49q-83 0 -161 -24t-152 -59l-76 166q81 43 184.5 70t215.5 27z
M794 529l-143 -5q-176 -6 -247 -60t-71 -148q0 -82 49 -119.5t129 -37.5q122 0 202.5 69.5t80.5 204.5v96z" />
    <glyph glyph-name="uni0431" unicode="&#x431;" horiz-adv-x="1246" 
d="M105 664q0 241 53 410t167 271t296 139q118 27 240 46t244 37l32 -207q-57 -7 -122 -16.5t-130.5 -19.5t-125 -20.5t-106.5 -20.5q-94 -20 -158.5 -65.5t-100.5 -132.5t-43 -232h13q27 41 75 82t116.5 68.5t156.5 27.5q138 0 234.5 -58t147 -168t50.5 -265
q0 -185 -65.5 -309.5t-182.5 -187.5t-273 -63q-120 0 -215.5 45t-163 132.5t-103.5 215t-36 291.5zM639 173q80 0 138.5 34t91 110t32.5 201q0 154 -55.5 242.5t-182.5 88.5q-78 0 -143 -35t-110 -81.5t-64 -81.5q0 -91 13.5 -176t46 -153.5t89.5 -108.5t144 -40z" />
    <glyph glyph-name="uni0432" unicode="&#x432;" horiz-adv-x="1232" 
d="M1099 823q0 -96 -58.5 -156.5t-160.5 -79.5v-8q109 -14 182 -77t73 -175q0 -95 -47.5 -168.5t-150 -116t-267.5 -42.5h-502v1107h500q124 0 221.5 -27t153.5 -89t56 -168zM890 335q0 82 -62.5 118t-182.5 36h-241v-316h246q112 0 176 37.5t64 124.5zM860 802
q0 65 -49 96.5t-154 31.5h-253v-268h221q116 0 175.5 33.5t59.5 106.5z" />
    <glyph glyph-name="uni0433" unicode="&#x433;" horiz-adv-x="931" 
d="M886 1107v-185h-482v-922h-236v1107h718z" />
    <glyph glyph-name="uni0434" unicode="&#x434;" horiz-adv-x="1269" 
d="M1072 1107v-925h160v-572h-217v390h-764v-390h-217v572h90q84 122 140.5 272t88 316.5t39.5 336.5h680zM839 927h-245q-12 -135 -41 -268.5t-74.5 -255t-108.5 -221.5h469v745z" />
    <glyph glyph-name="uni0435" unicode="&#x435;" horiz-adv-x="1180" 
d="M609 1128q148 0 254 -61t163 -173t57 -268v-126h-739q4 -161 86.5 -248t231.5 -87q106 0 190.5 20.5t174.5 60.5v-191q-83 -39 -169 -57t-206 -18q-163 0 -286.5 63.5t-193 189.5t-69.5 313q0 186 63 316t177 198t266 68zM609 951q-111 0 -179.5 -72t-80.5 -211h504
q-1 83 -27.5 147t-80 100t-136.5 36z" />
    <glyph glyph-name="uni0436" unicode="&#x436;" horiz-adv-x="1647" 
d="M1604 1107l-434 -534l473 -573h-258l-453 562v-562h-219v562l-453 -562h-258l473 573l-434 534h249l423 -537v537h219v-537l424 537h248z" />
    <glyph glyph-name="uni0437" unicode="&#x437;" horiz-adv-x="1064" 
d="M512 1128q122 0 219.5 -32.5t154.5 -97.5t57 -162q0 -100 -57.5 -159.5t-155.5 -85.5v-9q69 -17 125 -48.5t89.5 -84t33.5 -134.5q0 -93 -54.5 -169t-166.5 -121t-285 -45q-83 0 -157.5 8.5t-135.5 24t-106 37.5v202q69 -33 167 -59.5t210 -26.5q83 0 150.5 15.5
t107 51.5t39.5 96q0 55 -35 91t-105 53.5t-177 17.5h-132v173h116q147 0 230.5 32.5t83.5 113.5q0 68 -59 102t-181 34q-84 0 -166 -18.5t-164 -52.5l-74 173q91 37 195 58.5t233 21.5z" />
    <glyph glyph-name="uni0438" unicode="&#x438;" horiz-adv-x="1389" 
d="M394 1107v-565q0 -27 -1.5 -68.5t-4.5 -86t-6 -81.5t-5 -55l557 856h286v-1107h-225v559q0 44 2.5 102t6 112t4.5 82l-555 -855h-285v1107h226z" />
    <glyph glyph-name="uni0439" unicode="&#x439;" horiz-adv-x="1389" 
d="M394 1107v-565q0 -27 -1.5 -68.5t-4.5 -86t-6 -81.5t-5 -55l557 856h286v-1107h-225v559q0 44 2.5 102t6 112t4.5 82l-555 -855h-285v1107h226zM1137 1573q-10 -103 -55.5 -177.5t-137.5 -114.5t-242 -40q-155 0 -245 38.5t-130 113t-48 180.5h214q10 -111 58 -149.5
t155 -38.5q92 0 147.5 41t66.5 147h217z" />
    <glyph glyph-name="uni043A" unicode="&#x43a;" horiz-adv-x="1163" 
d="M854 1107h259l-458 -532l497 -575h-271l-477 562v-562h-236v1107h236v-537z" />
    <glyph glyph-name="uni043B" unicode="&#x43b;" horiz-adv-x="1247" 
d="M1079 0h-237v923h-307q-20 -252 -50 -431t-75 -291.5t-111 -164.5t-159 -52q-41 0 -74 5.5t-59 16.5v185q17 -6 37 -10t41 -4q37 0 68.5 30.5t58.5 96.5t49 174.5t40 264t32 364.5h746v-1107z" />
    <glyph glyph-name="uni043C" unicode="&#x43c;" horiz-adv-x="1616" 
d="M1451 1107v-1107h-218v632q0 62 3 124t8 118h-6l-337 -874h-185l-334 875h-7q5 -57 7.5 -118t2.5 -132v-625h-218v1107h328l316 -827l321 827h319z" />
    <glyph glyph-name="uni043D" unicode="&#x43d;" horiz-adv-x="1326" 
d="M404 1107v-445h518v445h236v-1107h-236v478h-518v-478h-236v1107h236z" />
    <glyph glyph-name="uni043E" unicode="&#x43e;" horiz-adv-x="1250" 
d="M1148 556q0 -138 -36 -245t-105 -180.5t-166 -112t-219 -38.5q-114 0 -209 38.5t-164.5 112t-107.5 180.5t-38 245q0 183 63.5 310.5t181.5 194.5t281 67q153 0 270 -67t183 -195t66 -310zM345 556q0 -121 29.5 -207t91.5 -131.5t160 -45.5t160 45.5t91 131.5t29 207
t-29 205.5t-91 129t-161 44.5q-146 0 -213 -98t-67 -281z" />
    <glyph glyph-name="uni043F" unicode="&#x43f;" horiz-adv-x="1303" 
d="M1135 1107v-1107h-237v921h-494v-921h-236v1107h967z" />
    <glyph glyph-name="uni0440" unicode="&#x440;" horiz-adv-x="1275" 
d="M736 1128q197 0 316.5 -144t119.5 -428q0 -188 -55.5 -316.5t-155 -194t-231.5 -65.5q-84 0 -146 22t-106 57.5t-74 77.5h-14q5 -40 9.5 -88.5t4.5 -88.5v-451h-236v1598h192l33 -153h11q31 47 75.5 87t108 63.5t148.5 23.5zM673 936q-97 0 -155.5 -38.5t-85 -115.5
t-28.5 -193v-33q0 -123 25.5 -208.5t85 -130t161.5 -44.5q86 0 142.5 47t84.5 134t28 205q0 179 -63.5 278t-194.5 99z" />
    <glyph glyph-name="uni0441" unicode="&#x441;" horiz-adv-x="1017" 
d="M614 -20q-157 0 -272 61t-177 187t-62 320q0 202 68 330t188.5 189t276.5 61q99 0 179.5 -19.5t136.5 -47.5l-70 -188q-61 25 -125 42t-123 17q-97 0 -161.5 -43t-96 -128t-31.5 -211q0 -122 32 -205.5t95 -126t155 -42.5q91 0 163 22t136 57v-204q-63 -36 -135 -53.5
t-177 -17.5z" />
    <glyph glyph-name="uni0442" unicode="&#x442;" horiz-adv-x="1049" 
d="M1004 922h-364v-922h-234v922h-362v185h960v-185z" />
    <glyph glyph-name="uni0443" unicode="&#x443;" horiz-adv-x="1096" 
d="M1 1107h256l227 -632q15 -43 27.5 -84.5t22 -81.5t15.5 -80h6q10 52 28.5 116.5t41.5 129.5l218 632h253l-475 -1259q-41 -108 -100.5 -184.5t-140.5 -116t-185 -39.5q-50 0 -87 5.5t-63 11.5v188q21 -5 53 -9t66 -4q63 0 109 25t78 70.5t53 103.5l39 104z" />
    <glyph glyph-name="uni0444" unicode="&#x444;" horiz-adv-x="1566" 
d="M895 1556v-438q178 -15 305 -87.5t195 -193.5t68 -283q0 -160 -65.5 -282t-192 -195t-310.5 -89v-480h-223v480q-178 15 -305 88t-196 195t-69 283q0 163 65 285t192 194t316 85v438h220zM675 935q-108 -12 -181.5 -61.5t-110.5 -130.5t-37 -189q0 -109 36.5 -190.5
t110 -130.5t182.5 -61v763zM895 932v-760q108 12 180.5 61.5t109 131t36.5 189.5q0 162 -83.5 261t-242.5 117z" />
    <glyph glyph-name="uni0445" unicode="&#x445;" horiz-adv-x="1128" 
d="M413 566l-370 541h268l253 -389l254 389h267l-372 -541l391 -566h-269l-271 415l-272 -415h-267z" />
    <glyph glyph-name="uni0446" unicode="&#x446;" horiz-adv-x="1346" 
d="M1311 -390h-218v390h-925v1107h236v-922h513v922h236v-926h158v-571z" />
    <glyph glyph-name="uni0447" unicode="&#x447;" horiz-adv-x="1293" 
d="M374 1107v-401q0 -88 46 -131t132 -43q96 0 176.5 26t162.5 70v479h235v-1107h-235v468q-83 -49 -173 -82t-211 -33q-172 0 -270 89t-98 254v411h235z" />
    <glyph glyph-name="uni0448" unicode="&#x448;" horiz-adv-x="1904" 
d="M1735 1107v-1107h-1567v1107h235v-922h430v922h236v-922h431v922h235z" />
    <glyph glyph-name="uni0449" unicode="&#x449;" horiz-adv-x="1928" 
d="M1735 1107v-926h160v-570h-221v389h-1506v1107h235v-922h430v922h236v-922h431v922h235z" />
    <glyph glyph-name="uni044A" unicode="&#x44a;" horiz-adv-x="1431" 
d="M606 1107v-442h266q160 0 264 -35.5t154.5 -106.5t50.5 -178q0 -105 -47.5 -182.5t-150 -120t-267.5 -42.5h-506v922h-351v185h587zM865 490h-259v-317h262q109 0 174 38.5t65 127.5q0 83 -60 117t-182 34z" />
    <glyph glyph-name="uni044B" unicode="&#x44b;" horiz-adv-x="1657" 
d="M168 0v1107h236v-442h223q156 0 257 -35.5t150 -106.5t49 -178q0 -105 -47 -182.5t-147 -120t-262 -42.5h-459zM404 173h207q106 0 171.5 38.5t65.5 127.5q0 83 -60.5 117.5t-176.5 34.5h-207v-318zM1254 0v1107h236v-1107h-236z" />
    <glyph glyph-name="uni044C" unicode="&#x44c;" horiz-adv-x="1233" 
d="M404 665h275q156 0 258.5 -35.5t153.5 -106.5t51 -178q0 -105 -48 -182.5t-149.5 -120t-264.5 -42.5h-512v1107h236v-442zM906 339q0 83 -62 117.5t-177 34.5h-263v-318h265q105 0 171 38.5t66 127.5z" />
    <glyph glyph-name="uni044D" unicode="&#x44d;" horiz-adv-x="1030" 
d="M386 -20q-99 0 -175 15.5t-141 48.5v191q68 -29 144.5 -49.5t164.5 -20.5q91 0 157 33.5t104 103.5t45 178h-489v170h488q-10 148 -79 220.5t-201 72.5q-66 0 -134 -17.5t-124 -40.5l-66 172q61 28 148 49.5t181 21.5q151 0 268 -54.5t184 -178.5t67 -334
q0 -196 -66 -325t-187.5 -192.5t-288.5 -63.5z" />
    <glyph glyph-name="uni044E" unicode="&#x44e;" horiz-adv-x="1747" 
d="M1644 556q0 -183 -60.5 -312t-172.5 -196.5t-268 -67.5q-138 0 -244.5 56t-170.5 167t-79 275h-246v-478h-235v1107h235v-445h249q18 149 82 253t169.5 158.5t244.5 54.5q148 0 259.5 -67.5t174 -195t62.5 -309.5zM888 556q0 -124 26.5 -210t83.5 -130t148 -44t147.5 44
t83 129.5t26.5 210.5q0 124 -26.5 208t-83.5 127.5t-148 43.5q-90 0 -147 -43.5t-83.5 -127.5t-26.5 -208z" />
    <glyph glyph-name="uni044F" unicode="&#x44f;" horiz-adv-x="1174" 
d="M279 0h-262l309 452q-63 20 -117.5 59.5t-88.5 104t-34 157.5q0 162 116 248t303 86h502v-1107h-235v428h-223zM316 771q0 -84 63 -127.5t172 -43.5h221v330h-255q-105 0 -153 -45.5t-48 -113.5z" />
    <glyph glyph-name="uni0450" unicode="&#x450;" horiz-adv-x="1180" 
d="M609 1128q148 0 254 -61t163 -173t57 -268v-126h-739q4 -161 86.5 -248t231.5 -87q106 0 190.5 20.5t174.5 60.5v-191q-83 -39 -169 -57t-206 -18q-163 0 -286.5 63.5t-193 189.5t-69.5 313q0 186 63 316t177 198t266 68zM609 951q-111 0 -179.5 -72t-80.5 -211h504
q-1 83 -27.5 147t-80 100t-136.5 36zM536 1569q27 -46 66 -102t81 -109t74 -91v-26h-157q-38 28 -85 68.5t-95.5 85t-89 85t-64.5 69.5v20h270z" />
    <glyph glyph-name="uni0451" unicode="&#x451;" horiz-adv-x="1180" 
d="M609 1128q148 0 254 -61t163 -173t57 -268v-126h-739q4 -161 86.5 -248t231.5 -87q106 0 190.5 20.5t174.5 60.5v-191q-83 -39 -169 -57t-206 -18q-163 0 -286.5 63.5t-193 189.5t-69.5 313q0 186 63 316t177 198t266 68zM609 951q-111 0 -179.5 -72t-80.5 -211h504
q-1 83 -27.5 147t-80 100t-136.5 36zM282 1400q0 60 33 87.5t81 27.5t82.5 -27.5t34.5 -87.5q0 -58 -34.5 -87t-82.5 -29t-81 29t-33 87zM675 1400q0 60 33.5 87.5t81.5 27.5t82.5 -27.5t34.5 -87.5q0 -58 -34.5 -87t-82.5 -29t-81.5 29t-33.5 87z" />
    <glyph glyph-name="uni0452" unicode="&#x452;" horiz-adv-x="1301" 
d="M822 -492q-46 0 -88.5 7.5t-71.5 17.5v189q29 -10 56 -15t60 -5q54 0 91 36t37 136v768q0 123 -54.5 184t-161.5 61q-106 0 -169 -44.5t-90 -130.5t-27 -210v-502h-236v1221h-156v161h156v174h235v-174h360v-161h-360v-105q0 -61 -3.5 -118.5t-6.5 -90.5h13q35 58 86 96
t115 57t136 19q127 0 216 -42.5t136 -132t47 -230.5v-820q0 -101 -33.5 -179.5t-104 -122.5t-182.5 -44z" />
    <glyph glyph-name="uni0453" unicode="&#x453;" horiz-adv-x="931" 
d="M886 1107v-185h-482v-922h-236v1107h718zM877 1569v-20q-24 -29 -65 -69.5t-89 -85t-95 -85t-85 -68.5h-157v26q33 38 73.5 91t80 109t66.5 102h271z" />
    <glyph glyph-name="uni0454" unicode="&#x454;" horiz-adv-x="1042" 
d="M643 -20q-163 0 -284.5 60t-188.5 185.5t-67 322.5q0 211 69 338.5t192 184.5t283 57q87 0 172 -18t155 -48l-68 -177q-67 26 -135.5 42t-129.5 16q-89 0 -151 -32.5t-97 -97.5t-46 -163h488v-170h-489q8 -105 41 -175t94.5 -105t151.5 -35q94 0 169.5 20t147.5 50v-189
q-65 -33 -138.5 -49.5t-168.5 -16.5z" />
    <glyph glyph-name="uni0455" unicode="&#x455;" horiz-adv-x="997" 
d="M912 316q0 -109 -53 -184t-154.5 -113.5t-248.5 -38.5q-116 0 -199.5 16.5t-157.5 50.5v203q79 -37 177.5 -64t186.5 -27q116 0 167 36.5t51 97.5q0 36 -20.5 64.5t-76 59t-162.5 73.5q-105 42 -177 84t-109 101.5t-37 152.5q0 147 116.5 223.5t308.5 76.5
q102 0 192.5 -20.5t177.5 -59.5l-74 -177q-75 33 -150.5 54.5t-153.5 21.5q-91 0 -138.5 -28t-47.5 -80q0 -39 23 -66t79.5 -54t157.5 -67q99 -38 171.5 -79.5t111.5 -101.5t39 -155z" />
    <glyph glyph-name="uni0456" unicode="&#x456;" horiz-adv-x="571" 
d="M403 1107v-1107h-235v1107h235zM287 1531q54 0 93.5 -29t39.5 -100q0 -70 -39.5 -99.5t-93.5 -29.5q-56 0 -94.5 29.5t-38.5 99.5q0 71 38.5 100t94.5 29z" />
    <glyph glyph-name="uni0457" unicode="&#x457;" horiz-adv-x="571" 
d="M403 0h-235v1107h235v-1107zM-27 1400q0 60 33 87.5t81 27.5t82.5 -27.5t34.5 -87.5q0 -58 -34.5 -87t-82.5 -29t-81 29t-33 87zM366 1400q0 60 33.5 87.5t81.5 27.5t82.5 -27.5t34.5 -87.5q0 -58 -34.5 -87t-82.5 -29t-81.5 29t-33.5 87z" />
    <glyph glyph-name="uni0458" unicode="&#x458;" horiz-adv-x="571" 
d="M57 -492q-52 0 -99 7.5t-79 17.5v188q34 -10 66 -15t73 -5q65 0 107.5 36t42.5 137v1233h235v-1254q0 -101 -35.5 -179t-112 -122t-198.5 -44zM154 1402q0 71 38.5 100t94.5 29q54 0 93.5 -29t39.5 -100q0 -70 -39.5 -99.5t-93.5 -29.5q-56 0 -94.5 29.5t-38.5 99.5z" />
    <glyph glyph-name="uni0459" unicode="&#x459;" horiz-adv-x="1769" 
d="M1024 1107v-442h204q154 0 253.5 -35.5t148 -106.5t48.5 -178q0 -105 -46.5 -182.5t-147 -120t-263.5 -42.5h-433v922h-254q-20 -252 -49.5 -430.5t-75 -291t-111 -164.5t-157.5 -52q-42 0 -75 5.5t-59 16.5v184q16 -6 36 -10t41 -4q37 0 68.5 30.5t58.5 97t49.5 175
t40.5 264t32 364.5h691zM1206 490h-182v-317h186q104 0 168.5 38.5t64.5 127.5q0 83 -60 117t-177 34z" />
    <glyph glyph-name="uni045A" unicode="&#x45a;" horiz-adv-x="1820" 
d="M1074 1107v-443h202q155 0 254.5 -35t148.5 -106t49 -178q0 -105 -46 -182.5t-146.5 -120t-263.5 -42.5h-437v480h-430v-480h-237v1107h237v-444h432v444h237zM1258 490h-186v-317h188q104 0 168.5 38.5t64.5 127.5q0 83 -59.5 117t-175.5 34z" />
    <glyph glyph-name="uni045B" unicode="&#x45b;" horiz-adv-x="1301" 
d="M403 1556v-174h378v-162h-378v-104q0 -61 -3.5 -118.5t-7.5 -90.5h14q35 58 86 96t114.5 57t136.5 19q126 0 215 -42.5t136 -132t47 -231.5v-673h-235v630q0 128 -53 192.5t-164 64.5q-107 0 -169.5 -44.5t-89.5 -130.5t-27 -210v-502h-235v1220h-156v162h156v174h235z
" />
    <glyph glyph-name="uni045C" unicode="&#x45c;" horiz-adv-x="1163" 
d="M854 1107h259l-458 -532l497 -575h-271l-477 562v-562h-236v1107h236v-537zM959 1569v-20q-24 -29 -65 -69.5t-89 -85t-95 -85t-85 -68.5h-157v26q33 38 73.5 91t80 109t66.5 102h271z" />
    <glyph glyph-name="uni045D" unicode="&#x45d;" horiz-adv-x="1389" 
d="M394 1107v-565q0 -27 -1.5 -68.5t-4.5 -86t-6 -81.5t-5 -55l557 856h286v-1107h-225v559q0 44 2.5 102t6 112t4.5 82l-555 -855h-285v1107h226zM643 1569q27 -46 66 -102t81 -109t74 -91v-26h-157q-38 28 -85 68.5t-95.5 85t-89 85t-64.5 69.5v20h270z" />
    <glyph glyph-name="uni045E" unicode="&#x45e;" horiz-adv-x="1096" 
d="M1 1107h256l227 -632q15 -43 27.5 -84.5t22 -81.5t15.5 -80h6q10 52 28.5 116.5t41.5 129.5l218 632h253l-475 -1259q-41 -108 -100.5 -184.5t-140.5 -116t-185 -39.5q-50 0 -87 5.5t-63 11.5v188q21 -5 53 -9t66 -4q63 0 109 25t78 70.5t53 103.5l39 104zM985 1573
q-10 -103 -55.5 -177.5t-137.5 -114.5t-242 -40q-155 0 -245 38.5t-130 113t-48 180.5h214q10 -111 58 -149.5t155 -38.5q92 0 147.5 41t66.5 147h217z" />
    <glyph glyph-name="uni045F" unicode="&#x45f;" horiz-adv-x="1325" 
d="M555 0h-387v1107h236v-922h517v922h236v-1107h-384v-389h-218v389z" />
    <glyph glyph-name="uni0460" unicode="&#x460;" horiz-adv-x="1913" 
d="M484 -5q-86 141 -163 313.5t-137 364.5t-96 392t-40 396h250q9 -183 38 -357.5t70.5 -331.5t89 -289.5t93.5 -233.5h10q13 69 37.5 154t52.5 166l165 466q-12 72 -22.5 143t-16.5 142t-8 142h250q6 -165 33.5 -333.5t70.5 -329.5t96 -304t108 -259h10q75 158 128 343.5
t82 405.5t31 476h250q-3 -283 -47 -541.5t-129.5 -490.5t-213.5 -434h-224q-46 75 -90.5 162t-85 178.5t-74 182t-58.5 172.5l-229 -695h-231z" />
    <glyph glyph-name="uni0461" unicode="&#x461;" horiz-adv-x="1706" 
d="M1642 1108q-9 -198 -51 -381t-120.5 -361.5t-198.5 -365.5h-214q-39 69 -79.5 147t-76 158t-61.5 155l-228 -460h-211q-66 104 -129.5 231.5t-115 272t-83.5 298t-35 306.5h236q10 -189 47.5 -359t88.5 -309.5t100 -240.5h7q11 35 29.5 72t39.5 75t39 76l136 273
q-25 94 -38.5 203.5t-16.5 209.5h237q7 -168 37.5 -324.5t77 -303t98.5 -283.5h8q66 116 116.5 256.5t82 304.5t42.5 350h236z" />
    <glyph glyph-name="uni0462" unicode="&#x462;" horiz-adv-x="1380" 
d="M300 0v1074h-290v186h290v202h240v-202h399v-186h-399v-203h164q208 0 335 -55.5t184.5 -152.5t57.5 -221q0 -206 -134.5 -324t-430.5 -118h-416zM540 200h160q168 0 252.5 57.5t84.5 184.5q0 88 -41 137.5t-122 69.5t-201 20h-133v-469z" />
    <glyph glyph-name="uni0463" unicode="&#x463;" horiz-adv-x="1325" 
d="M496 1319v-212h354v-184h-354v-259h268q239 0 354.5 -79.5t115.5 -239.5q0 -105 -48 -182.5t-150.5 -120t-268.5 -42.5h-506v923h-251v184h251v212h235zM753 490h-257v-317h260q108 0 175.5 38.5t67.5 127.5q0 83 -62.5 117t-183.5 34z" />
    <glyph glyph-name="uni0464" unicode="&#x464;" horiz-adv-x="1917" 
d="M1398 -20q-222 0 -370 84.5t-225 237t-89 357.5h-282v-659h-240v1462h240v-599h289q18 139 72 253t144 196t213.5 126.5t279.5 44.5q115 0 223 -26.5t199 -70.5l-84 -199q-80 37 -166.5 64.5t-178.5 27.5q-97 0 -176 -27.5t-137 -80.5t-93.5 -130.5t-47.5 -177.5h657
v-203h-660q5 -108 36.5 -196t88 -150.5t139 -96t189.5 -33.5q98 0 189 18t190 49v-204q-91 -35 -184.5 -51t-215.5 -16z" />
    <glyph glyph-name="uni0465" unicode="&#x465;" horiz-adv-x="1583" 
d="M1190 -20q-151 0 -264 54t-180 164t-80 279h-262v-477h-236v1107h236v-445h263q18 168 88.5 270.5t180.5 149t247 46.5q95 0 180 -21t144 -48l-67 -173q-55 24 -120 40.5t-131 16.5q-88 0 -148 -31.5t-92.5 -94t-41.5 -155.5h482v-185h-483q7 -107 42 -176t98 -102.5
t152 -33.5t164 20.5t142 49.5v-191q-65 -33 -139 -48.5t-175 -15.5z" />
    <glyph glyph-name="uni0466" unicode="&#x466;" horiz-adv-x="1437" 
d="M852 1465l582 -1465h-241l-242 655h-127v-655h-214v655h-128l-243 -655h-239l581 1465h271zM717 1288q-5 -22 -18 -59.5t-29.5 -80.5t-32.5 -84t-27 -69l-59 -148h329l-62 156q-10 29 -24.5 66.5t-29.5 77.5t-27.5 76.5t-19.5 64.5z" />
    <glyph glyph-name="uni0467" unicode="&#x467;" horiz-adv-x="1228" 
d="M754 1107l467 -1107h-232l-176 453h-96v-453h-207v453h-100l-174 -453h-232l465 1107h285zM614 961h-8q-10 -32 -25 -72.5t-30 -78.5t-25 -62l-50 -123h273l-50 120q-11 27 -28 67t-32.5 81t-24.5 68z" />
    <glyph glyph-name="uni0468" unicode="&#x468;" horiz-adv-x="1969" 
d="M1393 1465l581 -1465h-244l-242 658h-124v-658h-213v658h-127l-242 -658h-242l261 658h-369v-658h-240v1462h240v-600h449l239 603h273zM1256 1288q-5 -26 -17.5 -61.5t-28 -76t-31 -79.5t-28.5 -71l-59 -150h324l-59 155q-11 31 -25.5 68.5t-29 77t-27 75.5t-19.5 62z
" />
    <glyph glyph-name="uni0469" unicode="&#x469;" horiz-adv-x="1705" 
d="M1232 1107l467 -1107h-231l-183 475h-90v-475h-207v475h-90l-185 -475h-231l200 476h-301v-476h-213v1107h213v-448h378l189 448h284zM1094 961h-8q-9 -28 -25 -70.5t-31 -83.5t-26 -65l-41 -95h256l-42 102q-12 28 -28 67t-31 79t-24 66z" />
    <glyph glyph-name="uni046A" unicode="&#x46a;" horiz-adv-x="1564" 
d="M1400 1462v-132l-403 -485q111 -16 183.5 -63t120.5 -128t85 -198l145 -456h-243l-130 419q-26 86 -56 137.5t-76 76.5t-124 31v-664h-239v664q-78 -6 -124.5 -31t-75.5 -76t-56 -138l-129 -419h-246l145 456q27 87 60 154t77 115t104.5 78t143.5 42l-395 485v132h1233z
M1097 1257h-630l314 -384z" />
    <glyph glyph-name="uni046B" unicode="&#x46b;" horiz-adv-x="1288" 
d="M1165 1107v-103l-315 -363q86 -16 140 -54.5t90 -100t66 -144.5l123 -342h-212l-111 313q-22 61 -46 97.5t-58.5 53.5t-91.5 20v-484h-209v485q-61 -3 -97 -19.5t-58.5 -53.5t-45.5 -99l-112 -313h-212l123 342q30 83 66.5 144.5t91.5 100.5t140 55l-312 362v103h1040z
M880 935h-472l235 -273z" />
    <glyph glyph-name="uni046C" unicode="&#x46c;" horiz-adv-x="2099" 
d="M1940 1462v-132l-402 -486q111 -15 183.5 -62.5t120.5 -128t85 -197.5l145 -456h-240l-131 419q-27 89 -58 139.5t-77 74.5t-123 30v-663h-239v663q-78 -6 -125 -31t-76.5 -76.5t-56.5 -136.5l-129 -419h-245l148 459q22 68 48 120t61 83h-397v-662h-240v1462h240v-596
h653l-378 464v132h1233zM1637 1257h-629l315 -385z" />
    <glyph glyph-name="uni046D" unicode="&#x46d;" horiz-adv-x="1762" 
d="M1641 1107v-103l-314 -364q86 -16 140 -54.5t90 -99.5t65 -144l124 -342h-212l-111 313q-22 61 -46 97t-59 53t-92 20v-483h-208v484q-60 -3 -96 -19.5t-59.5 -53t-45.5 -98.5l-112 -313h-212l123 342q16 42 34.5 79t41.5 59h-311v-480h-213v1107h213v-444h516l-295 341
v103h1039zM1357 935h-473l236 -270z" />
    <glyph glyph-name="uni046E" unicode="&#x46e;" horiz-adv-x="1243" 
d="M909 1761q40 0 68 -5.5t43 -10.5v-130q-12 5 -34.5 8.5t-44.5 3.5q-49 0 -101 -44t-96 -112q173 -28 267 -122.5t94 -228.5q0 -148 -96.5 -237t-248.5 -113v-7q182 -23 282.5 -112t100.5 -236q0 -96 -37 -174.5t-111.5 -135.5t-187 -88.5t-264.5 -33.5q-107 -2 -161 -15
t-72.5 -37t-18.5 -59q0 -43 34.5 -70.5t126.5 -27.5q80 0 141.5 3t116.5 6t113 3q81 0 127 -10.5t68 -28.5v-196q-21 19 -72.5 32.5t-121.5 13.5q-55 0 -115.5 -2.5t-131 -5t-155.5 -2.5q-131 0 -212.5 38t-119 103.5t-37.5 146.5q0 89 43 154.5t145.5 103.5t279.5 43
q197 5 288 64.5t91 186.5q0 125 -124 180.5t-336 55.5h-173v192h164q158 0 254 28t139 80t43 124q0 95 -75.5 148.5t-209.5 53.5q-119 0 -216.5 -34t-183.5 -89l-110 161q80 53 170 91.5t205 53.5q-33 42 -75 87t-81.5 87t-69.5 71v26h165q48 -33 106.5 -87.5t110.5 -108.5
q39 49 83.5 98t99.5 82.5t123 33.5z" />
    <glyph glyph-name="uni046F" unicode="&#x46f;" horiz-adv-x="1064" 
d="M827 1369q39 0 66.5 -5t43.5 -10v-131q-13 5 -34.5 8.5t-42.5 3.5q-45 0 -91.5 -35t-86.5 -92q116 -27 189 -95.5t73 -176.5q0 -100 -56.5 -159.5t-151.5 -85.5v-9q67 -17 121.5 -47.5t87.5 -82.5t33 -134q0 -92 -51.5 -167t-164.5 -119.5t-299 -46.5q-96 -1 -145 -14
t-66 -35.5t-17 -53.5q0 -50 37 -72t128 -22q73 0 128 2.5t103.5 5t97.5 2.5q71 0 110.5 -10.5t56.5 -29.5v-185q-22 20 -68.5 31t-91.5 11q-46 0 -105 -2.5t-128 -5t-146 -2.5q-121 0 -193 35.5t-103.5 96.5t-31.5 137q0 87 39.5 152t132 103t250.5 40q94 1 160.5 18
t101 52.5t34.5 91.5q0 55 -35 90.5t-105.5 52.5t-177.5 17h-131v174h116q148 0 231 32.5t83 112.5q0 68 -59 102t-180 34q-80 0 -164.5 -18.5t-166.5 -52.5l-74 173q60 24 121.5 42t132.5 27q-29 36 -62.5 74t-66.5 73.5t-60 61.5v26h159q47 -34 101 -84.5t111 -108.5
q39 48 84 96.5t100 81t123 32.5z" />
    <glyph glyph-name="uni0470" unicode="&#x470;" horiz-adv-x="1714" 
d="M1602 1462v-480q0 -123 -32 -222.5t-105 -170.5t-195.5 -109.5t-303.5 -38.5v-441h-222v441q-183 0 -305.5 39t-194.5 110.5t-103 170.5t-31 218v483h230v-479q0 -126 43 -201t132.5 -108.5t228.5 -34.5v823h222v-823q135 1 224.5 34t134.5 107.5t45 199.5v482h232z" />
    <glyph glyph-name="uni0471" unicode="&#x471;" horiz-adv-x="1630" 
d="M933 1554v-1384q116 11 195.5 54.5t120.5 130t41 223.5q0 138 -19.5 263.5t-53.5 265.5h224q36 -139 53.5 -265t17.5 -262q0 -208 -76.5 -336.5t-207.5 -190t-295 -70.5v-475h-223v475q-164 6 -289.5 64t-196.5 181.5t-71 325.5v553h228v-559q0 -135 38.5 -215.5
t112 -118.5t178.5 -46v1386h223z" />
    <glyph glyph-name="uni0472" unicode="&#x472;" horiz-adv-x="1613" 
d="M1490 733q0 -169 -42.5 -307.5t-127.5 -238t-213 -153.5t-300 -54q-175 0 -303.5 54t-213 154t-126.5 239t-42 308q0 226 74.5 394.5t227 262t385.5 93.5q228 0 379 -93t226.5 -261.5t75.5 -397.5zM807 184q137 0 229 55.5t141.5 159t59.5 248.5h-862
q11 -145 60.5 -248.5t142 -159t229.5 -55.5zM809 1281q-133 0 -224 -52t-142.5 -148.5t-65.5 -231.5h857q-21 204 -124 318t-301 114z" />
    <glyph glyph-name="uni0473" unicode="&#x473;" horiz-adv-x="1250" 
d="M1148 556q0 -183 -63.5 -312t-181.5 -196.5t-281 -67.5q-151 0 -268.5 67.5t-184 196.5t-66.5 312q0 274 141 423t385 149q153 0 270 -67t183 -195t66 -310zM626 172q88 0 146 34.5t90.5 102.5t39.5 166h-555q8 -98 41 -166t92 -102.5t146 -34.5zM625 935
q-129 0 -196 -72.5t-81 -212.5h554q-9 93 -42 156.5t-91 96t-144 32.5z" />
    <glyph glyph-name="uni0474" unicode="&#x474;" horiz-adv-x="1376" 
d="M1299 1276q-44 0 -73 -26t-52 -78t-49 -132l-346 -1040h-266l-513 1462h246l316 -933q20 -64 34.5 -116t26.5 -99.5t22 -98.5q6 38 15 76.5t19 78t22.5 81.5t26.5 88l171 532q44 138 86 227.5t102 133t157 43.5q51 0 90.5 -9.5t63.5 -19.5v-191q-22 8 -47 14.5t-52 6.5z
" />
    <glyph glyph-name="uni0475" unicode="&#x475;" horiz-adv-x="1141" 
d="M1046 1117q24 0 55.5 -4.5t58.5 -14.5v-184q-19 8 -38.5 11.5t-36.5 3.5q-30 0 -51.5 -16.5t-37 -47t-29.5 -71.5l-284 -794h-264l-419 1107h246l236 -680q24 -73 42.5 -136.5t24.5 -104.5h5q8 46 23 111.5t38 132.5l137 404q36 104 71 166.5t86.5 89.5t136.5 27z" />
    <glyph glyph-name="uni0476" unicode="&#x476;" horiz-adv-x="1376" 
d="M1299 1276q-44 0 -73 -26t-52 -78t-49 -132l-346 -1040h-266l-513 1462h246l316 -933q20 -64 34.5 -116t26.5 -99.5t22 -98.5q6 38 15 76.5t19 78t22.5 81.5t26.5 88l171 532q44 138 86 227.5t102 133t157 43.5q51 0 90.5 -9.5t63.5 -19.5v-191q-22 8 -47 14.5t-52 6.5z
M775 1925q22 -46 52.5 -101.5t64 -108.5t61.5 -92v-26h-129q-34 29 -77 69.5t-86 85.5t-77 85t-51 68v20h242zM399 1925q22 -46 52 -101.5t63 -108.5t62 -92v-26h-128q-35 29 -78.5 69.5t-86 85.5t-76.5 85t-51 68v20h243z" />
    <glyph glyph-name="uni0477" unicode="&#x477;" horiz-adv-x="1141" 
d="M1046 1117q24 0 55.5 -4.5t58.5 -14.5v-184q-19 8 -38.5 11.5t-36.5 3.5q-30 0 -51.5 -16.5t-37 -47t-29.5 -71.5l-284 -794h-264l-419 1107h246l236 -680q24 -73 42.5 -136.5t24.5 -104.5h5q8 46 23 111.5t38 132.5l137 404q36 104 71 166.5t86.5 89.5t136.5 27z
M682 1569q22 -46 52.5 -101.5t64 -108.5t61.5 -92v-26h-129q-34 29 -77 69.5t-86 85.5t-77 85t-51 68v20h242zM306 1569q22 -46 52 -101.5t63 -108.5t62 -92v-26h-128q-35 29 -78.5 69.5t-86 85.5t-76.5 85t-51 68v20h243z" />
    </font>
</defs>
</svg>
