<svg xmlns="http://www.w3.org/2000/svg" xmlns:xlink="http://www.w3.org/1999/xlink" width="230" height="30" version="1.1" viewBox="0 0 230 30"><title>Ideal Postcodes Logo White Icon</title><desc>Created with Sketch.</desc><g id="Artboard" fill="none" fill-rule="evenodd" stroke="none" stroke-width="1"><g id="Ideal-Postcodes-Logo-White-Icon" fill="#000"><g id="Ideal-Postcodes-Logo-White" transform="translate(15.000000, 4.000000)"><g id="ideal-postcodes-logo-white"><path id="Shape" d="M5.29531568,23.7931034 C4.60285132,23.7931034 4.19551935,23.3793103 4.19551935,22.6758621 C4.19551935,19.9862069 4.19551935,17.2551724 4.19551935,14.5655172 C4.19551935,13.862069 4.48065173,13.2 5.0101833,12.7448276 C7.65784114,10.3862069 10.3462322,8.06896552 13.0346232,5.71034483 C13.6863544,5.17241379 14.2158859,5.17241379 14.8268839,5.71034483 C17.4745418,8.02758621 20.1629328,10.3862069 22.8105906,12.7034483 C23.3808554,13.2 23.6252546,13.8206897 23.6252546,14.5655172 C23.6252546,17.2551724 23.6252546,19.9448276 23.6252546,22.5931034 C23.6252546,23.4206897 23.2586558,23.7931034 22.4439919,23.7931034 C19.592668,23.7931034 16.7413442,23.7931034 13.8900204,23.7931034 C11.0794297,23.7931034 8.18737271,23.7931034 5.29531568,23.7931034 Z M13.0346232,12.4965517 C12.0162933,11.5448276 10.5498982,11.6275862 9.65376782,12.5793103 C9.00203666,13.2827586 8.75763747,14.4827586 9.20570265,15.3517241 C9.57230143,16.0551724 10.0203666,16.6758621 10.4684318,17.2965517 C11.3238289,18.3310345 12.2199593,19.3241379 13.0753564,20.3586207 C13.3604888,20.7310345 13.6456212,21.1034483 13.9307536,21.4758621 C14.0529532,21.3103448 14.1751527,21.1034483 14.2973523,20.9793103 C15.0712831,20.0689655 15.8452138,19.1586207 16.6191446,18.2482759 C17.2708758,17.4206897 17.9226069,16.5931034 18.5336049,15.7241379 C19.0224033,15.0206897 19.0224033,14.2344828 18.7780041,13.4896552 C18.2892057,11.9172414 16.4562118,11.337931 15.1120163,12.2896552 C14.6232179,12.6206897 14.3788187,12.9517241 13.9714868,13.6551724 C13.6863544,13.2413793 13.401222,12.8275862 13.0346232,12.4965517 Z"/><path id="Path" d="M18.9002037,4.0137931 C18.7780041,3.88965517 18.6558045,3.84827586 18.6150713,3.76551724 C17.3523422,2.68965517 16.1303462,1.57241379 14.9083503,0.496551724 C14.2973523,-0.0413793103 13.6456212,-0.0413793103 13.0346232,0.496551724 C8.96130346,4.05517241 4.88798371,7.6137931 0.814663951,11.1724138 C0.32586558,11.5862069 0.0407331976,12.0413793 0.203665988,12.7034483 C0.448065173,13.6551724 1.54786151,13.9862069 2.28105906,13.3655172 C3.21792261,12.5793103 4.11405295,11.7517241 5.0509165,10.9655172 C7.98370672,8.4 10.9164969,5.83448276 13.8492872,3.22758621 C13.8492872,3.22758621 13.8900204,3.1862069 13.9307536,3.14482759 C14.01222,3.1862069 14.0936864,3.26896552 14.1344196,3.31034483 C17.9226069,6.62068966 21.7107943,9.97241379 25.4989817,13.2827586 C26.2729124,13.9448276 27.3727088,13.6551724 27.6171079,12.7034483 C27.7800407,12.1655172 27.5763747,11.7103448 27.1690428,11.337931 C25.9063136,10.2206897 24.6435845,9.10344828 23.3401222,8.02758621 C22.8105906,7.6137931 22.6069246,7.15862069 22.6069246,6.45517241 C22.688391,5.2137931 22.6069246,3.93103448 22.6069246,2.68965517 C22.6069246,2.15172414 22.3217923,1.86206897 21.8329939,1.86206897 C21.0997963,1.86206897 20.3665988,1.86206897 19.6334012,1.86206897 C19.1038697,1.86206897 18.8187373,2.15172414 18.8187373,2.68965517 C18.9002037,3.10344828 18.9002037,3.51724138 18.9002037,4.0137931 Z"/><polygon id="Path" fill-rule="nonzero" points="32.057 6.041 36.823 6.041 36.823 23.462 32.057 23.462"/><path id="Shape" fill-rule="nonzero" d="M38.2484725,16.8 L38.2484725,16.7586207 C38.2484725,12.3724138 40.9368635,9.72413793 44.0733198,9.72413793 C46.0692464,9.72413793 47.2505092,10.6344828 48.1466395,11.6689655 L48.1466395,5.29655172 L52.790224,5.29655172 L52.790224,23.5034483 L48.1466395,23.5034483 L48.1466395,21.7241379 C47.2505092,22.8413793 46.0692464,23.8344828 44.114053,23.8344828 C40.9775967,23.7517241 38.2484725,21.1034483 38.2484725,16.8 Z M48.2281059,16.7586207 L48.2281059,16.7172414 C48.2281059,14.937931 47.00611,13.6965517 45.5397149,13.6965517 C44.0325866,13.6965517 42.8105906,14.937931 42.8105906,16.7172414 L42.8105906,16.7586207 C42.8105906,18.537931 44.0325866,19.8206897 45.5397149,19.8206897 C47.00611,19.8206897 48.2281059,18.537931 48.2281059,16.7586207 Z"/><path id="Shape" fill-rule="nonzero" d="M54.2158859,16.8 L54.2158859,16.7586207 C54.2158859,12.8275862 56.9857434,9.72413793 60.8961303,9.72413793 C65.4989817,9.72413793 67.5763747,13.1172414 67.5763747,17.0896552 C67.5763747,17.3793103 67.5763747,17.7517241 67.5356415,18.0413793 L58.6558045,18.0413793 C59.0224033,19.5310345 60.0814664,20.2758621 61.5071283,20.2758621 C62.6069246,20.2758621 63.503055,19.862069 64.4399185,18.9103448 L67.00611,21.062069 C65.7433809,22.7172414 63.910387,23.7931034 61.2627291,23.7931034 C57.1894094,23.7931034 54.2158859,20.9793103 54.2158859,16.8 Z M63.2586558,15.6 C63.095723,14.1103448 62.2403259,13.1586207 60.9368635,13.1586207 C59.7148676,13.1586207 58.8594705,14.1103448 58.6150713,15.6 L63.2586558,15.6 Z"/><path id="Shape" fill-rule="nonzero" d="M69.0020367,19.6137931 L69.0020367,19.5724138 C69.0020367,16.8 71.0794297,15.3517241 74.2158859,15.3517241 C75.4378819,15.3517241 76.6598778,15.6 77.3930754,15.8896552 L77.3930754,15.6827586 C77.3930754,14.2758621 76.5376782,13.4896552 74.7454175,13.4896552 C73.3604888,13.4896552 72.2606925,13.7793103 71.0794297,14.2344828 L70.1425662,10.8827586 C71.6496945,10.262069 73.2382892,9.84827586 75.5193483,9.84827586 C77.8818737,9.84827586 79.5112016,10.4275862 80.5702648,11.5034483 C81.5885947,12.4965517 81.9959267,13.9034483 81.9959267,15.8068966 L81.9959267,23.5448276 L77.3930754,23.5448276 L77.3930754,22.137931 C76.496945,23.1724138 75.2342159,23.8344828 73.4826884,23.8344828 C70.9572301,23.7517241 69.0020367,22.3034483 69.0020367,19.6137931 Z M77.4745418,18.5793103 L77.4745418,17.9586207 C77.0264766,17.7517241 76.3340122,17.6275862 75.6415479,17.6275862 C74.2973523,17.6275862 73.5234216,18.2896552 73.5234216,19.2827586 L73.5234216,19.3241379 C73.5234216,20.2344828 74.2158859,20.8137931 75.1527495,20.8137931 C76.496945,20.8137931 77.4745418,19.9448276 77.4745418,18.5793103 Z"/><polygon id="Path" fill-rule="nonzero" points="83.381 5.297 88.024 5.297 88.024 23.503 83.381 23.503"/><path id="Shape" fill-rule="nonzero" d="M89.9389002,6.04137931 L96.1710794,6.04137931 C99.9592668,6.04137931 102.566191,8.02758621 102.566191,11.3793103 L102.566191,11.4206897 C102.566191,15.1034483 99.4704684,16.9655172 95.885947,16.9655172 L91.2423625,16.9655172 L91.2423625,23.462069 L89.9796334,23.462069 L89.9796334,6.04137931 L89.9389002,6.04137931 Z M95.9266802,15.7655172 C99.1038697,15.7655172 101.262729,14.0689655 101.262729,11.462069 L101.262729,11.4206897 C101.262729,8.64827586 99.1446029,7.2 96.0488798,7.2 L91.2016293,7.2 L91.2016293,15.7655172 L95.9266802,15.7655172 Z"/><path id="Shape" fill-rule="nonzero" d="M103.217923,17.1724138 L103.217923,17.1310345 C103.217923,13.5724138 105.947047,10.4689655 109.653768,10.4689655 C113.360489,10.4689655 116.04888,13.4896552 116.04888,17.0896552 L116.04888,17.1310345 C116.04888,20.6896552 113.319756,23.7931034 109.613035,23.7931034 C105.947047,23.7517241 103.217923,20.7310345 103.217923,17.1724138 Z M114.786151,17.1724138 L114.786151,17.1310345 C114.786151,14.0689655 112.545825,11.6275862 109.653768,11.6275862 C106.680244,11.6275862 104.562118,14.1103448 104.562118,17.0896552 L104.562118,17.1310345 C104.562118,20.1931034 106.802444,22.6344828 109.694501,22.6344828 C112.668024,22.6344828 114.786151,20.1517241 114.786151,17.1724138 Z"/><path id="Path" fill-rule="nonzero" d="M116.985743,21.8896552 L117.678208,20.937931 C119.063136,22.0137931 120.570265,22.5931034 122.158859,22.5931034 C123.869654,22.5931034 125.173116,21.6413793 125.173116,20.1931034 L125.173116,20.1517241 C125.173116,18.662069 123.584521,18.1241379 121.873727,17.6275862 C119.837067,17.0482759 117.596741,16.3862069 117.596741,14.1517241 L117.596741,14.1103448 C117.596741,12.0827586 119.307536,10.5931034 121.710794,10.5931034 C123.217923,10.5931034 124.887984,11.1310345 126.150713,12 L125.498982,13.0344828 C124.358452,12.2482759 122.973523,11.7517241 121.629328,11.7517241 C119.918534,11.7517241 118.778004,12.7034483 118.778004,13.9862069 L118.778004,14.0275862 C118.778004,15.4344828 120.488798,15.9724138 122.281059,16.5103448 C124.276986,17.0896552 126.395112,17.8344828 126.395112,20.0689655 L126.395112,20.1103448 C126.395112,22.3862069 124.480652,23.8344828 122.077393,23.8344828 C120.285132,23.7103448 118.329939,22.9655172 116.985743,21.8896552 Z"/><path id="Path" fill-rule="nonzero" d="M129.694501,20.1931034 L129.694501,11.8758621 L127.861507,11.8758621 L127.861507,10.7586207 L129.694501,10.7586207 L129.694501,6.70344828 L130.916497,6.70344828 L130.916497,10.7586207 L135.315682,10.7586207 L135.315682,11.8758621 L130.916497,11.8758621 L130.916497,20.0689655 C130.916497,21.8896552 131.97556,22.5517241 133.401222,22.5517241 C134.01222,22.5517241 134.541752,22.4275862 135.234216,22.0965517 L135.234216,23.2551724 C134.582485,23.5448276 133.971487,23.7103448 133.197556,23.7103448 C131.283096,23.7103448 129.694501,22.6344828 129.694501,20.1931034 Z"/><path id="Path" fill-rule="nonzero" d="M136.619145,17.1724138 L136.619145,17.1310345 C136.619145,13.5724138 139.429735,10.4689655 143.014257,10.4689655 C145.376782,10.4689655 146.843177,11.5448276 148.02444,12.8275862 L147.169043,13.737931 C146.10998,12.6206897 144.847251,11.6275862 143.014257,11.6275862 C140.162933,11.6275862 137.96334,14.0275862 137.96334,17.0896552 L137.96334,17.1310345 C137.96334,20.1931034 140.244399,22.6344828 143.095723,22.6344828 C144.847251,22.6344828 146.232179,21.7241379 147.291242,20.5241379 L148.105906,21.2689655 C146.843177,22.7586207 145.295316,23.7931034 143.014257,23.7931034 C139.389002,23.7517241 136.619145,20.7310345 136.619145,17.1724138 Z"/><path id="Shape" fill-rule="nonzero" d="M149.531568,17.1724138 L149.531568,17.1310345 C149.531568,13.5724138 152.260692,10.4689655 155.967413,10.4689655 C159.674134,10.4689655 162.362525,13.4896552 162.362525,17.0896552 L162.362525,17.1310345 C162.362525,20.6896552 159.633401,23.7931034 155.92668,23.7931034 C152.219959,23.7517241 149.531568,20.7310345 149.531568,17.1724138 Z M161.099796,17.1724138 L161.099796,17.1310345 C161.099796,14.0689655 158.85947,11.6275862 155.967413,11.6275862 C152.99389,11.6275862 150.875764,14.1103448 150.875764,17.0896552 L150.875764,17.1310345 C150.875764,20.1931034 153.11609,22.6344828 156.008147,22.6344828 C158.940937,22.6344828 161.099796,20.1517241 161.099796,17.1724138 Z"/><path id="Shape" fill-rule="nonzero" d="M163.828921,17.1724138 L163.828921,17.1310345 C163.828921,12.9931034 166.88391,10.4689655 169.898167,10.4689655 C172.382892,10.4689655 174.01222,11.9172414 175.03055,13.4896552 L175.03055,5.25517241 L176.252546,5.25517241 L176.252546,23.462069 L175.03055,23.462069 L175.03055,20.6068966 C173.971487,22.262069 172.342159,23.7517241 169.898167,23.7517241 C166.88391,23.7517241 163.828921,21.3103448 163.828921,17.1724138 Z M175.112016,17.1310345 L175.112016,17.0896552 C175.112016,13.8206897 172.627291,11.6275862 170.020367,11.6275862 C167.291242,11.6275862 165.132383,13.6551724 165.132383,17.0482759 L165.132383,17.0896552 C165.132383,20.4413793 167.413442,22.5517241 170.020367,22.5517241 C172.627291,22.5931034 175.112016,20.3586207 175.112016,17.1310345 Z"/><path id="Shape" fill-rule="nonzero" d="M177.637475,17.1310345 L177.637475,17.0896552 C177.637475,13.4068966 180.203666,10.4689655 183.584521,10.4689655 C187.087576,10.4689655 189.327902,13.3655172 189.327902,17.1310345 C189.327902,17.337931 189.327902,17.4206897 189.287169,17.6275862 L178.900204,17.6275862 C179.10387,20.7724138 181.344196,22.6344828 183.788187,22.6344828 C185.743381,22.6344828 187.046843,21.7655172 188.065173,20.6482759 L188.879837,21.3931034 C187.617108,22.8 186.10998,23.7931034 183.706721,23.7931034 C180.448065,23.7517241 177.637475,21.1034483 177.637475,17.1310345 Z M187.983707,16.5103448 C187.820774,13.9448276 186.354379,11.5862069 183.503055,11.5862069 C181.01833,11.5862069 179.10387,13.6965517 178.900204,16.5103448 L187.983707,16.5103448 Z"/><path id="Path" fill-rule="nonzero" d="M190.509165,21.8896552 L191.201629,20.937931 C192.586558,22.0137931 194.093686,22.5931034 195.682281,22.5931034 C197.393075,22.5931034 198.696538,21.6413793 198.696538,20.1931034 L198.696538,20.1517241 C198.696538,18.662069 197.107943,18.1241379 195.397149,17.6275862 C193.360489,17.0482759 191.120163,16.3862069 191.120163,14.1517241 L191.120163,14.1103448 C191.120163,12.0827586 192.830957,10.5931034 195.234216,10.5931034 C196.741344,10.5931034 198.411405,11.1310345 199.674134,12 L199.022403,13.0344828 C197.881874,12.2482759 196.496945,11.7517241 195.152749,11.7517241 C193.441955,11.7517241 192.301426,12.7034483 192.301426,13.9862069 L192.301426,14.0275862 C192.301426,15.4344828 194.01222,15.9724138 195.804481,16.5103448 C197.800407,17.0896552 199.918534,17.8344828 199.918534,20.0689655 L199.918534,20.1103448 C199.918534,22.3862069 198.004073,23.8344828 195.600815,23.8344828 C193.808554,23.7103448 191.812627,22.9655172 190.509165,21.8896552 Z"/></g></g></g></g></svg>
