<svg xmlns="http://www.w3.org/2000/svg" width="24" height="24" viewBox="0 0 24 24">
  <g fill="none" fill-rule="evenodd">
    <rect width="24" height="24" fill="none"/>
    <path fill="#000" fill-rule="nonzero" d="M21.8933571,20.6115959 C21.6308348,20.0085666 21.363451,19.4055373 21.0717595,18.8116448 C20.8140988,18.28171 20.4835151,18.1263842 19.8661015,18.2588679 C19.0833961,18.4278989 18.3152753,18.6517507 17.5325699,18.802508 C16.0206359,19.0994542 14.5038403,19.1268647 13.0113524,18.6837295 C11.1396655,18.1309526 10.1430531,16.856368 9.53050103,15.2117426 L14.6059323,15.2117426 C15.0045773,15.2117426 15.3254379,14.9102279 15.3254379,14.5356188 L15.3254379,13.032614 C15.3254379,12.6580049 15.0045773,12.3564902 14.6059323,12.3564902 L9.0443486,12.3564902 C9.0443486,11.9361971 9.03948708,11.5341775 9.0443486,11.132158 L14.6059323,11.132158 C15.0045773,11.132158 15.3254379,10.8306433 15.3254379,10.4560342 L15.3254379,8.95302937 C15.3254379,8.57842026 15.0045773,8.27690561 14.6059323,8.27690561 L9.74440809,8.27690561 C9.74440809,8.25863199 9.74440809,8.24035838 9.75413114,8.23122157 C10.337514,6.98404733 11.1882808,5.98356689 12.5835382,5.46276886 C14.2072873,4.85973956 15.8650671,4.87344477 17.5374314,5.19780144 C18.3298599,5.34855876 19.1077037,5.57697895 19.9001322,5.7460099 C20.4786536,5.8693568 20.8140988,5.70946267 21.0620365,5.20236984 C21.3488664,4.61761415 21.6113887,4.02372166 21.873911,3.42526076 C22.1218488,2.86334709 21.976003,2.46589596 21.4120662,2.1552445 C21.271082,2.07758164 21.1252363,2.01362398 20.9745291,1.95880314 C18.6312744,1.09994322 16.2150968,0.780154954 13.7211349,1.15476407 C11.9661247,1.41973149 10.327791,1.98621356 8.91308745,3.01867282 C7.12890806,4.3160995 5.97186529,6.02925093 5.30097495,8.04391701 L5.21832904,8.27690561 L2.71950559,8.27690561 C2.3208606,8.27690561 2,8.57842026 2,8.95302937 L2,10.4560342 C2,10.8306433 2.3208606,11.132158 2.71950559,11.132158 L4.6884229,11.132158 C4.6884229,11.5433143 4.6884229,11.9407655 4.6884229,12.3564902 L2.71950559,12.3564902 C2.3208606,12.3564902 2,12.6580049 2,13.032614 L2,14.5356188 C2,14.9102279 2.3208606,15.2117426 2.71950559,15.2117426 L5.09192941,15.2117426 C5.2718058,15.759951 5.42251305,16.3172963 5.65100469,16.8426628 C6.85180118,19.5654314 8.86447221,21.5024346 11.8932018,22.4252522 C14.3968868,23.1881756 16.9200178,23.1653336 19.4431489,22.5120519 C20.0994547,22.3430209 20.7508989,22.1237376 21.373174,21.8542017 C21.976003,21.5938027 22.1315718,21.1552359 21.8933571,20.6115959 Z"/>
  </g>
</svg>
