<svg xmlns="http://www.w3.org/2000/svg" width="24" height="24" viewBox="0 0 24 24">
  <g fill="none" fill-rule="evenodd">
    <rect width="24" height="24" fill="none"/>
    <path fill="#000" fill-rule="nonzero" d="M16,17.2608696 C17.6568542,17.2608696 19,18.5456177 19,20.1304348 C19,21.7152519 17.6568542,23 16,23 C14.3431458,23 13,21.7152519 13,20.1304348 C13,18.5456177 14.3431458,17.2608696 16,17.2608696 Z M16,18.1393079 C14.850346,18.1393079 13.9183673,19.0307658 13.9183673,20.1304348 C13.9183673,21.2301038 14.850346,22.1215617 16,22.1215617 C17.149654,22.1215617 18.0816327,21.2301038 18.0816327,20.1304348 C18.0816327,19.0307658 17.149654,18.1393079 16,18.1393079 Z M6.97618609,1.13772881 C7.37659219,1.52069724 8.2513464,2.74458761 9.2946748,3.56791529 C10.3380032,4.39124296 11.3935422,4.88974705 11.5987482,5.30434783 C11.7307758,5.57109807 12.1704231,6.8605703 12.9176901,9.1727645 C13.0508983,9.14664345 13.1907756,9.13043478 13.337464,9.13043478 C13.6762445,9.13043478 14.0637565,9.19527634 14.5,9.32495946 C14.009356,9.42299517 13.621844,9.59473181 13.337464,9.84016937 C13.1508396,10.0012378 12.8535208,10.3793365 12.5027856,10.8103965 L12.5358188,10.915501 C12.5879932,11.08131 12.6356595,11.2309633 12.6788175,11.364461 C13.0426799,10.9333988 13.4134615,10.4915381 13.7045436,10.1808018 C14.121066,9.73615525 14.5450125,9.55069648 14.9763831,9.62442545 C15.5553297,9.76471953 15.9642584,10.0944736 16.2031692,10.6136876 C16.4420799,11.1329015 16.597724,11.4975892 16.6701014,11.7077506 C17.4752704,13.5488984 17.9027834,14.546483 17.9526405,14.7005045 C18.0274261,14.9315367 18.0387744,15.1304947 17.7968069,15.1884362 C17.5548395,15.2463777 17.311301,14.9826799 17.1832767,14.8188415 C17.0552524,14.6550031 16.2269078,13.186923 15.5328252,12.2243351 C14.676928,13.0234191 13.7112991,13.6130505 12.6359386,13.9932293 C13.3896367,15.1612547 13.802308,15.8230669 13.8739527,15.9786658 C13.9814196,16.212064 13.9814196,16.4986669 13.8739527,16.681966 C13.7664857,16.8652652 11.8482134,17.9000596 11.5173728,18.4410084 C11.6361483,18.8820329 11.8821857,19.995815 11.7707976,20.1207796 C11.6594095,20.2457442 11.1418746,19.1275687 10.5,18.5085324 C11.0000223,17.7698285 11.7120018,17.0364848 12.6359386,16.3085012 C11.6014469,15.3154365 11.0258074,14.6225334 10.9090202,14.229792 C10.7338393,13.6406799 10.9115882,13.3123148 11.0411714,13.1252466 C11.1707545,12.9381783 11.0805189,13.0460064 11.5841554,12.5824261 C11.6725411,12.5010699 11.7759668,12.3948442 11.8898083,12.2713785 C11.8277049,12.0761823 11.7684488,11.8965931 11.7128152,11.7290314 C11.4786417,11.9821136 11.2391843,12.2121197 11.0067855,12.3869945 C10.7861981,12.7028525 10.7425235,12.7627799 10.6324654,12.9565217 C10.1849303,12.9565217 9.22324096,12.3869945 9.02654034,11.7855466 C8.95686914,11.4981737 9.02654034,11.2715109 9.21000195,11.0451308 C9.39346355,10.8187507 9.77820446,10.5722592 10.1849303,10.3548574 C10.5297422,10.1705497 10.8149011,10.0255407 11.0700274,9.90295099 C10.9674707,9.64758748 10.8917059,9.52056415 10.6901104,9.29440628 C10.4080856,8.97801961 7.72419867,7.51739033 7.16751229,6.90021181 C6.79638804,6.48875947 6.6157512,6.02725 6.62560176,5.51568339 C7.31019347,6.09449798 8.07240175,6.60495814 8.91222659,7.04706388 C9.00358373,7.04706388 9.02416799,6.99811319 8.9739794,6.90021181 C7.51717537,6.04477426 6.61036849,5.36808133 6.25355875,4.87013301 C5.71834413,4.12321054 5.8137886,3.59666787 6.00616307,3.32102983 C6.73130916,4.19431016 7.87252436,4.988973 8.04071868,5.07644787 C8.15284822,5.13476445 8.17290946,5.09190193 8.10090238,4.94786033 C7.65813291,4.62406184 7.19203614,4.22830399 6.70261205,3.76058679 C5.96847591,3.05901098 5.28036982,1.99567884 5.56620805,1.65073353 C5.75676687,1.42076998 5.98588377,1.42076998 6.25355875,1.65073353 C6.74066167,2.22611283 7.19553399,2.74617359 7.61817571,3.2109158 C8.2521383,3.90802912 9.90039017,5.03970259 10.1758898,5.19267023 C10.4010838,5.31770634 10.6017043,5.54646358 10.7579429,5.83798418 C10.7928446,5.90310631 10.8255316,5.97136046 10.8557831,6.04229006 C10.9662315,6.30125502 11.3920934,7.49075598 12.1333689,9.61079294 L12.0799738,9.45934765 C12.1578029,9.42673593 12.2382222,9.39274057 12.3214436,9.35950839 L11.1193972,5.77884375 C10.7360633,5.28905301 10.4375536,4.99268744 10.223868,4.88974705 C9.90333957,4.73533645 8.69593116,4.00517458 7.77725268,3.01587437 C6.85857421,2.02657416 6.64768688,1.63966796 6.53575633,1.45618495 C6.42382578,1.27270193 6.57577998,0.754760373 6.97618609,1.13772881 Z M7,14.3913043 C8.65685425,14.3913043 10,15.6760525 10,17.2608696 C10,18.8456867 8.65685425,20.1304348 7,20.1304348 C5.34314575,20.1304348 4,18.8456867 4,17.2608696 C4,15.6760525 5.34314575,14.3913043 7,14.3913043 Z M7,15.2697427 C5.85034603,15.2697427 4.91836735,16.1612006 4.91836735,17.2608696 C4.91836735,18.3605386 5.85034603,19.2519965 7,19.2519965 C8.14965397,19.2519965 9.08163265,18.3605386 9.08163265,17.2608696 C9.08163265,16.1612006 8.14965397,15.2697427 7,15.2697427 Z M16.9375,7.2173913 C17.7314093,7.2173913 18.375,7.85976536 18.375,8.65217391 C18.375,9.44458247 17.7314093,10.0869565 16.9375,10.0869565 C16.1435907,10.0869565 15.5,9.44458247 15.5,8.65217391 C15.5,7.85976536 16.1435907,7.2173913 16.9375,7.2173913 Z"/>
  </g>
</svg>
