<svg xmlns="http://www.w3.org/2000/svg" width="24" height="24" viewBox="0 0 24 24">
  <g fill="none" fill-rule="evenodd">
    <rect width="24" height="24" fill="none"/>
    <path fill="#621E5A" d="M1.60829493,9.34693878 C3.18450485,13.2414452 4.13347934,15.4638746 4.45521842,16.0142271 C4.77695749,16.5645796 5.11843116,16.8397558 5.47963945,16.8397558 C7.63343558,16.9465853 9.78999201,17 11.9493088,17 C14.1086255,17 16.2679484,16.9465853 18.4272775,16.8397558 C18.7412834,16.8397558 19.0708131,16.5645796 19.4158666,16.0142271 C19.7609201,15.4638746 20.7218386,13.2414452 22.298622,9.34693878 L1.60829493,9.34693878 Z"/>
    <path fill="#D5BFD6" d="M11.9575332,7 C7.02303605,7 3.37052498,7.51323551 1,8.53970652 L1.38755003,9.44897959 C2.30659456,9.5170068 5.8299223,9.55102041 11.9575332,9.55102041 C18.0851442,9.55102041 21.6241566,9.5170068 22.5745706,9.44897959 L22.9150665,8.53970652 C20.5445415,7.51323551 16.8920304,7 11.9575332,7 Z"/>
  </g>
</svg>
