<svg xmlns="http://www.w3.org/2000/svg" xmlns:sodipodi="http://sodipodi.sourceforge.net/DTD/sodipodi-0.dtd" viewBox="0 0 100 100" x="0px" y="0px"><path d="m 62.909097,66.272875 2.135048,1.076825 2.230535,-4.422629 0,16.650478 2.850175,0 0,-10.437551 0.524151,0 0,10.437551 2.850175,0 0,-16.650478 2.230536,4.422629 2.135047,-1.076825 -4.365583,-8.655107 -6.224914,0 z" color="#000"/><path d="m 70.390098,56.946215 c -1.260788,0 -2.40816,-1.146368 -2.409279,-2.407156 -0.0011,-1.262203 1.147076,-2.4114 2.409279,-2.4114 1.262203,0 2.4104,1.149197 2.409279,2.4114 -0.0011,1.260788 -1.148491,2.407156 -2.409279,2.407156 z" color="#000"/><path d="m 39.630879,74.647387 2.383451,1.202108 2.490048,-4.937181 0,18.587686 3.18178,0 0,-11.651913 0.585134,0 0,11.651913 3.18178,0 0,-18.587686 2.490048,4.937181 2.383451,-1.202108 -4.873499,-9.66209 -6.949155,0 z" color="#000"/><path d="m 47.982261,64.235613 c -1.407476,0 -2.688339,-1.279744 -2.689587,-2.687219 -0.0013,-1.409054 1.280532,-2.691956 2.689587,-2.691956 1.409054,0 2.690839,1.282902 2.689587,2.691956 -0.0013,1.407475 -1.282112,2.687219 -2.689587,2.687219 z" color="#000"/><path d="m 51.244963,45.01806 1.762222,0.888788 1.841036,-3.650342 0,13.742946 2.352473,0 0,-8.61493 0.432623,0 0,8.61493 2.352473,0 0,-13.742946 1.841037,3.650342 1.762222,-0.888788 -3.603259,-7.143739 -5.13791,0 z" color="#000"/><path d="m 57.41962,37.320036 c -1.040628,0 -1.987643,-0.946188 -1.988567,-1.986816 -9.31e-4,-1.041794 0.946772,-1.990317 1.988567,-1.990317 1.041795,0 1.989492,0.948523 1.988567,1.990317 -9.32e-4,1.040628 -0.94794,1.986816 -1.988567,1.986816 z" color="#000"/><path d="m 21.440225,60.745094 1.967249,0.992195 2.055233,-4.075043 0,15.341876 2.626172,0 0,-9.617239 0.482957,0 0,9.617239 2.626173,0 0,-15.341876 2.055232,4.075043 1.967249,-0.992195 -4.022481,-7.974881 -5.735683,0 z" color="#000"/><path d="m 28.333276,52.15144 c -1.1617,0 -2.218897,-1.056273 -2.219928,-2.217973 -0.001,-1.163003 1.056925,-2.221882 2.219928,-2.221882 1.163003,0 2.22096,1.058879 2.219928,2.221882 -0.001,1.1617 -1.058228,2.217973 -2.219928,2.217973 z" color="#000"/><path d="m 34.780239,40.130443 1.651821,0.833106 1.725697,-3.421652 0,12.881965 2.205093,0 0,-8.075214 0.405519,0 0,8.075214 2.205094,0 0,-12.881965 1.725697,3.421652 1.651821,-0.833106 -3.377518,-6.696192 -4.816026,0 z" color="#000"/><path d="m 40.56806,32.914692 c -0.975433,0 -1.86312,-0.886911 -1.863985,-1.862344 -8.73e-4,-0.976527 0.887457,-1.865626 1.863985,-1.865626 0.976528,0 1.864852,0.889099 1.863985,1.865626 -8.73e-4,0.975433 -0.888552,1.862344 -1.863985,1.862344 z" color="#000"/><path d="m 5.7157534,44.275721 1.6666706,0.840596 1.741211,-3.452412 0,12.997772 2.224916,0 0,-8.147809 0.409166,0 0,8.147809 2.224916,0 0,-12.997772 1.741211,3.452412 1.666671,-0.840596 -3.407882,-6.756389 -4.8593207,0 z" color="#000"/><path d="m 11.555607,36.995102 c -0.984203,0 -1.8798692,-0.894884 -1.8807425,-1.879086 -8.811e-4,-0.985306 0.8954355,-1.882398 1.8807425,-1.882398 0.985306,0 1.881617,0.897092 1.880742,1.882398 -8.82e-4,0.984202 -0.89654,1.879086 -1.880742,1.879086 z" color="#000"/><path d="m 70.160744,35.555654 1.486219,0.749584 1.552689,-3.078617 0,11.590492 1.984023,0 0,-7.265639 0.364864,0 0,7.265639 1.984023,0 0,-11.590492 1.552689,3.078617 1.486219,-0.749584 -3.038908,-6.024869 -4.333198,0 z" color="#000"/><path d="m 75.368312,29.063313 c -0.877642,0 -1.676334,-0.797994 -1.677113,-1.675635 -7.85e-4,-0.878627 0.798486,-1.67859 1.677113,-1.67859 0.878626,0 1.677893,0.799963 1.677112,1.67859 -7.85e-4,0.877641 -0.79947,1.675635 -1.677112,1.675635 z" color="#000"/><path d="m 21.068952,30.955477 1.348217,0.679982 1.408515,-2.792754 0,10.514265 1.799798,0 0,-6.590993 0.330985,0 0,6.590993 1.799798,0 0,-10.514265 1.408515,2.792754 1.348217,-0.679982 -2.756732,-5.465434 -3.930842,0 z" color="#000"/><path d="m 25.792975,25.065978 c -0.796149,0 -1.520679,-0.723896 -1.521386,-1.520045 -7.12e-4,-0.797042 0.724343,-1.522725 1.521386,-1.522725 0.797042,0 1.522093,0.725683 1.521385,1.522725 -7.13e-4,0.796149 -0.725236,1.520045 -1.521385,1.520045 z" color="#000"/><path d="m 86.522635,25.58643 1.210216,0.610379 1.264341,-2.506891 0,9.438039 1.615573,0 0,-5.916348 0.297106,0 0,5.916348 1.615573,0 0,-9.438039 1.264341,2.506891 L 95,25.58643 l -2.474556,-4.906 -3.528486,0 z" color="#000"/><path d="m 90.763113,20.299772 c -0.714656,0 -1.365024,-0.6498 -1.365658,-1.364456 -6.4e-4,-0.715458 0.6502,-1.366861 1.365658,-1.366861 0.715458,0 1.366294,0.651403 1.365659,1.366861 -6.4e-4,0.714656 -0.651002,1.364456 -1.365659,1.364456 z" color="#000"/><path d="m 46.424176,21.733567 1.127415,0.568619 1.177836,-2.335374 0,8.792303 1.505038,0 0,-5.51156 0.276779,0 0,5.51156 1.505038,0 0,-8.792303 1.177837,2.335374 1.127414,-0.568619 -2.305251,-4.570338 -3.287073,0 z" color="#000"/><path d="m 50.374527,16.808615 c -0.665761,0 -1.271631,-0.605341 -1.272222,-1.271102 -5.96e-4,-0.666507 0.605714,-1.273342 1.272222,-1.273342 0.666508,0 1.272814,0.606835 1.272222,1.273342 -5.96e-4,0.665761 -0.606461,1.271102 -1.272222,1.271102 z" color="#000"/><path d="m 5,18.332995 1.0771633,0.543274 1.1253385,-2.231282 0,8.400414 1.4379556,0 0,-5.2659 0.2644421,0 0,5.2659 1.4379555,0 0,-8.400414 1.125339,2.231282 1.077163,-0.543274 -2.202502,-4.36663 -3.1405617,0 z" color="#000"/><path d="m 8.7742764,13.627556 c -0.6360865,0 -1.2149525,-0.57836 -1.2155169,-1.214446 -5.695e-4,-0.6368 0.5787168,-1.216587 1.2155169,-1.216587 0.6368002,0 1.2160825,0.579787 1.215517,1.216587 -5.695e-4,0.636086 -0.5794304,1.214446 -1.215517,1.214446 z" color="#000"/><text x="0" y="115" fill="#000000" font-size="5px" font-weight="bold" font-family="'Helvetica Neue', Helvetica, Arial-Unicode, Arial, Sans-serif">Created by Magicon</text><text x="0" y="120" fill="#000000" font-size="5px" font-weight="bold" font-family="'Helvetica Neue', Helvetica, Arial-Unicode, Arial, Sans-serif">from the Noun Project</text></svg>