<?xml version="1.0" encoding="UTF-8" standalone="no"?>
<!DOCTYPE svg PUBLIC "-//W3C//DTD SVG 1.1//EN" "http://www.w3.org/Graphics/SVG/1.1/DTD/svg11.dtd">
<svg version="1.1" xmlns="http://www.w3.org/2000/svg" xmlns:xlink="http://www.w3.org/1999/xlink" preserveAspectRatio="xMidYMid meet" viewBox="0 0 169 169" width="169" height="169"><defs><path d="M107.54 100.04L107.24 100.07L106.95 100.12L106.65 100.17L106.36 100.24L106.06 100.31L105.77 100.4L105.49 100.5L105.2 100.6L104.92 100.72L104.64 100.85L104.37 100.99L104.1 101.14L103.84 101.3L103.58 101.47L103.32 101.65L103.07 101.84L102.83 102.04L102.59 102.25L102.36 102.47L102.14 102.7L101.93 102.94L101.73 103.18L101.54 103.43L101.36 103.69L101.19 103.95L101.03 104.21L100.88 104.48L100.74 104.75L100.61 105.03L100.5 105.31L100.39 105.6L100.29 105.88L100.21 106.17L100.13 106.47L100.06 106.76L100.01 107.06L99.96 107.35L99.93 107.65L99.91 107.95L99.89 108.25L99.89 108.55L99.9 108.85L99.92 109.15L99.95 109.45L99.99 109.75L100.04 110.04L100.1 110.34L100.17 110.63L100.25 110.92L100.35 111.21L100.45 111.49L100.56 111.77L100.69 112.05L100.82 112.32L100.97 112.59L101.12 112.86L101.29 113.12L101.47 113.37L101.66 113.62L101.45 113.74L101.25 113.86L101.04 113.98L100.84 114.1L100.63 114.21L100.42 114.32L100.21 114.44L100 114.55L99.79 114.66L99.58 114.77L99.37 114.87L99.15 114.98L98.94 115.08L98.72 115.19L98.5 115.29L98.29 115.39L98.07 115.49L97.85 115.58L97.63 115.68L97.41 115.77L97.19 115.87L96.97 115.96L96.74 116.04L96.52 116.13L96.29 116.22L96.07 116.3L95.84 116.38L95.61 116.47L95.39 116.54L95.16 116.62L94.93 116.7L94.7 116.77L94.47 116.84L94.23 116.91L94 116.98L93.77 117.05L93.53 117.11L93.3 117.18L93.06 117.24L92.83 117.3L92.78 116.98L92.73 116.67L92.66 116.37L92.58 116.07L92.5 115.77L92.4 115.48L92.29 115.2L92.17 114.92L92.04 114.64L91.91 114.37L91.76 114.11L91.61 113.85L91.44 113.6L91.27 113.35L91.09 113.11L90.9 112.88L90.7 112.65L90.5 112.43L90.28 112.22L90.06 112.02L89.84 111.82L89.6 111.64L89.36 111.46L89.11 111.29L88.86 111.12L88.6 110.97L88.34 110.83L88.06 110.69L87.79 110.57L87.51 110.45L87.22 110.35L86.93 110.25L86.63 110.17L86.33 110.09L86.03 110.03L85.72 109.98L85.41 109.94L85.09 109.91L84.77 109.89L84.45 109.88L84.13 109.89L83.81 109.91L83.49 109.94L83.18 109.98L82.87 110.03L82.57 110.1L82.26 110.17L81.97 110.26L81.68 110.36L81.39 110.46L81.11 110.58L80.83 110.71L80.56 110.84L80.3 110.99L80.04 111.14L79.78 111.31L79.54 111.48L79.29 111.66L79.06 111.85L78.83 112.04L78.61 112.25L78.4 112.46L78.2 112.68L78 112.91L77.81 113.14L77.63 113.38L77.46 113.62L77.29 113.88L77.14 114.13L76.99 114.4L76.85 114.67L76.73 114.94L76.61 115.22L76.5 115.5L76.4 115.79L76.31 116.09L76.24 116.38L76.17 116.68L76.12 116.99L76.07 117.3L75.83 117.23L75.6 117.17L75.36 117.1L75.13 117.03L74.9 116.96L74.66 116.89L74.43 116.82L74.2 116.75L73.97 116.67L73.74 116.59L73.51 116.52L73.28 116.44L73.06 116.36L72.83 116.27L72.6 116.19L72.38 116.1L72.15 116.02L71.93 115.93L71.71 115.84L71.49 115.75L71.27 115.66L71.05 115.56L70.83 115.47L70.61 115.37L70.39 115.27L70.18 115.17L69.96 115.07L69.75 114.97L69.53 114.86L69.32 114.76L69.11 114.65L68.9 114.54L68.69 114.43L68.48 114.32L68.27 114.21L68.06 114.09L67.86 113.98L67.65 113.86L67.45 113.74L67.24 113.62L67.43 113.37L67.61 113.12L67.77 112.86L67.93 112.59L68.08 112.32L68.21 112.05L68.34 111.77L68.45 111.49L68.55 111.21L68.64 110.92L68.73 110.63L68.8 110.34L68.86 110.04L68.91 109.75L68.95 109.45L68.98 109.15L69 108.85L69.01 108.55L69 108.25L68.99 107.95L68.97 107.65L68.93 107.35L68.89 107.06L68.83 106.76L68.77 106.47L68.69 106.17L68.61 105.88L68.51 105.6L68.4 105.31L68.28 105.03L68.16 104.75L68.02 104.48L67.87 104.21L67.71 103.95L67.54 103.69L67.36 103.43L67.17 103.18L66.97 102.94L66.75 102.7L66.53 102.47L66.3 102.25L66.07 102.04L65.82 101.84L65.57 101.65L65.32 101.47L65.06 101.3L64.79 101.14L64.53 100.99L64.25 100.85L63.98 100.72L63.69 100.6L63.41 100.5L63.12 100.4L62.83 100.31L62.54 100.24L62.25 100.17L61.95 100.12L61.65 100.07L61.35 100.04L61.06 100.02L60.76 100L60.46 100L60.16 100.01L59.86 100.03L59.56 100.06L59.26 100.1L58.96 100.15L58.67 100.21L58.38 100.28L58.09 100.36L57.8 100.45L57.51 100.56L57.23 100.67L56.96 100.8L56.68 100.93L56.41 101.08L56.15 101.23L55.89 101.4L55.63 101.58L55.38 101.76L55.26 101.56L55.14 101.36L55.03 101.15L54.91 100.94L54.8 100.74L54.68 100.53L54.57 100.32L54.46 100.11L54.35 99.9L54.24 99.69L54.13 99.47L54.03 99.26L53.92 99.05L53.82 98.83L53.72 98.61L53.62 98.4L53.52 98.18L53.42 97.96L53.33 97.74L53.23 97.52L53.14 97.3L53.05 97.08L52.96 96.85L52.87 96.63L52.79 96.4L52.7 96.18L52.62 95.95L52.54 95.72L52.46 95.5L52.38 95.27L52.31 95.04L52.24 94.81L52.16 94.58L52.09 94.34L52.02 94.11L51.96 93.88L51.89 93.64L51.83 93.41L51.77 93.17L51.71 92.94L52.02 92.89L52.33 92.84L52.64 92.77L52.94 92.69L53.23 92.6L53.52 92.51L53.81 92.4L54.09 92.28L54.37 92.15L54.64 92.02L54.9 91.87L55.16 91.71L55.41 91.55L55.66 91.38L55.9 91.2L56.13 91.01L56.35 90.81L56.57 90.6L56.78 90.39L56.99 90.17L57.18 89.95L57.37 89.71L57.55 89.47L57.72 89.22L57.88 88.97L58.03 88.71L58.18 88.44L58.31 88.17L58.44 87.9L58.55 87.62L58.66 87.33L58.75 87.04L58.84 86.74L58.91 86.44L58.98 86.14L59.03 85.83L59.07 85.52L59.1 85.2L59.12 84.88L59.12 84.56L59.12 84.24L59.1 83.92L59.07 83.6L59.03 83.29L58.98 82.98L58.91 82.67L58.84 82.37L58.75 82.08L58.66 81.79L58.55 81.5L58.44 81.22L58.31 80.94L58.18 80.67L58.03 80.4L57.88 80.15L57.72 79.89L57.55 79.64L57.37 79.4L57.18 79.17L56.99 78.94L56.78 78.72L56.57 78.51L56.35 78.31L56.13 78.11L55.9 77.92L55.66 77.74L55.41 77.56L55.16 77.4L54.9 77.25L54.64 77.1L54.37 76.96L54.09 76.83L53.81 76.72L53.52 76.61L53.23 76.51L52.94 76.42L52.64 76.35L52.33 76.28L52.02 76.22L51.71 76.18L51.77 75.94L51.84 75.71L51.91 75.47L51.97 75.24L52.04 75L52.11 74.77L52.19 74.54L52.26 74.31L52.33 74.08L52.41 73.85L52.49 73.62L52.57 73.39L52.65 73.16L52.73 72.94L52.82 72.71L52.9 72.49L52.99 72.26L53.08 72.04L53.17 71.82L53.26 71.6L53.35 71.38L53.44 71.16L53.54 70.94L53.64 70.72L53.73 70.5L53.83 70.28L53.94 70.07L54.04 69.85L54.14 69.64L54.25 69.43L54.36 69.22L54.46 69.01L54.57 68.8L54.69 68.59L54.8 68.38L54.91 68.17L55.03 67.96L55.15 67.76L55.26 67.55L55.38 67.35L55.63 67.54L55.89 67.72L56.15 67.88L56.41 68.04L56.68 68.18L56.96 68.32L57.23 68.44L57.51 68.56L57.8 68.66L58.09 68.75L58.38 68.84L58.67 68.91L58.96 68.97L59.26 69.02L59.56 69.06L59.86 69.09L60.16 69.11L60.46 69.11L60.76 69.11L61.06 69.1L61.35 69.08L61.65 69.04L61.95 69L62.25 68.94L62.54 68.88L62.83 68.8L63.12 68.71L63.41 68.62L63.69 68.51L63.98 68.39L64.25 68.26L64.53 68.13L64.79 67.98L65.06 67.82L65.32 67.65L65.57 67.47L65.82 67.28L66.07 67.08L66.3 66.86L66.53 66.64L66.75 66.41L66.97 66.17L67.17 65.93L67.36 65.68L67.54 65.43L67.71 65.17L67.87 64.9L68.02 64.63L68.16 64.36L68.28 64.08L68.4 63.8L68.51 63.52L68.61 63.23L68.69 62.94L68.77 62.65L68.83 62.36L68.89 62.06L68.93 61.76L68.97 61.46L68.99 61.16L69 60.86L69.01 60.56L69 60.26L68.98 59.97L68.95 59.67L68.91 59.37L68.86 59.07L68.8 58.78L68.73 58.49L68.64 58.2L68.55 57.91L68.45 57.62L68.34 57.34L68.21 57.07L68.08 56.79L67.93 56.52L67.77 56.26L67.61 56L67.43 55.74L67.24 55.49L67.45 55.37L67.65 55.25L67.86 55.14L68.06 55.02L68.27 54.9L68.48 54.79L68.69 54.68L68.9 54.57L69.11 54.46L69.32 54.35L69.53 54.24L69.75 54.14L69.96 54.03L70.18 53.93L70.39 53.83L70.61 53.73L70.83 53.63L71.05 53.53L71.27 53.44L71.49 53.34L71.71 53.25L71.93 53.16L72.15 53.07L72.38 52.98L72.6 52.9L72.83 52.81L73.06 52.73L73.28 52.65L73.51 52.57L73.74 52.49L73.97 52.42L74.2 52.34L74.43 52.27L74.66 52.2L74.9 52.13L75.13 52.07L75.36 52L75.6 51.94L75.83 51.88L76.07 51.82L76.12 52.13L76.17 52.44L76.24 52.74L76.31 53.05L76.4 53.34L76.5 53.63L76.61 53.92L76.73 54.2L76.85 54.47L76.99 54.74L77.14 55.01L77.29 55.27L77.46 55.52L77.63 55.77L77.81 56.01L78 56.24L78.2 56.46L78.4 56.68L78.61 56.89L78.83 57.1L79.06 57.29L79.29 57.48L79.54 57.66L79.78 57.83L80.04 57.99L80.3 58.14L80.56 58.29L80.83 58.42L81.11 58.55L81.39 58.66L81.68 58.77L81.97 58.86L82.26 58.95L82.57 59.02L82.87 59.08L83.18 59.14L83.49 59.18L83.81 59.21L84.13 59.22L84.45 59.23L84.77 59.22L85.09 59.21L85.41 59.18L85.72 59.14L86.03 59.08L86.33 59.02L86.63 58.95L86.93 58.86L87.22 58.77L87.51 58.66L87.79 58.55L88.06 58.42L88.34 58.29L88.6 58.14L88.86 57.99L89.11 57.83L89.36 57.66L89.6 57.48L89.84 57.29L90.06 57.1L90.28 56.89L90.5 56.68L90.7 56.46L90.9 56.24L91.09 56.01L91.27 55.77L91.44 55.52L91.61 55.27L91.76 55.01L91.91 54.74L92.04 54.47L92.17 54.2L92.29 53.92L92.4 53.63L92.5 53.34L92.58 53.05L92.66 52.74L92.73 52.44L92.78 52.13L92.83 51.82L93.06 51.88L93.3 51.95L93.53 52.01L93.77 52.08L94 52.15L94.23 52.22L94.47 52.3L94.7 52.37L94.93 52.44L95.16 52.52L95.39 52.6L95.61 52.68L95.84 52.76L96.07 52.84L96.29 52.93L96.52 53.01L96.74 53.1L96.97 53.19L97.19 53.28L97.41 53.37L97.63 53.46L97.85 53.55L98.07 53.65L98.29 53.75L98.5 53.84L98.72 53.94L98.94 54.04L99.15 54.15L99.37 54.25L99.58 54.36L99.79 54.46L100 54.57L100.21 54.68L100.42 54.79L100.63 54.91L100.84 55.02L101.04 55.14L101.25 55.25L101.45 55.37L101.66 55.49L101.47 55.74L101.29 56L101.12 56.26L100.97 56.52L100.82 56.79L100.69 57.07L100.56 57.34L100.45 57.62L100.35 57.91L100.25 58.2L100.17 58.49L100.1 58.78L100.04 59.07L99.99 59.37L99.95 59.67L99.92 59.97L99.9 60.26L99.89 60.56L99.89 60.86L99.91 61.16L99.93 61.46L99.96 61.76L100.01 62.06L100.06 62.36L100.13 62.65L100.21 62.94L100.29 63.23L100.39 63.52L100.5 63.8L100.61 64.08L100.74 64.36L100.88 64.63L101.03 64.9L101.19 65.17L101.36 65.43L101.54 65.68L101.73 65.93L101.93 66.17L102.14 66.41L102.36 66.64L102.59 66.86L102.83 67.08L103.07 67.28L103.32 67.47L103.58 67.65L103.84 67.82L104.1 67.98L104.37 68.13L104.64 68.26L104.92 68.39L105.2 68.51L105.49 68.62L105.77 68.71L106.06 68.8L106.36 68.88L106.65 68.94L106.95 69L107.24 69.04L107.54 69.08L107.84 69.1L108.14 69.11L108.44 69.11L108.74 69.11L109.04 69.09L109.34 69.06L109.64 69.02L109.93 68.97L110.23 68.91L110.52 68.84L110.81 68.75L111.1 68.66L111.38 68.56L111.66 68.44L111.94 68.32L112.21 68.18L112.48 68.04L112.75 67.88L113.01 67.72L113.26 67.54L113.51 67.35L113.63 67.55L113.75 67.76L113.87 67.96L113.99 68.17L114.1 68.38L114.22 68.59L114.33 68.8L114.44 69.01L114.55 69.22L114.66 69.43L114.77 69.64L114.87 69.85L114.98 70.07L115.08 70.28L115.18 70.5L115.28 70.72L115.38 70.94L115.47 71.16L115.57 71.38L115.66 71.6L115.76 71.82L115.85 72.04L115.94 72.26L116.02 72.49L116.11 72.71L116.19 72.94L116.28 73.16L116.36 73.39L116.44 73.62L116.51 73.85L116.59 74.08L116.66 74.31L116.73 74.54L116.8 74.77L116.87 75L116.94 75.24L117 75.47L117.07 75.71L117.13 75.94L117.19 76.18L116.87 76.22L116.57 76.28L116.26 76.35L115.96 76.42L115.67 76.51L115.37 76.61L115.09 76.72L114.81 76.83L114.53 76.96L114.26 77.1L114 77.25L113.74 77.4L113.49 77.56L113.24 77.74L113 77.92L112.77 78.11L112.54 78.31L112.32 78.51L112.11 78.72L111.91 78.94L111.71 79.17L111.53 79.4L111.35 79.64L111.18 79.89L111.02 80.15L110.86 80.4L110.72 80.67L110.58 80.94L110.46 81.22L110.34 81.5L110.24 81.79L110.14 82.08L110.06 82.37L109.99 82.67L109.92 82.98L109.87 83.29L109.83 83.6L109.8 83.92L109.78 84.24L109.78 84.56L109.78 84.88L109.8 85.2L109.83 85.52L109.87 85.83L109.92 86.14L109.99 86.44L110.06 86.74L110.14 87.04L110.24 87.33L110.34 87.62L110.46 87.9L110.58 88.17L110.72 88.44L110.86 88.71L111.02 88.97L111.18 89.22L111.35 89.47L111.53 89.71L111.71 89.95L111.91 90.17L112.11 90.39L112.32 90.6L112.54 90.81L112.77 91.01L113 91.2L113.24 91.38L113.49 91.55L113.74 91.71L114 91.87L114.26 92.02L114.53 92.15L114.81 92.28L115.09 92.4L115.37 92.51L115.67 92.6L115.96 92.69L116.26 92.77L116.57 92.84L116.87 92.89L117.19 92.94L117.12 93.17L117.06 93.41L116.99 93.64L116.92 93.88L116.85 94.11L116.78 94.34L116.71 94.58L116.64 94.81L116.56 95.04L116.49 95.27L116.41 95.5L116.33 95.72L116.25 95.95L116.16 96.18L116.08 96.4L116 96.63L115.91 96.85L115.82 97.08L115.73 97.3L115.64 97.52L115.55 97.74L115.45 97.96L115.36 98.18L115.26 98.4L115.16 98.61L115.06 98.83L114.96 99.05L114.86 99.26L114.75 99.47L114.65 99.69L114.54 99.9L114.43 100.11L114.32 100.32L114.21 100.53L114.1 100.74L113.98 100.94L113.87 101.15L113.75 101.36L113.63 101.56L113.51 101.76L113.26 101.58L113.01 101.4L112.75 101.23L112.48 101.08L112.21 100.93L111.94 100.8L111.66 100.67L111.38 100.56L111.1 100.45L110.81 100.36L110.52 100.28L110.23 100.21L109.93 100.15L109.64 100.1L109.34 100.06L109.04 100.03L108.74 100.01L108.44 100L108.14 100L107.84 100.02L107.54 100.04ZM81.72 72.15L80.43 72.51L79.2 72.99L78.04 73.59L76.95 74.31L75.94 75.13L75.02 76.05L74.2 77.05L73.48 78.14L72.88 79.31L72.4 80.54L72.05 81.83L71.83 83.17L71.75 84.56L71.83 85.94L72.05 87.28L72.4 88.58L72.88 89.81L73.48 90.97L74.2 92.06L75.02 93.07L75.94 93.99L76.95 94.81L78.04 95.52L79.2 96.13L80.43 96.61L81.72 96.96L83.06 97.18L84.45 97.25L85.83 97.18L87.18 96.96L88.47 96.61L89.7 96.13L90.86 95.52L91.95 94.81L92.96 93.99L93.88 93.07L94.7 92.06L95.41 90.97L96.02 89.81L96.5 88.58L96.85 87.28L97.07 85.94L97.14 84.56L97.07 83.17L96.85 81.83L96.5 80.54L96.02 79.31L95.41 78.14L94.7 77.05L93.88 76.05L92.96 75.13L91.95 74.31L90.86 73.59L89.7 72.99L88.47 72.51L87.18 72.15L85.83 71.94L84.45 71.86L83.06 71.94L81.72 72.15Z" id="b3oJAPLe5v"></path><path d="M132.27 132.38C105.84 158.8 63.05 158.8 36.7 132.38C10.34 105.95 10.27 63.16 36.7 36.8C49.91 23.59 67.18 17.02 84.51 17.02C84.51 15.33 84.51 1.82 84.51 0.14C62.86 0.14 41.27 8.38 24.77 24.88C-8.22 57.88 -8.22 111.37 24.77 144.36C57.77 177.36 111.26 177.36 144.25 144.36C160.75 127.86 169 106.21 169 84.62C167.87 84.62 162.22 84.6 152.05 84.56C147.67 107.63 141.07 123.57 132.27 132.38Z" id="e5pUIamS"></path><path d="M84.45 25.4C68.66 25.4 53.77 31.52 42.62 42.73C31.09 54.27 25.29 69.41 25.29 84.56C26.55 84.56 36.66 84.56 37.92 84.56C37.92 72.64 42.43 60.78 51.52 51.69C69.69 33.52 99.08 33.52 117.25 51.69C135.42 69.86 135.42 99.25 117.25 117.42C108.16 126.51 96.31 131.02 84.38 131.02C84.38 132.29 84.38 142.39 84.38 143.65C99.53 143.65 114.67 137.92 126.21 126.38C137.36 115.23 143.54 100.35 143.54 84.56C143.54 83.99 143.54 81.18 143.54 76.12C148.3 76.12 150.94 76.12 151.47 76.12C149.67 61.74 143.22 47.82 132.2 36.74C121.18 25.72 107.26 19.28 92.83 17.47C92.83 18 92.85 20.64 92.89 25.4C87.83 25.4 85.01 25.4 84.45 25.4Z" id="aJ4MdQrTs"></path></defs><g><g><g><use xlink:href="#b3oJAPLe5v" opacity="1" fill="#ed1a3b" fill-opacity="1"></use><g><use xlink:href="#b3oJAPLe5v" opacity="1" fill-opacity="0" stroke="#000000" stroke-width="1" stroke-opacity="0"></use></g></g><g><use xlink:href="#e5pUIamS" opacity="1" fill="#ed1a3b" fill-opacity="1"></use><g><use xlink:href="#e5pUIamS" opacity="1" fill-opacity="0" stroke="#000000" stroke-width="1" stroke-opacity="0"></use></g></g><g><use xlink:href="#aJ4MdQrTs" opacity="1" fill="#ed1a3b" fill-opacity="1"></use><g><use xlink:href="#aJ4MdQrTs" opacity="1" fill-opacity="0" stroke="#000000" stroke-width="1" stroke-opacity="0"></use></g></g></g></g></svg>
