<svg xmlns="http://www.w3.org/2000/svg" xmlns:xlink="http://www.w3.org/1999/xlink" version="1.1" x="0px" y="0px" viewBox="0 0 100 100" enable-background="new 0 0 100 100" xml:space="preserve"><path d="M89.2,64.3c-2.4,0-4.4,1.5-5.2,3.5l-26-5.2c0-0.2,0-0.3,0-0.5c0-0.7-0.1-1.4-0.3-2.1l14-6.1c1.4,2.3,3.9,3.9,6.8,3.9  c4.4,0,8-3.6,8-8c0-3.2-1.9-6-4.7-7.2l1.9-6.5c0.2,0,0.4,0.1,0.6,0.1c1,0,2-0.4,2.7-1.1c1.6-1.5,1.7-4,0.2-5.6  c-0.7-0.8-1.8-1.2-2.9-1.2c-1,0-2,0.4-2.7,1.1c-0.8,0.7-1.2,1.7-1.2,2.8c0,1.1,0.3,2.1,1.1,2.8c0.4,0.4,0.8,0.7,1.3,0.9l-1.8,6.4  c-0.8-0.2-1.6-0.4-2.4-0.4c-2.2,0-4.2,0.9-5.6,2.3l-2-2c1.7-2.1,1.7-5.2-0.2-7.2c-1-1.1-2.5-1.7-4-1.7c-1.4,0-2.7,0.5-3.7,1.5  c-0.6,0.6-1.1,1.3-1.4,2.1l-8.4-1.4l1.1-15.8c2.7-0.3,4.8-2.6,4.8-5.4c0-3-2.4-5.4-5.4-5.4s-5.4,2.4-5.4,5.4c0,2.5,1.7,4.7,4.1,5.3  l-1.1,15.6L38,32.8c-0.1-0.9-0.4-1.7-1-2.4c-0.7-0.8-1.8-1.2-2.9-1.2c-0.8,0-1.6,0.3-2.3,0.7l-6.6-7.2c0.6-0.7,1-1.6,1-2.5  c0-2.2-1.8-4-4-4s-4,1.8-4,4s1.8,4,4,4c0.9,0,1.6-0.3,2.3-0.7l6.6,7.2c-1.2,1.5-1.3,3.6,0,5.1L25,45.6c-0.9-0.4-1.9-0.6-2.9-0.6  c-1.8,0-3.6,0.7-4.9,1.9c-0.3,0.3-0.6,0.6-0.8,0.9l-3.7-2.4c0.3-0.5,0.4-1.1,0.4-1.7c0-2.2-1.8-4-4-4s-4,1.8-4,4s1.8,4,4,4  c1.2,0,2.3-0.6,3-1.4l3.7,2.4c-1.5,2.6-1.1,6.1,1,8.4c0.3,0.3,0.5,0.5,0.8,0.7l-3.2,4.5c-0.7-0.3-1.5-0.5-2.3-0.5  c-3,0-5.5,2.4-5.5,5.5s2.4,5.5,5.5,5.5s5.5-2.4,5.5-5.5c0-1.4-0.6-2.8-1.5-3.7l3.4-4.6c0.8,0.3,1.7,0.5,2.7,0.5  c1.2,0,2.4-0.3,3.4-0.9L33.1,70c-0.9,0.7-1.4,1.8-1.4,3c0,2.2,1.8,4,4,4s4-1.8,4-4s-1.8-4-4-4c-0.6,0-1.2,0.2-1.7,0.4l-7.5-11.6  c0.2-0.2,0.4-0.3,0.6-0.5c2.9-2.7,3-7.2,0.3-10.1c-0.2-0.2-0.4-0.4-0.7-0.6l6-9.8c0.4,0.2,0.9,0.3,1.3,0.3c1,0,2-0.4,2.7-1.1  c0.4-0.4,0.7-0.8,0.9-1.2l13.4,2.3L50,54.5c-1.6,0.1-3,0.7-4.2,1.6L43.9,54c0.6-0.7,1-1.6,1-2.6c0-2.2-1.8-4-4-4s-4,1.8-4,4  s1.8,4,4,4c0.8,0,1.6-0.3,2.3-0.7l1.9,2.1c-1.3,1.4-2.1,3.2-2.1,5.3c0,4.1,3.2,7.4,7.2,7.6l0.3,12.2c-2.7,0.3-4.8,2.6-4.8,5.4  c0,3,2.4,5.4,5.4,5.4s5.4-2.4,5.4-5.4c0-2.9-2.2-5.2-5.1-5.4l-0.3-12.2c3-0.3,5.5-2.3,6.5-5.1l26,5.2c0,0,0,0.1,0,0.1  c0,3.1,2.5,5.6,5.6,5.6s5.6-2.5,5.6-5.6S92.2,64.3,89.2,64.3z M83,30.7c0.4-0.3,0.8-0.5,1.3-0.5c0.5,0,1.1,0.2,1.4,0.6  c0.7,0.8,0.7,2-0.1,2.8c-0.8,0.7-2.1,0.7-2.8-0.1c-0.4-0.4-0.5-0.9-0.5-1.4S82.6,31,83,30.7z M9.2,45.7c-1.1,0-2-0.9-2-2  c0-1.1,0.9-2,2-2s2,0.9,2,2C11.2,44.8,10.3,45.7,9.2,45.7z M12.2,70.6c-1.9,0-3.5-1.6-3.5-3.5s1.6-3.5,3.5-3.5s3.5,1.6,3.5,3.5  S14.1,70.6,12.2,70.6z M37.6,73.1c0,1.1-0.9,2-2,2c-1.1,0-2-0.9-2-2c0-1.1,0.9-2,2-2C36.7,71.1,37.6,72,37.6,73.1z M25.7,55.9  c-1,0.9-2.2,1.4-3.5,1.4c-1.4,0-2.8-0.6-3.8-1.6c-1.9-2.1-1.8-5.3,0.2-7.3c1-0.9,2.2-1.4,3.5-1.4c1.4,0,2.8,0.6,3.8,1.6  C27.9,50.7,27.8,54,25.7,55.9z M22.2,22.1c-1.1,0-2-0.9-2-2c0-1.1,0.9-2,2-2s2,0.9,2,2C24.1,21.2,23.3,22.1,22.2,22.1z M35.5,34.6  c-0.8,0.7-2.1,0.7-2.8-0.1c-0.7-0.8-0.7-2,0.1-2.8c0.4-0.3,0.8-0.5,1.3-0.5c0.5,0,1.1,0.2,1.4,0.6C36.3,32.6,36.2,33.8,35.5,34.6z   M78.5,43.8c3.3,0,6,2.7,6,6s-2.7,6-6,6s-6-2.7-6-6S75.2,43.8,78.5,43.8z M64.4,36.2c0.6-0.6,1.5-0.9,2.4-0.9c1,0,1.9,0.4,2.5,1.1  c1.3,1.4,1.2,3.6-0.2,4.9c-0.6,0.6-1.5,0.9-2.4,0.9c-1,0-1.9-0.4-2.5-1.1C62.9,39.6,63,37.5,64.4,36.2z M61.3,38.8  c0,1.3,0.5,2.6,1.5,3.6c1,1.1,2.5,1.7,4,1.7c1.3,0,2.5-0.5,3.5-1.3l2,2c-1,1.3-1.7,3-1.7,4.9c0,0.8,0.1,1.5,0.3,2.3l-14,6.1  c-1.1-1.8-2.9-3.1-5-3.5l1.2-17.3L61.3,38.8z M50.2,14.1c0-1.9,1.5-3.4,3.4-3.4s3.4,1.5,3.4,3.4s-1.5,3.4-3.4,3.4S50.2,16,50.2,14.1  z M40.9,53.4c-1.1,0-2-0.9-2-2c0-1.1,0.9-2,2-2s2,0.9,2,2C42.9,52.5,42,53.4,40.9,53.4z M54.5,87.3c0,1.9-1.5,3.4-3.4,3.4  s-3.4-1.5-3.4-3.4s1.5-3.4,3.4-3.4S54.5,85.4,54.5,87.3z M50.5,67.6c-3.1,0-5.6-2.5-5.6-5.6s2.5-5.6,5.6-5.6S56,59,56,62.1  S53.5,67.6,50.5,67.6z M89.2,73.4c-2,0-3.6-1.6-3.6-3.6s1.6-3.6,3.6-3.6s3.6,1.6,3.6,3.6S91.1,73.4,89.2,73.4z"/><text x="0" y="115" fill="#000000" font-size="5px" font-weight="bold" font-family="'Helvetica Neue', Helvetica, Arial-Unicode, Arial, Sans-serif">Created by Meaghan Hendricks</text><text x="0" y="120" fill="#000000" font-size="5px" font-weight="bold" font-family="'Helvetica Neue', Helvetica, Arial-Unicode, Arial, Sans-serif">from the Noun Project</text></svg>