<svg width="45" height="44" viewBox="0 0 45 44" fill="none" xmlns="http://www.w3.org/2000/svg">
<g clip-path="url(#clip0_256_15248)">
<path d="M7.50012 9.16675H11.1668" stroke="#2C3E50" stroke-width="2.75" stroke-linecap="round" stroke-linejoin="round"/>
<path d="M9.33337 7.33325V10.9999" stroke="#2C3E50" stroke-width="2.75" stroke-linecap="round" stroke-linejoin="round"/>
<path d="M21.25 7.33325L20.3334 10.9999" stroke="#2C3E50" stroke-width="2.75" stroke-linecap="round" stroke-linejoin="round"/>
<path d="M33.1667 9.16675H36.8334" stroke="#2C3E50" stroke-width="2.75" stroke-linecap="round" stroke-linejoin="round"/>
<path d="M35.0001 7.33325V10.9999" stroke="#2C3E50" stroke-width="2.75" stroke-linecap="round" stroke-linejoin="round"/>
<path d="M27.6667 16.5L25.8334 18.3333" stroke="#2C3E50" stroke-width="2.75" stroke-linecap="round" stroke-linejoin="round"/>
<path d="M33.1667 23.8334L36.8334 22.9167" stroke="#2C3E50" stroke-width="2.75" stroke-linecap="round" stroke-linejoin="round"/>
<path d="M33.1667 34.8333H36.8334" stroke="#2C3E50" stroke-width="2.75" stroke-linecap="round" stroke-linejoin="round"/>
<path d="M35.0001 33V36.6667" stroke="#2C3E50" stroke-width="2.75" stroke-linecap="round" stroke-linejoin="round"/>
<path d="M25.8335 30.2829L13.8838 18.3333L5.83546 35.8966C5.67639 36.2376 5.62609 36.6193 5.6914 36.9899C5.75672 37.3604 5.93447 37.7019 6.20055 37.968C6.46662 38.2341 6.80812 38.4118 7.17869 38.4771C7.54926 38.5425 7.93096 38.4922 8.27196 38.3331L25.8335 30.2829Z" stroke="#2C3E50" stroke-width="2.75" stroke-linecap="round" stroke-linejoin="round"/>
</g>
<defs>
<clipPath id="clip0_256_15248">
<rect width="44" height="44" fill="white" transform="translate(0.166748)"/>
</clipPath>
</defs>
</svg>
