<?xml version="1.0" encoding="utf-8"?>
<!-- Generator: Adobe Illustrator 23.0.4, SVG Export Plug-In . SVG Version: 6.00 Build 0)  -->
<svg version="1.1" id="Calque_1" xmlns="http://www.w3.org/2000/svg" xmlns:xlink="http://www.w3.org/1999/xlink" x="0px" y="0px"
	 viewBox="0 0 300 300" style="enable-background:new 0 0 300 300;" xml:space="preserve">
<style type="text/css">
	.st0{fill:#EA4647;}
	.st1{fill:#FFFFFF;}
	.st2{stroke:#FFFFFF;stroke-miterlimit:10;}
	.st3{fill:#FFFFFF;stroke:#EA4647;stroke-width:2;stroke-linecap:round;stroke-linejoin:round;stroke-miterlimit:10;}
	.st4{fill:#FFFFFF;stroke:#EA4647;stroke-width:2;stroke-miterlimit:10;}
	.st5{fill:none;stroke:#000000;stroke-miterlimit:10;}
	.st6{fill:none;stroke:#FFFFFF;stroke-width:3;stroke-linecap:square;stroke-miterlimit:10;}
	.st7{fill:none;stroke:#000000;stroke-width:0.75;stroke-miterlimit:10;}
</style>
<g>
	<g>
		<path class="st0" d="M242.7,178.8c1.5-8.7,4.8-8.1,4-16.8c-2-19.3-1-28.1-22.5-39.6c-34-18.1-53.1-4-61.4,6.6
			c-7,8.9,4.3,10.7-1.2,26s-19.5,10.9-17.4,36.3c1.7,20.7,17.3,44,17.3,44l13.9-2.8l55.1,2.8l23,3.1c5.7-14.8-5.3-21.4-1.6-30
			C255.4,199.9,239.7,196.2,242.7,178.8z M226.1,208c-5.5,3-38.3-0.2-44.8-29.2c0,0-11.4,1.7-11.6-10.3c-0.2-12,11-15.9,13.9-9.7
			c0,0,7.4,8.2,11.2-0.5c4.1-9.4,2.5-21.8,2.5-21.8s0.1,9.5,10.8,12.3c10.8,2.8,29.3,8.9,29.3,17.2C237.3,190.9,231.6,205,226.1,208
			z"/>
		<path class="st1" d="M175.3,232.5L175.3,232.5C175.3,232.5,175.3,232.5,175.3,232.5s7.4-1,9-16.1c1.6-15.1-3-37.6-3-37.6
			s-11.4,1.7-11.6-10.3c-0.2-12,11-15.9,13.9-9.7c0,0,7.4,8.2,11.2-0.5c3.4-7.7,2.9-17.4,2.6-20.7c0.4,2.6,2.2,9,10.7,11.2
			c10.8,2.8,29.3,8.9,29.3,17.2c-0.1,24.9-5.8,39-11.3,42c0,0-0.1,0-0.1,0c-0.5,0.8-3,5.4-1.9,12.8c1.2,8.1,6.2,14.4,6.2,14.4
			s-4.9,27.5-30.1,27.5C179.9,262.7,175.3,232.5,175.3,232.5z"/>
		<g>
			<path d="M51.8,173.5c0,0,7.7,24.4,12.5,23.9s8.9-7.5,9-9s-5-1.5-5.3-3.3c-0.2-1.8-0.3-5.6-3.5-7.3c-3.3-1.7,1.5-9.5,1.5-9.5
				S53.9,170.7,51.8,173.5z"/>
			<path class="st2" d="M31,150.7c0,0-9.4,5-2.1,18.5c7,13.1,17,6.7,17,6.7L31,150.7z"/>
			<path class="st3" d="M46.2,176.6c0,0,11.3-7.3,26.6-9.1s29.7,1.1,29.7,1.1l-30.8-62.1c0,0-6.3,15-14.4,23.2s-16.8,15-25.6,19.4
				c0,0-3.4,1.8,4,15.4C43.2,178,46.2,176.6,46.2,176.6z"/>
			
				<ellipse transform="matrix(0.8957 -0.4446 0.4446 0.8957 -52.0981 53.0847)" class="st4" cx="87.1" cy="137.6" rx="11.9" ry="34.7"/>
			<path class="st0" d="M72.5,133.4c4.9-2.3,10.7-0.2,13,4.7s0.2,10.7-4.7,13L75.6,141L72.5,133.4z"/>
		</g>
		<path class="st1" d="M181.3,178.8"/>
		<path class="st5" d="M181.3,178.8c0,0,4.6,22.5,3,37.6s-9,16.1-9,16.1s2.7,27.7,24.9,30.2s30.1-27.5,30.1-27.5s-5-6.3-6.2-14.4
			c-1.2-8.1,2-12.9,2-12.9"/>
		<line class="st5" x1="175.3" y1="232.5" x2="119.1" y2="243.8"/>
		<line class="st5" x1="230.3" y1="235.3" x2="274.3" y2="241.6"/>
		<g>
			<polygon points="221.2,161.9 225.6,181.3 226.1,183.5 224.1,183 218.2,181.5 224.1,180 222.7,181.7 			"/>
		</g>
		<path class="st5" d="M209.7,188.2c0,0,17.3-2.9,19.7,0c0,0-3.5,2.8-3.6,5.8C225.7,197.2,211.8,196.5,209.7,188.2z"/>
		<g>
			<g>
				<line class="st6" x1="176.7" y1="142.3" x2="148.7" y2="108.1"/>
				<line class="st5" x1="176.7" y1="142.3" x2="148.7" y2="108.1"/>
			</g>
			<g>
				<line class="st6" x1="161.4" y1="164.3" x2="123.1" y2="151.7"/>
				<line class="st5" x1="161.4" y1="164.3" x2="123.1" y2="151.7"/>
			</g>
			<g>
				<line class="st6" x1="165.2" y1="189.5" x2="128.3" y2="205.7"/>
				<line class="st5" x1="165.2" y1="189.5" x2="128.3" y2="205.7"/>
			</g>
		</g>
		<path class="st7" d="M180,167.2c0,0,3.4-6.2-0.4-7.5c-3.8-1.3-7.7,0.9-7.2,8"/>
		<path class="st7" d="M180.5,164.7c0,0-4.8-1.6-5.1,2.6s3.6,8,5.1,4.9"/>
		<g>
			<g>
				<g>
					<path class="st0" d="M119.8,36.6c-21.5,0-38.9,13.1-38.9,29.2c0,9.1,5.6,17.3,14.4,22.6l0,0c0,0,7.6,12.7,0,20.3
						c0,0,13.7-3.8,17.5-14.2c2.3,0.3,4.7,0.5,7.1,0.5c21.5,0,38.9-13.1,38.9-29.2C158.8,49.6,141.4,36.6,119.8,36.6z"/>
				</g>
			</g>
			<g>
				<path class="st1" d="M135.3,65.1c0,3.8-1.5,7.7-4.4,10.6c-5.9,5.9-15.4,5.9-21.2,0c-5.9-5.9-5.9-15.4,0-21.2
					c2.9-2.9,6.8-4.4,10.6-4.4v-3.8c-4.8,0-9.6,1.8-13.3,5.5c-7.3,7.3-7.3,19.2,0,26.5c7.3,7.3,19.2,7.3,26.5,0
					c3.7-3.7,5.5-8.5,5.5-13.3L135.3,65.1z"/>
				<g>
					<path class="st1" d="M116.2,50.7c0.2,0,0.3-0.1,0.5-0.1C116.5,50.6,116.3,50.6,116.2,50.7z"/>
					<path class="st1" d="M116.9,50.5c0.2,0,0.3-0.1,0.5-0.1C117.2,50.4,117,50.5,116.9,50.5z"/>
					<path class="st1" d="M130.9,75.7c-0.2,0.2-0.4,0.3-0.5,0.5C130.5,76.1,130.7,75.9,130.9,75.7z"/>
					<path class="st1" d="M119.2,50.1c0.1,0,0.2,0,0.4,0C119.4,50.1,119.3,50.1,119.2,50.1z"/>
					<path class="st1" d="M117.6,50.3c0.2,0,0.3-0.1,0.5-0.1C117.9,50.3,117.8,50.3,117.6,50.3z"/>
					<path class="st1" d="M114.9,51.1c0.1,0,0.2-0.1,0.4-0.1C115.1,51,115,51.1,114.9,51.1z"/>
					<path class="st1" d="M115.5,50.9c0.1,0,0.3-0.1,0.4-0.1C115.8,50.8,115.7,50.8,115.5,50.9z"/>
					<path class="st1" d="M111.7,52.8c0.1,0,0.1-0.1,0.2-0.1C111.9,52.7,111.8,52.7,111.7,52.8z"/>
					<path class="st1" d="M111.1,53.2c0.1-0.1,0.1-0.1,0.2-0.2C111.3,53.1,111.2,53.2,111.1,53.2z"/>
					<path class="st1" d="M110.5,53.8c0.1-0.1,0.2-0.2,0.3-0.2C110.7,53.6,110.6,53.7,110.5,53.8z"/>
					<path class="st1" d="M114.2,51.4c0.1,0,0.2-0.1,0.3-0.1C114.4,51.3,114.3,51.3,114.2,51.4z"/>
					<path class="st1" d="M113.6,51.7c0.1,0,0.2-0.1,0.3-0.1C113.8,51.6,113.7,51.6,113.6,51.7z"/>
					<path class="st1" d="M113,52c0.1,0,0.2-0.1,0.2-0.1C113.1,51.9,113,52,113,52z"/>
					<path class="st1" d="M112.3,52.4c0.1,0,0.1-0.1,0.2-0.1C112.5,52.3,112.4,52.3,112.3,52.4z"/>
					<path class="st1" d="M128.8,77.5c-0.1,0-0.1,0.1-0.2,0.1C128.7,77.6,128.8,77.5,128.8,77.5z"/>
					<path class="st1" d="M123.7,79.7c-0.2,0-0.3,0.1-0.5,0.1C123.4,79.8,123.5,79.8,123.7,79.7z"/>
					<path class="st1" d="M124.4,79.6c-0.2,0-0.3,0.1-0.5,0.1C124.1,79.7,124.2,79.6,124.4,79.6z"/>
					<path class="st1" d="M122.9,79.9c-0.2,0-0.3,0.1-0.5,0.1C122.6,80,122.8,79.9,122.9,79.9z"/>
					<path class="st1" d="M125,79.4c-0.1,0-0.3,0.1-0.4,0.1C124.8,79.5,124.9,79.4,125,79.4z"/>
					<path class="st1" d="M135.3,65.1L135.3,65.1L135.3,65.1z"/>
					<path class="st1" d="M121.4,80.1c-0.1,0-0.2,0-0.3,0C121.1,80.1,121.3,80.1,121.4,80.1z"/>
					<path class="st1" d="M130.1,76.5c-0.1,0.1-0.2,0.2-0.3,0.2C129.9,76.6,130,76.6,130.1,76.5z"/>
					<path class="st1" d="M122.2,80c-0.1,0-0.3,0-0.4,0.1C121.9,80,122,80,122.2,80z"/>
					<path class="st1" d="M128.2,77.9c-0.1,0-0.1,0.1-0.2,0.1C128.1,77.9,128.2,77.9,128.2,77.9z"/>
					<path class="st1" d="M109.7,54.5c0.2-0.2,0.4-0.3,0.5-0.5C110,54.2,109.8,54.3,109.7,54.5z"/>
					<path class="st1" d="M129.5,77c-0.1,0.1-0.1,0.1-0.2,0.2C129.3,77.1,129.4,77.1,129.5,77z"/>
					<path class="st1" d="M127,78.6c-0.1,0-0.2,0.1-0.3,0.1C126.8,78.6,126.9,78.6,127,78.6z"/>
					<path class="st1" d="M127.6,78.2c-0.1,0-0.2,0.1-0.2,0.1C127.5,78.3,127.5,78.3,127.6,78.2z"/>
					<path class="st1" d="M126.3,78.9c-0.1,0-0.2,0.1-0.3,0.1C126.1,78.9,126.2,78.9,126.3,78.9z"/>
					<path class="st1" d="M125.7,79.1c-0.1,0-0.2,0.1-0.4,0.1C125.5,79.2,125.6,79.2,125.7,79.1z"/>
					<path class="st1" d="M118.4,50.2c0.1,0,0.3,0,0.4-0.1C118.7,50.2,118.5,50.2,118.4,50.2z"/>
					<path class="st1" d="M134.4,70.2c0,0.1-0.1,0.2-0.1,0.4C134.3,70.4,134.4,70.3,134.4,70.2z"/>
					<path class="st1" d="M134.2,70.9c0,0.1-0.1,0.2-0.1,0.3C134.1,71.1,134.1,71,134.2,70.9z"/>
					<path class="st1" d="M133.5,72.2c0,0.1-0.1,0.2-0.1,0.2C133.4,72.4,133.5,72.3,133.5,72.2z"/>
					<path class="st1" d="M131.9,74.6c-0.1,0.1-0.2,0.2-0.2,0.3C131.7,74.8,131.8,74.7,131.9,74.6z"/>
					<path class="st1" d="M132.3,74.1c-0.1,0.1-0.1,0.2-0.2,0.2C132.2,74.2,132.3,74.1,132.3,74.1z"/>
					<path class="st1" d="M133.2,72.9c0,0.1-0.1,0.1-0.1,0.2C133.1,73,133.1,72.9,133.2,72.9z"/>
					<path class="st1" d="M132.8,73.5c0,0.1-0.1,0.1-0.1,0.2C132.7,73.6,132.7,73.5,132.8,73.5z"/>
					<path class="st1" d="M133.9,71.5c0,0.1-0.1,0.2-0.1,0.3C133.8,71.7,133.8,71.6,133.9,71.5z"/>
					<path class="st1" d="M135.3,65.9c0,0.1,0,0.2,0,0.4C135.3,66.1,135.3,66,135.3,65.9z"/>
					<path class="st1" d="M122.2,50.2L122.2,50.2V52h-1.9c-3.5,0-6.8,1.4-9.3,3.8c-2.6,2.6-3.8,5.9-3.8,9.3h0.7h2.1
						c0-2.6,1-5.3,3-7.3c4-4,10.6-4,14.6,0c4,4,4,10.6,0,14.6c-2,2-4.7,3-7.3,3V77v1.2l0,0l0,0c3.5,0,6.8-1.4,9.3-3.8
						c2.5-2.5,3.8-5.8,3.8-9.3v-1.9h1.8l0,0l0,0c0-0.1,0-0.1,0-0.2c0-0.1,0-0.2,0-0.3s0-0.2-0.1-0.3c0-0.2-0.1-0.4-0.1-0.6
						c0-0.1,0-0.2-0.1-0.3c0-0.1-0.1-0.2-0.1-0.3s-0.1-0.2-0.1-0.3s-0.1-0.2-0.1-0.3s-0.1-0.2-0.1-0.3s-0.1-0.2-0.1-0.3
						s-0.1-0.3-0.2-0.4c0-0.1-0.1-0.1-0.1-0.2c-0.2-0.4-0.4-0.8-0.6-1.2c0,0,0,0,0-0.1c-0.1-0.2-0.2-0.4-0.3-0.5l-0.1-0.1
						c-0.1-0.2-0.2-0.3-0.3-0.5l-0.1-0.1c-0.1-0.1-0.2-0.3-0.3-0.4l-0.1-0.1c-0.1-0.1-0.2-0.3-0.3-0.4l-0.1-0.1
						c-0.1-0.1-0.2-0.3-0.3-0.4l-0.1-0.1c-0.2-0.2-0.3-0.3-0.5-0.5s-0.3-0.3-0.5-0.5l-0.1-0.1c-0.1-0.1-0.3-0.2-0.4-0.3l-0.1-0.1
						c-0.1-0.1-0.3-0.2-0.4-0.3l-0.1-0.1c-0.1-0.1-0.3-0.2-0.4-0.3l-0.1-0.1c-0.2-0.1-0.3-0.2-0.5-0.3l-0.1-0.1
						c-0.2-0.1-0.4-0.2-0.5-0.3c0,0,0,0-0.1,0c-0.4-0.2-0.8-0.4-1.2-0.6c-0.1,0-0.1-0.1-0.2-0.1c-0.1-0.1-0.3-0.1-0.4-0.2
						c-0.1,0-0.2-0.1-0.3-0.1c-0.1,0-0.2-0.1-0.3-0.1c-0.1,0-0.2-0.1-0.3-0.1c-0.1,0-0.2-0.1-0.3-0.1c-0.1,0-0.2-0.1-0.3-0.1
						c-0.1,0-0.2,0-0.3-0.1c-0.2,0-0.4-0.1-0.6-0.1c-0.1,0-0.2,0-0.3-0.1c-0.1,0-0.2,0-0.3,0C122.3,50.2,122.2,50.2,122.2,50.2
						L122.2,50.2z"/>
					<path class="st1" d="M135.2,66.6c0,0.1,0,0.3-0.1,0.4C135.2,66.9,135.2,66.7,135.2,66.6z"/>
					<path class="st1" d="M134.9,68.8c0,0.2-0.1,0.3-0.1,0.5C134.8,69.1,134.8,68.9,134.9,68.8z"/>
					<path class="st1" d="M134.7,69.5c0,0.1-0.1,0.3-0.1,0.4C134.6,69.7,134.6,69.6,134.7,69.5z"/>
					<path class="st1" d="M135,68c0,0.2-0.1,0.3-0.1,0.5C134.9,68.4,135,68.2,135,68z"/>
					<path class="st1" d="M135.1,67.3c0,0.2-0.1,0.3-0.1,0.5C135.1,67.6,135.1,67.5,135.1,67.3z"/>
					<path class="st1" d="M105.5,62.2c0-0.2,0.1-0.3,0.1-0.5C105.6,61.9,105.6,62,105.5,62.2z"/>
					<path class="st1" d="M107.4,57.4c0-0.1,0.1-0.1,0.1-0.2C107.5,57.2,107.5,57.3,107.4,57.4z"/>
					<path class="st1" d="M107,58c0-0.1,0.1-0.2,0.1-0.2C107.1,57.9,107.1,57.9,107,58z"/>
					<path class="st1" d="M106.7,58.7c0-0.1,0.1-0.2,0.1-0.3C106.8,58.5,106.8,58.6,106.7,58.7z"/>
					<path class="st1" d="M106.4,59.4c0-0.1,0.1-0.2,0.1-0.3C106.5,59.2,106.4,59.3,106.4,59.4z"/>
					<path class="st1" d="M108.7,55.6c0.1-0.1,0.2-0.2,0.2-0.3C108.8,55.4,108.8,55.5,108.7,55.6z"/>
					<path class="st1" d="M107.8,56.8c0-0.1,0.1-0.1,0.1-0.2C107.9,56.6,107.8,56.7,107.8,56.8z"/>
					<path class="st1" d="M131.4,75.2c-0.2,0.2-0.3,0.4-0.5,0.5C131.1,75.6,131.2,75.4,131.4,75.2z"/>
					<path class="st1" d="M108.2,56.2c0.1-0.1,0.1-0.2,0.2-0.2C108.3,56,108.3,56.1,108.2,56.2z"/>
					<path class="st1" d="M105.4,62.9c0-0.2,0.1-0.3,0.1-0.5C105.5,62.6,105.4,62.8,105.4,62.9z"/>
					<path class="st1" d="M105.3,63.6c0-0.1,0-0.3,0.1-0.4C105.4,63.4,105.4,63.5,105.3,63.6z"/>
					<path class="st1" d="M105.3,64.4c0-0.1,0-0.2,0-0.3C105.3,64.1,105.3,64.3,105.3,64.4z"/>
					<path class="st1" d="M106.1,60.1c0-0.1,0.1-0.2,0.1-0.4C106.2,59.8,106.2,59.9,106.1,60.1z"/>
					<path class="st1" d="M109.1,55c0.2-0.2,0.3-0.4,0.5-0.5C109.5,54.7,109.3,54.9,109.1,55z"/>
					<path class="st1" d="M105.9,60.8c0-0.1,0.1-0.3,0.1-0.4C106,60.5,105.9,60.6,105.9,60.8z"/>
					<path class="st1" d="M105.7,61.5c0-0.2,0.1-0.3,0.1-0.5C105.8,61.2,105.7,61.3,105.7,61.5z"/>
				</g>
				<g>
					<path class="st1" d="M120.3,70.7c1,0,1.7,0.7,1.9,1.6c0.7-0.2,1.4-0.5,2-0.8c-0.6-0.7-0.5-1.8,0.2-2.5s1.7-0.7,2.5-0.2
						c0.4-0.6,0.6-1.3,0.8-2c-0.9-0.1-1.6-0.9-1.6-1.9s0.7-1.7,1.6-1.9c-0.2-0.7-0.5-1.4-0.8-2c-0.7,0.6-1.8,0.5-2.5-0.2
						s-0.7-1.7-0.2-2.5c-0.6-0.4-1.3-0.6-2-0.8c-0.1,0.9-0.9,1.6-1.9,1.6s-1.7-0.7-1.9-1.6c-0.7,0.2-1.4,0.5-2,0.8
						c0.6,0.7,0.5,1.8-0.2,2.5s-1.7,0.7-2.5,0.2c-0.4,0.6-0.6,1.3-0.8,2c0.9,0.1,1.6,0.9,1.6,1.9s-0.7,1.7-1.6,1.9
						c0.2,0.7,0.5,1.4,0.8,2c0.7-0.6,1.8-0.5,2.5,0.2s0.7,1.7,0.2,2.5c0.6,0.4,1.3,0.6,2,0.8C118.5,71.5,119.3,70.7,120.3,70.7z
						 M117.5,65.1c0-1.6,1.3-2.8,2.8-2.8s2.8,1.3,2.8,2.8s-1.3,2.8-2.8,2.8S117.5,66.7,117.5,65.1z"/>
				</g>
			</g>
		</g>
	</g>
	<path d="M195,200.2c0,0,14.7,11.6,31.1,7.7c0,0-7,11.9-12.5,11.6C197.4,218.5,195,200.2,195,200.2z"/>
</g>
</svg>
