<?xml version="1.0" encoding="UTF-8"?>
<!-- Image Generated by Ridvan BEAU https://www.rbeau.com/ -->
<svg overflow="visible" inkscape:version="1.0.2-2 (e86c870879, 2021-01-15)" sodipodi:docname="paiement-svg4.svg" version="1.2" viewBox="0 0 512 120" xml:space="preserve" xmlns="http://www.w3.org/2000/svg" xmlns:cc="http://creativecommons.org/ns#" xmlns:dc="http://purl.org/dc/elements/1.1/" xmlns:inkscape="http://www.inkscape.org/namespaces/inkscape" xmlns:rdf="http://www.w3.org/1999/02/22-rdf-syntax-ns#" xmlns:sodipodi="http://sodipodi.sourceforge.net/DTD/sodipodi-0.dtd"><metadata><rdf:RDF><cc:Work rdf:about=""><dc:format>image/svg+xml</dc:format><dc:type rdf:resource="http://purl.org/dc/dcmitype/StillImage"/><dc:title/></cc:Work></rdf:RDF></metadata><sodipodi:namedview bordercolor="#666666" borderopacity="1" gridtolerance="10" guidetolerance="10" inkscape:current-layer="svg184" inkscape:cx="256" inkscape:cy="60" inkscape:pageopacity="0" inkscape:pageshadow="2" inkscape:window-height="480" inkscape:window-maximized="1" inkscape:window-width="906" inkscape:window-x="0" inkscape:window-y="0" inkscape:zoom="1.0610083" objecttolerance="10" pagecolor="#ffffff" showgrid="false"/>

    <rect x="403.1" y="28.4" width="38" height="68.2" fill="#EF6231"/>
    <path id="XMLID_330_" d="m405.5 62.5c0-13.9 6.5-26.1 16.5-34.1-7.4-5.8-16.6-9.3-26.7-9.3-24 0-43.4 19.4-43.4 43.4s19.4 43.4 43.4 43.4c10.1 0 19.4-3.5 26.7-9.3-9.9-7.8-16.5-20.2-16.5-34.1z" fill="#EA282C"/>
    <path d="m492.3 62.5c0 24-19.4 43.4-43.4 43.4-10.1 0-19.4-3.5-26.7-9.3 10.1-8 16.5-20.2 16.5-34.1s-6.5-26.1-16.5-34.1c7.4-5.8 16.6-9.3 26.7-9.3 24 0.1 43.4 19.6 43.4 43.4z" fill="#F6A03A"/>



        <sodipodi:namedview bordercolor="#666666" borderopacity="1" gridtolerance="10" guidetolerance="10" objecttolerance="10" pagecolor="#ffffff" showgrid="false">
        </sodipodi:namedview>
    <g transform="matrix(4.43 0 0 4.43 -81.166 -105.05)"><g fill="#03599F">
        <polygon points="72.4 43.7 69.4 43.7 71.3 32 74.3 32"/>
        <path d="m83.4 32.3c-0.6-0.2-1.5-0.5-2.7-0.5-3 0-5.1 1.6-5.1 3.9 0 1.7 1.5 2.6 2.7 3.2s1.6 0.9 1.6 1.5c0 0.8-0.9 1.1-1.8 1.1-1.2 0-1.9-0.2-2.8-0.6l-0.4-0.2-0.4 2.6c0.7 0.3 2 0.6 3.4 0.6 3.2 0 5.3-1.6 5.3-4 0-1.3-0.8-2.4-2.5-3.2-1.1-0.5-1.7-0.9-1.7-1.4s0.6-1 1.7-1c1 0 1.7 0.2 2.3 0.4l0.3 0.1 0.1-2.5z"/>
        <path d="m87.5 39.6c0.3-0.7 1.2-3.3 1.2-3.3s0.2-0.7 0.4-1.1l0.2 1s0.6 2.8 0.7 3.4h-2.5zm3.7-7.6h-2.3c-0.7 0-1.3 0.2-1.6 1l-4.5 10.8h3.2s0.5-1.4 0.6-1.8h3.9c0.1 0.4 0.4 1.8 0.4 1.8h2.8l-2.5-11.8z"/>
        <path d="m66.8 32-3 8-0.3-1.6c-0.5-1.9-2.3-3.9-4.2-4.9l2.7 10.3h3.2l4.9-11.8h-3.3z"/>
        </g><path d="m61.1 32h-4.9v0.2c3.8 1 6.3 3.3 7.4 6.1l-1.1-5.3c-0.2-0.8-0.7-1-1.4-1z" fill="#F8A73A"/>
    </g>


    <rect x="9.7" y="19.6" width="143.7" height="80.9" fill="#fff"/>

        <linearGradient id="path1_00000163064332191754221530000007344835325326960791_" x1="47.294" x2="117.52" y1="119.27" y2="-2.3671" gradientUnits="userSpaceOnUse">
        <stop stop-color="#3B8145" offset="0"/>
        <stop stop-color="#1B70AA" offset=".5051"/>
        <stop offset="1"/>
    </linearGradient>
    <path d="m9.7 60v38.5c0 1.1 0.9 1.9 1.9 1.9h139.8c1.1 0 1.9-0.9 1.9-1.9v-77c0-1.1-0.9-1.9-1.9-1.9h-139.8c-1.1 0-1.9 0.9-1.9 1.9v38.5m120.7-21c0.2 0 0.6 0.1 0.9 0.2 3.3 0.6 6.5 3.1 8 6.2 2.5 5 1 11.6-3.3 14.6-0.1 0.1-0.3 0.2-0.5 0.3-1 0.8-2.8 1.6-4.7 2l-0.9 0.2h-41.9c-1.1 0-1.9-0.9-1.9-1.9v-9.9-9.9c0-1.1 0.9-1.9 1.9-1.9h20c15 0 22.1 0.1 22.4 0.1m-64.9 0.2c0.8 0.1 1.8 0.2 2.1 0.2 0.8 0.1 2.3 0.5 2.5 0.6 0.1 0 0.4 0.1 0.7 0.2s0.7 0.2 0.8 0.3 0.5 0.2 0.8 0.3c3.1 1.3 6.9 4.3 8.7 7 0.1 0.1 0.2 0.3 0.3 0.4 0.2 0.3 0.7 1 0.8 1.2 0 0.1 0.1 0.2 0.2 0.4 0.3 0.5 0.8 1.5 1 2 0.1 0.3 0.3 0.6 0.3 0.7 0.2 0.4 0.7 1.9 0.8 2.5 0.5 1.9 0.6 3 0.6 5.5 0 1.1-0.9 1.9-1.9 1.9h-13.7-15.7v1.2h29.4c1.1 0 2 0.9 1.9 2v0.3c-0.1 7.1-3 13.1-8.3 17.1-0.4 0.3-0.7 0.5-0.7 0.5-0.3 0.2-1.3 0.9-1.8 1.1-0.2 0.1-0.5 0.3-0.8 0.4-2.2 1.2-5 2-8.1 2.3-1.9 0.2-23.5 0-24.6-0.1-1.2-0.2-2.1-0.4-2.4-0.5-0.1 0-0.5-0.2-0.9-0.3s-0.8-0.3-1-0.3c-0.1-0.1-0.3-0.1-0.3-0.1l-0.8-0.4c-0.1 0-1.7-0.8-2.5-1.3-1.3-0.8-2.8-2-4-3.2-1.4-1.4-2.1-2.3-3.4-4.2-0.4-0.6-0.8-1.4-1.3-2.5-0.2-0.4-0.2-0.3-0.6-1.5-0.2-0.5-0.5-1.8-0.7-2.7-0.1-0.6-0.2-1-0.4-3-0.1-0.5-0.1-2.2-0.1-4.4 0-4.2 0.1-5.2 0.8-7.8 1.1-4.6 4.6-9.5 8.8-12.3 1.9-1.3 3.2-1.9 5.5-2.7 1.1-0.4 3.1-0.8 4.6-0.9 2.1-0.1 21.3-0.1 23.4 0.1m65.2 24.8c9.6 1.6 13.3 13.4 6.3 20.1-1.1 1.1-2.2 1.8-3.7 2.5-2.1 0.9-1.3 0.9-26.1 0.9h-19.1c-1.1 0-1.9-0.9-1.9-1.9v-9.8-9.8c0-1.1 0.9-1.9 1.9-1.9h19.9c21-0.2 21.8-0.2 22.7-0.1" fill="url(#path1_00000163064332191754221530000007344835325326960791_)" fill-rule="evenodd"/><!-- Image Generated by Ridvan BEAU https://www.rbeau.com/ -->







</svg>
