<?xml version="1.0" encoding="UTF-8" standalone="no"?>
<svg xmlns="http://www.w3.org/2000/svg" viewBox="0 0 500 500" xmlns:bx="https://boxy-svg.com">
  <g clip-path="url(#a)" transform="matrix(1, 0, 0, 1, -113.912834, 145.828461)">
    <path d="M 293.609 -87.876 C 299.616 -88.826 302.341 -95.922 298.515 -100.649 C 296.725 -102.86 293.885 -103.939 291.079 -103.472 C 285.08 -102.475 282.41 -95.357 286.274 -90.66 C 288.052 -88.498 290.843 -87.439 293.609 -87.876 Z M 493.703 -83.169 C 498.01 -83.867 500.936 -87.925 500.237 -92.232 C 499.261 -98.236 492.151 -100.932 487.439 -97.084 C 486.906 -96.649 486.432 -96.145 486.029 -95.587 C 483.476 -92.048 484.277 -87.109 487.818 -84.558 C 489.518 -83.333 491.634 -82.833 493.703 -83.168 L 493.703 -83.169 Z M 274.935 -66.666 C 274.035 -68.266 272.635 -69.566 271.335 -70.766 C 269.735 -72.166 267.935 -73.066 265.935 -73.466 L 265.735 -73.466 L 265.735 -74.266 L 265.935 -74.466 C 268.635 -76.066 270.935 -78.266 272.435 -81.266 C 273.835 -84.166 274.735 -87.166 274.735 -90.266 C 274.735 -93.166 274.035 -96.166 272.935 -98.566 C 271.535 -101.066 270.035 -103.066 267.735 -104.666 C 265.235 -106.466 262.535 -107.566 259.635 -108.266 C 256.235 -109.166 252.635 -109.666 249.235 -109.666 L 223.136 -109.666 L 223.136 -34.366 L 248.836 -34.366 C 252.436 -34.366 256.036 -34.866 259.636 -35.466 C 263.036 -36.166 265.936 -37.466 268.836 -39.266 C 271.536 -41.066 273.536 -43.366 275.136 -46.066 C 277.436 -50.766 278.036 -56.466 276.936 -61.666 C 276.595 -63.445 275.916 -65.143 274.936 -66.666 L 274.935 -66.666 Z M 238.836 -95.066 L 248.736 -95.066 C 251.036 -95.266 253.036 -94.366 254.636 -93.066 C 255.736 -91.666 256.436 -89.866 256.436 -88.066 C 256.436 -86.266 255.736 -84.466 254.636 -82.866 C 253.236 -81.266 251.236 -80.366 249.036 -80.566 L 238.836 -80.566 L 238.836 -95.066 Z M 257.136 -52.166 C 255.536 -50.366 253.036 -49.466 250.636 -49.666 L 238.836 -49.666 L 238.836 -66.666 L 250.736 -66.666 C 253.236 -66.866 255.436 -65.966 257.036 -64.166 C 258.436 -62.566 259.036 -60.566 259.036 -58.266 C 259.436 -56.066 258.536 -53.766 257.136 -52.166 Z M 301.736 -48.366 C 300.836 -48.366 299.936 -49.066 299.936 -50.166 L 299.936 -82.666 L 284.136 -82.666 L 284.136 -51.766 C 283.936 -48.566 284.636 -45.466 285.736 -42.566 C 286.636 -40.566 288.036 -38.766 289.536 -37.166 C 291.136 -36.066 292.936 -35.166 294.936 -34.666 C 298.336 -34.466 301.736 -34.466 305.036 -34.466 L 305.036 -48.466 L 301.736 -48.466 L 301.736 -48.366 Z M 443.336 -66.866 C 442.236 -69.766 440.636 -72.466 438.636 -74.766 C 436.636 -77.066 434.336 -78.566 431.636 -79.766 C 428.936 -80.966 426.036 -81.566 423.036 -81.566 C 420.736 -81.566 418.736 -81.366 416.536 -80.666 C 414.936 -80.166 413.636 -79.266 412.436 -78.366 C 411.336 -77.466 410.136 -76.366 409.236 -74.966 L 408.136 -74.966 C 407.236 -77.266 405.836 -79.266 404.036 -80.566 C 402.436 -81.966 400.436 -82.566 398.436 -83.066 L 391.036 -83.566 L 391.036 -69.166 C 392.136 -69.166 393.336 -69.166 394.436 -68.666 L 394.436 -14.166 L 410.436 -14.166 L 410.436 -37.566 C 411.336 -36.466 412.436 -35.266 413.636 -34.666 C 415.036 -33.766 416.336 -33.066 417.736 -32.666 C 419.536 -31.966 421.536 -31.766 423.636 -31.766 C 426.536 -31.766 429.536 -32.466 432.236 -33.566 C 434.736 -34.666 437.236 -36.466 439.036 -38.766 C 441.036 -41.066 442.436 -43.766 443.336 -46.666 C 445.736 -53.066 445.736 -60.066 443.336 -66.866 Z M 426.436 -48.366 C 424.836 -46.366 422.336 -44.966 419.636 -45.166 C 418.536 -45.166 417.136 -45.366 416.036 -45.866 C 414.936 -46.366 413.736 -46.966 413.136 -47.866 C 412.236 -48.966 411.536 -50.166 411.136 -51.466 C 410.636 -53.066 410.236 -54.866 410.236 -56.466 C 410.236 -58.066 410.436 -59.666 410.936 -60.966 C 411.436 -62.366 411.836 -63.666 412.736 -64.766 C 413.436 -65.866 414.536 -66.766 415.636 -67.466 C 416.736 -68.166 418.136 -68.366 419.736 -68.366 C 422.236 -68.366 424.736 -67.266 426.536 -65.466 C 428.536 -62.966 429.436 -60.066 429.236 -56.866 C 429.136 -53.766 428.236 -50.866 426.436 -48.366 Z M 385.336 -73.566 C 384.636 -75.566 383.536 -77.666 381.936 -79.166 C 380.536 -80.566 378.736 -81.666 376.936 -82.366 C 374.936 -83.066 372.836 -83.266 370.836 -83.266 C 369.078 -83.279 367.327 -83.044 365.636 -82.566 C 364.036 -82.066 362.736 -81.466 361.336 -80.766 C 359.936 -80.066 358.836 -79.166 357.936 -78.066 C 357.036 -77.366 356.336 -76.466 355.636 -75.566 L 354.936 -75.566 C 353.836 -77.866 352.036 -79.866 349.736 -81.166 C 347.236 -82.566 344.536 -83.166 341.636 -83.166 C 339.836 -83.166 338.236 -82.966 336.636 -82.266 C 335.236 -81.766 333.936 -81.166 332.536 -80.266 C 331.436 -79.566 330.536 -78.666 329.636 -77.566 C 328.936 -76.866 328.536 -76.166 327.836 -75.566 L 327.336 -75.566 L 327.336 -82.766 L 312.336 -82.766 L 312.336 -34.566 L 328.336 -34.566 L 328.336 -54.666 C 328.336 -56.266 328.536 -58.066 328.836 -59.666 C 329.036 -61.266 329.536 -62.866 330.236 -64.166 C 330.936 -65.566 331.836 -66.666 332.936 -67.566 C 334.336 -68.466 335.836 -68.966 337.436 -68.966 C 339.036 -68.966 341.236 -67.366 341.236 -62.866 L 341.236 -34.466 L 357.236 -34.466 L 357.236 -54.466 C 357.244 -56.211 357.412 -57.951 357.736 -59.666 C 357.936 -61.266 358.436 -62.866 359.336 -64.166 C 360.036 -65.566 360.936 -66.466 362.036 -67.366 C 363.436 -68.266 364.936 -68.766 366.336 -68.466 C 369.036 -68.466 370.136 -65.066 370.136 -62.366 L 370.136 -34.466 L 386.336 -34.466 L 386.336 -65.266 C 386.536 -67.966 386.036 -70.866 385.336 -73.566 Z M 475.736 7.534 C 459.936 7.534 447.336 -5.266 447.136 -20.866 L 462.736 -20.866 C 462.736 -13.866 468.636 -8.066 475.536 -8.066 C 482.436 -8.066 488.336 -13.666 488.336 -20.866 L 503.936 -20.866 C 504.136 -5.366 491.536 7.534 475.736 7.534 Z M 484.536 -62.566 L 484.536 -54.266 C 484.736 -51.066 482.936 -47.966 480.236 -46.366 C 477.536 -44.766 473.936 -44.766 471.236 -46.366 C 468.536 -47.966 466.736 -51.066 466.936 -54.266 L 466.936 -92.766 C 467.136 -95.966 466.436 -99.066 465.336 -102.266 C 464.436 -104.266 463.036 -106.066 461.536 -107.666 C 459.936 -108.766 458.136 -109.666 456.136 -110.166 C 454.336 -110.666 443.936 -110.366 441.236 -110.366 L 441.236 -96.366 L 449.536 -96.366 C 450.436 -96.366 451.336 -95.666 451.336 -94.566 L 451.336 -54.466 C 451.136 -45.666 455.836 -37.366 463.536 -32.866 C 471.236 -28.366 480.636 -28.366 488.336 -32.866 C 496.036 -37.366 500.536 -45.666 500.536 -54.466 L 500.536 -62.766 L 484.536 -62.566 Z" fill="#000"></path>
    <g>
      <path d="M 270.713 254.174 C 270.713 249.774 272.313 245.374 274.813 241.774 L 274.813 194.574 L 155.113 194.574 L 155.113 314.374 L 274.913 314.374 L 274.913 266.574 C 272.113 262.974 270.713 258.874 270.713 254.174 Z" fill="#F48F00"></path>
      <path d="M 211.114 220.074 L 203.114 221.674 C 202.314 221.974 202.014 222.174 202.014 223.074 L 202.014 254.974 C 202.014 256.574 202.014 258.274 201.514 259.874 C 201.014 262.374 199.614 263.974 196.814 264.774 C 195.414 265.074 194.114 265.274 192.714 265.074 C 188.914 264.574 186.714 262.874 185.814 259.574 C 185.314 257.974 185.314 256.574 185.314 254.874 L 185.314 220.674 C 185.314 219.874 185.014 219.574 184.214 219.874 L 176.514 221.474 C 175.714 221.774 175.414 221.974 175.414 222.874 L 175.414 255.874 C 175.414 257.274 175.414 258.874 175.714 260.274 C 176.514 266.274 179.514 270.674 185.314 273.174 C 188.914 274.774 192.714 275.074 196.614 274.574 C 205.914 273.474 212.314 266.874 212.314 257.574 L 212.314 220.874 C 212.214 220.074 211.914 219.874 211.114 220.074 Z M 252.314 240.974 C 246.814 234.074 236.114 231.074 226.714 237.174 C 226.714 235.774 226.714 234.174 226.414 233.074 C 226.414 232.274 226.414 231.974 225.614 232.274 L 217.914 234.174 C 217.114 234.474 216.814 234.674 216.814 235.574 L 216.814 287.474 L 225.914 285.274 C 226.714 284.974 226.414 284.474 226.414 284.174 L 226.414 272.574 C 226.414 272.074 226.414 271.774 226.714 271.174 C 236.014 277.174 246.514 274.174 252.314 267.074 C 258.414 259.674 258.414 248.674 252.314 240.974 Z M 241.314 265.474 C 234.714 268.174 227.614 264.074 226.214 256.974 C 225.914 255.874 225.914 255.074 225.914 254.474 C 225.914 248.974 229.514 244.274 234.414 243.174 C 240.714 241.774 246.814 245.874 247.914 252.274 C 249.014 258.074 246.314 263.274 241.314 265.474 Z" fill="#FEFEFE"></path>
      <path d="M 305.914 221.474 L 305.914 237.974 C 301.814 234.974 298.814 233.874 294.614 233.874 C 284.214 233.874 275.414 243.174 275.414 254.174 C 275.414 265.174 284.214 274.474 294.414 274.474 C 298.514 274.474 302.114 273.074 306.514 269.574 L 306.514 274.274 L 314.714 273.174 L 314.714 220.374 L 305.914 221.474 Z M 295.514 265.974 C 289.214 265.974 284.514 260.774 284.514 254.174 C 284.514 247.874 289.414 242.674 295.214 242.674 C 301.214 242.674 306.514 248.174 306.514 254.474 C 306.514 260.774 301.514 265.974 295.514 265.974 Z M 357.014 269.574 C 352.214 272.974 346.414 274.774 340.514 274.774 C 328.714 274.774 319.314 265.674 319.314 253.874 C 319.314 242.374 328.914 232.974 340.514 232.974 C 346.314 232.974 352.014 235.474 355.914 239.574 C 357.314 241.174 358.414 242.574 359.514 245.374 L 332.314 261.874 C 334.214 264.574 336.714 265.974 340.514 265.974 C 344.314 265.974 347.614 264.574 352.914 261.274 L 357.014 269.574 Z M 347.714 244.274 C 345.514 242.374 343.614 241.774 341.114 241.774 C 334.514 241.774 329.014 247.274 329.014 253.874 L 329.014 255.474 L 347.714 244.274 Z M 341.614 218.174 L 352.114 218.174 L 342.214 229.174 L 333.914 229.174 L 341.614 218.174 Z M 373.514 271.474 C 373.514 278.074 372.414 281.874 369.714 284.674 C 367.014 287.374 364.214 288.474 359.314 288.474 L 356.614 288.474 L 353.914 279.674 L 356.114 279.674 C 359.414 279.674 361.914 278.874 363.214 277.174 C 364.314 275.774 364.614 274.674 364.614 271.374 L 364.614 234.674 L 373.914 233.574 L 373.514 271.474 Z M 363.114 224.974 L 369.514 218.574 L 375.914 224.974 L 369.514 231.374 L 363.114 224.974 Z M 400.214 265.974 C 396.414 265.974 393.914 264.574 392.014 261.874 L 419.214 245.374 C 418.114 242.674 417.014 241.274 415.614 239.574 C 411.814 235.474 406.014 232.974 400.214 232.974 C 388.714 232.974 379.014 242.274 379.014 253.874 C 379.014 265.674 388.314 274.774 400.214 274.774 C 406.214 274.774 412.014 272.874 416.714 269.574 L 412.614 261.374 C 407.314 264.674 404.014 265.974 400.214 265.974 Z M 388.414 253.974 C 388.414 247.374 393.914 241.874 400.514 241.874 C 403.014 241.874 404.914 242.374 407.114 244.374 L 388.414 255.674 L 388.414 253.974 Z M 448.013 273.674 L 448.013 268.774 C 444.213 272.874 441.414 274.274 437.014 274.274 C 432.614 274.274 428.814 272.374 426.614 269.374 C 425.014 267.174 424.414 264.474 424.414 260.074 L 424.414 234.374 L 433.714 233.274 L 433.714 255.574 L 434.014 261.374 C 434.514 263.574 436.714 265.174 439.214 265.174 C 441.914 265.174 444.713 263.774 446.113 261.874 C 447.513 260.274 447.713 258.074 447.713 253.674 L 447.713 234.374 L 457.013 233.274 L 457.013 272.274 C 457.113 272.374 448.013 273.674 448.013 273.674 Z M 488.413 273.674 L 488.413 249.774 C 488.413 246.774 488.113 245.674 487.613 244.574 C 486.813 242.974 484.613 241.874 482.713 241.874 C 479.713 241.874 476.913 243.474 475.613 245.974 C 474.813 247.574 474.513 249.774 474.513 254.174 L 474.513 272.874 L 465.213 273.974 L 465.213 234.674 L 474.313 233.574 L 474.313 239.074 C 476.813 234.674 480.113 233.074 485.013 233.074 C 489.113 233.074 492.413 234.674 494.613 237.174 C 496.813 239.874 497.613 242.374 497.613 247.374 L 497.613 272.674 C 497.513 272.574 488.413 273.674 488.413 273.674 Z M 542.013 269.574 C 537.213 272.974 531.413 274.774 525.513 274.774 C 513.713 274.774 504.313 265.674 504.313 253.874 C 504.313 242.374 513.913 232.974 525.513 232.974 C 531.313 232.974 537.013 235.474 540.913 239.574 C 542.313 241.174 543.413 242.574 544.513 245.374 L 517.313 261.874 C 519.213 264.574 521.713 265.974 525.513 265.974 C 529.313 265.974 532.613 264.574 537.913 261.274 L 542.013 269.574 Z M 532.613 244.274 C 530.413 242.374 528.513 241.774 526.013 241.774 C 519.413 241.774 513.913 247.274 513.913 253.874 L 513.913 255.474 L 532.613 244.274 Z M 548.313 273.674 L 548.313 234.674 L 557.613 233.574 L 557.613 239.874 C 561.213 234.374 564.213 232.774 570.813 232.774 L 572.713 232.774 L 569.113 243.174 L 567.713 243.174 C 564.413 243.174 561.713 244.574 560.013 246.774 C 558.413 248.674 557.513 252.574 557.513 257.474 L 557.513 272.874 C 557.613 272.874 548.313 273.674 548.313 273.674 Z" fill="#F48F00"></path>
    </g>
    <path d="M 509.599 85.301 C 517.62 85.301 520.857 90.898 520.857 94.745 L 498.34 94.745 C 498.34 90.852 501.613 85.301 509.599 85.301 Z M 519.045 112.018 C 517.546 114.938 514.114 116.914 509.682 116.914 C 501.312 116.914 498.003 110.929 497.913 105.598 L 539.493 105.598 C 539.609 104.848 539.915 102.716 539.915 101.054 C 539.915 82.228 526.996 71.598 509.534 71.598 C 491.128 71.598 478.255 82.228 478.255 101.054 C 478.255 120.019 491.127 130.51 509.643 130.51 C 527.849 130.51 536.403 120.457 538.687 112.018 L 519.045 112.018 Z M 219.886 113.593 C 212.419 113.593 207.116 108.226 207.116 101.101 C 207.116 94.308 212.096 88.61 219.886 88.61 C 227.677 88.61 232.653 94.341 232.653 101.101 C 232.653 107.967 227.609 113.593 219.886 113.593 Z M 225.473 72.165 C 217.28 72.165 210.252 75.789 206.628 80.048 L 206.616 73.276 L 187.911 73.276 L 187.911 151.054 L 207.193 151.054 L 207.193 123.207 C 211.716 128.089 218.015 129.943 224.384 129.943 C 243.486 129.943 252.347 115.468 252.347 101.053 C 252.347 83.265 240.966 72.165 225.473 72.165 Z M 278.061 51.054 L 258.7 51.054 L 258.7 128.832 L 278.061 128.832 L 278.061 51.054 Z M 324.778 73.276 L 324.778 102.164 C 324.778 106.543 324.176 108.67 322.387 110.793 C 320.659 112.844 317.947 113.811 314.94 113.811 C 311.935 113.811 309.218 112.844 307.489 110.793 C 305.7 108.67 305.102 106.543 305.102 102.164 L 305.102 73.274 L 285.813 73.274 L 285.816 103.881 C 285.816 112.485 287.128 118.101 291.248 122.874 C 295.605 127.922 302.26 129.929 308.776 129.929 C 316.409 129.929 321.696 127.054 325.35 122.819 L 325.362 128.831 L 344.066 128.831 L 344.066 73.276 L 324.778 73.276 Z M 406.948 73.276 L 393.767 73.276 L 379.242 88.1 L 364.716 73.276 L 351.536 73.276 L 351.536 86.491 L 366.322 101.054 L 351.536 115.617 L 351.536 128.832 L 364.717 128.832 L 379.242 114.008 L 393.767 128.832 L 406.947 128.832 L 406.947 115.617 L 392.162 101.054 L 406.948 86.491 L 406.948 73.276 Z M 442.571 85.301 C 450.592 85.301 453.829 90.898 453.829 94.745 L 431.312 94.745 C 431.312 90.852 434.585 85.301 442.571 85.301 Z M 452.017 112.018 C 450.518 114.938 447.086 116.914 442.654 116.914 C 434.284 116.914 430.974 110.929 430.885 105.598 L 472.466 105.598 C 472.582 104.848 472.888 102.716 472.888 101.054 C 472.888 82.228 459.968 71.598 442.507 71.598 C 424.1 71.598 411.227 82.228 411.227 101.054 C 411.227 120.019 424.1 130.51 442.615 130.51 C 460.822 130.51 469.375 120.457 471.66 112.018 L 452.017 112.018 Z"></path>
  </g>
</svg>
