<?xml version="1.0" encoding="UTF-8" standalone="no"?>
<svg width="1131" height="120" fill="none"
    xmlns="http://www.w3.org/2000/svg">
    <g clip-path="url(#a)">
        <mask id="b" style="mask-type:luminance" maskUnits="userSpaceOnUse" x="0" y="0" width="1131" height="120">
            <path d="M0 0h1130.6v120H0V0Z" fill="#fff"/>
        </mask>
        <g mask="url(#b)">
            <path d="M70.673 23.39a7.9 7.9 0 1 0-2.53-15.596 7.9 7.9 0 0 0 2.53 15.596Zm200.094 4.707a7.899 7.899 0 0 0 6.534-9.063 7.902 7.902 0 0 0-14.208-3.355 7.899 7.899 0 0 0 1.789 11.029 7.902 7.902 0 0 0 5.885 1.39ZM51.999 44.6c-.9-1.6-2.3-2.9-3.6-4.1-1.6-1.4-3.4-2.3-5.4-2.7h-.2V37l.2-.2c2.7-1.6 5-3.8 6.5-6.8 1.4-2.9 2.3-5.9 2.3-9 0-2.9-.7-5.9-1.8-8.3-1.4-2.5-2.9-4.5-5.2-6.1-2.5-1.8-5.2-2.9-8.1-3.6-3.4-.9-7-1.4-10.4-1.4H.2v75.3h25.7c3.6 0 7.2-.5 10.8-1.1 3.4-.7 6.3-2 9.2-3.8 2.7-1.8 4.7-4.1 6.3-6.8 2.3-4.7 2.9-10.4 1.8-15.6a14.16 14.16 0 0 0-2-5ZM15.9 16.2h9.9c2.3-.2 4.3.7 5.9 2 1.1 1.4 1.8 3.2 1.8 5 0 1.8-.7 3.6-1.8 5.2-1.4 1.6-3.4 2.5-5.6 2.3H15.9V16.2Zm18.3 42.9c-1.6 1.8-4.1 2.7-6.5 2.5H15.9v-17h11.9c2.5-.2 4.7.7 6.3 2.5 1.4 1.6 2 3.6 2 5.9.4 2.2-.5 4.5-1.9 6.1Zm44.6 3.8c-.9 0-1.8-.7-1.8-1.8V28.6H61.2v30.9c-.2 3.2.5 6.3 1.6 9.2.9 2 2.3 3.8 3.8 5.4 1.6 1.1 3.4 2 5.4 2.5 3.4.2 6.8.2 10.1.2v-14h-3.3v.1Zm141.6-18.5c-1.1-2.9-2.7-5.6-4.7-7.9-2-2.3-4.3-3.8-7-5-2.7-1.2-5.6-1.8-8.6-1.8-2.3 0-4.3.2-6.5.9-1.6.5-2.9 1.4-4.1 2.3-1.1.9-2.3 2-3.2 3.4h-1.1c-.9-2.3-2.3-4.3-4.1-5.6-1.6-1.4-3.6-2-5.6-2.5l-7.4-.5v14.4c1.1 0 2.3 0 3.4.5v54.5h16V73.7c.9 1.1 2 2.3 3.2 2.9 1.4.9 2.7 1.6 4.1 2 1.8.7 3.8.9 5.9.9 2.9 0 5.9-.7 8.6-1.8 2.5-1.1 5-2.9 6.8-5.2 2-2.3 3.4-5 4.3-7.9 2.4-6.4 2.4-13.4 0-20.2Zm-16.9 18.5c-1.6 2-4.1 3.4-6.8 3.2-1.1 0-2.5-.2-3.6-.7-1.1-.5-2.3-1.1-2.9-2-.9-1.1-1.6-2.3-2-3.6-.5-1.6-.9-3.4-.9-5s.2-3.2.7-4.5c.5-1.4.9-2.7 1.8-3.8.7-1.1 1.8-2 2.9-2.7 1.1-.7 2.5-.9 4.1-.9 2.5 0 5 1.1 6.8 2.9 2 2.5 2.9 5.4 2.7 8.6-.1 3.1-1 6-2.8 8.5Zm-41.1-25.2c-.7-2-1.8-4.1-3.4-5.6-1.4-1.4-3.2-2.5-5-3.2-2-.7-4.1-.9-6.1-.9a18.617 18.617 0 0 0-5.2.7c-1.6.5-2.9 1.1-4.3 1.8s-2.5 1.6-3.4 2.7c-.9.7-1.6 1.6-2.3 2.5h-.7c-1.1-2.3-2.9-4.3-5.2-5.6-2.5-1.4-5.2-2-8.1-2-1.8 0-3.4.2-5 .9-1.4.5-2.7 1.1-4.1 2-1.1.7-2 1.6-2.9 2.7-.7.7-1.1 1.4-1.8 2h-.5v-7.2h-15v48.2h16V56.6c0-1.6.2-3.4.5-5 .2-1.6.7-3.2 1.4-4.5.7-1.4 1.6-2.5 2.7-3.4 1.4-.9 2.9-1.4 4.5-1.4s3.8 1.6 3.8 6.1v28.4h16v-20c.008-1.745.176-3.485.5-5.2.2-1.6.7-3.2 1.6-4.5.7-1.4 1.6-2.3 2.7-3.2 1.4-.9 2.9-1.4 4.3-1.1 2.7 0 3.8 3.4 3.8 6.1v27.9h16.2V46c.2-2.7-.3-5.6-1-8.3Zm90.4 81.1c-15.8 0-28.4-12.8-28.6-28.4h15.6c0 7 5.9 12.8 12.8 12.8s12.8-5.6 12.8-12.8h15.6c.2 15.5-12.4 28.4-28.2 28.4Zm8.8-70.1V57c.2 3.2-1.6 6.3-4.3 7.9-2.7 1.6-6.3 1.6-9 0s-4.5-4.7-4.3-7.9V18.5c.2-3.2-.5-6.3-1.6-9.5-.9-2-2.3-3.8-3.8-5.4-1.6-1.1-3.4-2-5.4-2.5-1.8-.5-12.2-.2-14.9-.2v14h8.3c.9 0 1.8.7 1.8 1.8v40.1c-.2 8.8 4.5 17.1 12.2 21.6 7.7 4.5 17.1 4.5 24.8 0 7.7-4.5 12.2-12.8 12.2-21.6v-8.3l-16 .2Z" fill="#000"/>
            <path d="M828.6 59.7c0-4.4 1.6-8.8 4.1-12.4V.1H713v119.8h119.8V72.1c-2.8-3.6-4.2-7.7-4.2-12.4Z" fill="#F48F00"/>
            <path d="m769.001 25.6-8 1.6c-.8.3-1.1.5-1.1 1.4v31.9c0 1.6 0 3.3-.5 4.9-.5 2.5-1.9 4.1-4.7 4.9-1.4.3-2.7.5-4.1.3-3.8-.5-6-2.2-6.9-5.5-.5-1.6-.5-3-.5-4.7V26.2c0-.8-.3-1.1-1.1-.8l-7.7 1.6c-.8.3-1.1.5-1.1 1.4v33c0 1.4 0 3 .3 4.4.8 6 3.8 10.4 9.6 12.9 3.6 1.6 7.4 1.9 11.3 1.4 9.3-1.1 15.7-7.7 15.7-17V26.4c-.1-.8-.4-1-1.2-.8Zm41.2 20.9c-5.5-6.9-16.2-9.9-25.6-3.8 0-1.4 0-3-.3-4.1 0-.8 0-1.1-.8-.8l-7.7 1.9c-.8.3-1.1.5-1.1 1.4V93l9.1-2.2c.8-.3.5-.8.5-1.1V78.1c0-.5 0-.8.3-1.4 9.3 6 19.8 3 25.6-4.1 6.1-7.4 6.1-18.4 0-26.1Zm-11 24.5c-6.6 2.7-13.7-1.4-15.1-8.5-.3-1.1-.3-1.9-.3-2.5 0-5.5 3.6-10.2 8.5-11.3 6.3-1.4 12.4 2.7 13.5 9.1 1.1 5.8-1.6 11-6.6 13.2Z" fill="#FEFEFE"/>
            <path d="M863.801 27v16.5c-4.1-3-7.1-4.1-11.3-4.1-10.4 0-19.2 9.3-19.2 20.3s8.8 20.3 19 20.3c4.1 0 7.7-1.4 12.1-4.9v4.7l8.2-1.1V25.9l-8.8 1.1Zm-10.4 44.5c-6.3 0-11-5.2-11-11.8 0-6.3 4.9-11.5 10.7-11.5 6 0 11.3 5.5 11.3 11.8 0 6.3-5 11.5-11 11.5Zm61.5 3.6c-4.8 3.4-10.6 5.2-16.5 5.2-11.8 0-21.2-9.1-21.2-20.9 0-11.5 9.6-20.9 21.2-20.9 5.8 0 11.5 2.5 15.4 6.6 1.4 1.6 2.5 3 3.6 5.8l-27.2 16.5c1.9 2.7 4.4 4.1 8.2 4.1 3.8 0 7.1-1.4 12.4-4.7l4.1 8.3Zm-9.3-25.3c-2.2-1.9-4.1-2.5-6.6-2.5-6.6 0-12.1 5.5-12.1 12.1V61l18.7-11.2Zm-6.1-26.1h10.5l-9.9 11h-8.3l7.7-11Zm31.9 53.3c0 6.6-1.1 10.4-3.8 13.2-2.7 2.7-5.5 3.8-10.4 3.8h-2.7l-2.7-8.8h2.2c3.3 0 5.8-.8 7.1-2.5 1.1-1.4 1.4-2.5 1.4-5.8V40.2l9.3-1.1-.4 37.9Zm-10.4-46.5 6.4-6.4 6.4 6.4-6.4 6.4-6.4-6.4Zm37.1 41c-3.8 0-6.3-1.4-8.2-4.1l27.2-16.5c-1.1-2.7-2.2-4.1-3.6-5.8-3.8-4.1-9.6-6.6-15.4-6.6-11.5 0-21.2 9.3-21.2 20.9 0 11.8 9.3 20.9 21.2 20.9 6 0 11.8-1.9 16.5-5.2l-4.1-8.2c-5.3 3.3-8.6 4.6-12.4 4.6Zm-11.8-12c0-6.6 5.5-12.1 12.1-12.1 2.5 0 4.4.5 6.6 2.5l-18.7 11.3v-1.7Zm59.599 19.7v-4.9c-3.8 4.1-6.599 5.5-10.999 5.5s-8.2-1.9-10.4-4.9c-1.6-2.2-2.2-4.9-2.2-9.3V39.9l9.3-1.1v22.3l.3 5.8c.5 2.2 2.7 3.8 5.2 3.8 2.7 0 5.499-1.4 6.899-3.3 1.4-1.6 1.6-3.8 1.6-8.2V39.9l9.3-1.1v39c.1.1-9 1.4-9 1.4Zm40.4 0V55.3c0-3-.3-4.1-.8-5.2-.8-1.6-3-2.7-4.9-2.7-3 0-5.8 1.6-7.1 4.1-.8 1.6-1.1 3.8-1.1 8.2v18.7l-9.3 1.1V40.2l9.1-1.1v5.5c2.5-4.4 5.8-6 10.7-6 4.1 0 7.4 1.6 9.6 4.1 2.2 2.7 3 5.2 3 10.2v25.3c-.1-.1-9.2 1-9.2 1Zm53.6-4.1c-4.8 3.4-10.6 5.2-16.5 5.2-11.8 0-21.2-9.1-21.2-20.9 0-11.5 9.6-20.9 21.2-20.9 5.8 0 11.5 2.5 15.4 6.6 1.4 1.6 2.5 3 3.6 5.8l-27.2 16.5c1.9 2.7 4.4 4.1 8.2 4.1 3.8 0 7.1-1.4 12.4-4.7l4.1 8.3Zm-9.4-25.3c-2.2-1.9-4.1-2.5-6.6-2.5-6.6 0-12.1 5.5-12.1 12.1V61l18.7-11.2Zm15.7 29.4v-39l9.3-1.1v6.3c3.6-5.5 6.6-7.1 13.2-7.1h1.9l-3.6 10.4h-1.4c-3.3 0-6 1.4-7.7 3.6-1.6 1.9-2.5 5.8-2.5 10.7v15.4c.1 0-9.2.8-9.2.8Z" fill="#F48F00"/>
        </g>
        <g clip-path="url(#c)" fill="#221C46">
            <path d="M648.688 34.247c8.021 0 11.258 5.597 11.258 9.444h-22.517c0-3.893 3.273-9.444 11.259-9.444Zm9.446 26.717c-1.499 2.92-4.931 4.896-9.363 4.896-8.37 0-11.679-5.985-11.769-11.316h41.58c.116-.75.422-2.882.422-4.544 0-18.826-12.919-29.456-30.381-29.456-18.406 0-31.279 10.63-31.279 29.456 0 18.965 12.872 29.456 31.388 29.456 18.206 0 26.76-10.053 29.044-18.492h-19.642ZM358.975 62.539c-7.467 0-12.77-5.367-12.77-12.492 0-6.793 4.98-12.491 12.77-12.491 7.791 0 12.767 5.731 12.767 12.491 0 6.866-5.044 12.492-12.767 12.492Zm5.587-41.428c-8.193 0-15.221 3.624-18.845 7.883l-.012-6.772H327V100h19.282V72.153c4.523 4.882 10.822 6.736 17.191 6.736 19.102 0 27.963-14.475 27.963-28.89 0-17.788-11.381-28.888-26.874-28.888ZM417.15 0h-19.361v77.778h19.361V0ZM463.867 22.222V51.11c0 4.379-.602 6.506-2.391 8.629-1.728 2.051-4.44 3.018-7.447 3.018-3.005 0-5.722-.967-7.451-3.018-1.789-2.123-2.387-4.25-2.387-8.629v-28.89h-19.289l.003 30.607c0 8.604 1.312 14.22 5.432 18.993 4.357 5.048 11.012 7.055 17.528 7.055 7.633 0 12.92-2.875 16.574-7.11l.012 6.012h18.704V22.222h-19.288ZM546.037 22.222h-13.181l-14.525 14.824-14.526-14.824h-13.18v13.215L505.411 50l-14.786 14.563v13.215h13.181l14.525-14.824 14.525 14.824h13.18V64.563L531.251 50l14.786-14.563V22.222ZM581.66 34.247c8.021 0 11.258 5.597 11.258 9.444h-22.517c0-3.893 3.273-9.444 11.259-9.444Zm9.446 26.717c-1.499 2.92-4.931 4.896-9.363 4.896-8.37 0-11.68-5.985-11.769-11.316h41.581c.116-.75.422-2.882.422-4.544 0-18.826-12.92-29.456-30.381-29.456-18.407 0-31.28 10.63-31.28 29.456 0 18.965 12.873 29.456 31.388 29.456 18.207 0 26.76-10.053 29.045-18.492h-19.643Z"/>
        </g>
    </g>
    <defs>
        <clipPath id="a">
            <path fill="#fff" d="M0 0h1131v120H0z"/>
        </clipPath>
        <clipPath id="c">
            <path fill="#fff" d="M327 0h352v100H327z"/>
        </clipPath>
    </defs>
</svg>
