<?xml version="1.0" encoding="UTF-8" standalone="no"?>
<svg xmlns="http://www.w3.org/2000/svg" viewBox="0 0 400 200">
  <defs></defs>
  <g clip-path="url(#a)" transform="matrix(0.845199, 0, 0, 0.845199, -108.611198, 5.389154)" style="">
    <g transform="matrix(1.145575, 0, 0, 1.145575, -50.702637, -104.529968)" style="">
      <path d="M 200.351 99.656 C 204 99.079 205.655 94.768 203.331 91.897 C 202.244 90.554 200.518 89.898 198.814 90.182 C 195.17 90.787 193.548 95.112 195.895 97.965 C 196.975 99.278 198.67 99.922 200.351 99.656 Z M 321.906 102.516 C 324.523 102.092 326.3 99.626 325.876 97.01 C 325.283 93.363 320.964 91.725 318.101 94.062 C 317.777 94.327 317.489 94.633 317.244 94.972 C 315.694 97.122 316.18 100.122 318.331 101.672 C 319.364 102.416 320.649 102.72 321.906 102.516 Z M 189.006 112.541 C 188.46 111.569 187.609 110.779 186.82 110.05 C 185.848 109.2 184.754 108.653 183.539 108.41 L 183.418 108.41 L 183.418 107.924 L 183.539 107.803 C 185.179 106.831 186.577 105.494 187.488 103.672 C 188.338 101.91 188.885 100.088 188.885 98.204 C 188.885 96.443 188.46 94.62 187.792 93.162 C 186.941 91.643 186.03 90.428 184.633 89.456 C 183.114 88.363 181.474 87.695 179.712 87.269 C 177.646 86.723 175.459 86.419 173.394 86.419 L 157.539 86.419 L 157.539 132.163 L 173.152 132.163 C 175.339 132.163 177.526 131.859 179.712 131.495 C 181.778 131.07 183.54 130.28 185.301 129.186 C 186.942 128.093 188.157 126.696 189.129 125.055 C 190.526 122.2 190.89 118.738 190.222 115.579 C 190.015 114.498 189.602 113.466 189.007 112.541 L 189.006 112.541 Z M 167.077 95.288 L 173.091 95.288 C 174.488 95.167 175.703 95.714 176.675 96.503 C 177.343 97.354 177.769 98.447 177.769 99.541 C 177.769 100.634 177.343 101.728 176.675 102.7 C 175.825 103.672 174.61 104.218 173.273 104.097 L 167.077 104.097 L 167.077 95.288 Z M 178.194 121.35 C 177.222 122.443 175.703 122.99 174.245 122.868 L 167.077 122.868 L 167.077 112.541 L 174.306 112.541 C 175.825 112.42 177.161 112.966 178.133 114.06 C 178.983 115.032 179.348 116.247 179.348 117.644 C 179.591 118.981 179.044 120.378 178.194 121.35 Z M 205.288 123.658 C 204.741 123.658 204.194 123.233 204.194 122.565 L 204.194 102.821 L 194.596 102.821 L 194.596 121.593 C 194.475 123.537 194.9 125.42 195.568 127.182 C 196.115 128.397 196.965 129.49 197.876 130.462 C 198.848 131.13 199.942 131.677 201.157 131.981 C 203.222 132.102 205.288 132.102 207.293 132.102 L 207.293 123.597 L 205.288 123.597 L 205.288 123.658 Z M 291.309 112.42 C 290.641 110.658 289.669 109.018 288.454 107.62 C 287.239 106.223 285.841 105.312 284.201 104.583 C 282.561 103.854 280.799 103.489 278.977 103.489 C 277.579 103.489 276.364 103.611 275.028 104.036 C 274.056 104.34 273.266 104.887 272.537 105.433 C 271.869 105.98 271.14 106.648 270.593 107.499 L 269.925 107.499 C 269.378 106.102 268.528 104.887 267.434 104.097 C 266.462 103.246 265.247 102.882 264.032 102.578 L 259.537 102.274 L 259.537 111.022 C 260.205 111.022 260.934 111.022 261.602 111.326 L 261.602 144.434 L 271.322 144.434 L 271.322 130.219 C 271.869 130.887 272.537 131.616 273.266 131.981 C 274.117 132.528 274.906 132.953 275.757 133.196 C 276.85 133.621 278.065 133.743 279.341 133.743 C 281.103 133.743 282.925 133.317 284.566 132.649 C 286.084 131.981 287.603 130.887 288.697 129.49 C 289.912 128.093 290.762 126.453 291.309 124.691 C 292.767 120.803 292.767 116.551 291.309 112.42 Z M 281.042 123.658 C 280.07 124.873 278.551 125.724 276.911 125.602 C 276.243 125.602 275.392 125.481 274.724 125.177 C 274.056 124.873 273.327 124.509 272.963 123.962 C 272.416 123.294 271.991 122.565 271.748 121.775 C 271.444 120.803 271.201 119.709 271.201 118.738 C 271.201 117.766 271.322 116.794 271.626 116.004 C 271.93 115.153 272.173 114.364 272.72 113.695 C 273.145 113.027 273.813 112.48 274.481 112.055 C 275.149 111.63 276 111.508 276.972 111.508 C 278.491 111.508 280.009 112.177 281.103 113.27 C 282.318 114.789 282.865 116.551 282.743 118.495 C 282.682 120.378 282.136 122.139 281.042 123.658 Z M 256.074 108.349 C 255.649 107.134 254.981 105.859 254.009 104.947 C 253.158 104.097 252.065 103.429 250.971 103.003 C 249.756 102.578 248.481 102.457 247.266 102.457 C 246.198 102.449 245.134 102.592 244.107 102.882 C 243.135 103.186 242.345 103.55 241.494 103.975 C 240.644 104.401 239.976 104.947 239.429 105.616 C 238.882 106.041 238.457 106.588 238.032 107.134 L 237.606 107.134 C 236.938 105.737 235.845 104.522 234.448 103.732 C 232.929 102.882 231.289 102.517 229.527 102.517 C 228.433 102.517 227.461 102.639 226.489 103.064 C 225.639 103.368 224.849 103.732 223.999 104.279 C 223.33 104.704 222.784 105.251 222.237 105.919 C 221.812 106.345 221.569 106.77 221.143 107.134 L 220.84 107.134 L 220.84 102.76 L 211.727 102.76 L 211.727 132.042 L 221.447 132.042 L 221.447 119.831 C 221.447 118.859 221.569 117.766 221.751 116.794 C 221.872 115.822 222.176 114.85 222.601 114.06 C 223.027 113.209 223.573 112.541 224.242 111.994 C 225.092 111.448 226.003 111.144 226.975 111.144 C 227.947 111.144 229.284 112.116 229.284 114.85 L 229.284 132.102 L 239.004 132.102 L 239.004 119.952 C 239.009 118.892 239.111 117.835 239.307 116.794 C 239.429 115.822 239.733 114.85 240.279 114.06 C 240.705 113.209 241.251 112.663 241.92 112.116 C 242.77 111.569 243.681 111.265 244.532 111.448 C 246.172 111.448 246.84 113.513 246.84 115.153 L 246.84 132.102 L 256.682 132.102 L 256.682 113.392 C 256.803 111.751 256.499 109.99 256.074 108.349 Z M 310.992 157.617 C 301.393 157.617 293.739 149.841 293.617 140.364 L 303.094 140.364 C 303.094 144.617 306.678 148.14 310.87 148.14 C 315.062 148.14 318.646 144.738 318.646 140.364 L 328.123 140.364 C 328.244 149.78 320.59 157.617 310.992 157.617 Z M 316.337 115.032 L 316.337 120.074 C 316.459 122.018 315.365 123.901 313.725 124.873 C 312.085 125.845 309.898 125.845 308.258 124.873 C 306.618 123.901 305.524 122.018 305.646 120.074 L 305.646 96.686 C 305.767 94.742 305.342 92.858 304.674 90.914 C 304.127 89.699 303.276 88.606 302.365 87.634 C 301.393 86.966 300.3 86.419 299.085 86.115 C 297.991 85.811 291.673 85.994 290.033 85.994 L 290.033 94.499 L 295.075 94.499 C 295.622 94.499 296.169 94.924 296.169 95.592 L 296.169 119.952 C 296.047 125.298 298.902 130.341 303.58 133.074 C 308.258 135.808 313.968 135.808 318.646 133.074 C 323.324 130.341 326.057 125.298 326.057 119.952 L 326.057 114.91 L 316.337 115.032 Z" fill="#000" style=""></path>
      <path d="M 550.693 112.208 C 555.566 112.208 557.532 115.608 557.532 117.945 L 543.854 117.945 C 543.854 115.58 545.842 112.208 550.693 112.208 Z M 556.432 128.439 C 555.521 130.212 553.436 131.413 550.744 131.413 C 545.659 131.413 543.649 127.777 543.594 124.538 L 568.854 124.538 C 568.924 124.083 569.11 122.788 569.11 121.778 C 569.11 110.341 561.262 103.884 550.654 103.884 C 539.472 103.884 531.652 110.341 531.652 121.778 C 531.652 133.299 539.472 139.672 550.72 139.672 C 561.78 139.672 566.977 133.565 568.364 128.439 L 556.432 128.439 Z M 374.695 129.395 C 370.159 129.395 366.937 126.135 366.937 121.807 C 366.937 117.68 369.963 114.218 374.695 114.218 C 379.428 114.218 382.451 117.7 382.451 121.807 C 382.451 125.978 379.387 129.395 374.695 129.395 Z M 378.089 104.228 C 373.112 104.228 368.842 106.43 366.641 109.017 L 366.634 104.903 L 355.27 104.903 L 355.27 152.153 L 366.984 152.153 L 366.984 135.236 C 369.732 138.202 373.558 139.328 377.427 139.328 C 389.032 139.328 394.415 130.534 394.415 121.777 C 394.415 110.971 387.501 104.228 378.089 104.228 Z M 410.036 91.403 L 398.274 91.403 L 398.274 138.653 L 410.036 138.653 L 410.036 91.403 Z M 438.416 104.903 L 438.416 122.452 C 438.416 125.113 438.05 126.405 436.964 127.694 C 435.914 128.94 434.266 129.528 432.44 129.528 C 430.614 129.528 428.963 128.94 427.913 127.694 C 426.826 126.405 426.463 125.113 426.463 122.452 L 426.463 104.902 L 414.745 104.902 L 414.747 123.495 C 414.747 128.722 415.544 132.134 418.047 135.033 C 420.694 138.1 424.737 139.319 428.695 139.319 C 433.332 139.319 436.544 137.573 438.764 135 L 438.771 138.652 L 450.133 138.652 L 450.133 104.903 L 438.416 104.903 Z M 488.334 104.903 L 480.326 104.903 L 471.502 113.909 L 462.678 104.903 L 454.671 104.903 L 454.671 112.931 L 463.654 121.778 L 454.671 130.625 L 454.671 138.653 L 462.679 138.653 L 471.502 129.647 L 480.326 138.653 L 488.333 138.653 L 488.333 130.625 L 479.351 121.778 L 488.334 112.931 L 488.334 104.903 Z M 509.974 112.208 C 514.847 112.208 516.814 115.608 516.814 117.945 L 503.135 117.945 C 503.135 115.58 505.123 112.208 509.974 112.208 Z M 515.713 128.439 C 514.802 130.212 512.717 131.413 510.025 131.413 C 504.94 131.413 502.929 127.777 502.875 124.538 L 528.135 124.538 C 528.206 124.083 528.392 122.788 528.392 121.778 C 528.392 110.341 520.543 103.884 509.935 103.884 C 498.753 103.884 490.933 110.341 490.933 121.778 C 490.933 133.299 498.753 139.672 510.001 139.672 C 521.062 139.672 526.258 133.565 527.646 128.439 L 515.713 128.439 Z" style=""></path>
    </g>
    <g transform="matrix(1.120795, 0, 0, 1.120795, -45.113583, -121.474396)" style="">
      <path d="M 270.713 254.174 C 270.713 249.774 272.313 245.374 274.813 241.774 L 274.813 194.574 L 155.113 194.574 L 155.113 314.374 L 274.913 314.374 L 274.913 266.574 C 272.113 262.974 270.713 258.874 270.713 254.174 Z" fill="#F48F00"></path>
      <path d="M 211.114 220.074 L 203.114 221.674 C 202.314 221.974 202.014 222.174 202.014 223.074 L 202.014 254.974 C 202.014 256.574 202.014 258.274 201.514 259.874 C 201.014 262.374 199.614 263.974 196.814 264.774 C 195.414 265.074 194.114 265.274 192.714 265.074 C 188.914 264.574 186.714 262.874 185.814 259.574 C 185.314 257.974 185.314 256.574 185.314 254.874 L 185.314 220.674 C 185.314 219.874 185.014 219.574 184.214 219.874 L 176.514 221.474 C 175.714 221.774 175.414 221.974 175.414 222.874 L 175.414 255.874 C 175.414 257.274 175.414 258.874 175.714 260.274 C 176.514 266.274 179.514 270.674 185.314 273.174 C 188.914 274.774 192.714 275.074 196.614 274.574 C 205.914 273.474 212.314 266.874 212.314 257.574 L 212.314 220.874 C 212.214 220.074 211.914 219.874 211.114 220.074 Z M 252.314 240.974 C 246.814 234.074 236.114 231.074 226.714 237.174 C 226.714 235.774 226.714 234.174 226.414 233.074 C 226.414 232.274 226.414 231.974 225.614 232.274 L 217.914 234.174 C 217.114 234.474 216.814 234.674 216.814 235.574 L 216.814 287.474 L 225.914 285.274 C 226.714 284.974 226.414 284.474 226.414 284.174 L 226.414 272.574 C 226.414 272.074 226.414 271.774 226.714 271.174 C 236.014 277.174 246.514 274.174 252.314 267.074 C 258.414 259.674 258.414 248.674 252.314 240.974 Z M 241.314 265.474 C 234.714 268.174 227.614 264.074 226.214 256.974 C 225.914 255.874 225.914 255.074 225.914 254.474 C 225.914 248.974 229.514 244.274 234.414 243.174 C 240.714 241.774 246.814 245.874 247.914 252.274 C 249.014 258.074 246.314 263.274 241.314 265.474 Z" fill="#FEFEFE"></path>
      <path d="M 305.914 221.474 L 305.914 237.974 C 301.814 234.974 298.814 233.874 294.614 233.874 C 284.214 233.874 275.414 243.174 275.414 254.174 C 275.414 265.174 284.214 274.474 294.414 274.474 C 298.514 274.474 302.114 273.074 306.514 269.574 L 306.514 274.274 L 314.714 273.174 L 314.714 220.374 L 305.914 221.474 Z M 295.514 265.974 C 289.214 265.974 284.514 260.774 284.514 254.174 C 284.514 247.874 289.414 242.674 295.214 242.674 C 301.214 242.674 306.514 248.174 306.514 254.474 C 306.514 260.774 301.514 265.974 295.514 265.974 Z M 357.014 269.574 C 352.214 272.974 346.414 274.774 340.514 274.774 C 328.714 274.774 319.314 265.674 319.314 253.874 C 319.314 242.374 328.914 232.974 340.514 232.974 C 346.314 232.974 352.014 235.474 355.914 239.574 C 357.314 241.174 358.414 242.574 359.514 245.374 L 332.314 261.874 C 334.214 264.574 336.714 265.974 340.514 265.974 C 344.314 265.974 347.614 264.574 352.914 261.274 L 357.014 269.574 Z M 347.714 244.274 C 345.514 242.374 343.614 241.774 341.114 241.774 C 334.514 241.774 329.014 247.274 329.014 253.874 L 329.014 255.474 L 347.714 244.274 Z M 341.614 218.174 L 352.114 218.174 L 342.214 229.174 L 333.914 229.174 L 341.614 218.174 Z M 373.514 271.474 C 373.514 278.074 372.414 281.874 369.714 284.674 C 367.014 287.374 364.214 288.474 359.314 288.474 L 356.614 288.474 L 353.914 279.674 L 356.114 279.674 C 359.414 279.674 361.914 278.874 363.214 277.174 C 364.314 275.774 364.614 274.674 364.614 271.374 L 364.614 234.674 L 373.914 233.574 L 373.514 271.474 Z M 363.114 224.974 L 369.514 218.574 L 375.914 224.974 L 369.514 231.374 L 363.114 224.974 Z M 400.214 265.974 C 396.414 265.974 393.914 264.574 392.014 261.874 L 419.214 245.374 C 418.114 242.674 417.014 241.274 415.614 239.574 C 411.814 235.474 406.014 232.974 400.214 232.974 C 388.714 232.974 379.014 242.274 379.014 253.874 C 379.014 265.674 388.314 274.774 400.214 274.774 C 406.214 274.774 412.014 272.874 416.714 269.574 L 412.614 261.374 C 407.314 264.674 404.014 265.974 400.214 265.974 Z M 388.414 253.974 C 388.414 247.374 393.914 241.874 400.514 241.874 C 403.014 241.874 404.914 242.374 407.114 244.374 L 388.414 255.674 L 388.414 253.974 Z M 448.013 273.674 L 448.013 268.774 C 444.213 272.874 441.414 274.274 437.014 274.274 C 432.614 274.274 428.814 272.374 426.614 269.374 C 425.014 267.174 424.414 264.474 424.414 260.074 L 424.414 234.374 L 433.714 233.274 L 433.714 255.574 L 434.014 261.374 C 434.514 263.574 436.714 265.174 439.214 265.174 C 441.914 265.174 444.713 263.774 446.113 261.874 C 447.513 260.274 447.713 258.074 447.713 253.674 L 447.713 234.374 L 457.013 233.274 L 457.013 272.274 C 457.113 272.374 448.013 273.674 448.013 273.674 Z M 488.413 273.674 L 488.413 249.774 C 488.413 246.774 488.113 245.674 487.613 244.574 C 486.813 242.974 484.613 241.874 482.713 241.874 C 479.713 241.874 476.913 243.474 475.613 245.974 C 474.813 247.574 474.513 249.774 474.513 254.174 L 474.513 272.874 L 465.213 273.974 L 465.213 234.674 L 474.313 233.574 L 474.313 239.074 C 476.813 234.674 480.113 233.074 485.013 233.074 C 489.113 233.074 492.413 234.674 494.613 237.174 C 496.813 239.874 497.613 242.374 497.613 247.374 L 497.613 272.674 C 497.513 272.574 488.413 273.674 488.413 273.674 Z M 542.013 269.574 C 537.213 272.974 531.413 274.774 525.513 274.774 C 513.713 274.774 504.313 265.674 504.313 253.874 C 504.313 242.374 513.913 232.974 525.513 232.974 C 531.313 232.974 537.013 235.474 540.913 239.574 C 542.313 241.174 543.413 242.574 544.513 245.374 L 517.313 261.874 C 519.213 264.574 521.713 265.974 525.513 265.974 C 529.313 265.974 532.613 264.574 537.913 261.274 L 542.013 269.574 Z M 532.613 244.274 C 530.413 242.374 528.513 241.774 526.013 241.774 C 519.413 241.774 513.913 247.274 513.913 253.874 L 513.913 255.474 L 532.613 244.274 Z M 548.313 273.674 L 548.313 234.674 L 557.613 233.574 L 557.613 239.874 C 561.213 234.374 564.213 232.774 570.813 232.774 L 572.713 232.774 L 569.113 243.174 L 567.713 243.174 C 564.413 243.174 561.713 244.574 560.013 246.774 C 558.413 248.674 557.513 252.574 557.513 257.474 L 557.513 272.874 C 557.613 272.874 548.313 273.674 548.313 273.674 Z" fill="#F48F00"></path>
    </g>
  </g>
</svg>
