<svg width="166" height="33" viewBox="0 0 166 33" fill="none" xmlns="http://www.w3.org/2000/svg">
<g clip-path="url(#clip0_14629_9498)">
<path d="M16.8523 22.0814V27.3897C23.1686 27.2408 28.0717 22.3602 28.0484 16.3454C28.0251 10.3574 23.0016 5.40041 16.8679 5.30876C10.8661 5.22092 5.71448 9.97164 5.48156 15.9139C5.37286 18.6864 5.36897 21.4742 5.4932 24.2467C5.5592 25.7361 5.08946 26.412 3.57155 26.5495C2.51561 26.645 1.48684 26.9772 0.0543351 27.2866C0.465841 21.7033 -0.799734 16.2728 0.997693 11.0066C3.5599 3.49477 11.2737 -1.0039 19.2787 0.191418C27.171 1.37146 33.1068 7.90561 33.3786 15.7191C33.662 23.7655 28.3551 30.6892 20.3501 32.2168C17.8578 32.6942 15.183 32.2779 12.5897 32.2168C11.2931 32.1862 11.0252 31.3766 11.0369 30.2042C11.0951 25.6406 11.0369 21.077 11.0718 16.5134C11.099 13.2712 13.2497 10.9531 16.2661 10.8118C19.3951 10.6629 22.0117 12.6105 22.3882 15.3754C22.8386 18.6749 21.0334 21.1954 17.6986 21.9134C17.4424 21.9668 17.1823 22.0165 16.8484 22.0814H16.8523Z" fill="#56369F"/>
<path d="M55.8601 8.51562C59.2648 8.51562 61.9706 11.2041 61.9706 15.5042C61.9706 19.8043 59.2609 22.5425 55.8601 22.5425C53.822 22.5425 52.3585 21.5878 51.5859 20.4421L51.5665 26.6402C51.5665 27.3581 51.0618 27.9806 50.3514 28.1486L47.3389 28.8475V8.71039H51.5859V10.6428C52.3546 9.44362 53.822 8.51562 55.8601 8.51562V8.51562ZM54.5946 12.1589C53.0029 12.1589 51.5626 13.358 51.5626 15.531C51.5626 17.7039 53.0029 18.9031 54.5946 18.9031C56.1862 18.9031 57.6498 17.681 57.6498 15.5042C57.6498 13.3275 56.2095 12.155 54.5946 12.155V12.1589Z" fill="#56369F"/>
<path d="M69.4747 8.51562C71.5362 8.51562 73.0036 9.44362 73.749 10.6428V8.71039H77.996V22.3477H73.749V20.4153C72.9803 21.6145 71.5129 22.5425 69.4514 22.5425C66.074 22.5425 63.3643 19.8043 63.3643 15.5042C63.3643 11.2041 66.074 8.51562 69.4747 8.51562ZM70.717 12.1589C69.1253 12.1589 67.6851 13.3313 67.6851 15.508C67.6851 17.6848 69.1253 18.9069 70.717 18.9069C72.3087 18.9069 73.749 17.7077 73.749 15.5348C73.749 13.3618 72.332 12.1627 70.717 12.1627V12.1589Z" fill="#56369F"/>
<path d="M79.6382 8.71094H83.8852L85.8496 18.4606L88.1866 8.71094H92.6822L95.0425 18.4148L96.9797 8.71094H100.978L97.2281 22.3483H92.5346L90.349 13.4998L88.0896 22.3483H83.4194L79.6421 8.71094H79.6382Z" fill="#56369F"/>
<path d="M107.861 8.51562C109.923 8.51562 111.39 9.44362 112.136 10.6428V8.71039H116.383V22.3477H112.136V20.4153C111.367 21.6145 109.9 22.5425 107.838 22.5425C104.461 22.5425 101.751 19.8043 101.751 15.5042C101.751 11.2041 104.457 8.51562 107.861 8.51562ZM109.104 12.1589C107.512 12.1589 106.072 13.3313 106.072 15.508C106.072 17.6848 107.512 18.9069 109.104 18.9069C110.695 18.9069 112.136 17.7077 112.136 15.5348C112.136 13.3618 110.719 12.1627 109.104 12.1627V12.1589Z" fill="#56369F"/>
<path d="M126.348 16.1879H123.716V22.3478H119.469V5.18945H126.352C130.626 5.18945 132.761 7.561 132.761 10.7116C132.761 13.5452 130.801 16.1841 126.352 16.1841L126.348 16.1879ZM126.026 12.8655C127.714 12.8655 128.436 12.0329 128.436 10.7154C128.436 9.39789 127.714 8.56537 126.026 8.56537H123.716V12.8655H126.026Z" fill="#56369F"/>
<path d="M140.235 8.51562C142.296 8.51562 143.763 9.44362 144.509 10.6428V8.71039H148.756V22.3477H144.509V20.4153C143.74 21.6145 142.273 22.5425 140.211 22.5425C136.834 22.5425 134.124 19.8043 134.124 15.5042C134.124 11.2041 136.83 8.51562 140.235 8.51562ZM141.477 12.1589C139.885 12.1589 138.445 13.3313 138.445 15.508C138.445 17.6848 139.885 18.9069 141.477 18.9069C143.068 18.9069 144.509 17.7077 144.509 15.5348C144.509 13.3618 143.092 12.1627 141.477 12.1627V12.1589Z" fill="#56369F"/>
<path d="M161.403 9.05371H166L158.457 26.4985C158.057 27.4227 157.238 28.1062 156.244 28.3392L152.731 29.1679L155.91 22.2289L150.27 9.05753H155.013L158.216 17.5852L161.396 9.05753L161.403 9.05371Z" fill="#56369F"/>
</g>
<defs>
<clipPath id="clip0_14629_9498">
<rect width="166" height="32.4455" fill="white"/>
</clipPath>
</defs>
</svg>
