<?xml version="1.0" encoding="utf-8"?>
<svg width="106" height="37" viewBox="0 0 106 37" fill="none" xmlns="http://www.w3.org/2000/svg">
    <mask id="mask0" maskUnits="userSpaceOnUse" x="0" y="0" width="106" height="37">
        <path d="M96.1739 17.9394C96.7812 18.5467 97.1082 19.3409 97.1549 20.2753C97.1549 20.5088 97.0148 20.6957 96.7812 20.6957H89.2597C89.0261 20.6957 88.8393 20.4621 88.886 20.2285C89.1196 19.2475 89.5867 18.5 90.2875 17.8927C91.0817 17.2386 92.0628 16.8649 93.2774 16.8649C94.492 16.8649 95.4731 17.1919 96.1739 17.9394ZM104.022 27.3295L104.162 27.5164C105.377 29.0114 105.237 31.2071 103.835 32.5152C100.986 35.2247 97.5287 36.6263 93.511 36.6263C90.8481 36.6263 88.4655 36.0189 86.4567 34.8977C85.9428 34.6174 85.4756 34.2904 85.0085 33.9634C84.6347 34.5707 84.1208 35.0379 83.4201 35.3649C81.5981 36.2058 79.7761 36.6263 78.0009 36.6263C75.2446 36.6263 72.862 35.6919 71.04 33.8699C70.6196 33.4962 70.2925 33.029 69.9655 32.6086V32.702C69.9655 34.7576 68.2837 36.3927 66.2749 36.3927H61.8835C59.8279 36.3927 58.1928 34.7109 58.1928 32.702V22.0505L53.8481 33.9167C53.3342 35.3649 51.9327 36.346 50.391 36.346H45.9996C44.4112 36.346 43.0097 35.3182 42.4958 33.8232L41.0943 29.8523L39.7395 33.8699C39.2256 35.3649 37.8241 36.3927 36.2357 36.3927H31.8443C30.3026 36.3927 28.9011 35.4116 28.3872 33.9634L26.1448 27.8902C25.8178 29.1982 25.3039 30.4129 24.5564 31.4874C23.3418 33.3093 21.66 34.7109 19.6044 35.6452C17.6423 36.5328 15.54 37 13.2509 37C10.8216 37 8.43901 36.4861 6.19658 35.4583C4.23446 34.5707 2.41249 33.2159 0.917541 31.5341C-0.343823 30.0859 -0.297105 27.8902 1.01098 26.5354L4.04759 23.3586C4.42133 22.9848 4.84178 22.7045 5.30896 22.471C4.09431 21.7235 3.06653 20.7424 2.22562 19.5745C1.05769 17.9394 0.450369 15.8838 0.450369 13.5013C0.450369 11.0253 1.10441 8.82955 2.36577 6.96086C3.62714 5.13889 5.26224 3.73737 7.31779 2.80303C9.2332 1.86869 11.3355 1.40152 13.5312 1.40152C15.7269 1.40152 17.8292 1.86869 19.838 2.80303C21.6133 3.59722 23.2016 4.76515 24.5564 6.2601C25.3973 7.19444 25.6776 8.50253 25.3973 9.67045H29.415C31.0501 9.67045 32.4516 10.6982 32.9655 12.2399L34.04 15.697L35.1145 12.1932C35.5817 10.6515 37.0299 9.62374 38.665 9.62374H43.4769C45.112 9.62374 46.5135 10.6515 47.0274 12.1932L48.0085 15.2765L48.8961 12.2399C49.3633 10.6515 50.8115 9.57702 52.4466 9.57702H57.3986C57.7256 9.57702 58.0059 9.62374 58.333 9.71717C57.7723 8.73611 57.4453 7.66162 57.4453 6.44697C57.4453 4.67172 58.0994 3.08333 59.4074 1.82197C60.6688 0.607323 62.2572 0 64.0792 0C65.9011 0 67.4895 0.65404 68.7509 1.82197C69.0779 2.14899 69.4049 2.52273 69.6385 2.89646C70.2925 2.38258 71.0867 2.05556 71.9744 2.05556H72.4883C76.6461 2.05556 80.0097 5.41919 80.0097 9.57702V21.5366C80.1966 19.5745 80.7105 17.7058 81.6448 16.024C82.8128 13.875 84.4479 12.1465 86.5501 10.9318C88.6524 9.71717 91.035 9.06313 93.6979 9.06313C97.5287 9.06313 100.565 10.3245 102.761 12.8005C104.863 15.1831 105.938 18.5 105.938 22.6111V24.0593C105.938 25.4609 105.144 26.6755 104.022 27.3295ZM23.5754 24.947C23.5754 23.1717 23.1549 21.7235 22.314 20.649C21.4731 19.5745 20.492 18.7803 19.3241 18.2197C18.1562 17.7058 16.6612 17.1919 14.8393 16.678C13.4845 16.2576 12.4567 15.9306 11.8026 15.697C11.1486 15.4167 10.588 15.0896 10.0741 14.6225C9.60694 14.1553 9.37335 13.5947 9.37335 12.8472C9.37335 11.9596 9.74709 11.2588 10.4478 10.7917C11.1486 10.3245 12.0829 10.0909 13.2042 10.0909C14.2787 10.0909 15.3531 10.3245 16.4276 10.8384C17.2218 11.2121 17.9226 11.6793 18.4365 12.2399C18.5766 12.3801 18.7635 12.4735 18.9971 12.4735C19.184 12.4735 19.4175 12.3801 19.5577 12.2399L22.3607 9.25C22.641 8.9697 22.641 8.50253 22.3607 8.22222C21.2862 7.05429 20.0249 6.11995 18.6234 5.46591C17.035 4.67172 15.3064 4.3447 13.5312 4.3447C11.7559 4.3447 10.0741 4.71843 8.53244 5.46591C6.99077 6.21338 5.72941 7.24116 4.74835 8.64268C3.81401 10.0442 3.34683 11.6326 3.34683 13.5013C3.34683 15.2765 3.76729 16.7247 4.56148 17.846C5.35567 18.9672 6.38345 19.8081 7.55138 20.3687C8.71931 20.9293 10.1208 21.4899 11.8026 21.9571C13.3443 22.3775 14.4188 22.7045 15.0728 22.9381C15.7269 23.1717 16.2875 23.452 16.7547 23.8725C17.2218 24.2929 17.5021 24.8535 17.5021 25.5076C17.5021 26.3018 17.1284 26.9558 16.4276 27.4697C15.7269 27.9369 14.7925 28.2172 13.718 28.2172C12.4567 28.2172 11.1486 27.8902 9.88724 27.2828C8.85946 26.8157 8.01855 26.1616 7.27108 25.3674C7.13093 25.1806 6.89734 25.0871 6.71047 25.0871C6.5236 25.0871 6.29002 25.1806 6.14986 25.3207L3.11325 28.4975C2.83295 28.7778 2.83295 29.245 3.11325 29.5253C4.32789 30.9268 5.82284 32.0013 7.45795 32.7487C9.32663 33.5896 11.2888 34.0101 13.2976 34.0101C15.1196 34.0101 16.8481 33.6364 18.3898 32.9356C19.9314 32.2348 21.1928 31.1604 22.1271 29.8056C23.1082 28.4975 23.5754 26.8157 23.5754 24.947ZM57.3986 12.5202H52.4466C52.1196 12.5202 51.7925 12.7538 51.6991 13.0808L48.4756 24.1995C48.4289 24.3864 48.2888 24.4798 48.1019 24.4798C47.9617 24.4798 47.7749 24.3864 47.7281 24.1995L44.2244 13.0808C44.1309 12.7538 43.8506 12.5669 43.4769 12.5669H38.665C38.338 12.5669 38.0577 12.8005 37.9175 13.0808L34.4138 24.2929C34.367 24.4798 34.1802 24.5732 34.04 24.5732C33.8999 24.5732 33.713 24.4798 33.6663 24.2929L30.1625 13.0808C30.0691 12.7538 29.7888 12.5669 29.415 12.5669H24.7433C24.2294 12.5669 23.8557 13.0808 24.0425 13.5947L31.0968 32.9823C31.1903 33.2626 31.4706 33.4962 31.7976 33.4962H36.189C36.516 33.4962 36.7963 33.3093 36.8898 32.9823L40.6739 21.7235C40.7206 21.5366 40.9074 21.4432 41.0476 21.4432C41.1877 21.4432 41.3746 21.5366 41.4213 21.7235L45.2054 32.9823C45.2989 33.3093 45.5792 33.4962 45.9062 33.4962H50.2976C50.6246 33.4962 50.9049 33.3093 50.9984 32.9823L58.1461 13.548C58.2862 13.0808 57.9592 12.5202 57.3986 12.5202ZM67.0223 13.3144C67.0223 12.8939 66.6953 12.5669 66.2749 12.5669H61.8835C61.463 12.5669 61.136 12.8939 61.136 13.3144V32.702C61.136 33.1225 61.463 33.4495 61.8835 33.4495H66.2749C66.6953 33.4495 67.0223 33.1225 67.0223 32.702V13.3144ZM67.7231 6.44697C67.7231 5.46591 67.3494 4.625 66.6486 3.97096C65.9478 3.31692 65.0602 2.94318 64.0324 2.94318C63.0047 2.94318 62.117 3.2702 61.4163 3.97096C60.7155 4.625 60.3418 5.46591 60.3418 6.44697C60.3418 7.42803 60.7155 8.26894 61.4163 8.92298C62.117 9.57702 63.0047 9.95076 64.0324 9.95076C65.0602 9.95076 65.9478 9.62374 66.6486 8.92298C67.3961 8.26894 67.7231 7.42803 67.7231 6.44697ZM82.6259 31.5341C82.2521 31.0669 81.9251 30.553 81.6448 29.9924C81.4112 29.6187 81.2244 29.1982 81.0842 28.7778C80.9441 28.4508 80.617 28.2639 80.2433 28.3573C79.963 28.4508 79.6827 28.4508 79.4958 28.4508C78.7951 28.4508 78.1878 28.2172 77.7673 27.75C77.3001 27.2828 77.0665 26.6288 77.0665 25.8346V9.57702C77.0665 7.05429 75.011 4.99874 72.4883 4.99874H71.9277C71.5072 4.99874 71.1802 5.32576 71.1802 5.74621V26.3952C71.1802 28.6843 71.8342 30.5063 73.0956 31.7677C74.4037 33.029 76.0388 33.6831 78.0009 33.6831C79.1688 33.6831 80.5703 33.4495 82.3456 32.6086C82.8128 32.375 82.9529 31.9078 82.6259 31.5341ZM102.901 22.6578C102.901 19.2475 102.2 16.6313 100.565 14.8093C98.9302 12.9874 96.641 12.053 93.6979 12.053C91.5489 12.053 89.6802 12.5202 88.0451 13.5013C86.41 14.4823 85.1486 15.7904 84.261 17.4255C83.3734 19.1073 82.9062 20.976 82.9062 23.0316C82.9062 25.0871 83.3266 26.9091 84.2143 28.5442C85.1019 30.1793 86.3633 31.4407 87.9516 32.3283C89.5867 33.2159 91.4554 33.6831 93.6044 33.6831C96.8279 33.6831 99.5842 32.6086 101.873 30.4129C102.154 30.1326 102.2 29.6654 101.92 29.3851L99.9112 26.9091C99.7711 26.7222 99.5375 26.6288 99.3039 26.6288C99.1171 26.6288 98.9302 26.6755 98.79 26.8157C98.2761 27.2828 97.6688 27.6566 97.0148 27.9836C96.1271 28.404 95.1461 28.5909 94.1183 28.5909C92.6701 28.5909 91.5021 28.2172 90.5678 27.5164C89.7736 26.9091 89.2597 26.1616 88.9794 25.3207C88.886 25.0871 89.0729 24.8535 89.3532 24.8535H102.154C102.574 24.8535 102.901 24.5265 102.901 24.1061V22.6578Z" fill="white" />
    </mask>
    <g mask="url(#mask0)">
        <path d="M96.1739 17.9394C96.7812 18.5467 97.1082 19.3409 97.1549 20.2753C97.1549 20.5088 97.0148 20.6957 96.7812 20.6957H89.2597C89.0261 20.6957 88.8393 20.4621 88.886 20.2285C89.1196 19.2475 89.5867 18.5 90.2875 17.8927C91.0817 17.2386 92.0628 16.8649 93.2774 16.8649C94.492 16.8649 95.4731 17.1919 96.1739 17.9394ZM104.022 27.3295L104.162 27.5164C105.377 29.0114 105.237 31.2071 103.835 32.5152C100.986 35.2247 97.5287 36.6263 93.511 36.6263C90.8481 36.6263 88.4655 36.0189 86.4567 34.8977C85.9428 34.6174 85.4756 34.2904 85.0085 33.9634C84.6347 34.5707 84.1208 35.0379 83.4201 35.3649C81.5981 36.2058 79.7761 36.6263 78.0009 36.6263C75.2446 36.6263 72.862 35.6919 71.04 33.8699C70.6196 33.4962 70.2925 33.029 69.9655 32.6086V32.702C69.9655 34.7576 68.2837 36.3927 66.2749 36.3927H61.8835C59.8279 36.3927 58.1928 34.7109 58.1928 32.702V22.0505L53.8481 33.9167C53.3342 35.3649 51.9327 36.346 50.391 36.346H45.9996C44.4112 36.346 43.0097 35.3182 42.4958 33.8232L41.0943 29.8523L39.7395 33.8699C39.2256 35.3649 37.8241 36.3927 36.2357 36.3927H31.8443C30.3026 36.3927 28.9011 35.4116 28.3872 33.9634L26.1448 27.8902C25.8178 29.1982 25.3039 30.4129 24.5564 31.4874C23.3418 33.3093 21.66 34.7109 19.6044 35.6452C17.6423 36.5328 15.54 37 13.2509 37C10.8216 37 8.43901 36.4861 6.19658 35.4583C4.23446 34.5707 2.41249 33.2159 0.917541 31.5341C-0.343823 30.0859 -0.297105 27.8902 1.01098 26.5354L4.04759 23.3586C4.42133 22.9848 4.84178 22.7045 5.30896 22.471C4.09431 21.7235 3.06653 20.7424 2.22562 19.5745C1.05769 17.9394 0.450369 15.8838 0.450369 13.5013C0.450369 11.0253 1.10441 8.82955 2.36577 6.96086C3.62714 5.13889 5.26224 3.73737 7.31779 2.80303C9.2332 1.86869 11.3355 1.40152 13.5312 1.40152C15.7269 1.40152 17.8292 1.86869 19.838 2.80303C21.6133 3.59722 23.2016 4.76515 24.5564 6.2601C25.3973 7.19444 25.6776 8.50253 25.3973 9.67045H29.415C31.0501 9.67045 32.4516 10.6982 32.9655 12.2399L34.04 15.697L35.1145 12.1932C35.5817 10.6515 37.0299 9.62374 38.665 9.62374H43.4769C45.112 9.62374 46.5135 10.6515 47.0274 12.1932L48.0085 15.2765L48.8961 12.2399C49.3633 10.6515 50.8115 9.57702 52.4466 9.57702H57.3986C57.7256 9.57702 58.0059 9.62374 58.333 9.71717C57.7723 8.73611 57.4453 7.66162 57.4453 6.44697C57.4453 4.67172 58.0994 3.08333 59.4074 1.82197C60.6688 0.607323 62.2572 0 64.0792 0C65.9011 0 67.4895 0.65404 68.7509 1.82197C69.0779 2.14899 69.4049 2.52273 69.6385 2.89646C70.2925 2.38258 71.0867 2.05556 71.9744 2.05556H72.4883C76.6461 2.05556 80.0097 5.41919 80.0097 9.57702V21.5366C80.1966 19.5745 80.7105 17.7058 81.6448 16.024C82.8128 13.875 84.4479 12.1465 86.5501 10.9318C88.6524 9.71717 91.035 9.06313 93.6979 9.06313C97.5287 9.06313 100.565 10.3245 102.761 12.8005C104.863 15.1831 105.938 18.5 105.938 22.6111V24.0593C105.938 25.4609 105.144 26.6755 104.022 27.3295ZM23.5754 24.947C23.5754 23.1717 23.1549 21.7235 22.314 20.649C21.4731 19.5745 20.492 18.7803 19.3241 18.2197C18.1562 17.7058 16.6612 17.1919 14.8393 16.678C13.4845 16.2576 12.4567 15.9306 11.8026 15.697C11.1486 15.4167 10.588 15.0896 10.0741 14.6225C9.60694 14.1553 9.37335 13.5947 9.37335 12.8472C9.37335 11.9596 9.74709 11.2588 10.4478 10.7917C11.1486 10.3245 12.0829 10.0909 13.2042 10.0909C14.2787 10.0909 15.3531 10.3245 16.4276 10.8384C17.2218 11.2121 17.9226 11.6793 18.4365 12.2399C18.5766 12.3801 18.7635 12.4735 18.9971 12.4735C19.184 12.4735 19.4175 12.3801 19.5577 12.2399L22.3607 9.25C22.641 8.9697 22.641 8.50253 22.3607 8.22222C21.2862 7.05429 20.0249 6.11995 18.6234 5.46591C17.035 4.67172 15.3064 4.3447 13.5312 4.3447C11.7559 4.3447 10.0741 4.71843 8.53244 5.46591C6.99077 6.21338 5.72941 7.24116 4.74835 8.64268C3.81401 10.0442 3.34683 11.6326 3.34683 13.5013C3.34683 15.2765 3.76729 16.7247 4.56148 17.846C5.35567 18.9672 6.38345 19.8081 7.55138 20.3687C8.71931 20.9293 10.1208 21.4899 11.8026 21.9571C13.3443 22.3775 14.4188 22.7045 15.0728 22.9381C15.7269 23.1717 16.2875 23.452 16.7547 23.8725C17.2218 24.2929 17.5021 24.8535 17.5021 25.5076C17.5021 26.3018 17.1284 26.9558 16.4276 27.4697C15.7269 27.9369 14.7925 28.2172 13.718 28.2172C12.4567 28.2172 11.1486 27.8902 9.88724 27.2828C8.85946 26.8157 8.01855 26.1616 7.27108 25.3674C7.13093 25.1806 6.89734 25.0871 6.71047 25.0871C6.5236 25.0871 6.29002 25.1806 6.14986 25.3207L3.11325 28.4975C2.83295 28.7778 2.83295 29.245 3.11325 29.5253C4.32789 30.9268 5.82284 32.0013 7.45795 32.7487C9.32663 33.5896 11.2888 34.0101 13.2976 34.0101C15.1196 34.0101 16.8481 33.6364 18.3898 32.9356C19.9314 32.2348 21.1928 31.1604 22.1271 29.8056C23.1082 28.4975 23.5754 26.8157 23.5754 24.947ZM57.3986 12.5202H52.4466C52.1196 12.5202 51.7925 12.7538 51.6991 13.0808L48.4756 24.1995C48.4289 24.3864 48.2888 24.4798 48.1019 24.4798C47.9617 24.4798 47.7749 24.3864 47.7281 24.1995L44.2244 13.0808C44.1309 12.7538 43.8506 12.5669 43.4769 12.5669H38.665C38.338 12.5669 38.0577 12.8005 37.9175 13.0808L34.4138 24.2929C34.367 24.4798 34.1802 24.5732 34.04 24.5732C33.8999 24.5732 33.713 24.4798 33.6663 24.2929L30.1625 13.0808C30.0691 12.7538 29.7888 12.5669 29.415 12.5669H24.7433C24.2294 12.5669 23.8557 13.0808 24.0425 13.5947L31.0968 32.9823C31.1903 33.2626 31.4706 33.4962 31.7976 33.4962H36.189C36.516 33.4962 36.7963 33.3093 36.8898 32.9823L40.6739 21.7235C40.7206 21.5366 40.9074 21.4432 41.0476 21.4432C41.1877 21.4432 41.3746 21.5366 41.4213 21.7235L45.2054 32.9823C45.2989 33.3093 45.5792 33.4962 45.9062 33.4962H50.2976C50.6246 33.4962 50.9049 33.3093 50.9984 32.9823L58.1461 13.548C58.2862 13.0808 57.9592 12.5202 57.3986 12.5202ZM67.0223 13.3144C67.0223 12.8939 66.6953 12.5669 66.2749 12.5669H61.8835C61.463 12.5669 61.136 12.8939 61.136 13.3144V32.702C61.136 33.1225 61.463 33.4495 61.8835 33.4495H66.2749C66.6953 33.4495 67.0223 33.1225 67.0223 32.702V13.3144ZM67.7231 6.44697C67.7231 5.46591 67.3494 4.625 66.6486 3.97096C65.9478 3.31692 65.0602 2.94318 64.0324 2.94318C63.0047 2.94318 62.117 3.2702 61.4163 3.97096C60.7155 4.625 60.3418 5.46591 60.3418 6.44697C60.3418 7.42803 60.7155 8.26894 61.4163 8.92298C62.117 9.57702 63.0047 9.95076 64.0324 9.95076C65.0602 9.95076 65.9478 9.62374 66.6486 8.92298C67.3961 8.26894 67.7231 7.42803 67.7231 6.44697ZM82.6259 31.5341C82.2521 31.0669 81.9251 30.553 81.6448 29.9924C81.4112 29.6187 81.2244 29.1982 81.0842 28.7778C80.9441 28.4508 80.617 28.2639 80.2433 28.3573C79.963 28.4508 79.6827 28.4508 79.4958 28.4508C78.7951 28.4508 78.1878 28.2172 77.7673 27.75C77.3001 27.2828 77.0665 26.6288 77.0665 25.8346V9.57702C77.0665 7.05429 75.011 4.99874 72.4883 4.99874H71.9277C71.5072 4.99874 71.1802 5.32576 71.1802 5.74621V26.3952C71.1802 28.6843 71.8342 30.5063 73.0956 31.7677C74.4037 33.029 76.0388 33.6831 78.0009 33.6831C79.1688 33.6831 80.5703 33.4495 82.3456 32.6086C82.8128 32.375 82.9529 31.9078 82.6259 31.5341ZM102.901 22.6578C102.901 19.2475 102.2 16.6313 100.565 14.8093C98.9302 12.9874 96.641 12.053 93.6979 12.053C91.5489 12.053 89.6802 12.5202 88.0451 13.5013C86.41 14.4823 85.1486 15.7904 84.261 17.4255C83.3734 19.1073 82.9062 20.976 82.9062 23.0316C82.9062 25.0871 83.3266 26.9091 84.2143 28.5442C85.1019 30.1793 86.3633 31.4407 87.9516 32.3283C89.5867 33.2159 91.4554 33.6831 93.6044 33.6831C96.8279 33.6831 99.5842 32.6086 101.873 30.4129C102.154 30.1326 102.2 29.6654 101.92 29.3851L99.9112 26.9091C99.7711 26.7222 99.5375 26.6288 99.3039 26.6288C99.1171 26.6288 98.9302 26.6755 98.79 26.8157C98.2761 27.2828 97.6688 27.6566 97.0148 27.9836C96.1271 28.404 95.1461 28.5909 94.1183 28.5909C92.6701 28.5909 91.5021 28.2172 90.5678 27.5164C89.7736 26.9091 89.2597 26.1616 88.9794 25.3207C88.886 25.0871 89.0729 24.8535 89.3532 24.8535H102.154C102.574 24.8535 102.901 24.5265 102.901 24.1061V22.6578Z" fill="#E8E8E8" />
        <ellipse cx="30.6208" cy="6.22155" rx="50.4788" ry="27.2577" transform="rotate(10.7144 30.6208 6.22155)" fill="url(#paint0_radial)" />
        <ellipse cx="75.4405" cy="12.5072" rx="32.6243" ry="54.2403" transform="rotate(-41.3394 75.4405 12.5072)" fill="url(#paint1_radial)" />
        <ellipse cx="48.9961" cy="38.27" rx="51.3798" ry="32.9731" fill="url(#paint2_radial)" />
        <ellipse opacity="0.9" cx="103.499" cy="22.9084" rx="27.075" ry="47.4138" transform="rotate(14.7321 103.499 22.9084)" fill="url(#paint3_radial)" />
        <ellipse cx="10.8086" cy="41.7587" rx="40.2724" ry="59.405" transform="rotate(-33.8415 10.8086 41.7587)" fill="url(#paint4_radial)" />
    </g>
    <defs>
        <radialGradient id="paint0_radial" cx="0" cy="0" r="1" gradientUnits="userSpaceOnUse" gradientTransform="translate(30.6208 6.22155) rotate(90) scale(27.2577 50.4788)">
            <stop stop-color="#F44378" />
            <stop offset="1" stop-color="#F44378" stop-opacity="0" />
        </radialGradient>
        <radialGradient id="paint1_radial" cx="0" cy="0" r="1" gradientUnits="userSpaceOnUse" gradientTransform="translate(75.4405 12.5072) rotate(90) scale(54.2403 32.6243)">
            <stop stop-color="#EA5ACC" />
            <stop offset="1" stop-color="#EA5ACC" stop-opacity="0" />
        </radialGradient>
        <radialGradient id="paint2_radial" cx="0" cy="0" r="1" gradientUnits="userSpaceOnUse" gradientTransform="translate(48.9961 38.27) rotate(90) scale(32.9731 51.3798)">
            <stop stop-color="#FF9426" />
            <stop offset="1" stop-color="#FF9426" stop-opacity="0" />
        </radialGradient>
        <radialGradient id="paint3_radial" cx="0" cy="0" r="1" gradientUnits="userSpaceOnUse" gradientTransform="translate(103.499 22.9084) rotate(90) scale(47.4139 27.075)">
            <stop stop-color="#4FDFFF" />
            <stop offset="1" stop-color="#4FDFFF" stop-opacity="0" />
        </radialGradient>
        <radialGradient id="paint4_radial" cx="0" cy="0" r="1" gradientUnits="userSpaceOnUse" gradientTransform="translate(10.8086 41.7587) rotate(90) scale(59.405 40.2724)">
            <stop stop-color="#723ED8" />
            <stop offset="1" stop-color="#723ED8" stop-opacity="0" />
        </radialGradient>
    </defs>
</svg>
