<svg version="1.0" xmlns="http://www.w3.org/2000/svg" xmlns:xlink="http://www.w3.org/1999/xlink" viewBox="0 0 1200 400">
  <defs>

    <svg id="pizza" viewBox="0 0 100 100" enable-background="new 0 0 100 100" xml:space="preserve"><g><path fill="#000000" d="M45.804,40.346c1.125,0,2.265-0.294,3.299-0.912c3.056-1.825,4.057-5.796,2.231-8.851   c-1.825-3.056-5.796-4.057-8.851-2.231c-1.48,0.884-2.528,2.292-2.949,3.963s-0.167,3.408,0.718,4.888   C41.458,39.224,43.604,40.346,45.804,40.346z M43.508,30.069c0.714-0.426,1.5-0.629,2.277-0.629c1.518,0,2.999,0.774,3.832,2.169   c1.259,2.109,0.568,4.849-1.54,6.109c-2.108,1.26-4.849,0.569-6.109-1.54C40.709,34.069,41.399,31.329,43.508,30.069z"/><path fill="#000000" d="M51.217,49.476c0.645,1.079,1.67,1.842,2.888,2.149c0.384,0.097,0.772,0.145,1.158,0.145   c0.839,0,1.665-0.226,2.403-0.667c1.079-0.645,1.843-1.67,2.149-2.889c0.308-1.218,0.122-2.483-0.522-3.562   c-1.331-2.227-4.226-2.955-6.45-1.626C50.616,44.355,49.887,47.249,51.217,49.476z M53.868,44.743   c0.434-0.259,0.91-0.382,1.382-0.382c0.921,0,1.82,0.47,2.326,1.317c0.37,0.62,0.477,1.347,0.3,2.047   c-0.176,0.7-0.615,1.29-1.235,1.66s-1.347,0.477-2.047,0.301c-0.7-0.177-1.29-0.615-1.66-1.235   C52.169,47.17,52.589,45.507,53.868,44.743z"/><path fill="#000000" d="M40.75,61.736c0.015-0.006,0.031-0.003,0.045-0.01l3.126-1.498c0.147-0.07,0.26-0.178,0.353-0.3   c0.532-0.443,0.773-1.149,0.625-1.825c0.001-0.154-0.022-0.31-0.096-0.457l-0.98-1.936c-0.009-0.048-0.005-0.097-0.021-0.145   c0.006-0.004,0.009-0.011,0.015-0.015l0.383-0.23c0.011-0.007,0.017-0.019,0.028-0.026c0.977-0.538,1.377-1.751,0.889-2.764   c-0.001-0.003-0.001-0.005-0.002-0.008c-0.001-0.001-0.002-0.003-0.002-0.004c0-0.001-0.001-0.002-0.001-0.003   c-0.001-0.001-0.002-0.002-0.003-0.003c-0.047-0.096-0.1-0.187-0.162-0.275c-0.037-0.053-0.09-0.085-0.135-0.128   c-0.82-1.234-2.022-2.142-3.465-2.542c-1.588-0.44-3.254-0.236-4.688,0.576c-2.607,1.476-3.74,4.597-2.768,7.392   c0,0.149,0.023,0.299,0.093,0.441c0.367,0.747,1.121,1.183,1.903,1.183c0.297,0,0.597-0.067,0.883-0.199   c0.021-0.008,0.043-0.005,0.063-0.014l0.206-0.098c0.056-0.009,0.113-0.006,0.169-0.025c0.033,0.05,0.075,0.092,0.116,0.134   l0.926,1.927c0.075,0.155,0.189,0.276,0.32,0.371c0.357,0.415,0.873,0.655,1.41,0.655C40.239,61.909,40.501,61.849,40.75,61.736z    M37.644,51.883c1.995-1.129,4.537-0.428,5.675,1.561c0.001,0.043-0.014,0.085-0.055,0.105c-0.021,0.01-0.033,0.029-0.053,0.041   c-0.014,0.007-0.029,0.007-0.042,0.015l-0.443,0.267c-0.019,0.011-0.029,0.03-0.046,0.042c-0.694,0.414-1.034,1.22-0.865,1.99   c-0.001,0.155,0.022,0.311,0.096,0.458l0.98,1.937c0.009,0.048,0.005,0.097,0.021,0.144c-0.043,0.028-0.07,0.07-0.107,0.103   l-2.77,1.327c-0.028-0.042-0.069-0.07-0.102-0.106l-0.94-1.955c-0.071-0.146-0.178-0.258-0.298-0.351   c-0.44-0.528-1.14-0.769-1.813-0.627c-0.151-0.003-0.303,0.017-0.449,0.086l-0.453,0.215c-0.015,0.007-0.032,0.005-0.047,0.012   c-0.026,0.012-0.053,0.011-0.078,0.005c-0.003-0.008-0.002-0.017-0.005-0.025C35.034,55.179,35.805,52.924,37.644,51.883z"/><path fill="#000000" d="M81.727,40.666c-0.013-0.019-0.031-0.033-0.045-0.051c-8.873-14.658-23.4-25.442-40.052-29.772   c-0.041-0.016-0.079-0.038-0.122-0.051c-0.157-0.047-0.316-0.083-0.475-0.11c-0.147-0.037-0.291-0.083-0.439-0.118   c-0.407-0.099-0.815-0.021-1.144,0.184c-1.899,0.458-3.638,2.25-4.403,4.783c-0.791,2.622-0.272,5.162,1.164,6.568L22.769,76.502   c0,0.002-0.001,0.004-0.001,0.006l-0.001,0.005c-0.004,0.015-0.003,0.029-0.006,0.044c-0.017,0.081-0.031,0.162-0.035,0.245   c-0.002,0.043,0.004,0.085,0.005,0.127c0.002,0.055,0.002,0.11,0.01,0.165c0.007,0.048,0.022,0.093,0.034,0.14   c0.012,0.048,0.021,0.097,0.038,0.145c0.021,0.058,0.05,0.111,0.077,0.165c0.016,0.032,0.027,0.066,0.046,0.098   c0.001,0.001,0.002,0.002,0.003,0.004c0.061,0.101,0.136,0.191,0.219,0.275c0.025,0.026,0.052,0.048,0.078,0.071   c0.064,0.056,0.132,0.106,0.205,0.152c0.03,0.018,0.057,0.037,0.088,0.053c0.088,0.046,0.182,0.084,0.281,0.112   c0.015,0.004,0.029,0.012,0.044,0.016c0.003,0.001,0.006,0.003,0.009,0.003c0.121,0.03,0.242,0.044,0.361,0.044c0,0,0,0,0,0   c0,0,0,0,0,0c0.15,0,0.299-0.029,0.446-0.075c0.047-0.015,0.089-0.038,0.135-0.057c0.063-0.027,0.127-0.044,0.187-0.08l3.016-1.801   l-0.024,8.148c0,0.132,0.022,0.258,0.053,0.38c0.072,1.235,0.487,2.399,1.223,3.305c0.871,1.071,2.106,1.688,3.39,1.691   c0.004,0,0.008,0,0.012,0c2.563,0,4.654-2.396,4.663-5.348c0-0.113-0.014-0.223-0.038-0.329l0.012-4.178   c0.418,0.128,0.855,0.215,1.318,0.217c0.005,0,0.01,0,0.015,0c1.119,0,2.179-0.397,2.986-1.12c0.855-0.765,1.328-1.797,1.331-2.906   c0-0.08-0.011-0.156-0.023-0.232l0.025-8.553l30.199-18.039c0.569,0.23,1.205,0.357,1.889,0.357c0.039,0,0.078,0,0.117-0.001   c1.409-0.028,2.899-0.554,4.196-1.48C82.25,46.204,83.293,42.863,81.727,40.666z M38.63,77.245c-0.002,0-0.004,0-0.005,0   c-0.714-0.002-1.314-0.477-1.316-1.038l0.014-4.638c0.002-0.829-0.667-1.502-1.496-1.505c-0.001,0-0.003,0-0.004,0   c-0.826,0-1.498,0.669-1.5,1.495l-0.014,4.619c0,0.005-0.001,0.009-0.001,0.013c0,0.004,0.001,0.008,0.001,0.013l-0.025,8.32   c0,0.076,0.011,0.149,0.022,0.222c-0.086,1.178-0.801,2.136-1.646,2.136c-0.001,0-0.002,0-0.003,0   c-0.52-0.001-0.894-0.366-1.07-0.584c-0.371-0.456-0.583-1.106-0.581-1.782c0-0.08-0.011-0.156-0.023-0.232l0.031-10.165   c0-0.099-0.01-0.195-0.028-0.288c0.021-0.296-0.043-0.601-0.206-0.876c-0.425-0.71-1.346-0.941-2.057-0.519l-2.181,1.302   l12.444-50.355c13.28,3.484,24.83,12.084,31.96,23.834L40.668,65.302c-0.534,0.319-0.798,0.917-0.716,1.497l-0.028,9.41   c0,0.034,0.008,0.066,0.01,0.099c-0.034,0.264-0.184,0.461-0.318,0.581C39.36,77.119,39.01,77.245,38.63,77.245z M77.609,45.83   c-0.799,0.57-1.716,0.906-2.514,0.922c-0.257,0.007-0.802-0.036-1.137-0.34c-0.018-0.036-0.029-0.074-0.05-0.109   c-7.657-13.017-20.421-22.48-35.081-26.058c-0.051-0.022-0.1-0.048-0.155-0.065c-0.82-0.248-1.316-1.918-0.753-3.783   c0.542-1.794,1.795-2.885,2.621-2.743c16.168,4.108,30.274,14.581,38.783,28.844C79.722,43.234,79.111,44.758,77.609,45.83z"/></g><text x="0" y="115" fill="#000000" font-size="5px" font-weight="bold" font-family="'Helvetica Neue', Helvetica, Arial-Unicode, Arial, Sans-serif">Created by Kar2</text><text x="0" y="120" fill="#000000" font-size="5px" font-weight="bold" font-family="'Helvetica Neue', Helvetica, Arial-Unicode, Arial, Sans-serif">from the Noun Project</text></svg>

    <svg id="noodles" viewBox="0 0 100 100" enable-background="new 0 0 100 100" xml:space="preserve"><polygon fill="#000000" points="77.9,47.5 77.9,47.5 77.2,46.8 "/><path d="M88.9,49.6c0-0.2,0-0.3,0-0.3c0-1-0.8-1.9-1.9-1.9h-2c0.4-0.7,0.8-1.4,1.1-2.1c0.9-2.1,1.4-4.2,1.4-6.2  c0-1.3-0.2-2.6-0.7-3.7c-0.4-1.2-1.1-2.2-2.1-3.1C84,31.6,83,31,82,30.7c-1-0.4-2.1-0.5-3.2-0.5c-2.2,0-4.4,0.6-6.6,1.7  C70,33,67.9,34.5,66,36.6c-1,1.1-1.9,2.3-2.6,3.4c-3.1-2.1-7.5-4.2-13.6-6.3c-2.8-1-5.3-1.4-7.5-1.4c-1.8,0-3.3,0.3-4.7,0.8  c-0.1,0-0.3,0.1-0.4,0.2L20.4,16.4c-0.7-0.7-1.9-0.7-2.7,0c-0.7,0.7-0.7,1.9,0,2.7l16.1,16.1c-0.4,0.3-0.7,0.6-1,1L12,25.4  c-0.9-0.5-2.1-0.1-2.5,0.8c-0.5,0.9-0.1,2.1,0.8,2.5L30.2,39c-1.1,0.8-2.1,1.7-2.9,2.7c-1.4,1.8-2.3,3.9-2.9,5.7h-6.1  c-1,0-1.9,0.8-1.9,1.9c0,0,0,0.1,0,0.3c0,20,16.2,36.2,36.2,36.2C72.7,85.8,88.9,69.6,88.9,49.6z M52.7,82.1c-9,0-17.1-3.6-23-9.5  c-1.2-1.2-2.3-2.5-3.3-3.8h52.5c-1,1.4-2.1,2.6-3.3,3.8C69.8,78.5,61.6,82.1,52.7,82.1z M85.1,51.2c-0.1,2.4-0.5,4.7-1.1,7H21.3  c-0.6-2.2-1-4.6-1.1-7H85.1z M68.8,39.1c1.6-1.7,3.3-3,5.1-3.9c1.7-0.9,3.4-1.3,4.9-1.3c0.7,0,1.4,0.1,2,0.3  c0.6,0.2,1.1,0.5,1.5,0.9c0.5,0.5,0.9,1,1.1,1.7c0.3,0.7,0.4,1.5,0.4,2.4c0,1.4-0.4,3-1.1,4.7c-0.5,1.2-1.2,2.4-2.1,3.6h-1.5  c0.6-0.8,1.1-1.6,1.5-2.4c0.5-1.1,0.7-2.2,0.7-3.2c0-0.7-0.1-1.4-0.4-2.1c-0.3-0.7-0.7-1.3-1.2-1.8c-0.5-0.4-1-0.8-1.6-1  c-0.6-0.2-1.2-0.3-1.8-0.3c-1.2,0-2.4,0.3-3.5,0.9c-1.1,0.6-2.2,1.4-3.1,2.4c-0.9,0.9-1.5,2-2,3c-0.5,1.1-0.7,2.2-0.7,3.3  c0,0.4,0,0.9,0.1,1.3h-2.5c0.1-1.1,0.5-2.2,1-3.4C66.3,42.4,67.4,40.7,68.8,39.1z M43.8,47.5H33.1c1.2-0.7,2.7-1.1,4.7-1.1  C39.5,46.4,41.5,46.7,43.8,47.5z M33,41.7c1.3-0.7,2.8-1.1,4.8-1.1c1.7,0,3.8,0.3,6.3,1.2c5.7,1.9,9.7,3.9,12.4,5.7h-2.7  c-2.4-1.2-5.2-2.3-8.5-3.5c-2.8-1-5.3-1.4-7.5-1.4c-1.8,0-3.3,0.3-4.7,0.8c-1.4,0.5-2.7,1.2-3.7,2.1c0.2-0.3,0.4-0.7,0.6-1  C30.8,43.4,31.8,42.4,33,41.7z M61,46c-0.1-0.1-0.2-0.2-0.3-0.2c-3.2-2.4-8-5.1-15.4-7.6c-1.5-0.5-2.9-0.9-4.3-1.1l-0.9-0.9  c0.6-0.1,1.3-0.2,2.1-0.2c1.7,0,3.8,0.3,6.3,1.2c6.2,2.1,10.3,4.3,13.1,6.2C61.4,44.3,61.2,45.1,61,46z"/><text x="0" y="115" fill="#000000" font-size="5px" font-weight="bold" font-family="'Helvetica Neue', Helvetica, Arial-Unicode, Arial, Sans-serif">Created by Michael Norris</text><text x="0" y="120" fill="#000000" font-size="5px" font-weight="bold" font-family="'Helvetica Neue', Helvetica, Arial-Unicode, Arial, Sans-serif">from the Noun Project</text></svg>

    <svg id="burger" viewBox="0 0 100 100" enable-background="new 0 0 100 100" xml:space="preserve"><path fill="none" stroke="#000000" stroke-width="2.5" stroke-linecap="round" stroke-linejoin="round" stroke-miterlimit="10" d="  M76.426,35.067c-8.723-14.788-27.782-19.705-42.571-10.982c-4.531,2.673-8.309,6.451-10.982,10.982"/><path fill="none" stroke="#000000" stroke-width="2.5" stroke-linecap="round" stroke-linejoin="round" stroke-miterlimit="10" d="  M22.836,35.035c-0.997,1.894-0.269,4.236,1.624,5.233c0.556,0.293,1.176,0.446,1.804,0.446"/><path fill="none" stroke="#000000" stroke-width="2.5" stroke-linecap="round" stroke-linejoin="round" stroke-miterlimit="10" d="  M72.988,40.714c2.14,0,3.874-1.735,3.874-3.874c0-0.629-0.153-1.248-0.446-1.804"/><line fill="none" stroke="#000000" stroke-width="2.5" stroke-linecap="round" stroke-linejoin="round" stroke-miterlimit="10" x1="26.265" y1="40.76" x2="72.988" y2="40.76"/><line fill="none" stroke="#000000" stroke-width="2.5" stroke-linecap="round" stroke-linejoin="round" stroke-miterlimit="10" x1="72.435" y1="64.007" x2="58.505" y2="64.007"/><line fill="none" stroke="#000000" stroke-width="2.5" stroke-linecap="round" stroke-linejoin="round" stroke-miterlimit="10" x1="22.944" y1="64.975" x2="22.944" y2="69.173"/><path fill="none" stroke="#000000" stroke-width="2.5" stroke-linecap="round" stroke-linejoin="round" stroke-miterlimit="10" d="  M23.913,64.007c-0.535,0-0.969,0.434-0.969,0.969l0,0"/><path fill="none" stroke="#000000" stroke-width="2.5" stroke-linecap="round" stroke-linejoin="round" stroke-miterlimit="10" d="  M22.944,69.173c0,3.235,2.623,5.858,5.858,5.858l0,0"/><line fill="none" stroke="#000000" stroke-width="2.5" stroke-linecap="round" stroke-linejoin="round" stroke-miterlimit="10" x1="28.802" y1="75.03" x2="70.451" y2="75.03"/><line fill="none" stroke="#000000" stroke-width="2.5" stroke-linecap="round" stroke-linejoin="round" stroke-miterlimit="10" x1="76.355" y1="69.173" x2="76.355" y2="64.975"/><path fill="none" stroke="#000000" stroke-width="2.5" stroke-linecap="round" stroke-linejoin="round" stroke-miterlimit="10" d="  M70.451,75.03c3.235,0,5.858-2.623,5.858-5.858"/><line fill="none" stroke="#000000" stroke-width="2.5" stroke-linecap="round" stroke-linejoin="round" stroke-miterlimit="10" x1="49.65" y1="64.007" x2="53.801" y2="64.007"/><line fill="none" stroke="#000000" stroke-width="2.5" stroke-linecap="round" stroke-linejoin="round" stroke-miterlimit="10" x1="58.505" y1="64.007" x2="75.34" y2="64.007"/><path fill="none" stroke="#000000" stroke-width="2.5" stroke-linecap="round" stroke-linejoin="round" stroke-miterlimit="10" d="  M76.309,64.975c0-0.535-0.434-0.969-0.969-0.969c0,0,0,0,0,0"/><line fill="none" stroke="#000000" stroke-width="2.5" stroke-linecap="round" stroke-linejoin="round" stroke-miterlimit="10" x1="34.198" y1="64.007" x2="23.913" y2="64.007"/><polyline fill="none" stroke="#000000" stroke-width="2.5" stroke-linecap="round" stroke-linejoin="round" stroke-miterlimit="10" points="  53.985,46.756 54.262,46.849 54.539,46.895 54.815,46.987 55.046,47.079 55.323,47.172 55.6,47.264 56.153,47.494 56.706,47.725   57.26,47.956 57.813,48.232 58.367,48.463 58.92,48.694 59.474,48.878 59.751,48.97 60.027,49.063 60.35,49.155 60.627,49.201   60.904,49.293 61.181,49.339 61.457,49.386 61.734,49.432 62.011,49.432 62.334,49.478 62.61,49.478 62.887,49.432 63.164,49.432   63.394,49.386 63.671,49.339 63.948,49.247 64.225,49.201 64.501,49.109 64.732,49.017 65.009,48.878 65.286,48.786 65.516,48.648   66.07,48.417 66.577,48.094 67.084,47.817 67.592,47.541 68.145,47.218 68.422,47.079 68.653,46.941 68.929,46.803 69.206,46.71   69.483,46.618 69.76,46.526 69.99,46.434 70.267,46.341 70.544,46.295 70.82,46.295 71.097,46.295 71.374,46.295 71.651,46.341   71.881,46.387 72.158,46.434 72.435,46.526 72.988,46.71 73.542,46.895 74.095,47.079 74.372,47.172 74.649,47.264 74.925,47.31   75.248,47.356 75.525,47.356 75.802,47.402 76.078,47.402 76.355,47.402 76.632,47.356 76.955,47.31 77.232,47.264 77.508,47.218   77.785,47.125 78.062,47.033 78.339,46.895 78.615,46.803 78.892,46.618 79.169,46.48 79.399,46.295 79.63,46.111 79.861,45.926   79.953,45.834 80.045,45.696 80.137,45.603 80.183,45.465 80.276,45.373 80.368,45.234 80.414,45.096 80.46,45.004 80.552,44.865   80.599,44.727 80.599,44.589 80.645,44.45 80.691,44.312 80.691,44.127 80.691,43.989 80.737,43.851 80.737,43.712 80.691,43.574   80.691,43.251 80.645,42.974 80.552,42.651 80.46,42.375 80.368,42.098 80.23,41.821 80.137,41.683 80.045,41.544 79.953,41.452   79.861,41.314 79.768,41.222 79.676,41.083 79.584,40.991 79.492,40.899 79.261,40.714 79.03,40.53 78.754,40.391 78.523,40.253   78.246,40.161 77.97,40.069 77.693,39.976 77.416,39.884 77.093,39.838 76.816,39.792 76.54,39.746 76.217,39.7 75.94,39.7   75.663,39.7 "/><line fill="none" stroke="#000000" stroke-width="2.5" stroke-linecap="round" stroke-linejoin="round" stroke-miterlimit="10" x1="26.864" y1="51.092" x2="51.817" y2="51.092"/><line fill="none" stroke="#000000" stroke-width="2.5" stroke-linecap="round" stroke-linejoin="round" stroke-miterlimit="10" x1="65.055" y1="51.092" x2="72.435" y2="51.092"/><path fill="none" stroke="#000000" stroke-width="2.5" stroke-linecap="round" stroke-linejoin="round" stroke-miterlimit="10" d="  M77.047,59.118c2.216,0,4.013-1.797,4.013-4.013c0-2.216-1.797-4.013-4.013-4.013l0,0"/><line fill="none" stroke="#000000" stroke-width="2.5" stroke-linecap="round" stroke-linejoin="round" stroke-miterlimit="10" x1="77.047" y1="51.092" x2="65.055" y2="51.092"/><path fill="none" stroke="#000000" stroke-width="2.5" stroke-linecap="round" stroke-linejoin="round" stroke-miterlimit="10" d="  M65.055,51.092c-1.07,0-1.937,0.867-1.937,1.937v0"/><line fill="none" stroke="#000000" stroke-width="2.5" stroke-linecap="round" stroke-linejoin="round" stroke-miterlimit="10" x1="63.118" y1="53.029" x2="63.118" y2="56.535"/><line fill="none" stroke="#000000" stroke-width="2.5" stroke-linecap="round" stroke-linejoin="round" stroke-miterlimit="10" x1="53.801" y1="60.87" x2="53.801" y2="53.029"/><path fill="none" stroke="#000000" stroke-width="2.5" stroke-linecap="round" stroke-linejoin="round" stroke-miterlimit="10" d="  M53.755,53.032c0.001-1.07-0.865-1.938-1.935-1.94c-0.001,0-0.002,0-0.003,0"/><line fill="none" stroke="#000000" stroke-width="2.5" stroke-linecap="round" stroke-linejoin="round" stroke-miterlimit="10" x1="51.817" y1="51.092" x2="22.206" y2="51.092"/><path fill="none" stroke="#000000" stroke-width="2.5" stroke-linecap="round" stroke-linejoin="round" stroke-miterlimit="10" d="  M21.678,47.199c-0.8,1.056-0.593,2.56,0.462,3.36c0.417,0.316,0.926,0.487,1.449,0.487"/><path fill="none" stroke="#000000" stroke-width="2.5" stroke-linecap="round" stroke-linejoin="round" stroke-miterlimit="10" d="  M75.663,51.046c1.325,0,2.398-1.074,2.398-2.398c0-0.523-0.171-1.032-0.487-1.449"/><line fill="none" stroke="#000000" stroke-width="2.5" stroke-linecap="round" stroke-linejoin="round" stroke-miterlimit="10" x1="58.505" y1="60.87" x2="58.505" y2="53.906"/><path fill="none" stroke="#000000" stroke-width="2.5" stroke-linecap="round" stroke-linejoin="round" stroke-miterlimit="10" d="  M53.801,60.864c-0.004,1.299,1.047,2.355,2.346,2.359s2.355-1.047,2.359-2.346c0-0.002,0-0.004,0-0.007"/><path fill="none" stroke="#000000" stroke-width="2.5" stroke-linecap="round" stroke-linejoin="round" stroke-miterlimit="10" d="  M58.551,56.535c0,1.248,1.012,2.26,2.26,2.26c1.248,0,2.26-1.012,2.26-2.26"/><line fill="none" stroke="#000000" stroke-width="2.5" stroke-linecap="round" stroke-linejoin="round" stroke-miterlimit="10" x1="22.206" y1="59.118" x2="53.801" y2="59.118"/><line fill="none" stroke="#000000" stroke-width="2.5" stroke-linecap="round" stroke-linejoin="round" stroke-miterlimit="10" x1="58.505" y1="59.118" x2="77.047" y2="59.118"/><line fill="none" stroke="#000000" stroke-width="2.5" stroke-linecap="round" stroke-linejoin="round" stroke-miterlimit="10" x1="23.59" y1="64.007" x2="34.198" y2="64.007"/><path fill="none" stroke="#000000" stroke-width="2.5" stroke-linecap="round" stroke-linejoin="round" stroke-miterlimit="10" d="  M36.135,65.944c0-1.07-0.867-1.937-1.937-1.937c0,0,0,0,0,0"/><line fill="none" stroke="#000000" stroke-width="2.5" stroke-linecap="round" stroke-linejoin="round" stroke-miterlimit="10" x1="36.181" y1="65.944" x2="36.181" y2="67.005"/><line fill="none" stroke="#000000" stroke-width="2.5" stroke-linecap="round" stroke-linejoin="round" stroke-miterlimit="10" x1="45.498" y1="71.479" x2="45.498" y2="65.944"/><path fill="none" stroke="#000000" stroke-width="2.5" stroke-linecap="round" stroke-linejoin="round" stroke-miterlimit="10" d="  M47.436,64.007c-1.07,0-1.937,0.867-1.937,1.937c0,0.001,0,0.002,0,0.003"/><line fill="none" stroke="#000000" stroke-width="2.5" stroke-linecap="round" stroke-linejoin="round" stroke-miterlimit="10" x1="47.436" y1="64.007" x2="75.663" y2="64.007"/><line fill="none" stroke="#000000" stroke-width="2.5" stroke-linecap="round" stroke-linejoin="round" stroke-miterlimit="10" x1="40.748" y1="71.34" x2="40.748" y2="66.82"/><path fill="none" stroke="#000000" stroke-width="2.5" stroke-linecap="round" stroke-linejoin="round" stroke-miterlimit="10" d="  M40.794,71.34c0,1.299,1.053,2.352,2.352,2.352c1.299,0,2.352-1.053,2.352-2.352c0-0.002,0-0.004,0-0.007"/><path fill="none" stroke="#000000" stroke-width="2.5" stroke-linecap="round" stroke-linejoin="round" stroke-miterlimit="10" d="  M36.228,67.005c0,1.248,1.012,2.26,2.26,2.26c1.248,0,2.26-1.012,2.26-2.26"/><path fill="none" stroke="#000000" stroke-width="2.5" stroke-linecap="round" stroke-linejoin="round" stroke-miterlimit="10" d="  M23.59,59.164c-1.325,0-2.398,1.074-2.398,2.398c0,1.325,1.074,2.398,2.398,2.398l0,0"/><path fill="none" stroke="#000000" stroke-width="2.5" stroke-linecap="round" stroke-linejoin="round" stroke-miterlimit="10" d="  M75.663,63.961c1.325,0,2.398-1.074,2.398-2.398c0-1.325-1.074-2.398-2.398-2.398l0,0"/><path fill="none" stroke="#000000" stroke-width="2.5" stroke-linecap="round" stroke-linejoin="round" stroke-miterlimit="10" d="  M22.206,51.092c-2.216,0-4.013,1.797-4.013,4.013c0,2.216,1.797,4.013,4.013,4.013l0,0"/><polyline fill="none" stroke="#000000" stroke-width="2.5" stroke-linecap="round" stroke-linejoin="round" stroke-miterlimit="10" points="  45.268,46.756 44.991,46.849 44.76,46.895 44.484,46.987 44.207,47.079 43.93,47.172 43.653,47.264 43.1,47.494 42.593,47.725   42.039,47.956 41.486,48.232 40.932,48.463 40.333,48.694 39.779,48.878 39.502,48.97 39.226,49.063 38.949,49.155 38.672,49.201   38.349,49.293 38.073,49.339 37.796,49.386 37.519,49.432 37.242,49.432 36.966,49.478 36.689,49.478 36.412,49.432 36.135,49.432   35.859,49.386 35.582,49.339 35.305,49.247 35.028,49.201 34.798,49.109 34.521,49.017 34.244,48.878 34.014,48.786 33.737,48.648   33.23,48.417 32.722,48.094 32.169,47.817 31.661,47.541 31.154,47.218 30.877,47.079 30.6,46.941 30.324,46.803 30.047,46.71   29.816,46.618 29.54,46.526 29.263,46.434 28.986,46.341 28.709,46.295 28.433,46.295 28.202,46.295 27.925,46.295 27.649,46.341   27.372,46.387 27.095,46.434 26.818,46.526 26.265,46.71 25.711,46.895 25.158,47.079 24.881,47.172 24.604,47.264 24.328,47.31   24.051,47.356 23.774,47.356 23.451,47.402 23.175,47.402 22.898,47.402 22.621,47.356 22.344,47.31 22.021,47.264 21.745,47.218   21.468,47.125 21.191,47.033 20.914,46.895 20.638,46.803 20.361,46.618 20.13,46.48 19.854,46.295 19.623,46.111 19.439,45.926   19.346,45.834 19.254,45.696 19.162,45.603 19.07,45.465 18.977,45.373 18.931,45.234 18.839,45.096 18.793,45.004 18.747,44.865   18.701,44.727 18.654,44.589 18.608,44.45 18.608,44.312 18.562,44.127 18.562,43.989 18.562,43.851 18.562,43.712 18.562,43.574   18.608,43.251 18.654,42.974 18.701,42.651 18.793,42.375 18.931,42.098 19.07,41.821 19.116,41.683 19.208,41.544 19.3,41.452   19.392,41.314 19.485,41.222 19.577,41.083 19.669,40.991 19.808,40.899 19.992,40.714 20.223,40.53 20.499,40.391 20.776,40.253   21.007,40.161 21.283,40.069 21.56,39.976 21.883,39.884 22.16,39.838 22.437,39.792 22.759,39.746 23.036,39.7 23.313,39.7   23.59,39.7 "/><polyline fill="none" stroke="#000000" stroke-width="2.5" stroke-linecap="round" stroke-linejoin="round" stroke-miterlimit="10" points="  45.268,46.756 45.545,46.664 45.683,46.664 45.821,46.618 45.96,46.572 46.098,46.526 46.19,46.48 46.329,46.434 46.467,46.387   46.605,46.341 46.698,46.341 46.744,46.295 46.79,46.295 46.882,46.295 46.928,46.249 47.021,46.249 47.067,46.203 47.159,46.203   47.205,46.203 47.297,46.157 47.343,46.157 47.436,46.157 47.482,46.157 47.574,46.111 47.62,46.111 47.712,46.111 47.758,46.111   47.805,46.065 47.897,46.065 47.943,46.065 48.035,46.065 48.081,46.065 48.174,46.018 48.22,46.018 48.312,46.018 48.358,46.018   48.496,46.018 48.635,46.018 48.819,45.972 48.958,45.972 49.096,45.972 49.234,45.972 49.373,45.972 49.65,45.926 "/><polyline fill="none" stroke="#000000" stroke-width="2.5" stroke-linecap="round" stroke-linejoin="round" stroke-miterlimit="10" points="  53.985,46.756 53.708,46.664 53.57,46.664 53.478,46.618 53.386,46.572 53.339,46.572 53.247,46.526 53.201,46.526 53.109,46.48   53.063,46.48 53.017,46.434 52.924,46.434 52.878,46.387 52.786,46.387 52.74,46.387 52.648,46.341 52.601,46.341 52.509,46.295   52.463,46.295 52.371,46.295 52.325,46.249 52.279,46.249 52.186,46.203 52.14,46.203 52.048,46.203 52.002,46.157 51.91,46.157   51.864,46.157 51.817,46.157 51.771,46.157 51.771,46.111 51.725,46.111 51.633,46.111 51.587,46.111 51.495,46.111 51.448,46.065   51.356,46.065 51.31,46.065 51.218,46.065 51.172,46.065 51.079,46.018 51.033,46.018 50.941,46.018 50.895,46.018 50.803,46.018   50.757,46.018 50.664,46.018 50.618,46.018 50.526,45.972 50.48,45.972 50.388,45.972 50.341,45.972 50.249,45.972 50.203,45.972   50.065,45.972 49.926,45.972 49.788,45.972 49.65,45.926 "/><text x="0" y="115" fill="#000000" font-size="5px" font-weight="bold" font-family="'Helvetica Neue', Helvetica, Arial-Unicode, Arial, Sans-serif">Created by Kar2</text><text x="0" y="120" fill="#000000" font-size="5px" font-weight="bold" font-family="'Helvetica Neue', Helvetica, Arial-Unicode, Arial, Sans-serif">from the Noun Project</text></svg>

    <svg id="bike" viewBox="0 0 100 100" enable-background="new 0 0 100 100" xml:space="preserve"><g><path fill="none" d="M31.913,44.218l0.398,0.32c4.135,3.322,6.721,8.249,7.095,13.516l0.039,0.543l3.929,0.079   c0.199-0.62,0.504-1.19,0.889-1.699l-9.525-17.673L31.913,44.218z"/><path fill="none" d="M18.704,61.266l-0.036-0.059c-0.038-0.055-0.072-0.134-0.111-0.227l-0.035-0.078   c-0.237-0.536-0.194-1.135,0.12-1.687l7.679-13.359l-0.649-0.251c-1.69-0.653-3.471-0.985-5.291-0.985   c-8.155,0-14.792,6.637-14.792,14.795c0,8.152,6.637,14.788,14.792,14.788c6.658,0,12.525-4.494,14.27-10.929l0.201-0.736   l-14.468-0.288C19.636,62.234,19.04,61.885,18.704,61.266z"/><path fill="none" d="M30.311,48.457l-0.55-0.499l-5.936,10.329l11.32,0.228l-0.072-0.675C34.686,54.23,32.996,50.898,30.311,48.457   z"/><path fill="none" d="M79.621,44.285c-1.879,0-3.721,0.357-5.48,1.065l-0.633,0.254l7.854,13.885   c0.363,0.643,0.371,1.324,0.023,1.922c-0.389,0.669-1.135,1.1-1.898,1.1c-0.674,0-1.246-0.349-1.605-0.984l-7.783-13.769   l-0.557,0.517c-2.994,2.793-4.713,6.731-4.713,10.806c0,8.157,6.637,14.793,14.793,14.793s14.793-6.636,14.793-14.794   S87.777,44.285,79.621,44.285z"/><path fill="none" d="M47.67,54.811c0.19-0.04,0.384-0.07,0.581-0.091v-3.755h-1.177c-0.472,0-0.854-0.383-0.854-0.855   c0-0.472,0.383-0.854,0.854-0.854h3.541c0.473,0,0.855,0.383,0.855,0.854c0,0.473-0.383,0.855-0.855,0.855h-1.176v3.755   c0.188,0.02,0.372,0.048,0.554,0.085l11.166-16.874H38.571L47.67,54.811z"/><path d="M79.621,39.981c-2.666,0-5.268,0.56-7.732,1.662l-0.496,0.221L65.25,31.007c1.279-0.502,2.389-1.332,3.08-2.638   c0.248-0.467,0.377-0.951,0.416-1.436c0.137-1.697-0.885-3.393-2.314-4.299c-0.832-0.528-1.871-0.814-2.998-0.958   c-2.477-0.317-5.355-0.128-7.426-0.128c-1.523,0-1.855,2.046-0.967,2.827c0.234,0.206,0.547,0.34,0.949,0.34   c1.859,0,3.719,0,5.578,0c1.135,0,2.307,0.004,3.355,0.498c0.803,0.378,0.994,1.336,0.6,2.078   c-0.602,1.135-2.508,1.333-3.594,1.381c-0.928,0.041-1.402,0.758-1.436,1.479c0,0-0.018,0.539,0.312,1.186   c0.016,0.03,0.018,0.032,0.014,0.024l1.438,2.54H36.4l-1.749-3.247c3.721-0.44,7.746-1.221,7.746-2.474   c0-1.367-1.108-2.474-2.475-2.474l-12.104-0.649c-1.367,0-2.627,1.756-2.627,3.123c0,1.367,1.395,2.946,3.417,2.946   c0.246,0,0.854-0.025,1.682-0.077l2.108,3.912l-0.087,0.248c-0.033,0.098-0.06,0.196-0.077,0.295l-0.019,0.1l-3.751,6.522   l-0.49-0.213c-2.426-1.061-4.98-1.598-7.594-1.598c-10.529,0-19.096,8.566-19.096,19.098c0,10.528,8.566,19.095,19.096,19.095   c9.088,0,16.959-6.474,18.715-15.393l0.097-0.492l4.371,0.088c0.807,1.872,2.578,3.231,4.688,3.448v3.071h-1.177   c-0.472,0-0.854,0.383-0.854,0.854s0.383,0.854,0.854,0.854h3.541c0.473,0,0.855-0.383,0.855-0.854s-0.383-0.854-0.855-0.854   h-1.176v-3.071c2.897-0.298,5.157-2.745,5.157-5.72c0-1.317-0.447-2.527-1.193-3.497l11.801-17.836l2.756,4.874l-0.389,0.319   c-4.479,3.653-7.045,9.042-7.045,14.78c0,10.528,8.564,19.096,19.094,19.096c10.531,0,19.096-8.565,19.096-19.096   C98.717,48.548,90.15,39.981,79.621,39.981z M34.65,63.275c-1.745,6.435-7.612,10.929-14.27,10.929   c-8.155,0-14.792-6.636-14.792-14.788c0-8.158,6.637-14.795,14.792-14.795c1.82,0,3.601,0.332,5.291,0.985l0.649,0.251   l-7.679,13.359c-0.314,0.552-0.357,1.15-0.12,1.687l0.035,0.078c0.039,0.093,0.073,0.172,0.111,0.227l0.036,0.059   c0.336,0.619,0.933,0.969,1.68,0.985l14.468,0.288L34.65,63.275z M23.825,58.286l5.936-10.329l0.55,0.499   c2.685,2.442,4.375,5.774,4.762,9.382l0.072,0.675L23.825,58.286z M43.373,58.677l-3.929-0.079l-0.039-0.543   c-0.374-5.268-2.96-10.194-7.095-13.516l-0.398-0.32l2.824-4.914l9.525,17.673C43.877,57.486,43.572,58.057,43.373,58.677z    M49.993,54.805c-0.182-0.037-0.366-0.065-0.554-0.085v-3.755h1.176c0.473,0,0.855-0.383,0.855-0.855   c0-0.472-0.383-0.854-0.855-0.854h-3.541c-0.472,0-0.854,0.383-0.854,0.854c0,0.473,0.383,0.855,0.854,0.855h1.177v3.755   c-0.197,0.021-0.391,0.051-0.581,0.091l-9.099-16.88h22.587L49.993,54.805z M79.621,73.872c-8.156,0-14.793-6.636-14.793-14.793   c0-4.074,1.719-8.013,4.713-10.806l0.557-0.517l7.783,13.769c0.359,0.636,0.932,0.984,1.605,0.984c0.764,0,1.51-0.431,1.898-1.1   c0.348-0.598,0.34-1.279-0.023-1.922l-7.854-13.885l0.633-0.254c1.76-0.708,3.602-1.065,5.48-1.065   c8.156,0,14.793,6.635,14.793,14.793S87.777,73.872,79.621,73.872z"/></g><text x="0" y="115" fill="#000000" font-size="5px" font-weight="bold" font-family="'Helvetica Neue', Helvetica, Arial-Unicode, Arial, Sans-serif">Created by Dávid Gladiš</text><text x="0" y="120" fill="#000000" font-size="5px" font-weight="bold" font-family="'Helvetica Neue', Helvetica, Arial-Unicode, Arial, Sans-serif">from the Noun Project</text></svg>

    <pattern id="pattern" width="320" height="80" patternUnits="userSpaceOnUse">
      <use xlink:href="#pizza" width="80" height="80" />
      <use xlink:href="#bike" width="80" height="80" x="80"  />
      <use xlink:href="#noodles" width="80" height="80" x="160"  />
      <use xlink:href="#burger" width="80" height="80" x="240"  />
    </pattern>

    <pattern id="pattern-diagonal" width="320" height="320" patternUnits="userSpaceOnUse" patternTransform="rotate(-22.5)">
      <rect x="0" y="0" width="1200" height="80" fill="url(#pattern)" />
      <rect x="0" y="80" width="1200" height="80" fill="url(#pattern)" transform="translate(-80, 0)" />
      <rect x="0" y="160" width="1200" height="80" fill="url(#pattern)" transform="translate(-240, 0)" />
      <rect x="0" y="240" width="1200" height="80" fill="url(#pattern)" transform="translate(-160, 0)" />
    </pattern>

    <pattern id="pattern-transformed" xlink:href="#pattern" patternTransform="rotate(-22.5)"></pattern>

    <mask id="mask-color">
      <rect x="0" y="0" width="1200" height="400" fill="#333" />
    </mask>

  </defs>

  <rect x="0" y="0" width="1200" height="400" fill="#34495E" />
  <rect x="0" y="0" width="1200" height="400" fill="url(#pattern-diagonal)" mask="url(#mask-color)" />

</svg>